<svg width="390" height="113" viewBox="0 0 390 113" fill="none" xmlns="http://www.w3.org/2000/svg">
<g clip-path="url(#clip0_142_4)">
<path d="M84.7077 40.8742C78.6108 -15.1155 7.878 -5.78385 1.6859 22.5026C-1.31489 36.257 1.35248 44.6166 4.54379 49.4768C6.92537 53.9482 11.5456 57.0101 16.8804 57.0101C24.6919 57.0101 30.9793 50.5461 30.9793 42.5753C30.9793 34.6046 24.6443 28.1891 16.8804 28.1891C10.0214 28.1891 4.30563 33.1465 3.01958 39.805C-1.26726 21.9194 11.0693 8.7968 30.3125 6.65831C49.7461 4.51981 68.1319 24.6897 59.6058 67.9456C51.699 108.383 1.35248 112.951 1.35248 112.951C44.7924 113.291 91.0427 99.2454 84.7077 40.8742Z" fill="black"/>
<path d="M109.428 19.635C109.428 23.2315 106.57 26.0991 103.093 26.0991C99.6159 26.0991 96.7581 23.1829 96.7581 19.635C96.7581 16.087 99.6159 13.1709 103.093 13.1709C106.57 13.1709 109.428 16.087 109.428 19.635Z" fill="black"/>
<path d="M109.428 56.0378C109.428 59.6344 106.57 62.5019 103.093 62.5019C99.6159 62.5019 96.7581 59.5858 96.7581 56.0378C96.7581 52.4899 99.6159 49.5737 103.093 49.5737C106.57 49.5737 109.428 52.4899 109.428 56.0378Z" fill="black"/>
</g>
<g clip-path="url(#clip1_142_4)">
<path d="M304.892 40.8742C310.989 -15.1155 381.722 -5.78385 387.914 22.5026C390.915 36.257 388.247 44.6166 385.056 49.4768C382.674 53.9482 378.054 57.0101 372.719 57.0101C364.908 57.0101 358.621 50.5461 358.621 42.5753C358.621 34.6046 364.956 28.1891 372.719 28.1891C379.578 28.1891 385.294 33.1465 386.58 39.805C390.867 21.9194 378.531 8.7968 359.287 6.65831C339.854 4.51981 321.468 24.6897 329.994 67.9456C337.901 108.383 388.247 112.951 388.247 112.951C344.807 113.291 298.557 99.2454 304.892 40.8742Z" fill="black"/>
<path d="M280.172 19.635C280.172 23.2315 283.03 26.0991 286.507 26.0991C289.984 26.0991 292.842 23.1829 292.842 19.635C292.842 16.087 289.984 13.1709 286.507 13.1709C283.03 13.1709 280.172 16.087 280.172 19.635Z" fill="black"/>
<path d="M280.172 56.0378C280.172 59.6344 283.03 62.5019 286.507 62.5019C289.984 62.5019 292.842 59.5858 292.842 56.0378C292.842 52.4899 289.984 49.5737 286.507 49.5737C283.03 49.5737 280.172 52.4899 280.172 56.0378Z" fill="black"/>
</g>
<defs>
<clipPath id="clip0_142_4">
<rect width="109.029" height="113" fill="white" transform="translate(0.399902)"/>
</clipPath>
<clipPath id="clip1_142_4">
<rect width="109.029" height="113" fill="white" transform="matrix(-1 0 0 1 389.2 0)"/>
</clipPath>
</defs>
</svg>
