<svg width="1116" height="196" viewBox="0 0 1116 196" fill="none" xmlns="http://www.w3.org/2000/svg">
<g clip-path="url(#clip0_119_5)">
<path d="M1116 80.0403L1115.96 80.0808V79.9795L1058.05 98.9786V111.435V122.434V128.571V171.917C1053.81 168.676 1046.16 168.716 1039.05 172.484C1030.4 177.041 1025.87 185.366 1028.94 191.058C1032.01 196.749 1041.51 197.661 1050.17 193.083C1056.86 189.559 1061.08 183.786 1061.22 178.722H1061.24V127.518L1112.79 110.625V153.91C1108.57 150.669 1100.89 150.71 1093.79 154.477C1085.13 159.034 1080.61 167.359 1083.66 173.051C1086.73 178.743 1096.23 179.654 1104.89 175.076C1111.58 171.552 1115.78 165.779 1115.94 160.716H1115.96V80.0403H1116ZM1061.26 121.401V110.402L1112.81 93.4895V104.488L1061.26 121.381V121.401Z" fill="black"/>
</g>
<g clip-path="url(#clip1_119_5)">
<path d="M536.059 117.535C532.766 115.765 530.935 114.05 529.883 112.671C528.987 111.59 528.305 110.379 527.955 109H526.708V164.812C523.416 162.352 517.416 162.39 511.864 165.222C505.104 168.67 501.559 174.95 503.955 179.254C506.351 183.559 513.773 184.249 520.552 180.801C525.773 178.136 529.065 173.776 529.182 169.955V118.131C532.123 121.709 539.331 123.629 541.825 127.635C544.435 131.828 542.779 138.145 542.779 138.145C548.37 125.138 542.273 120.889 536.039 117.535H536.059Z" fill="black"/>
<path d="M537.851 172.322H494V174.968H537.851V172.322Z" fill="black"/>
</g>
<g clip-path="url(#clip2_119_5)">
<path d="M154.149 82.379C149.05 79.6039 146.213 76.9164 144.584 74.7547C143.196 73.0604 142.139 71.1617 141.596 69H139.665V156.489C134.565 152.633 125.271 152.692 116.671 157.132C106.2 162.536 100.708 172.381 104.42 179.128C108.131 185.876 119.628 186.957 130.129 181.553C138.217 177.376 143.316 170.54 143.497 164.552V83.3138C148.054 88.9224 159.219 91.9312 163.081 98.2118C167.125 104.784 164.56 114.687 164.56 114.687C173.22 94.2974 163.775 87.6371 154.119 82.379H154.149Z" fill="black"/>
<path d="M156.926 168.262H89V172.41H156.926V168.262Z" fill="black"/>
</g>
<g clip-path="url(#clip3_119_5)">
<path d="M928.11 7.84286C925.206 6.21607 923.59 4.64064 922.662 3.37346C921.871 2.38026 921.269 1.26719 920.96 0H919.86V51.2868C916.955 49.0264 911.661 49.0607 906.762 51.6636C900.798 54.8315 897.669 60.6024 899.784 64.558C901.898 68.5137 908.447 69.1473 914.428 65.9793C919.035 63.5306 921.94 59.5235 922.043 56.0131V8.39083C924.638 11.6787 930.998 13.4425 933.198 17.1241C935.502 20.9771 934.041 26.7822 934.041 26.7822C938.974 14.8295 933.594 10.9252 928.093 7.84286H928.11Z" fill="black"/>
<path d="M929.692 58.1877H891V60.6194H929.692V58.1877Z" fill="black"/>
</g>
<g clip-path="url(#clip4_119_5)">
<path d="M928.11 31.8429C925.206 30.2161 923.59 28.6406 922.662 27.3735C921.871 26.3803 921.269 25.2672 920.96 24H919.86V75.2868C916.955 73.0264 911.661 73.0607 906.762 75.6636C900.798 78.8315 897.669 84.6024 899.784 88.558C901.898 92.5137 908.447 93.1473 914.428 89.9793C919.035 87.5306 921.94 83.5235 922.043 80.0131V32.3908C924.638 35.6787 930.998 37.4425 933.198 41.1241C935.502 44.9771 934.041 50.7822 934.041 50.7822C938.974 38.8295 933.594 34.9252 928.093 31.8429H928.11Z" fill="black"/>
<path d="M929.692 82.1877H891V84.6194H929.692V82.1877Z" fill="black"/>
</g>
<g clip-path="url(#clip5_119_5)">
<path d="M928.11 53.8429C925.206 52.2161 923.59 50.6406 922.662 49.3735C921.871 48.3803 921.269 47.2672 920.96 46H919.86V97.2868C916.955 95.0264 911.661 95.0607 906.762 97.6636C900.798 100.832 897.669 106.602 899.784 110.558C901.898 114.514 908.447 115.147 914.428 111.979C919.035 109.531 921.94 105.524 922.043 102.013V54.3908C924.638 57.6787 930.998 59.4425 933.198 63.1241C935.502 66.9771 934.041 72.7822 934.041 72.7822C938.974 60.8295 933.594 56.9252 928.093 53.8429H928.11Z" fill="black"/>
<path d="M929.692 104.188H891V106.619H929.692V104.188Z" fill="black"/>
</g>
<g clip-path="url(#clip6_119_5)">
<path d="M280.007 105.917C283.139 110.978 278.504 118.362 269.667 122.415C260.829 126.468 251.1 125.657 247.968 120.596C244.835 115.535 249.47 108.152 258.308 104.099C267.145 100.046 276.849 100.856 279.981 105.917H280.007Z" fill="black"/>
<path d="M280.975 38H277.715V109.664H280.975V38Z" fill="black"/>
</g>
<g clip-path="url(#clip7_119_5)">
<path d="M280.007 144.917C283.139 149.978 278.504 157.362 269.667 161.415C260.829 165.468 251.1 164.657 247.968 159.596C244.835 154.535 249.47 147.152 258.308 143.099C267.145 139.046 276.849 139.856 279.981 144.917H280.007Z" fill="black"/>
<path d="M280.975 77H277.715V148.664H280.975V77Z" fill="black"/>
</g>
<g clip-path="url(#clip8_119_5)">
<path d="M766.007 135.917C769.139 140.978 764.504 148.362 755.667 152.415C746.829 156.468 737.1 155.657 733.968 150.596C730.835 145.535 735.47 138.152 744.308 134.099C753.145 130.046 762.849 130.856 765.981 135.917H766.007Z" fill="black"/>
<path d="M766.975 68H763.715V139.664H766.975V68Z" fill="black"/>
</g>
<g clip-path="url(#clip9_119_5)">
<path d="M25.1984 81.1729C22.7353 76.2847 15.2676 75.6016 8.54277 79.6574C1.79841 83.7131 -1.66174 90.9494 0.80142 95.8377C3.26458 100.726 10.7322 101.409 17.4571 97.3532C24.2014 93.2975 27.6811 86.0612 25.1984 81.1729ZM16.0691 94.5142C10.8495 97.6521 4.10518 99.4025 2.18939 95.6242C0.273601 91.846 5.16082 86.3387 10.3999 83.1795C15.6195 80.0416 21.5819 78.9529 23.4977 82.7312C25.4135 86.5094 21.3082 91.355 16.0886 94.4929L16.0691 94.5142Z" fill="black"/>
<path d="M22.6571 15.0426L23.4586 81.2794C23.4586 81.2794 23.5173 81.2794 23.5368 81.2794C24.612 81.7704 25.0421 83.2646 25.0812 84.8015H26L25.1594 14.9999L22.6571 15.0426Z" fill="black"/>
</g>
<g clip-path="url(#clip10_119_5)">
<path d="M25.1984 121.173C22.7353 116.285 15.2676 115.602 8.54277 119.657C1.79841 123.713 -1.66174 130.949 0.80142 135.838C3.26458 140.726 10.7322 141.409 17.4571 137.353C24.2014 133.297 27.6811 126.061 25.1984 121.173ZM16.0691 134.514C10.8495 137.652 4.10518 139.402 2.18939 135.624C0.273601 131.846 5.16082 126.339 10.3999 123.179C15.6195 120.042 21.5819 118.953 23.4977 122.731C25.4135 126.509 21.3082 131.355 16.0886 134.493L16.0691 134.514Z" fill="black"/>
<path d="M22.6571 55.0426L23.4586 121.279C23.4586 121.279 23.5173 121.279 23.5368 121.279C24.612 121.77 25.0421 123.265 25.0812 124.802H26L25.1594 54.9999L22.6571 55.0426Z" fill="black"/>
</g>
<g clip-path="url(#clip11_119_5)">
<path d="M416.198 119.173C413.735 114.285 406.268 113.602 399.543 117.657C392.798 121.713 389.338 128.949 391.801 133.838C394.265 138.726 401.732 139.409 408.457 135.353C415.201 131.297 418.681 124.061 416.198 119.173ZM407.069 132.514C401.85 135.652 395.105 137.402 393.189 133.624C391.274 129.846 396.161 124.339 401.4 121.179C406.619 118.042 412.582 116.953 414.498 120.731C416.413 124.509 412.308 129.355 407.089 132.493L407.069 132.514Z" fill="black"/>
<path d="M413.657 53.0426L414.459 119.279C414.459 119.279 414.517 119.279 414.537 119.279C415.612 119.77 416.042 121.265 416.081 122.802H417L416.159 52.9999L413.657 53.0426Z" fill="black"/>
</g>
<g clip-path="url(#clip12_119_5)">
<path d="M651.198 69.1729C648.735 64.2847 641.268 63.6016 634.543 67.6574C627.798 71.7131 624.338 78.9494 626.801 83.8377C629.265 88.7259 636.732 89.409 643.457 85.3532C650.201 81.2975 653.681 74.0612 651.198 69.1729ZM642.069 82.5142C636.85 85.6521 630.105 87.4025 628.189 83.6242C626.274 79.846 631.161 74.3387 636.4 71.1795C641.619 68.0416 647.582 66.9529 649.498 70.7312C651.413 74.5094 647.308 79.355 642.089 82.4929L642.069 82.5142Z" fill="black"/>
<path d="M648.657 3.04259L649.459 69.2794C649.459 69.2794 649.517 69.2794 649.537 69.2794C650.612 69.7704 651.042 71.2646 651.081 72.8015H652L651.159 2.9999L648.657 3.04259Z" fill="black"/>
</g>
<g clip-path="url(#clip13_119_5)">
<path d="M651.198 104.173C648.735 99.2847 641.268 98.6016 634.543 102.657C627.798 106.713 624.338 113.949 626.801 118.838C629.265 123.726 636.732 124.409 643.457 120.353C650.201 116.297 653.681 109.061 651.198 104.173ZM642.069 117.514C636.85 120.652 630.105 122.402 628.189 118.624C626.274 114.846 631.161 109.339 636.4 106.179C641.619 103.042 647.582 101.953 649.498 105.731C651.413 109.509 647.308 114.355 642.089 117.493L642.069 117.514Z" fill="black"/>
<path d="M648.657 38.0426L649.459 104.279C649.459 104.279 649.517 104.279 649.537 104.279C650.612 104.77 651.042 106.265 651.081 107.802H652L651.159 37.9999L648.657 38.0426Z" fill="black"/>
</g>
<defs>
<clipPath id="clip0_119_5">
<rect width="88" height="116" fill="white" transform="translate(1028 80)"/>
</clipPath>
<clipPath id="clip1_119_5">
<rect width="51" height="74" fill="white" transform="translate(494 109)"/>
</clipPath>
<clipPath id="clip2_119_5">
<rect width="79" height="116" fill="white" transform="translate(89 69)"/>
</clipPath>
<clipPath id="clip3_119_5">
<rect width="45" height="68" fill="white" transform="translate(891)"/>
</clipPath>
<clipPath id="clip4_119_5">
<rect width="45" height="68" fill="white" transform="translate(891 24)"/>
</clipPath>
<clipPath id="clip5_119_5">
<rect width="45" height="68" fill="white" transform="translate(891 46)"/>
</clipPath>
<clipPath id="clip6_119_5">
<rect width="34" height="87" fill="white" transform="translate(247 38)"/>
</clipPath>
<clipPath id="clip7_119_5">
<rect width="34" height="87" fill="white" transform="translate(247 77)"/>
</clipPath>
<clipPath id="clip8_119_5">
<rect width="34" height="87" fill="white" transform="translate(733 68)"/>
</clipPath>
<clipPath id="clip9_119_5">
<rect width="26" height="85" fill="white" transform="translate(26 100) rotate(-180)"/>
</clipPath>
<clipPath id="clip10_119_5">
<rect width="26" height="85" fill="white" transform="translate(26 140) rotate(-180)"/>
</clipPath>
<clipPath id="clip11_119_5">
<rect width="26" height="85" fill="white" transform="translate(417 138) rotate(-180)"/>
</clipPath>
<clipPath id="clip12_119_5">
<rect width="26" height="85" fill="white" transform="translate(652 88) rotate(-180)"/>
</clipPath>
<clipPath id="clip13_119_5">
<rect width="26" height="85" fill="white" transform="translate(652 123) rotate(-180)"/>
</clipPath>
</defs>
</svg>
