<svg width="1295" height="231" viewBox="0 0 1295 231" fill="none" xmlns="http://www.w3.org/2000/svg">
<g clip-path="url(#clip0_119_3)">
<path d="M1295 55.4586H1279.57V160H1295V55.4586Z" fill="black"/>
<path d="M1269.34 55.4586H1262.59V160H1269.34V55.4586Z" fill="black"/>
<path d="M6.75457 54.5829H0V160H6.75457V54.5829Z" fill="black"/>
<path d="M1295 53H0V56.1659H1295V53Z" fill="black"/>
<path d="M1295 104.934H0V108.1H1295V104.934Z" fill="black"/>
<path d="M1295 78.9669H0V82.1328H1295V78.9669Z" fill="black"/>
<path d="M1295 130.867H0V134.033H1295V130.867Z" fill="black"/>
<path d="M1295 156.834H0V160H1295V156.834Z" fill="black"/>
<g clip-path="url(#clip1_119_3)">
<path d="M82.6343 93.7601C78.1048 52.9947 25.5556 59.7889 20.9554 80.3839C18.726 90.3984 20.7076 96.4849 23.0785 100.024C24.8479 103.279 28.2804 105.508 32.2437 105.508C38.0471 105.508 42.7181 100.802 42.7181 94.9986C42.7181 89.1952 38.0117 84.5242 32.2437 84.5242C27.148 84.5242 22.9016 88.1336 21.9462 92.9816C18.7614 79.9593 27.9265 70.4049 42.2227 68.8479C56.6605 67.2909 70.3197 81.9763 63.9855 113.47C58.1113 142.912 20.7076 146.238 20.7076 146.238C52.9803 146.486 87.3407 136.259 82.6343 93.7601Z" fill="black"/>
<path d="M101 78.2962C101 80.9148 98.8767 83.0026 96.2935 83.0026C93.7102 83.0026 91.587 80.8794 91.587 78.2962C91.587 75.713 93.7102 73.5898 96.2935 73.5898C98.8767 73.5898 101 75.713 101 78.2962Z" fill="black"/>
<path d="M101 104.801C101 107.419 98.8767 109.507 96.2935 109.507C93.7102 109.507 91.587 107.384 91.587 104.801C91.587 102.218 93.7102 100.094 96.2935 100.094C98.8767 100.094 101 102.218 101 104.801Z" fill="black"/>
</g>
</g>
<g clip-path="url(#clip2_119_3)">
<path d="M574.615 61.071C570.897 58.1524 568.829 55.3259 567.641 53.0524C566.629 51.2705 565.859 49.2735 565.463 47H564.055V139.015C560.336 134.959 553.56 135.021 547.29 139.691C539.655 145.374 535.651 155.728 538.357 162.825C541.063 169.922 549.446 171.058 557.102 165.375C562.999 160.981 566.717 153.792 566.849 147.494V62.0541C570.171 67.9529 578.312 71.1174 581.128 77.7227C584.076 84.6354 582.206 95.0504 582.206 95.0504C588.52 73.6059 581.634 66.6011 574.593 61.071H574.615Z" fill="black"/>
<path d="M576.64 151.396H527.114V155.759H576.64V151.396Z" fill="black"/>
</g>
<g clip-path="url(#clip3_119_3)">
<path d="M574.615 91.071C570.897 88.1524 568.829 85.3259 567.641 83.0524C566.629 81.2705 565.859 79.2735 565.463 77H564.055V169.015C560.336 164.959 553.56 165.021 547.29 169.691C539.655 175.374 535.651 185.728 538.357 192.825C541.063 199.922 549.446 201.058 557.102 195.375C562.999 190.981 566.717 183.792 566.849 177.494V92.0541C570.171 97.9529 578.312 101.117 581.128 107.723C584.076 114.635 582.206 125.05 582.206 125.05C588.52 103.606 581.634 96.6011 574.593 91.071H574.615Z" fill="black"/>
<path d="M576.64 181.396H527.114V185.759H576.64V181.396Z" fill="black"/>
</g>
<g clip-path="url(#clip4_119_3)">
<path d="M574.615 123.071C570.897 120.152 568.829 117.326 567.641 115.052C566.629 113.27 565.859 111.273 565.463 109H564.055V201.015C560.336 196.959 553.56 197.021 547.29 201.691C539.655 207.374 535.651 217.728 538.357 224.825C541.063 231.922 549.446 233.058 557.102 227.375C562.999 222.981 566.717 215.792 566.849 209.494V124.054C570.171 129.953 578.312 133.117 581.128 139.723C584.076 146.635 582.206 157.05 582.206 157.05C588.52 135.606 581.634 128.601 574.593 123.071H574.615Z" fill="black"/>
<path d="M576.64 213.396H527.114V217.759H576.64V213.396Z" fill="black"/>
</g>
<g clip-path="url(#clip5_119_3)">
<path d="M151.008 65.7575V56.2587L142.02 59.4061V49H138.022V60.7954L125.035 65.3322V49H121.037V66.7499L111 70.2658V79.7646L121.009 76.2486V84.7549L111 88.2709V97.7696L121.009 94.2537V105H125.007V92.8359L137.993 88.2992V105H141.991V86.9099L150.98 83.7625V74.2638L141.991 77.4111V68.9048L150.98 65.7575H151.008ZM138.022 78.8005L125.035 83.3656V74.8592L138.022 70.3225V78.8289V78.8005Z" fill="black"/>
</g>
<g clip-path="url(#clip6_119_3)">
<path d="M184.008 116.757V107.259L175.02 110.406V100H171.022V111.795L158.035 116.332V100H154.037V117.75L144 121.266V130.765L154.009 127.249V135.755L144 139.271V148.77L154.009 145.254V156H158.007V143.836L170.993 139.299V156H174.991V137.91L183.98 134.763V125.264L174.991 128.411V119.905L183.98 116.757H184.008ZM171.022 129.801L158.035 134.366V125.859L171.022 121.323V129.829V129.801Z" fill="black"/>
</g>
<g clip-path="url(#clip7_119_3)">
<path d="M255.799 99.1704C250.57 96.2311 247.662 93.3846 245.991 91.0951C244.568 89.3006 243.485 87.2895 242.928 85H240.948V177.664C235.719 173.58 226.189 173.642 217.372 178.345C206.636 184.069 201.005 194.495 204.81 201.642C208.616 208.79 220.404 209.934 231.171 204.21C239.463 199.786 244.691 192.546 244.877 186.204V100.16C249.549 106.101 260.997 109.288 264.957 115.94C269.103 122.901 266.473 133.39 266.473 133.39C275.353 111.794 265.668 104.739 255.768 99.1704H255.799Z" fill="black"/>
<path d="M258.645 190.133H189V194.526H258.645V190.133Z" fill="black"/>
</g>
<g clip-path="url(#clip8_119_3)">
<path d="M988.799 27.1704C983.57 24.2311 980.662 21.3846 978.991 19.0951C977.568 17.3006 976.485 15.2895 975.928 13H973.948V105.664C968.719 101.58 959.189 101.642 950.372 106.345C939.636 112.069 934.005 122.495 937.81 129.642C941.616 136.79 953.404 137.934 964.171 132.21C972.463 127.786 977.691 120.546 977.877 114.204V28.1604C982.549 34.1008 993.997 37.2876 997.957 43.9396C1002.1 50.9011 999.473 61.3896 999.473 61.3896C1008.35 39.7937 998.668 32.7395 988.768 27.1704H988.799Z" fill="black"/>
<path d="M991.645 118.133H922V122.526H991.645V118.133Z" fill="black"/>
</g>
<g clip-path="url(#clip9_119_3)">
<path d="M339.89 141.24C343.391 147.815 338.211 157.407 328.333 162.673C318.456 167.939 307.583 166.886 304.082 160.311C300.581 153.736 305.761 144.143 315.638 138.877C325.515 133.611 336.36 134.664 339.861 141.24H339.89Z" fill="black"/>
<path d="M340.972 53H337.328V146.107H340.972V53Z" fill="black"/>
</g>
<g clip-path="url(#clip10_119_3)">
<path d="M454.89 96.2397C458.391 102.815 453.211 112.407 443.333 117.673C433.456 122.939 422.583 121.886 419.082 115.311C415.581 108.736 420.761 99.1431 430.638 93.8772C440.515 88.6112 451.36 89.6644 454.861 96.2397H454.89Z" fill="black"/>
<path d="M455.972 8H452.328V101.107H455.972V8Z" fill="black"/>
</g>
<g clip-path="url(#clip11_119_3)">
<path d="M452.89 135.24C456.391 141.815 451.211 151.407 441.333 156.673C431.456 161.939 420.583 160.886 417.082 154.311C413.581 147.736 418.761 138.143 428.638 132.877C438.515 127.611 449.36 128.664 452.861 135.24H452.89Z" fill="black"/>
<path d="M453.972 47H450.328V140.107H453.972V47Z" fill="black"/>
</g>
<g clip-path="url(#clip12_119_3)">
<path d="M646.89 126.24C650.391 132.815 645.211 142.407 635.333 147.673C625.456 152.939 614.583 151.886 611.082 145.311C607.581 138.736 612.761 129.143 622.638 123.877C632.515 118.611 643.36 119.664 646.861 126.24H646.89Z" fill="black"/>
<path d="M647.972 38H644.328V131.107H647.972V38Z" fill="black"/>
</g>
<g clip-path="url(#clip13_119_3)">
<path d="M771.89 162.24C775.391 168.815 770.211 178.407 760.333 183.673C750.456 188.939 739.583 187.886 736.082 181.311C732.581 174.736 737.761 165.143 747.638 159.877C757.515 154.611 768.36 155.664 771.861 162.24H771.89Z" fill="black"/>
<path d="M772.972 74H769.328V167.107H772.972V74Z" fill="black"/>
</g>
<g clip-path="url(#clip14_119_3)">
<path d="M873.07 114.974C869.47 108.431 858.555 107.517 848.727 112.945C838.87 118.374 833.813 128.06 837.413 134.603C841.013 141.145 851.927 142.06 861.755 136.631C871.613 131.203 876.698 121.517 873.07 114.974ZM859.727 132.831C852.098 137.031 842.241 139.374 839.441 134.317C836.641 129.26 843.784 121.888 851.441 117.66C859.07 113.46 867.784 112.003 870.584 117.06C873.384 122.117 867.384 128.603 859.755 132.803L859.727 132.831Z" fill="black"/>
<path d="M869.355 26.4596L870.527 115.117C870.527 115.117 870.613 115.117 870.641 115.117C872.213 115.774 872.841 117.774 872.898 119.831H874.241L873.013 26.4025L869.355 26.4596Z" fill="black"/>
</g>
<g clip-path="url(#clip15_119_3)">
<path d="M1162.57 113.783C1158.05 105.304 1144.07 103.946 1131.33 110.736C1118.6 117.527 1111.92 129.896 1116.43 138.375C1120.95 146.853 1134.93 148.211 1147.7 141.421C1160.44 134.631 1167.12 122.261 1162.61 113.783H1162.57ZM1145.1 136.503C1135.22 141.788 1122.52 144.614 1119 138.081C1115.48 131.511 1124.8 122.151 1134.71 116.903C1144.58 111.617 1155.78 109.892 1159.3 116.462C1162.79 123.032 1155.01 131.254 1145.1 136.503Z" fill="black"/>
<path d="M1159.27 0V113.93C1159.27 113.93 1159.38 113.93 1159.41 113.93C1161.39 114.81 1162.16 117.343 1162.24 120.022H1163.96V0H1159.27Z" fill="black"/>
<g clip-path="url(#clip16_119_3)">
<path d="M1162.57 73.7828C1158.05 65.3041 1144.07 63.9461 1131.33 70.7363C1118.6 77.5266 1111.92 89.8959 1116.43 98.3745C1120.95 106.853 1134.93 108.211 1147.7 101.421C1160.44 94.6307 1167.12 82.2614 1162.61 73.7828H1162.57ZM1145.1 96.5026C1135.22 101.788 1122.52 104.614 1119 98.0809C1115.48 91.5109 1124.8 82.1513 1134.71 76.9026C1144.58 71.6172 1155.78 69.8921 1159.3 76.4622C1162.79 83.0322 1155.01 91.2539 1145.1 96.5026Z" fill="black"/>
<path d="M1159.27 -40V73.9296C1159.27 73.9296 1159.38 73.9296 1159.41 73.9296C1161.39 74.8105 1162.16 77.3431 1162.24 80.0225H1163.96V-40H1159.27Z" fill="black"/>
</g>
</g>
<g clip-path="url(#clip17_119_3)">
<path d="M1162.57 153.783C1158.05 145.304 1144.07 143.946 1131.33 150.736C1118.6 157.527 1111.92 169.896 1116.43 178.375C1120.95 186.853 1134.93 188.211 1147.7 181.421C1160.44 174.631 1167.12 162.261 1162.61 153.783H1162.57ZM1145.1 176.503C1135.22 181.788 1122.52 184.614 1119 178.081C1115.48 171.511 1124.8 162.151 1134.71 156.903C1144.58 151.617 1155.78 149.892 1159.3 156.462C1162.79 163.032 1155.01 171.254 1145.1 176.503Z" fill="black"/>
<path d="M1159.27 40V153.93C1159.27 153.93 1159.38 153.93 1159.41 153.93C1161.39 154.81 1162.16 157.343 1162.24 160.022H1163.96V40H1159.27Z" fill="black"/>
</g>
<defs>
<clipPath id="clip0_119_3">
<rect width="1295" height="107" fill="white" transform="translate(0 53)"/>
</clipPath>
<clipPath id="clip1_119_3">
<rect width="81" height="82.2739" fill="white" transform="translate(20 64)"/>
</clipPath>
<clipPath id="clip2_119_3">
<rect width="57.6" height="122" fill="white" transform="translate(527.114 47)"/>
</clipPath>
<clipPath id="clip3_119_3">
<rect width="57.6" height="122" fill="white" transform="translate(527.114 77)"/>
</clipPath>
<clipPath id="clip4_119_3">
<rect width="57.6" height="122" fill="white" transform="translate(527.114 109)"/>
</clipPath>
<clipPath id="clip5_119_3">
<rect width="40.0081" height="56" fill="white" transform="translate(111 49)"/>
</clipPath>
<clipPath id="clip6_119_3">
<rect width="40.0081" height="56" fill="white" transform="translate(144 100)"/>
</clipPath>
<clipPath id="clip7_119_3">
<rect width="81" height="122.861" fill="white" transform="translate(189 85)"/>
</clipPath>
<clipPath id="clip8_119_3">
<rect width="81" height="122.861" fill="white" transform="translate(922 13)"/>
</clipPath>
<clipPath id="clip9_119_3">
<rect width="38" height="113.032" fill="white" transform="translate(303 53)"/>
</clipPath>
<clipPath id="clip10_119_3">
<rect width="38" height="113.032" fill="white" transform="translate(418 8)"/>
</clipPath>
<clipPath id="clip11_119_3">
<rect width="38" height="113.032" fill="white" transform="translate(416 47)"/>
</clipPath>
<clipPath id="clip12_119_3">
<rect width="38" height="113.032" fill="white" transform="translate(610 38)"/>
</clipPath>
<clipPath id="clip13_119_3">
<rect width="38" height="113.032" fill="white" transform="translate(735 74)"/>
</clipPath>
<clipPath id="clip14_119_3">
<rect width="38" height="113.771" fill="white" transform="translate(874.241 140.174) rotate(-180)"/>
</clipPath>
<clipPath id="clip15_119_3">
<rect width="49" height="145.752" fill="white" transform="translate(1115)"/>
</clipPath>
<clipPath id="clip16_119_3">
<rect width="49" height="145.752" fill="white" transform="translate(1115 -40)"/>
</clipPath>
<clipPath id="clip17_119_3">
<rect width="49" height="145.752" fill="white" transform="translate(1115 40)"/>
</clipPath>
</defs>
</svg>
