<svg width="1051" height="152" viewBox="0 0 1051 152" fill="none" xmlns="http://www.w3.org/2000/svg">
<g clip-path="url(#clip0_119_4)">
<path d="M647.564 46.2649C644.31 44.1357 642.501 42.0738 641.461 40.4153C640.575 39.1153 639.902 37.6585 639.555 36H638.323V103.125C635.069 100.167 629.14 100.212 623.653 103.618C616.973 107.765 613.469 115.318 615.837 120.495C618.205 125.672 625.54 126.502 632.24 122.355C637.399 119.15 640.652 113.906 640.768 109.311V46.9821C643.675 51.2853 650.798 53.5938 653.262 58.4125C655.842 63.4553 654.205 71.0531 654.205 71.0531C659.73 55.4092 653.705 50.2992 647.544 46.2649H647.564Z" fill="black"/>
<path d="M649.335 112.158H606V115.34H649.335V112.158Z" fill="black"/>
</g>
<g clip-path="url(#clip1_119_4)">
<path d="M647.564 72.3803C644.31 70.2271 642.501 68.142 641.461 66.4649C640.575 65.1503 639.902 63.6772 639.555 62H638.323V129.88C635.069 126.888 629.14 126.933 623.653 130.378C616.973 134.571 613.469 142.209 615.837 147.444C618.205 152.68 625.54 153.519 632.24 149.326C637.399 146.085 640.652 140.781 640.768 136.135V73.1055C643.675 77.4571 650.798 79.7915 653.262 84.6643C655.842 89.7638 654.205 97.447 654.205 97.447C659.73 81.6273 653.705 76.4598 647.544 72.3803H647.564Z" fill="black"/>
<path d="M649.335 139.013H606V142.232H649.335V139.013Z" fill="black"/>
</g>
<g clip-path="url(#clip2_119_4)">
<path d="M0.000222507 130.176L0.0416687 130.137L0.040054 130.238L58.0546 113.03L58.2533 100.658L58.4286 89.7337L58.5265 83.6379L59.2176 40.5853C63.3887 43.9259 71.019 44.1056 78.1578 40.5677C86.8597 36.2899 91.5009 28.1513 88.5316 22.4099C85.5623 16.6686 76.1113 15.4904 67.4091 19.7883C60.6821 23.0966 56.3876 28.7091 56.1641 33.7345L56.1437 33.7339L55.3273 84.5923L3.69068 99.8901L4.38082 56.8978C8.53155 60.2378 16.1822 60.4181 23.3211 56.8802C32.023 52.6024 36.6641 44.4638 33.7152 38.7231C30.746 32.9817 21.2949 31.8035 12.5927 36.1015C5.8657 39.4097 1.59166 45.0228 1.34772 50.0476L1.32732 50.047L0.0410228 130.177L0.000222507 130.176ZM55.2093 90.6674L55.034 101.591L3.39706 116.909L3.57242 105.985L55.209 90.6875L55.2093 90.6674Z" fill="black"/>
</g>
<g clip-path="url(#clip3_119_4)">
<path d="M379.481 26.4956C375.607 24.3186 373.453 22.2103 372.215 20.5145C371.161 19.1853 370.359 17.6958 369.947 16H368.48V84.6338C364.607 81.6089 357.548 81.6547 351.016 85.138C343.063 89.3775 338.892 97.1002 341.711 102.394C344.53 107.687 353.262 108.535 361.238 104.296C367.38 101.019 371.253 95.6565 371.39 90.9587V27.2289C374.851 31.6288 383.331 33.9892 386.264 38.9161C389.335 44.0723 387.387 51.8408 387.387 51.8408C393.965 35.8454 386.791 30.6205 379.458 26.4956H379.481Z" fill="black"/>
<path d="M381.589 93.869H330V97.1231H381.589V93.869Z" fill="black"/>
</g>
<g clip-path="url(#clip4_119_4)">
<path d="M1040.48 16.4956C1036.61 14.3186 1034.45 12.2103 1033.22 10.5145C1032.16 9.18534 1031.36 7.69579 1030.95 6H1029.48V74.6338C1025.61 71.6089 1018.55 71.6547 1012.02 75.138C1004.06 79.3775 999.892 87.1002 1002.71 92.3939C1005.53 97.6875 1014.26 98.5354 1022.24 94.2959C1028.38 91.0189 1032.25 85.6565 1032.39 80.9587V17.2289C1035.85 21.6288 1044.33 23.9892 1047.26 28.9161C1050.34 34.0723 1048.39 41.8408 1048.39 41.8408C1054.96 25.8454 1047.79 20.6205 1040.46 16.4956H1040.48Z" fill="black"/>
<path d="M1042.59 83.869H991V87.1231H1042.59V83.869Z" fill="black"/>
</g>
<g clip-path="url(#clip5_119_4)">
<path d="M187.533 19.4576C184.047 17.4958 182.108 15.5961 180.994 14.068C180.045 12.8703 179.323 11.5281 178.952 10H177.632V71.8459C174.146 69.1201 167.793 69.1614 161.914 72.3002C154.757 76.1204 151.003 83.0793 153.54 87.8494C156.077 92.6195 163.936 93.3835 171.114 89.5633C176.642 86.6104 180.128 81.7784 180.251 77.5452V20.1184C183.366 24.0831 190.998 26.21 193.638 30.6497C196.402 35.2959 194.649 42.2961 194.649 42.2961C200.568 27.8826 194.112 23.1745 187.512 19.4576H187.533Z" fill="black"/>
<path d="M189.43 80.1677H143V83.1H189.43V80.1677Z" fill="black"/>
</g>
<g clip-path="url(#clip6_119_4)">
<path d="M760.007 72.9174C763.139 77.9783 758.504 85.3616 749.667 89.4148C740.829 93.4679 731.1 92.6573 727.968 87.5963C724.835 82.5354 729.47 75.1521 738.308 71.099C747.145 67.0458 756.849 67.8565 759.981 72.9174H760.007Z" fill="black"/>
<path d="M760.975 5H757.715V76.6638H760.975V5Z" fill="black"/>
</g>
<g clip-path="url(#clip7_119_4)">
<path d="M259.24 136.085C261.636 140.041 258.091 145.811 251.333 148.979C244.575 152.147 237.136 151.514 234.74 147.558C232.345 143.602 235.889 137.832 242.647 134.664C249.405 131.496 256.825 132.129 259.221 136.085H259.24Z" fill="black"/>
<path d="M259.981 83H257.488V139.013H259.981V83Z" fill="black"/>
</g>
<g clip-path="url(#clip8_119_4)">
<path d="M508.198 66.1728C505.735 61.2846 498.268 60.6015 491.543 64.6572C484.798 68.713 481.338 75.9493 483.801 80.8375C486.265 85.7258 493.732 86.4089 500.457 82.3531C507.201 78.2974 510.681 71.0611 508.198 66.1728ZM499.069 79.5141C493.85 82.652 487.105 84.4023 485.189 80.6241C483.274 76.8458 488.161 71.3386 493.4 68.1793C498.619 65.0415 504.582 63.9528 506.498 67.7311C508.413 71.5093 504.308 76.3549 499.089 79.4927L499.069 79.5141Z" fill="black"/>
<path d="M505.657 0.042717L506.459 66.2795C506.459 66.2795 506.517 66.2795 506.537 66.2795C507.612 66.7705 508.042 68.2647 508.081 69.8016H509L508.159 2.28882e-05L505.657 0.042717Z" fill="black"/>
</g>
<g clip-path="url(#clip9_119_4)">
<path d="M902.198 88.1728C899.735 83.2846 892.268 82.6015 885.543 86.6572C878.798 90.713 875.338 97.9493 877.801 102.838C880.265 107.726 887.732 108.409 894.457 104.353C901.201 100.297 904.681 93.0611 902.198 88.1728ZM893.069 101.514C887.85 104.652 881.105 106.402 879.189 102.624C877.274 98.8458 882.161 93.3386 887.4 90.1793C892.619 87.0415 898.582 85.9528 900.498 89.7311C902.413 93.5093 898.308 98.3549 893.089 101.493L893.069 101.514Z" fill="black"/>
<path d="M899.657 22.0427L900.459 88.2795C900.459 88.2795 900.517 88.2795 900.537 88.2795C901.612 88.7705 902.042 90.2647 902.081 91.8016H903L902.159 22L899.657 22.0427Z" fill="black"/>
</g>
<g clip-path="url(#clip10_119_4)">
<path d="M903.198 122.173C900.735 117.285 893.268 116.601 886.543 120.657C879.798 124.713 876.338 131.949 878.801 136.838C881.265 141.726 888.732 142.409 895.457 138.353C902.201 134.297 905.681 127.061 903.198 122.173ZM894.069 135.514C888.85 138.652 882.105 140.402 880.189 136.624C878.274 132.846 883.161 127.339 888.4 124.179C893.619 121.041 899.582 119.953 901.498 123.731C903.413 127.509 899.308 132.355 894.089 135.493L894.069 135.514Z" fill="black"/>
<path d="M900.657 56.0427L901.459 122.28C901.459 122.28 901.517 122.28 901.537 122.28C902.612 122.77 903.042 124.265 903.081 125.802H904L903.159 56L900.657 56.0427Z" fill="black"/>
</g>
<defs>
<clipPath id="clip0_119_4">
<rect width="50.4" height="89" fill="white" transform="translate(606 36)"/>
</clipPath>
<clipPath id="clip1_119_4">
<rect width="50.4" height="90" fill="white" transform="translate(606 62)"/>
</clipPath>
<clipPath id="clip2_119_4">
<rect width="87.7361" height="115.231" fill="white" transform="matrix(-0.999585 -0.0288134 0.0160505 -0.999871 87.6997 132.744)"/>
</clipPath>
<clipPath id="clip3_119_4">
<rect width="60" height="91" fill="white" transform="translate(330 16)"/>
</clipPath>
<clipPath id="clip4_119_4">
<rect width="60" height="91" fill="white" transform="translate(991 6)"/>
</clipPath>
<clipPath id="clip5_119_4">
<rect width="54" height="82" fill="white" transform="translate(143 10)"/>
</clipPath>
<clipPath id="clip6_119_4">
<rect width="34" height="87" fill="white" transform="translate(727 5)"/>
</clipPath>
<clipPath id="clip7_119_4">
<rect width="26" height="68" fill="white" transform="translate(234 83)"/>
</clipPath>
<clipPath id="clip8_119_4">
<rect width="26" height="85" fill="white" transform="translate(509 85) rotate(-180)"/>
</clipPath>
<clipPath id="clip9_119_4">
<rect width="26" height="85" fill="white" transform="translate(903 107) rotate(-180)"/>
</clipPath>
<clipPath id="clip10_119_4">
<rect width="26" height="85" fill="white" transform="translate(904 141) rotate(-180)"/>
</clipPath>
</defs>
</svg>
