<svg width="1295" height="258" viewBox="0 0 1295 258" fill="none" xmlns="http://www.w3.org/2000/svg">
<g clip-path="url(#clip0_119_2)">
<path d="M-0.000318527 58.4587H15.4319V163H-0.000318527V58.4587Z" fill="black"/>
<path d="M25.6577 58.4587H32.4121V163H25.6577V58.4587Z" fill="black"/>
<path d="M1288.25 57.5829H1295V163H1288.25V57.5829Z" fill="black"/>
<path d="M0 56H1295V59.1659H0V56Z" fill="black"/>
<path d="M0 107.934H1295V111.1H0V107.934Z" fill="black"/>
<path d="M0 81.9669H1295V85.1328H0V81.9669Z" fill="black"/>
<path d="M0 133.867H1295V137.033H0V133.867Z" fill="black"/>
<path d="M0 159.834H1295V163H0V159.834Z" fill="black"/>
<g clip-path="url(#clip1_119_2)">
<path d="M189 77.8483V67.1644L178.89 70.7045V59H174.393V72.2672L159.787 77.3699V59H155.29V78.9646L144 82.9192V93.6031L155.258 89.6485V99.2162L144 103.171V113.855L155.258 109.9V121.987H159.755V108.305L174.361 103.203V121.987H178.858V101.64L188.968 98.0999V87.416L178.858 90.9561V81.3884L188.968 77.8483H189ZM174.393 92.5188L159.787 97.6534V88.0858L174.393 82.983V92.5507V92.5188Z" fill="black"/>
</g>
<g clip-path="url(#clip2_119_2)">
<path d="M614 63.0349L613.965 63.0698V62.9825L564.611 79.3468V90.0761V99.5492V104.835V142.17C560.999 139.378 554.475 139.413 548.421 142.658C541.041 146.583 537.186 153.754 539.803 158.656C542.42 163.558 550.514 164.343 557.894 160.401C563.599 157.365 567.193 152.393 567.315 148.031H567.332V103.928L611.261 89.3782V126.66C607.667 123.869 601.125 123.904 595.071 127.149C587.692 131.074 583.836 138.244 586.436 143.147C589.052 148.049 597.147 148.834 604.527 144.891C610.232 141.856 613.808 136.883 613.948 132.522H613.965V63.0349H614ZM567.35 98.6594V89.1863L611.279 74.619V84.0921L567.35 98.642V98.6594Z" fill="black"/>
</g>
</g>
<g clip-path="url(#clip3_119_2)">
<path d="M249.353 97.379C245.17 94.6039 242.844 91.9164 241.507 89.7547C240.368 88.0604 239.502 86.1617 239.056 84H237.472V171.489C233.289 167.633 225.666 167.692 218.612 172.132C210.023 177.536 205.518 187.381 208.562 194.128C211.607 200.876 221.037 201.957 229.651 196.553C236.284 192.376 240.467 185.54 240.616 179.552V98.3138C244.353 103.922 253.511 106.931 256.68 113.212C259.996 119.784 257.893 129.687 257.893 129.687C264.996 109.297 257.249 102.637 249.328 97.379H249.353Z" fill="black"/>
<path d="M251.63 183.262H195.914V187.41H251.63V183.262Z" fill="black"/>
</g>
<g clip-path="url(#clip4_119_2)">
<path d="M736.101 63.9177C732.383 61.2382 730.315 58.6434 729.127 56.5563C728.115 54.9204 727.345 53.0871 726.949 51H725.541V135.472C721.822 131.749 715.046 131.806 708.775 136.093C701.141 141.311 697.137 150.816 699.843 157.331C702.549 163.846 710.932 164.89 718.588 159.672C724.484 155.639 728.203 149.039 728.335 143.257V64.8202C731.657 70.2355 739.798 73.1405 742.614 79.2045C745.562 85.5505 743.692 95.1118 743.692 95.1118C750.006 75.4251 743.12 68.9945 736.079 63.9177H736.101Z" fill="black"/>
<path d="M738.126 146.839H688.6V150.844H738.126V146.839Z" fill="black"/>
</g>
<g clip-path="url(#clip5_119_2)">
<path d="M1052.9 12.8023C1049.18 10.1468 1047.11 7.57517 1045.93 5.50667C1044.91 3.88542 1044.14 2.0685 1043.75 0H1042.34V83.7182C1038.62 80.0285 1031.85 80.0844 1025.58 84.3332C1017.94 89.5044 1013.94 98.9245 1016.64 105.382C1019.35 111.839 1027.73 112.873 1035.39 107.702C1041.28 103.704 1045 97.1634 1045.13 91.4331V13.6968C1048.46 19.0637 1056.6 21.9428 1059.41 27.9527C1062.36 34.242 1060.49 43.718 1060.49 43.718C1066.81 24.207 1059.92 17.8338 1052.88 12.8023H1052.9Z" fill="black"/>
<path d="M1054.93 94.9831H1005.4V98.9524H1054.93V94.9831Z" fill="black"/>
</g>
<g clip-path="url(#clip6_119_2)">
<path d="M486.339 44.649C482.687 42.2327 480.656 39.8927 479.489 38.0106C478.495 36.5354 477.738 34.8821 477.349 33H475.966V109.176C472.315 105.819 465.659 105.87 459.501 109.736C452.002 114.441 448.07 123.012 450.728 128.888C453.385 134.763 461.618 135.704 469.138 130.999C474.929 127.362 478.581 121.41 478.711 116.196V45.4629C481.974 50.3463 489.969 52.966 492.735 58.4344C495.63 64.1571 493.794 72.7794 493.794 72.7794C499.995 55.0262 493.232 49.2271 486.317 44.649H486.339Z" fill="black"/>
<path d="M488.327 119.426H439.686V123.038H488.327V119.426Z" fill="black"/>
</g>
<g clip-path="url(#clip7_119_2)">
<path d="M249.353 126.264C245.17 123.512 242.844 120.848 241.507 118.705C240.368 117.025 239.502 115.143 239.056 113H237.472V199.735C233.289 195.912 225.666 195.97 218.612 200.372C210.023 205.73 205.518 215.489 208.562 222.179C211.607 228.869 221.037 229.94 229.651 224.583C236.284 220.441 240.467 213.665 240.616 207.728V127.19C244.353 132.751 253.511 135.734 256.68 141.96C259.996 148.476 257.893 158.293 257.893 158.293C264.996 138.079 257.249 131.476 249.328 126.264H249.353Z" fill="black"/>
<path d="M251.63 211.406H195.914V215.518H251.63V211.406Z" fill="black"/>
</g>
<g clip-path="url(#clip8_119_2)">
<path d="M736.101 91.9177C732.383 89.2382 730.315 86.6434 729.127 84.5563C728.115 82.9204 727.345 81.0871 726.949 79H725.541V163.472C721.822 159.749 715.046 159.806 708.775 164.093C701.141 169.311 697.137 178.816 699.843 185.331C702.549 191.846 710.932 192.89 718.588 187.672C724.484 183.639 728.203 177.039 728.335 171.257V92.8202C731.657 98.2355 739.798 101.141 742.614 107.204C745.562 113.55 743.692 123.112 743.692 123.112C750.006 103.425 743.12 96.9945 736.079 91.9177H736.101Z" fill="black"/>
<path d="M738.126 174.839H688.6V178.844H738.126V174.839Z" fill="black"/>
</g>
<g clip-path="url(#clip9_119_2)">
<path d="M1052.9 39.8023C1049.18 37.1468 1047.11 34.5752 1045.93 32.5067C1044.91 30.8854 1044.14 29.0685 1043.75 27H1042.34V110.718C1038.62 107.028 1031.85 107.084 1025.58 111.333C1017.94 116.504 1013.94 125.924 1016.64 132.382C1019.35 138.839 1027.73 139.873 1035.39 134.702C1041.28 130.704 1045 124.163 1045.13 118.433V40.6968C1048.46 46.0637 1056.6 48.9428 1059.41 54.9527C1062.36 61.242 1060.49 70.718 1060.49 70.718C1066.81 51.207 1059.92 44.8338 1052.88 39.8023H1052.9Z" fill="black"/>
<path d="M1054.93 121.983H1005.4V125.952H1054.93V121.983Z" fill="black"/>
</g>
<g clip-path="url(#clip10_119_2)">
<path d="M486.339 69.649C482.687 67.2327 480.656 64.8927 479.489 63.0106C478.495 61.5354 477.738 59.8821 477.349 58H475.966V134.176C472.315 130.819 465.659 130.87 459.501 134.736C452.002 139.441 448.07 148.012 450.728 153.888C453.385 159.763 461.618 160.704 469.138 155.999C474.929 152.362 478.581 146.41 478.711 141.196V70.4629C481.974 75.3463 489.969 77.966 492.735 83.4344C495.63 89.1571 493.794 97.7794 493.794 97.7794C499.995 80.0262 493.232 74.2271 486.317 69.649H486.339Z" fill="black"/>
<path d="M488.327 144.426H439.686V148.038H488.327V144.426Z" fill="black"/>
</g>
<g clip-path="url(#clip11_119_2)">
<path d="M249.353 155.379C245.17 152.604 242.844 149.916 241.507 147.755C240.368 146.06 239.502 144.162 239.056 142H237.472V229.489C233.289 225.633 225.666 225.692 218.612 230.132C210.023 235.536 205.518 245.381 208.562 252.128C211.607 258.876 221.037 259.957 229.651 254.553C236.284 250.376 240.467 243.54 240.616 237.552V156.314C244.353 161.922 253.511 164.931 256.68 171.212C259.996 177.784 257.893 187.687 257.893 187.687C264.996 167.297 257.249 160.637 249.328 155.379H249.353Z" fill="black"/>
<path d="M251.63 241.262H195.914V245.41H251.63V241.262Z" fill="black"/>
</g>
<g clip-path="url(#clip12_119_2)">
<path d="M736.101 120.918C732.383 118.238 730.315 115.643 729.127 113.556C728.115 111.92 727.345 110.087 726.949 108H725.541V192.472C721.822 188.749 715.046 188.806 708.775 193.093C701.141 198.311 697.137 207.816 699.843 214.331C702.549 220.846 710.932 221.89 718.588 216.672C724.484 212.639 728.203 206.039 728.335 200.257V121.82C731.657 127.235 739.798 130.141 742.614 136.204C745.562 142.55 743.692 152.112 743.692 152.112C750.006 132.425 743.12 125.994 736.079 120.918H736.101Z" fill="black"/>
<path d="M738.126 203.839H688.6V207.844H738.126V203.839Z" fill="black"/>
</g>
<g clip-path="url(#clip13_119_2)">
<path d="M1052.9 68.8023C1049.18 66.1468 1047.11 63.5752 1045.93 61.5067C1044.91 59.8854 1044.14 58.0685 1043.75 56H1042.34V139.718C1038.62 136.028 1031.85 136.084 1025.58 140.333C1017.94 145.504 1013.94 154.924 1016.64 161.382C1019.35 167.839 1027.73 168.873 1035.39 163.702C1041.28 159.704 1045 153.163 1045.13 147.433V69.6968C1048.46 75.0637 1056.6 77.9428 1059.41 83.9527C1062.36 90.242 1060.49 99.718 1060.49 99.718C1066.81 80.207 1059.92 73.8338 1052.88 68.8023H1052.9Z" fill="black"/>
<path d="M1054.93 150.983H1005.4V154.952H1054.93V150.983Z" fill="black"/>
</g>
<g clip-path="url(#clip14_119_2)">
<path d="M486.197 95.649C482.545 93.2327 480.514 90.8927 479.347 89.0106C478.353 87.5354 477.597 85.8821 477.208 84H475.825V160.176C472.173 156.819 465.517 156.87 459.359 160.736C451.861 165.441 447.928 174.012 450.586 179.888C453.244 185.763 461.477 186.704 468.996 181.999C474.788 178.362 478.439 172.41 478.569 167.196V96.4629C481.832 101.346 489.827 103.966 492.593 109.434C495.489 115.157 493.652 123.779 493.652 123.779C499.854 106.026 493.09 100.227 486.175 95.649H486.197Z" fill="black"/>
<path d="M488.327 170.426H439.686V174.038H488.327V170.426Z" fill="black"/>
</g>
<g clip-path="url(#clip15_119_2)">
<path d="M145 30.2481V19.5641L134.89 23.1042V11.3997H130.393V24.6669L115.787 29.7697V11.3997H111.29V31.3643L100 35.3189V46.0028L111.258 42.0482V51.6159L100 55.5705V66.2544L111.258 62.2998V74.387H115.755V60.7052L130.361 55.6024V74.387H134.858V54.0397L144.968 50.4996V39.8157L134.858 43.3558V33.7881L144.968 30.2481H145ZM130.393 44.9185L115.787 50.0532V40.4855L130.393 35.3827V44.9504V44.9185Z" fill="black"/>
</g>
<path d="M101.265 104.962C95.8804 102.214 90.1009 101.723 84.5317 103.336C82.3085 91.6499 80.2243 80.6938 78.66 72.3595C87.7962 64.1631 94.188 58.3181 97.7411 43.5513C102.531 23.6214 83.5505 11.8449 83.5505 11.8449L82.9861 12.2118C82.1749 12.7251 63.5235 25.3478 73.6608 64.9695C73.7284 65.3248 73.8369 65.6728 73.9249 66.0245C70.2988 69.9635 66.1172 73.982 61.3928 78.0368C39.2744 97.1014 31.0301 118.653 39.3489 135.715C45.7195 148.759 60.9333 155.843 77.0969 153.366C77.3906 153.354 83.477 153.015 90.7179 150.855C93.333 166.268 95.0081 177.074 95.0644 177.37C95.0944 177.528 98.3836 192.595 83.5053 198.496C75.2889 201.75 66.9733 200.816 60.7927 196.66C54.1282 192.182 54.7827 180.734 55.1995 182.925C56.4238 189.361 62.8071 193.582 69.4495 192.388C76.0919 191.193 80.4961 185.012 79.2756 178.596C78.1866 172.871 72.9895 168.885 67.1646 168.932C60.5008 168.681 53.4715 172.619 52.4152 180.955C51.5531 187.868 54.1821 194.133 59.6153 198.137C64.678 201.861 71.3327 203.176 78.1999 201.941C80.2028 201.581 82.2258 200.993 84.2316 200.203C87.8662 198.753 90.4738 196.794 92.4082 194.629L92.3748 194.676C101.016 186.099 98.4667 175.921 98.4667 175.921C98.4667 175.921 96.3808 165.067 93.4799 149.93C93.5208 149.922 93.5413 149.919 93.5821 149.911C104.868 145.902 111.877 139.19 113.832 130.468C116.091 120.344 110.943 109.837 101.298 104.915L101.265 104.962ZM76.0867 58.3881C74.1955 47.336 75.8113 39.9407 76.328 37.9899C80.012 27.4665 86.2619 21.3204 87.9949 19.7634C89.593 22.4976 90.9719 26.1899 91.1703 30.7887C91.5493 40.3365 86.654 51.1593 76.8644 62.6989C76.5077 60.8235 76.2502 59.3591 76.0867 58.3881V58.3881ZM90.2894 148.38C88.1184 149.301 85.8727 150.052 83.6174 150.641C79.7379 151.359 77.0246 151.541 76.8983 151.543C69.08 152.112 61.6329 152.41 55.0827 147.422C50.2114 143.705 46.3949 137.531 44.6643 131.656C44.7481 131.764 44.804 131.835 44.804 131.835C38.9669 113.04 53.1538 97.5048 68.0644 82.329C70.8951 79.4314 73.5557 76.9726 76.0252 74.7319C78.1206 83.7465 80.2106 93.8441 82.2247 104.098C78.631 105.541 75.1654 107.879 71.9952 111.103C71.8709 111.227 59.826 123.356 71.7558 135.4C71.7558 135.4 75.9985 138.925 82.4953 137.409C82.4953 137.409 72.3181 134.911 72.6926 122.88C72.857 117.522 77.7265 113.564 83.8037 112.287C86.2334 125.059 88.4658 137.683 90.2894 148.38V148.38ZM92.93 147.15C90.9096 136.529 88.5028 124.1 86.1895 111.94C93.2178 111.329 101.179 114.287 105.204 122.669C110.332 133.404 103.042 142.085 92.9337 147.17L92.93 147.15Z" fill="black"/>
<path d="M399.571 20.0358L399.535 20.0716V19.9821L347.416 36.7827V47.7981V101.281C343.621 98.415 336.713 98.4508 330.32 101.782C322.527 105.812 318.455 113.174 321.219 118.207C323.982 123.24 332.531 124.046 340.323 119.998C346.348 116.881 350.143 111.777 350.272 107.299V46.8667L396.697 31.9288V85.3578C392.902 82.492 385.994 82.5278 379.601 85.8593C371.808 89.8893 367.737 97.2507 370.5 102.284C373.264 107.317 381.812 108.123 389.605 104.075C395.629 100.958 399.406 95.8537 399.553 91.3759H399.571V20.0358V20.0358Z" fill="black"/>
<g clip-path="url(#clip16_119_2)">
<path d="M850 10.0349L849.966 10.0698V9.98254L801.27 26.3611V37.0997V46.5811V51.8718V89.2387C797.706 86.4449 791.269 86.4798 785.296 89.7276C778.014 93.6564 774.21 100.833 776.792 105.739C779.374 110.646 787.361 111.432 794.642 107.486C800.271 104.447 803.817 99.4709 803.938 95.1056H803.955V50.9639L847.298 36.4013V73.7157C843.752 70.922 837.297 70.9569 831.324 74.2046C824.043 78.1334 820.239 85.3099 822.803 90.2165C825.385 95.1231 833.372 95.9089 840.654 91.9626C846.282 88.9244 849.811 83.948 849.949 79.5827H849.966V10.0349H850ZM803.972 45.6906V36.2092L847.315 21.6291V31.1105L803.972 45.6731V45.6906Z" fill="black"/>
</g>
<g clip-path="url(#clip17_119_2)">
<path d="M1115.05 158.384V174.049L1115 181.72L1173.35 162.555V162.671L1173.47 162.509L1238.98 141.003V126.751V117.69V110.669V57.5538C1243.75 61.2617 1252.44 61.2153 1260.49 56.9049C1270.29 51.6908 1275.41 42.1663 1271.93 35.6544C1268.46 29.1426 1257.71 28.0997 1247.9 33.3139C1240.32 37.3461 1235.55 43.9507 1235.39 49.7442V111.897L1177.04 131.363V78.1786C1181.81 81.8865 1190.5 81.8401 1198.54 77.5298C1208.34 72.3156 1213.47 62.7911 1209.99 56.2793C1206.51 49.7674 1195.76 48.7245 1185.96 53.9387C1178.38 57.971 1173.63 64.5755 1173.44 70.369H1173.42V132.545L1118.73 150.783V95.3505C1123.5 99.0584 1132.2 99.012 1140.24 94.7248C1150.04 89.4875 1155.16 79.9862 1151.68 73.4743C1148.21 66.9624 1137.46 65.9196 1127.65 71.1338C1120.08 75.166 1115.32 81.7706 1115.14 87.5641H1115.12V154.792L1115.07 158.407H1115.12L1115.05 158.384ZM1235.34 118.872V127.956L1176.99 147.422V138.037L1235.34 118.872ZM1173.38 139.219V148.627L1118.68 166.865V157.179L1173.38 139.219Z" fill="black"/>
</g>
<g clip-path="url(#clip18_119_2)">
<path d="M905.153 102.341C902.481 97.3228 894.204 96.5191 886.667 100.538C879.129 104.557 875.175 111.877 877.847 116.895C880.519 121.913 888.796 122.717 896.355 118.698C903.893 114.679 907.846 107.359 905.175 102.341H905.153ZM894.813 115.787C888.969 118.915 881.453 120.588 879.368 116.721C877.282 112.833 882.8 107.294 888.665 104.187C894.509 101.059 901.134 100.038 903.219 103.927C905.283 107.815 900.678 112.681 894.813 115.787Z" fill="black"/>
<path d="M903.198 35V102.428C903.198 102.428 903.263 102.428 903.285 102.428C904.458 102.949 904.914 104.448 904.958 106.034H905.979V35H903.198Z" fill="black"/>
</g>
<defs>
<clipPath id="clip0_119_2">
<rect width="1295" height="107" fill="white" transform="matrix(-1 0 0 1 1295 56)"/>
</clipPath>
<clipPath id="clip1_119_2">
<rect width="45" height="62.9872" fill="white" transform="translate(144 59)"/>
</clipPath>
<clipPath id="clip2_119_2">
<rect width="75" height="99.9128" fill="white" transform="translate(539 63)"/>
</clipPath>
<clipPath id="clip3_119_2">
<rect width="64.8" height="116" fill="white" transform="translate(195.914 84)"/>
</clipPath>
<clipPath id="clip4_119_2">
<rect width="57.6" height="112" fill="white" transform="translate(688.6 51)"/>
</clipPath>
<clipPath id="clip5_119_2">
<rect width="57.6" height="111" fill="white" transform="translate(1005.4)"/>
</clipPath>
<clipPath id="clip6_119_2">
<rect width="56.5714" height="101" fill="white" transform="translate(439.686 33)"/>
</clipPath>
<clipPath id="clip7_119_2">
<rect width="64.8" height="115" fill="white" transform="translate(195.914 113)"/>
</clipPath>
<clipPath id="clip8_119_2">
<rect width="57.6" height="112" fill="white" transform="translate(688.6 79)"/>
</clipPath>
<clipPath id="clip9_119_2">
<rect width="57.6" height="111" fill="white" transform="translate(1005.4 27)"/>
</clipPath>
<clipPath id="clip10_119_2">
<rect width="56.5714" height="101" fill="white" transform="translate(439.686 58)"/>
</clipPath>
<clipPath id="clip11_119_2">
<rect width="64.8" height="116" fill="white" transform="translate(195.914 142)"/>
</clipPath>
<clipPath id="clip12_119_2">
<rect width="57.6" height="112" fill="white" transform="translate(688.6 108)"/>
</clipPath>
<clipPath id="clip13_119_2">
<rect width="57.6" height="111" fill="white" transform="translate(1005.4 56)"/>
</clipPath>
<clipPath id="clip14_119_2">
<rect width="56.5714" height="101" fill="white" transform="translate(439.686 84)"/>
</clipPath>
<clipPath id="clip15_119_2">
<rect width="45" height="62.9872" fill="white" transform="translate(100 11.3997)"/>
</clipPath>
<clipPath id="clip16_119_2">
<rect width="74" height="100" fill="white" transform="translate(776 10)"/>
</clipPath>
<clipPath id="clip17_119_2">
<rect width="158" height="151.72" fill="white" transform="translate(1273 181.72) rotate(180)"/>
</clipPath>
<clipPath id="clip18_119_2">
<rect width="29" height="86.2614" fill="white" transform="translate(877 35)"/>
</clipPath>
</defs>
</svg>
