<svg width="206" height="198" viewBox="0 0 206 198" fill="none" xmlns="http://www.w3.org/2000/svg">
<path d="M203.427 99C203.427 97.3782 203.385 95.7656 203.302 94.163L200.879 94.2878C200.716 91.1196 200.389 87.9928 199.907 84.9147L202.305 84.5392C201.802 81.3287 201.134 78.1698 200.31 75.0709L197.965 75.6946C197.153 72.643 196.186 69.6512 195.072 66.7272L197.339 65.8631C196.187 62.8393 194.881 59.8867 193.432 57.014L191.266 58.107C189.848 55.2976 188.29 52.5662 186.598 49.9212L188.643 48.6138C186.906 45.8977 185.033 43.2709 183.033 40.7422L181.13 42.2474C179.183 39.7852 177.112 37.4179 174.927 35.154L176.673 33.4687C174.44 31.1555 172.091 28.9479 169.634 26.8544L168.06 28.7015C165.675 26.6692 163.186 24.747 160.601 22.943L161.99 20.9531C159.359 19.117 156.633 17.4005 153.818 15.8121L152.625 17.9254C149.901 16.388 147.093 14.9733 144.208 13.6893L145.195 11.4723C142.271 10.1705 139.27 8.99977 136.201 7.96807L135.428 10.2682C132.469 9.27342 129.446 8.41093 126.365 7.68814L126.919 5.32562C123.811 4.59634 120.646 4.00602 117.432 3.56185L117.1 5.96567C114.015 5.53936 110.884 5.25084 107.714 5.10682L107.824 2.68266C106.225 2.61004 104.617 2.57333 103 2.57333C101.383 2.57333 99.7748 2.61004 98.1762 2.68266L98.2863 5.10682C95.1159 5.25084 91.9848 5.53936 88.9002 5.96567L88.568 3.56186C85.3543 4.00602 82.1893 4.59634 79.0808 5.32563L79.6351 7.68815C76.5544 8.41093 73.5307 9.27342 70.5719 10.2682L69.7986 7.96808C66.7301 8.99978 63.7294 10.1705 60.8049 11.4723L61.7918 13.6893C58.9073 14.9733 56.0989 16.388 53.3747 17.9254L52.182 15.8121C49.3674 17.4005 46.6405 19.117 44.0098 20.9531L45.3987 22.943C42.8142 24.747 40.3251 26.6693 37.9401 28.7015L36.3662 26.8544C33.9094 28.9479 31.56 31.1555 29.3271 33.4687L31.0731 35.154C28.8878 37.4179 26.8173 39.7852 24.8703 42.2474L22.9668 40.7422C20.9672 43.2709 19.0944 45.8977 17.3575 48.6139L19.4019 49.9212C17.7105 52.5662 16.1517 55.2977 14.7344 58.107L12.5678 57.014C11.1186 59.8867 9.81321 62.8393 8.66087 65.8631L10.9285 66.7272C9.81419 69.6512 8.84698 72.6431 8.03544 75.6946L5.69029 75.0709C4.86616 78.1698 4.19836 81.3287 3.69541 84.5392L6.09284 84.9148C5.61065 87.9928 5.28407 91.1196 5.121 94.2878L2.69754 94.163C2.61505 95.7656 2.57333 97.3782 2.57333 99C2.57333 100.622 2.61505 102.234 2.69754 103.837L5.121 103.712C5.28407 106.88 5.61066 110.007 6.09284 113.085L3.69541 113.461C4.19836 116.671 4.86617 119.83 5.69029 122.929L8.03544 122.305C8.84699 125.357 9.81419 128.349 10.9285 131.273L8.66088 132.137C9.81322 135.161 11.1186 138.113 12.5678 140.986L14.7344 139.893C16.1517 142.702 17.7105 145.434 19.4019 148.079L17.3575 149.386C19.0944 152.102 20.9673 154.729 22.9669 157.258L24.8703 155.753C26.8173 158.215 28.8878 160.582 31.0731 162.846L29.3271 164.531C31.56 166.845 33.9094 169.052 36.3662 171.146L37.9401 169.299C40.3251 171.331 42.8142 173.253 45.3988 175.057L44.0099 177.047C46.6405 178.883 49.3675 180.599 52.182 182.188L53.3747 180.075C56.0989 181.612 58.9073 183.027 61.7918 184.311L60.805 186.528C63.7295 187.83 66.7301 189 69.7986 190.032L70.572 187.732C73.5307 188.727 76.5544 189.589 79.6351 190.312L79.0809 192.674C82.1894 193.404 85.3543 193.994 88.568 194.438L88.9003 192.034C91.9848 192.461 95.1159 192.749 98.2863 192.893L98.1762 195.317C99.7748 195.39 101.383 195.427 103 195.427C104.617 195.427 106.225 195.39 107.824 195.317L107.714 192.893C110.884 192.749 114.015 192.461 117.1 192.034L117.432 194.438C120.646 193.994 123.811 193.404 126.919 192.674L126.365 190.312C129.446 189.589 132.469 188.727 135.428 187.732L136.201 190.032C139.27 189 142.271 187.83 145.195 186.528L144.208 184.311C147.093 183.027 149.901 181.612 152.625 180.075L153.818 182.188C156.633 180.599 159.36 178.883 161.99 177.047L160.601 175.057C163.186 173.253 165.675 171.331 168.06 169.299L169.634 171.146C172.091 169.052 174.44 166.845 176.673 164.531L174.927 162.846C177.112 160.582 179.183 158.215 181.13 155.753L183.033 157.258C185.033 154.729 186.906 152.102 188.643 149.386L186.598 148.079C188.29 145.434 189.848 142.702 191.266 139.893L193.432 140.986C194.881 138.113 196.187 135.161 197.339 132.137L195.072 131.273C196.186 128.349 197.153 125.357 197.965 122.305L200.31 122.929C201.134 119.83 201.802 116.671 202.305 113.461L199.907 113.085C200.389 110.007 200.716 106.88 200.879 103.712L203.302 103.837C203.385 102.234 203.427 100.622 203.427 99Z" stroke="white" stroke-width="4.85333" stroke-dasharray="10 10"/>
</svg>
