<svg width="1255" height="866" viewBox="0 0 1255 866" fill="none" xmlns="http://www.w3.org/2000/svg">
<path d="M234.8 68.85C239.7 68.85 246.233 69.4333 254.4 70.6C260.7 71.7666 267.117 73.75 273.65 76.55L309 71.65L233.4 283.05C232.233 287.017 231.65 290.05 231.65 292.15C231.65 296.35 232.7 299.15 234.8 300.55C236.433 302.183 238.65 303 241.45 303C249.85 303 257.317 297.167 263.85 285.5C270.383 273.6 274.583 262.167 276.45 251.2L284.5 256.8C282.633 263.8 280.183 270.683 277.15 277.45C274.35 284.217 270.733 290.983 266.3 297.75C262.1 304.517 256.733 310 250.2 314.2C243.9 318.4 237.133 320.5 229.9 320.5C223.133 320.5 216.95 318.75 211.35 315.25C205.983 311.75 202.95 306.733 202.25 300.2C201.55 296.933 201.2 294.017 201.2 291.45C201.2 286.55 201.9 281.533 203.3 276.4C204 274.067 205.283 269.983 207.15 264.15L270.5 86C259.767 80.6333 249.383 77.95 239.35 77.95C226.517 77.95 215.667 82.3833 206.8 91.25C198.167 99.8833 192.217 110.85 188.95 124.15L179.85 162.3H216.6L213.45 171.75H178.45L148.7 310C137.967 362.033 120.583 394.35 96.55 406.95C88.85 410.45 81.0333 412.2 73.1 412.2C64.2333 412.2 56.3 409.05 49.3 402.75C43 396.45 39.85 389.1 39.85 380.7C39.85 375.1 41.4833 370.317 44.75 366.35C48.0167 362.617 52.45 360.75 58.05 360.75C62.25 360.75 65.9833 362.15 69.25 364.95C72.5167 367.983 74.15 371.6 74.15 375.8C74.15 381.867 72.6333 386.417 69.6 389.45C66.8 392.717 63.1833 395.167 58.75 396.8C59.6833 398.433 61.3167 399.833 63.65 401C65.75 401.933 68.2 402.4 71 402.4C87.3333 402.4 99.4667 385.133 107.4 350.6C108.333 345.933 109.733 339.983 111.6 332.75C113.467 324.583 115.217 316.067 116.85 307.2C118.717 297.633 120.817 287.95 123.15 278.15C125.483 266.483 129.1 248.867 134 225.3C138.9 201.5 142.633 183.65 145.2 171.75H115.45L118.6 162.3H146.95L151.5 143.4C156.867 120.533 166.433 102.45 180.2 89.15C194.2 75.6167 212.4 68.85 234.8 68.85Z" fill="white"/>
<path d="M487.25 68.85C502.65 68.85 515.367 72.5833 525.4 80.05C529.6 83.7833 532.633 87.4 534.5 90.9C536.367 95.1 537.3 98.8333 537.3 102.1C537.3 107.7 535.55 112.6 532.05 116.8C528.783 120.767 524.467 122.75 519.1 122.75C515.6 122.75 512.1 121.35 508.6 118.55C505.1 115.983 503.35 112.017 503.35 106.65C503.35 97.55 508.6 91.25 519.1 87.75C515.833 85.1833 511.75 82.85 506.85 80.75C501.717 78.8833 495.533 77.95 488.3 77.95C462.867 77.95 446.417 93.35 438.95 124.15L430.9 157.75H528.9L485.5 278.5C483.633 282.933 482.7 287.483 482.7 292.15C482.7 299.383 485.967 303 492.5 303C496.233 303 499.967 301.483 503.7 298.45C509.533 294.25 514.55 287.483 518.75 278.15C523.183 268.817 526.1 259.833 527.5 251.2L535.55 256.8C522.483 299.267 503.933 320.5 479.9 320.5C471.033 320.5 464.033 317.817 458.9 312.45C453.767 307.083 451.2 299.85 451.2 290.75C451.2 282.583 452.95 274.067 456.45 265.2L492.15 167.2H429.5L398.7 310C387.967 362.033 370.583 394.35 346.55 406.95C338.85 410.45 331.033 412.2 323.1 412.2C314.233 412.2 306.3 409.05 299.3 402.75C293 396.45 289.85 389.1 289.85 380.7C289.85 375.1 291.483 370.317 294.75 366.35C298.017 362.617 302.45 360.75 308.05 360.75C312.25 360.75 315.983 362.15 319.25 364.95C322.517 367.983 324.15 371.6 324.15 375.8C324.15 381.867 322.633 386.417 319.6 389.45C316.8 392.717 313.183 395.167 308.75 396.8C309.683 398.433 311.317 399.833 313.65 401C315.75 401.933 318.2 402.4 321 402.4C337.333 402.4 349.467 385.133 357.4 350.6C357.633 349.667 357.983 348.033 358.45 345.7C358.917 343.6 359.383 341.383 359.85 339.05C360.55 336.95 361.133 334.733 361.6 332.4C362.3 329.833 363.233 325.633 364.4 319.8C365.567 313.967 366.5 309.533 367.2 306.5C368.6 298.333 370.7 288.3 373.5 276.4C378.4 252.133 385.983 215.733 396.25 167.2H366.5L369.65 157.75H398L401.5 143.4C413.4 93.7 441.983 68.85 487.25 68.85Z" fill="white"/>
<path d="M809.7 161.25V305.8H835.95V317H743.2V305.8H765.95V172.45H705.75V305.45H728.5V317H635.75V305.45H662V172.45H635.75V161.25H662V136.75C662 116.45 669.35 100.117 684.05 87.75C698.75 75.3833 716.25 69.2 736.55 69.2C763.85 69.2 783.8 78.1833 796.4 96.15C799.433 100.583 800.95 106.067 800.95 112.6C800.95 118.433 798.967 123.567 795 128C791.033 132.2 786.133 134.3 780.3 134.3C774.467 134.3 769.567 132.55 765.6 129.05C761.633 125.55 759.65 120.883 759.65 115.05C759.65 104.317 766.067 97.6667 778.9 95.1C772.833 85.3 761.05 80.4 743.55 80.4C730.483 80.4 720.333 84.7166 713.1 93.35C705.867 101.75 702.25 112.6 702.25 125.9V161.25H809.7Z" fill="white"/>
<path d="M1090.35 69.9V305.8H1116.6V317H1020.35V305.8H1046.6V99.3C1046.6 93.2333 1044.15 88.5667 1039.25 85.3C1034.58 82.0333 1028.98 80.4 1022.45 80.4C998.65 80.4 986.75 95.6833 986.75 126.25V161.25H1018.25V172.45H986.75V305.8H1013V317H916.75V305.8H943V172.45H916.75V161.25H943V135.35C943 114.817 949.65 98.7167 962.95 87.05C976.25 75.15 993.167 69.2 1013.7 69.2C1028.17 69.2 1040.42 70.8333 1050.45 74.1L1090.35 69.9Z" fill="white"/>
<path d="M528.95 583.25V729.55H555.2V739H469.45V729.55H495.7V592.7H428.5V729.55H454.75V739H369V729.55H395.25V592.7H369V583.25H395.25V555.6C395.25 536 402.133 520.483 415.9 509.05C429.667 497.383 446.467 491.55 466.3 491.55C477.5 491.55 486.833 492.95 494.3 495.75C516.233 505.55 527.2 518.15 527.2 533.55C527.2 538.917 525.683 543.467 522.65 547.2C519.617 550.7 515.417 552.45 510.05 552.45C504.683 552.45 500.483 550.933 497.45 547.9C493.95 544.633 492.2 540.55 492.2 535.65C492.2 527.483 496.517 520.833 505.15 515.7C499.083 505.9 487.3 501 469.8 501C456.5 501 446.233 504.967 439 512.9C432 520.833 428.5 531.45 428.5 544.75V583.25H528.95ZM816.393 492.25V729.55H842.643V739H756.893V729.55H783.143V520.95C783.143 514.65 780.226 509.75 774.393 506.25C768.56 502.75 762.26 501 755.493 501C742.193 501 732.276 504.967 725.743 512.9C719.443 520.6 716.293 531.217 716.293 544.75V583.25H747.793V592.7H716.293V729.55H742.543V739H656.793V729.55H683.043V592.7H656.793V583.25H683.043V555.6C683.043 535.767 689.46 520.133 702.293 508.7C715.126 497.267 731.343 491.55 750.943 491.55C762.843 491.55 773.693 493.183 783.493 496.45L816.393 492.25Z" fill="white"/>
<path d="M89 337H1173.5" stroke="white" stroke-width="3"/>
<path d="M68 760H1152.5" stroke="white" stroke-width="3"/>
<path d="M92 350H1176.5" stroke="white" stroke-width="3"/>
<path d="M71 773H1155.5" stroke="white" stroke-width="3"/>
<path d="M92 362H1176.5" stroke="white" stroke-width="3"/>
<path d="M71 785H1155.5" stroke="white" stroke-width="3"/>
<ellipse cx="794" cy="499" rx="65" ry="66" stroke="white" stroke-width="3" stroke-dasharray="6 6"/>
<ellipse cx="1056" cy="68" rx="65" ry="66" stroke="white" stroke-width="3" stroke-dasharray="6 6"/>
<ellipse cx="513.5" cy="139.5" rx="52.5" ry="53.5" stroke="white" stroke-width="3" stroke-dasharray="6 6"/>
<ellipse cx="282.5" cy="89.5" rx="59.5" ry="60.5" stroke="white" stroke-width="3" stroke-dasharray="6 6"/>
<ellipse cx="786" cy="145" rx="58" ry="59" stroke="white" stroke-width="3" stroke-dasharray="6 6"/>
<ellipse cx="510.5" cy="562" rx="55.5" ry="56" stroke="white" stroke-width="3" stroke-dasharray="6 6"/>
<path d="M172.292 378.02C172.292 379.7 171.572 381.26 170.132 382.7C168.716 384.14 167.12 385.16 165.344 385.76H171.284L173.408 381.296H174.56L173.012 389H159.26V387.848C160.796 387.488 162.296 386.804 163.76 385.796C165.248 384.788 166.352 383.636 167.072 382.34C167.648 381.212 167.936 380.012 167.936 378.74C167.936 376.004 166.652 374.636 164.084 374.636C162.98 374.636 162.08 374.96 161.384 375.608C160.712 376.256 160.376 377.132 160.376 378.236C160.376 378.668 160.436 379.016 160.556 379.28C160.772 378.92 161.012 378.644 161.276 378.452C161.564 378.236 161.948 378.128 162.428 378.128C163.028 378.128 163.496 378.308 163.832 378.668C164.192 379.028 164.372 379.508 164.372 380.108C164.372 380.78 164.168 381.308 163.76 381.692C163.376 382.076 162.86 382.268 162.212 382.268C161.18 382.268 160.4 381.884 159.872 381.116C159.368 380.348 159.116 379.424 159.116 378.344C159.116 376.496 159.752 375.08 161.024 374.096C162.32 373.112 163.904 372.62 165.776 372.62C166.784 372.62 167.72 372.752 168.584 373.016C171.056 373.904 172.292 375.572 172.292 378.02Z" fill="white"/>
<path d="M886.292 381.02C886.292 382.7 885.572 384.26 884.132 385.7C882.716 387.14 881.12 388.16 879.344 388.76H885.284L887.408 384.296H888.56L887.012 392H873.26V390.848C874.796 390.488 876.296 389.804 877.76 388.796C879.248 387.788 880.352 386.636 881.072 385.34C881.648 384.212 881.936 383.012 881.936 381.74C881.936 379.004 880.652 377.636 878.084 377.636C876.98 377.636 876.08 377.96 875.384 378.608C874.712 379.256 874.376 380.132 874.376 381.236C874.376 381.668 874.436 382.016 874.556 382.28C874.772 381.92 875.012 381.644 875.276 381.452C875.564 381.236 875.948 381.128 876.428 381.128C877.028 381.128 877.496 381.308 877.832 381.668C878.192 382.028 878.372 382.508 878.372 383.108C878.372 383.78 878.168 384.308 877.76 384.692C877.376 385.076 876.86 385.268 876.212 385.268C875.18 385.268 874.4 384.884 873.872 384.116C873.368 383.348 873.116 382.424 873.116 381.344C873.116 379.496 873.752 378.08 875.024 377.096C876.32 376.112 877.904 375.62 879.776 375.62C880.784 375.62 881.72 375.752 882.584 376.016C885.056 376.904 886.292 378.572 886.292 381.02Z" fill="white"/>
<path d="M1063.7 375.62C1065.62 375.62 1067.28 376.076 1068.67 376.988C1070.09 377.876 1070.8 379.22 1070.8 381.02C1070.8 382.724 1070.17 384.068 1068.92 385.052C1067.68 386.012 1066.15 386.6 1064.35 386.816V386.96C1069.03 387.32 1071.37 389.036 1071.37 392.108C1071.37 394.028 1070.57 395.516 1068.96 396.572C1067.38 397.628 1065.58 398.156 1063.56 398.156C1061.83 398.156 1060.33 397.772 1059.06 397.004C1057.81 396.236 1057.19 395.06 1057.19 393.476C1057.19 392.684 1057.39 392 1057.8 391.424C1058.21 390.824 1058.8 390.524 1059.56 390.524C1060.19 390.524 1060.69 390.704 1061.08 391.064C1061.48 391.424 1061.69 391.916 1061.69 392.54C1061.69 393.116 1061.51 393.62 1061.15 394.052C1060.81 394.508 1060.36 394.736 1059.78 394.736C1059.35 394.736 1058.94 394.604 1058.56 394.34C1058.72 395.108 1059.19 395.696 1059.96 396.104C1060.73 396.536 1061.54 396.752 1062.41 396.752C1063.87 396.752 1064.98 396.308 1065.72 395.42C1066.49 394.532 1066.87 393.344 1066.87 391.856C1066.87 388.976 1065.37 387.536 1062.37 387.536H1061.44V386.384H1062.37C1063.69 386.384 1064.68 385.94 1065.32 385.052C1066 384.164 1066.33 383.036 1066.33 381.668C1066.33 378.812 1064.89 377.384 1062.01 377.384C1061.6 377.384 1061.14 377.444 1060.61 377.564C1059.84 377.804 1059.23 378.212 1058.77 378.788C1058.34 379.364 1058.12 380.06 1058.12 380.876C1058.58 380.252 1059.18 379.94 1059.92 379.94C1060.52 379.94 1061 380.12 1061.36 380.48C1061.72 380.816 1061.9 381.284 1061.9 381.884C1061.9 382.556 1061.69 383.108 1061.26 383.54C1060.82 383.972 1060.26 384.188 1059.56 384.188C1058.72 384.188 1058.06 383.912 1057.58 383.36C1057.13 382.808 1056.9 382.112 1056.9 381.272C1056.9 379.424 1057.56 378.02 1058.88 377.06C1060.2 376.1 1061.81 375.62 1063.7 375.62Z" fill="white"/>
<path d="M335.704 795.62C337.624 795.62 339.28 796.076 340.672 796.988C342.088 797.876 342.796 799.22 342.796 801.02C342.796 802.724 342.172 804.068 340.924 805.052C339.676 806.012 338.152 806.6 336.352 806.816V806.96C341.032 807.32 343.372 809.036 343.372 812.108C343.372 814.028 342.568 815.516 340.96 816.572C339.376 817.628 337.576 818.156 335.56 818.156C333.832 818.156 332.332 817.772 331.06 817.004C329.812 816.236 329.188 815.06 329.188 813.476C329.188 812.684 329.392 812 329.8 811.424C330.208 810.824 330.796 810.524 331.564 810.524C332.188 810.524 332.692 810.704 333.076 811.064C333.484 811.424 333.688 811.916 333.688 812.54C333.688 813.116 333.508 813.62 333.148 814.052C332.812 814.508 332.356 814.736 331.78 814.736C331.348 814.736 330.94 814.604 330.556 814.34C330.724 815.108 331.192 815.696 331.96 816.104C332.728 816.536 333.544 816.752 334.408 816.752C335.872 816.752 336.976 816.308 337.72 815.42C338.488 814.532 338.872 813.344 338.872 811.856C338.872 808.976 337.372 807.536 334.372 807.536H333.436V806.384H334.372C335.692 806.384 336.676 805.94 337.324 805.052C337.996 804.164 338.332 803.036 338.332 801.668C338.332 798.812 336.892 797.384 334.012 797.384C333.604 797.384 333.136 797.444 332.608 797.564C331.84 797.804 331.228 798.212 330.772 798.788C330.34 799.364 330.124 800.06 330.124 800.876C330.58 800.252 331.18 799.94 331.924 799.94C332.524 799.94 333.004 800.12 333.364 800.48C333.724 800.816 333.904 801.284 333.904 801.884C333.904 802.556 333.688 803.108 333.256 803.54C332.824 803.972 332.26 804.188 331.564 804.188C330.724 804.188 330.064 803.912 329.584 803.36C329.128 802.808 328.9 802.112 328.9 801.272C328.9 799.424 329.56 798.02 330.88 797.06C332.2 796.1 333.808 795.62 335.704 795.62Z" fill="white"/>
<path d="M906.704 722.62C908.624 722.62 910.28 723.076 911.672 723.988C913.088 724.876 913.796 726.22 913.796 728.02C913.796 729.724 913.172 731.068 911.924 732.052C910.676 733.012 909.152 733.6 907.352 733.816V733.96C912.032 734.32 914.372 736.036 914.372 739.108C914.372 741.028 913.568 742.516 911.96 743.572C910.376 744.628 908.576 745.156 906.56 745.156C904.832 745.156 903.332 744.772 902.06 744.004C900.812 743.236 900.188 742.06 900.188 740.476C900.188 739.684 900.392 739 900.8 738.424C901.208 737.824 901.796 737.524 902.564 737.524C903.188 737.524 903.692 737.704 904.076 738.064C904.484 738.424 904.688 738.916 904.688 739.54C904.688 740.116 904.508 740.62 904.148 741.052C903.812 741.508 903.356 741.736 902.78 741.736C902.348 741.736 901.94 741.604 901.556 741.34C901.724 742.108 902.192 742.696 902.96 743.104C903.728 743.536 904.544 743.752 905.408 743.752C906.872 743.752 907.976 743.308 908.72 742.42C909.488 741.532 909.872 740.344 909.872 738.856C909.872 735.976 908.372 734.536 905.372 734.536H904.436V733.384H905.372C906.692 733.384 907.676 732.94 908.324 732.052C908.996 731.164 909.332 730.036 909.332 728.668C909.332 725.812 907.892 724.384 905.012 724.384C904.604 724.384 904.136 724.444 903.608 724.564C902.84 724.804 902.228 725.212 901.772 725.788C901.34 726.364 901.124 727.06 901.124 727.876C901.58 727.252 902.18 726.94 902.924 726.94C903.524 726.94 904.004 727.12 904.364 727.48C904.724 727.816 904.904 728.284 904.904 728.884C904.904 729.556 904.688 730.108 904.256 730.54C903.824 730.972 903.26 731.188 902.564 731.188C901.724 731.188 901.064 730.912 900.584 730.36C900.128 729.808 899.9 729.112 899.9 728.272C899.9 726.424 900.56 725.02 901.88 724.06C903.2 723.1 904.808 722.62 906.704 722.62Z" fill="white"/>
<path d="M681.292 378.02C681.292 379.7 680.572 381.26 679.132 382.7C677.716 384.14 676.12 385.16 674.344 385.76H680.284L682.408 381.296H683.56L682.012 389H668.26V387.848C669.796 387.488 671.296 386.804 672.76 385.796C674.248 384.788 675.352 383.636 676.072 382.34C676.648 381.212 676.936 380.012 676.936 378.74C676.936 376.004 675.652 374.636 673.084 374.636C671.98 374.636 671.08 374.96 670.384 375.608C669.712 376.256 669.376 377.132 669.376 378.236C669.376 378.668 669.436 379.016 669.556 379.28C669.772 378.92 670.012 378.644 670.276 378.452C670.564 378.236 670.948 378.128 671.428 378.128C672.028 378.128 672.496 378.308 672.832 378.668C673.192 379.028 673.372 379.508 673.372 380.108C673.372 380.78 673.168 381.308 672.76 381.692C672.376 382.076 671.86 382.268 671.212 382.268C670.18 382.268 669.4 381.884 668.872 381.116C668.368 380.348 668.116 379.424 668.116 378.344C668.116 376.496 668.752 375.08 670.024 374.096C671.32 373.112 672.904 372.62 674.776 372.62C675.784 372.62 676.72 372.752 677.584 373.016C680.056 373.904 681.292 375.572 681.292 378.02Z" fill="white"/>
<path d="M181.292 728.02C181.292 729.7 180.572 731.26 179.132 732.7C177.716 734.14 176.12 735.16 174.344 735.76H180.284L182.408 731.296H183.56L182.012 739H168.26V737.848C169.796 737.488 171.296 736.804 172.76 735.796C174.248 734.788 175.352 733.636 176.072 732.34C176.648 731.212 176.936 730.012 176.936 728.74C176.936 726.004 175.652 724.636 173.084 724.636C171.98 724.636 171.08 724.96 170.384 725.608C169.712 726.256 169.376 727.132 169.376 728.236C169.376 728.668 169.436 729.016 169.556 729.28C169.772 728.92 170.012 728.644 170.276 728.452C170.564 728.236 170.948 728.128 171.428 728.128C172.028 728.128 172.496 728.308 172.832 728.668C173.192 729.028 173.372 729.508 173.372 730.108C173.372 730.78 173.168 731.308 172.76 731.692C172.376 732.076 171.86 732.268 171.212 732.268C170.18 732.268 169.4 731.884 168.872 731.116C168.368 730.348 168.116 729.424 168.116 728.344C168.116 726.496 168.752 725.08 170.024 724.096C171.32 723.112 172.904 722.62 174.776 722.62C175.784 722.62 176.72 722.752 177.584 723.016C180.056 723.904 181.292 725.572 181.292 728.02Z" fill="white"/>
<path d="M493.292 801.02C493.292 802.7 492.572 804.26 491.132 805.7C489.716 807.14 488.12 808.16 486.344 808.76H492.284L494.408 804.296H495.56L494.012 812H480.26V810.848C481.796 810.488 483.296 809.804 484.76 808.796C486.248 807.788 487.352 806.636 488.072 805.34C488.648 804.212 488.936 803.012 488.936 801.74C488.936 799.004 487.652 797.636 485.084 797.636C483.98 797.636 483.08 797.96 482.384 798.608C481.712 799.256 481.376 800.132 481.376 801.236C481.376 801.668 481.436 802.016 481.556 802.28C481.772 801.92 482.012 801.644 482.276 801.452C482.564 801.236 482.948 801.128 483.428 801.128C484.028 801.128 484.496 801.308 484.832 801.668C485.192 802.028 485.372 802.508 485.372 803.108C485.372 803.78 485.168 804.308 484.76 804.692C484.376 805.076 483.86 805.268 483.212 805.268C482.18 805.268 481.4 804.884 480.872 804.116C480.368 803.348 480.116 802.424 480.116 801.344C480.116 799.496 480.752 798.08 482.024 797.096C483.32 796.112 484.904 795.62 486.776 795.62C487.784 795.62 488.72 795.752 489.584 796.016C492.056 796.904 493.292 798.572 493.292 801.02Z" fill="white"/>
<path d="M989.292 807.02C989.292 808.7 988.572 810.26 987.132 811.7C985.716 813.14 984.12 814.16 982.344 814.76H988.284L990.408 810.296H991.56L990.012 818H976.26V816.848C977.796 816.488 979.296 815.804 980.76 814.796C982.248 813.788 983.352 812.636 984.072 811.34C984.648 810.212 984.936 809.012 984.936 807.74C984.936 805.004 983.652 803.636 981.084 803.636C979.98 803.636 979.08 803.96 978.384 804.608C977.712 805.256 977.376 806.132 977.376 807.236C977.376 807.668 977.436 808.016 977.556 808.28C977.772 807.92 978.012 807.644 978.276 807.452C978.564 807.236 978.948 807.128 979.428 807.128C980.028 807.128 980.496 807.308 980.832 807.668C981.192 808.028 981.372 808.508 981.372 809.108C981.372 809.78 981.168 810.308 980.76 810.692C980.376 811.076 979.86 811.268 979.212 811.268C978.18 811.268 977.4 810.884 976.872 810.116C976.368 809.348 976.116 808.424 976.116 807.344C976.116 805.496 976.752 804.08 978.024 803.096C979.32 802.112 980.904 801.62 982.776 801.62C983.784 801.62 984.72 801.752 985.584 802.016C988.056 802.904 989.292 804.572 989.292 807.02Z" fill="white"/>
<path d="M1121.29 801.02C1121.29 802.7 1120.57 804.26 1119.13 805.7C1117.72 807.14 1116.12 808.16 1114.34 808.76H1120.28L1122.41 804.296H1123.56L1122.01 812H1108.26V810.848C1109.8 810.488 1111.3 809.804 1112.76 808.796C1114.25 807.788 1115.35 806.636 1116.07 805.34C1116.65 804.212 1116.94 803.012 1116.94 801.74C1116.94 799.004 1115.65 797.636 1113.08 797.636C1111.98 797.636 1111.08 797.96 1110.38 798.608C1109.71 799.256 1109.38 800.132 1109.38 801.236C1109.38 801.668 1109.44 802.016 1109.56 802.28C1109.77 801.92 1110.01 801.644 1110.28 801.452C1110.56 801.236 1110.95 801.128 1111.43 801.128C1112.03 801.128 1112.5 801.308 1112.83 801.668C1113.19 802.028 1113.37 802.508 1113.37 803.108C1113.37 803.78 1113.17 804.308 1112.76 804.692C1112.38 805.076 1111.86 805.268 1111.21 805.268C1110.18 805.268 1109.4 804.884 1108.87 804.116C1108.37 803.348 1108.12 802.424 1108.12 801.344C1108.12 799.496 1108.75 798.08 1110.02 797.096C1111.32 796.112 1112.9 795.62 1114.78 795.62C1115.78 795.62 1116.72 795.752 1117.58 796.016C1120.06 796.904 1121.29 798.572 1121.29 801.02Z" fill="white"/>
<path d="M236.08 374.132V372.98H245.98V374.132H243.28V387.848H245.98V389H236.08V387.848H238.78V374.132H236.08Z" fill="white"/>
<path d="M558.08 296.132V294.98H567.98V296.132H565.28V309.848H567.98V311H558.08V309.848H560.78V296.132H558.08Z" fill="white"/>
<path d="M277.08 724.132V722.98H286.98V724.132H284.28V737.848H286.98V739H277.08V737.848H279.78V724.132H277.08Z" fill="white"/>
<path d="M565.08 797.132V795.98H574.98V797.132H572.28V810.848H574.98V812H565.08V810.848H567.78V797.132H565.08Z" fill="white"/>
<path d="M809.08 798.132V796.98H818.98V798.132H816.28V811.848H818.98V813H809.08V811.848H811.78V798.132H809.08Z" fill="white"/>
<path d="M61.832 807.168C57.352 807.168 53.896 806.304 51.464 804.576C49.096 802.912 47.912 800.256 47.912 796.608C47.912 795.584 48.008 794.528 48.2 793.44C48.392 792.416 48.616 791.296 48.872 790.08L51.176 780C51.368 778.976 51.528 778.048 51.656 777.216C51.784 776.384 51.848 775.584 51.848 774.816C51.848 772.576 51.016 770.912 49.352 769.824C47.688 768.672 45.256 768.096 42.056 768.096L43.688 761.088C47.4 761.088 50.376 760.416 52.616 759.072C54.856 757.728 56.296 755.424 56.936 752.16L60.104 737.088C60.808 733.696 61.832 731.008 63.176 729.024C64.584 727.04 66.472 725.632 68.84 724.8C71.208 723.904 74.152 723.456 77.672 723.456H79.4L77.96 730.464C75.144 730.464 72.936 730.944 71.336 731.904C69.736 732.864 68.584 734.848 67.88 737.856L64.52 752.832C63.816 756.096 62.536 758.784 60.68 760.896C58.888 763.008 56.104 764.384 52.328 765.024V765.216C54.824 765.856 56.648 767.072 57.8 768.864C58.952 770.592 59.528 772.704 59.528 775.2C59.528 776.032 59.432 776.992 59.24 778.08C59.112 779.168 58.92 780.224 58.664 781.248L56.552 791.04C56.36 791.872 56.2 792.64 56.072 793.344C55.944 794.112 55.88 794.816 55.88 795.456C55.88 797.312 56.52 798.56 57.8 799.2C59.144 799.84 60.904 800.16 63.08 800.16V807.168H61.832Z" fill="white"/>
<path d="M88.832 377.168C84.352 377.168 80.896 376.304 78.464 374.576C76.096 372.912 74.912 370.256 74.912 366.608C74.912 365.584 75.008 364.528 75.2 363.44C75.392 362.416 75.616 361.296 75.872 360.08L78.176 350C78.368 348.976 78.528 348.048 78.656 347.216C78.784 346.384 78.848 345.584 78.848 344.816C78.848 342.576 78.016 340.912 76.352 339.824C74.688 338.672 72.256 338.096 69.056 338.096L70.688 331.088C74.4 331.088 77.376 330.416 79.616 329.072C81.856 327.728 83.296 325.424 83.936 322.16L87.104 307.088C87.808 303.696 88.832 301.008 90.176 299.024C91.584 297.04 93.472 295.632 95.84 294.8C98.208 293.904 101.152 293.456 104.672 293.456H106.4L104.96 300.464C102.144 300.464 99.936 300.944 98.336 301.904C96.736 302.864 95.584 304.848 94.88 307.856L91.52 322.832C90.816 326.096 89.536 328.784 87.68 330.896C85.888 333.008 83.104 334.384 79.328 335.024V335.216C81.824 335.856 83.648 337.072 84.8 338.864C85.952 340.592 86.528 342.704 86.528 345.2C86.528 346.032 86.432 346.992 86.24 348.08C86.112 349.168 85.92 350.224 85.664 351.248L83.552 361.04C83.36 361.872 83.2 362.64 83.072 363.344C82.944 364.112 82.88 364.816 82.88 365.456C82.88 367.312 83.52 368.56 84.8 369.2C86.144 369.84 87.904 370.16 90.08 370.16V377.168H88.832Z" fill="white"/>
<path d="M10.88 221.432H7.84V242.136H10.88V243H1.6V242.136H4.64V221.432H1.6V220.568H10.88V221.432ZM15.84 239.704V229.624H12.8V228.76H15.872L18.048 223.992H18.88V228.76H22.944V229.624H18.88V239.256C18.88 240.984 19.4987 241.848 20.736 241.848C21.6107 241.848 22.3787 241.325 23.04 240.28L23.712 240.824C22.5813 242.445 21.2053 243.256 19.584 243.256C18.432 243.256 17.5147 242.947 16.832 242.328C16.1707 241.709 15.84 240.835 15.84 239.704ZM31.3428 235.224C32.5374 235.224 33.5614 235.384 34.4148 235.704V231.864C34.4148 230.989 34.2121 230.349 33.8068 229.944C33.4228 229.517 32.7934 229.304 31.9188 229.304C30.8734 229.304 29.9988 229.581 29.2948 230.136C29.5721 230.221 29.8494 230.403 30.1268 230.68C30.3614 230.979 30.4788 231.363 30.4788 231.832C30.4788 232.301 30.3294 232.685 30.0308 232.984C29.7321 233.283 29.3481 233.432 28.8788 233.432C28.4094 233.432 28.0361 233.272 27.7588 232.952C27.4601 232.653 27.3108 232.259 27.3108 231.768C27.3108 230.744 27.8761 229.944 29.0068 229.368C30.1588 228.771 31.3108 228.472 32.4628 228.472C35.7908 228.472 37.4548 229.709 37.4548 232.184V240.568C37.4548 241.485 37.7961 241.944 38.4788 241.944C38.7988 241.944 39.0974 241.827 39.3748 241.592C39.5881 241.379 39.7801 241.155 39.9508 240.92L40.4628 241.432C39.6308 242.648 38.6174 243.256 37.4228 243.256C36.8041 243.256 36.2494 243.128 35.7588 242.872C35.2681 242.637 34.8734 242.2 34.5748 241.56C33.2521 242.712 31.8014 243.288 30.2228 243.288C29.0068 243.288 27.9934 242.936 27.1828 242.232C26.3934 241.507 25.9988 240.547 25.9988 239.352C25.9988 237.923 26.5108 236.877 27.5348 236.216C28.5801 235.555 29.8494 235.224 31.3428 235.224ZM29.1988 238.968C29.1988 239.864 29.4228 240.568 29.8708 241.08C30.3401 241.592 31.0121 241.848 31.8868 241.848C32.3988 241.848 32.8574 241.752 33.2628 241.56C33.6681 241.411 34.0521 241.165 34.4148 240.824V236.504C34.0094 236.355 33.6041 236.227 33.1988 236.12C32.8148 236.056 32.3881 236.024 31.9188 236.024C31.0228 236.024 30.3401 236.291 29.8708 236.824C29.4228 237.336 29.1988 238.051 29.1988 238.968ZM46.8688 220.248V242.136H49.2688V243H41.4288V242.136H43.8288V221.432H41.4288V220.568H43.8608L46.8688 220.248ZM56.1783 224.92C55.8156 225.304 55.3783 225.496 54.8663 225.496C54.3543 225.496 53.9063 225.315 53.5223 224.952C53.1383 224.568 52.9463 224.109 52.9463 223.576C52.9463 223.043 53.1276 222.605 53.4903 222.264C53.8743 221.923 54.3329 221.752 54.8663 221.752C55.3996 221.752 55.8369 221.923 56.1783 222.264C56.5409 222.605 56.7223 223.043 56.7223 223.576C56.7223 224.088 56.5409 224.536 56.1783 224.92ZM56.4663 228.312V242.136H58.8663V243H51.0263V242.136H53.4263V229.624H51.0263V228.76H53.4263L56.4663 228.312ZM72.556 239.32L73.196 239.736C72.62 240.803 71.852 241.656 70.892 242.296C69.932 242.915 68.876 243.224 67.724 243.224C65.6333 243.224 63.948 242.52 62.668 241.112C61.4093 239.683 60.78 237.933 60.78 235.864C60.78 233.688 61.42 231.917 62.7 230.552C63.98 229.165 65.676 228.472 67.788 228.472C68.7907 228.472 69.7293 228.675 70.604 229.08C71.4787 229.485 72.1507 230.083 72.62 230.872C72.8973 231.341 73.036 231.789 73.036 232.216C73.036 232.685 72.876 233.091 72.556 233.432C72.2573 233.752 71.8733 233.912 71.404 233.912C70.956 233.912 70.5827 233.773 70.284 233.496C70.0067 233.219 69.868 232.856 69.868 232.408C69.868 231.661 70.2733 231.053 71.084 230.584C70.4227 229.773 69.4627 229.368 68.204 229.368C67.4147 229.368 66.732 229.581 66.156 230.008C65.58 230.413 65.1427 230.957 64.844 231.64C64.5667 232.301 64.364 232.984 64.236 233.688C64.108 234.371 64.044 235.085 64.044 235.832C64.044 237.517 64.4067 238.979 65.132 240.216C65.8573 241.432 66.988 242.04 68.524 242.04C70.188 242.04 71.532 241.133 72.556 239.32Z" fill="white"/>
<path d="M1173.75 245H1164.6V244.136H1167.64V223.432H1164.6V222.568H1173.56C1178.57 222.568 1181.08 224.232 1181.08 227.56C1181.08 229.053 1180.55 230.269 1179.48 231.208C1178.41 232.147 1177.11 232.733 1175.58 232.968V233.096C1177.28 233.245 1178.73 233.747 1179.93 234.6C1181.12 235.603 1181.72 236.904 1181.72 238.504C1181.72 239.912 1181.31 241.128 1180.5 242.152C1179.71 243.155 1178.73 243.88 1177.56 244.328C1176.39 244.776 1175.12 245 1173.75 245ZM1170.84 244.136H1173.46C1175.04 244.136 1176.24 243.624 1177.05 242.6C1177.88 241.576 1178.3 240.253 1178.3 238.632C1178.3 235.219 1176.69 233.512 1173.46 233.512H1170.84V244.136ZM1170.84 232.648H1173.46C1174.89 232.648 1175.95 232.189 1176.63 231.272C1177.31 230.355 1177.66 229.149 1177.66 227.656C1177.66 224.84 1176.19 223.432 1173.27 223.432H1170.84V232.648ZM1191.48 230.472C1193.68 230.472 1195.43 231.165 1196.73 232.552C1198.03 233.917 1198.68 235.677 1198.68 237.832C1198.68 239.987 1198.01 241.768 1196.66 243.176C1195.32 244.563 1193.59 245.256 1191.48 245.256C1189.24 245.256 1187.48 244.584 1186.2 243.24C1184.92 241.875 1184.28 240.083 1184.28 237.864C1184.28 235.688 1184.94 233.917 1186.26 232.552C1187.61 231.165 1189.35 230.472 1191.48 230.472ZM1191.45 244.392C1192.19 244.392 1192.83 244.179 1193.37 243.752C1193.92 243.304 1194.34 242.739 1194.62 242.056C1194.89 241.352 1195.1 240.659 1195.22 239.976C1195.35 239.272 1195.42 238.568 1195.42 237.864C1195.42 237.139 1195.35 236.435 1195.22 235.752C1195.12 235.069 1194.93 234.376 1194.65 233.672C1194.39 232.968 1193.99 232.403 1193.43 231.976C1192.9 231.549 1192.25 231.336 1191.48 231.336C1190.75 231.336 1190.11 231.56 1189.56 232.008C1189.03 232.435 1188.62 233 1188.34 233.704C1188.07 234.387 1187.86 235.08 1187.74 235.784C1187.61 236.488 1187.54 237.181 1187.54 237.864C1187.54 239.784 1187.89 241.309 1188.57 242.44C1189.25 243.741 1190.21 244.392 1191.45 244.392ZM1206.37 222.248V244.136H1208.77V245H1200.93V244.136H1203.33V223.432H1200.93V222.568H1203.36L1206.37 222.248ZM1221.85 245.352V242.28C1221.34 243.197 1220.67 243.923 1219.84 244.456C1219.03 244.989 1218.12 245.256 1217.12 245.256C1215.11 245.256 1213.53 244.552 1212.38 243.144C1211.25 241.715 1210.69 239.987 1210.69 237.96C1210.69 235.955 1211.28 234.205 1212.48 232.712C1213.69 231.197 1215.27 230.44 1217.21 230.44C1219.41 230.44 1220.96 231.389 1221.85 233.288V223.432H1219.45V222.568H1221.85L1224.89 222.12V244.072H1227.29V244.936H1224.89L1221.85 245.352ZM1218.05 243.912C1218.84 243.912 1219.54 243.635 1220.16 243.08C1220.8 242.525 1221.28 241.853 1221.6 241.064C1221.77 240.552 1221.85 240.125 1221.85 239.784V236.488C1221.85 235.933 1221.77 235.368 1221.6 234.792C1221.21 233.683 1220.55 232.829 1219.61 232.232C1219.12 231.976 1218.6 231.848 1218.05 231.848C1217.3 231.848 1216.64 232.04 1216.06 232.424C1215.51 232.808 1215.08 233.32 1214.78 233.96C1214.48 234.579 1214.26 235.229 1214.11 235.912C1213.96 236.595 1213.89 237.277 1213.89 237.96C1213.89 238.92 1214.01 239.827 1214.27 240.68C1214.53 241.533 1214.97 242.291 1215.61 242.952C1216.28 243.592 1217.09 243.912 1218.05 243.912Z" fill="white"/>
<path d="M919.232 654.216C919.147 653.811 919.051 653.16 918.944 652.264C918.795 650.984 918.645 649.853 918.496 648.872C918.283 647.613 917.877 646.824 917.28 646.504C916.683 646.163 915.701 645.992 914.336 645.992H911.84V656.136H915.2V657H905.6V656.136H908.64V635.432H905.6V634.568H914.656C919.819 634.568 922.4 636.253 922.4 639.624C922.4 641.16 921.813 642.472 920.64 643.56C919.467 644.627 918.091 645.267 916.512 645.48V645.608C919.669 645.629 921.408 646.675 921.728 648.744C921.963 650.301 922.101 651.272 922.144 651.656C922.251 652.637 922.389 653.555 922.56 654.408C922.816 655.56 923.605 656.136 924.928 656.136H925.536V657H923.36C922.187 657 921.259 656.808 920.576 656.424C919.915 656.019 919.467 655.283 919.232 654.216ZM911.84 645.128H914.336C915.851 645.128 917.013 644.659 917.824 643.72C918.635 642.76 919.04 641.523 919.04 640.008C919.04 638.408 918.645 637.245 917.856 636.52C917.088 635.795 915.893 635.432 914.272 635.432H911.84V645.128ZM934.092 642.472C935.948 642.472 937.377 643.059 938.38 644.232C939.404 645.384 939.916 646.888 939.916 648.744H930.732C930.71 648.851 930.7 649.032 930.7 649.288V649.864C930.721 651.613 931.062 653.075 931.724 654.248C932.406 655.421 933.548 656.008 935.148 656.008C937.004 656.008 938.337 655.069 939.148 653.192L939.852 653.704C938.764 656.072 936.929 657.256 934.348 657.256C932.193 657.256 930.508 656.573 929.292 655.208C928.076 653.821 927.468 652.061 927.468 649.928C927.468 647.859 928.065 646.099 929.26 644.648C930.476 643.197 932.086 642.472 934.092 642.472ZM930.828 647.88H936.716C936.63 646.6 936.396 645.608 936.012 644.904C935.5 643.837 934.774 643.304 933.836 643.304C932.236 643.304 931.233 644.829 930.828 647.88ZM952.746 643.912C953.621 642.483 954.794 641.768 956.266 641.768C956.842 641.768 957.322 641.928 957.706 642.248C958.09 642.547 958.282 642.973 958.282 643.528C958.282 644.04 958.144 644.435 957.866 644.712C957.568 645.032 957.216 645.192 956.81 645.192C956.384 645.192 956.042 645.064 955.786 644.808C955.53 644.552 955.402 644.221 955.402 643.816C955.402 643.56 955.466 643.325 955.594 643.112C955.68 642.899 955.818 642.717 956.01 642.568C955.456 642.568 954.933 642.76 954.442 643.144C953.952 643.528 953.568 643.987 953.29 644.52C954.101 645.523 954.506 646.696 954.506 648.04C954.506 649.597 953.92 650.888 952.746 651.912C951.573 652.936 950.197 653.448 948.618 653.448C947.701 653.448 946.848 653.267 946.058 652.904C945.866 653.096 945.728 653.309 945.642 653.544C945.514 653.8 945.45 654.077 945.45 654.376C945.45 655.635 946.41 656.264 948.33 656.264H949.29C950.058 656.264 950.581 656.253 950.858 656.232C951.136 656.211 951.552 656.2 952.106 656.2C952.768 656.2 953.397 656.253 953.994 656.36C954.528 656.488 955.008 656.68 955.434 656.936C956.266 657.512 956.682 658.451 956.682 659.752C956.682 661.117 956.266 662.269 955.434 663.208C954.624 664.147 953.642 664.797 952.49 665.16C951.36 665.544 950.133 665.736 948.81 665.736C948.128 665.736 947.434 665.683 946.73 665.576C946.048 665.469 945.322 665.288 944.554 665.032C943.808 664.797 943.2 664.413 942.73 663.88C942.261 663.368 942.026 662.749 942.026 662.024C942.026 660.488 943.061 659.4 945.13 658.76C944.533 658.547 944.032 658.195 943.626 657.704C943.221 657.235 943.018 656.691 943.018 656.072C943.018 654.621 943.776 653.437 945.29 652.52C944.48 652.029 943.84 651.389 943.37 650.6C942.922 649.789 942.698 648.925 942.698 648.008C942.698 646.301 943.253 644.947 944.362 643.944C945.472 642.941 946.88 642.44 948.586 642.44C949.482 642.44 950.282 642.568 950.986 642.824C951.712 643.144 952.298 643.507 952.746 643.912ZM954.602 660.776C954.602 659.581 953.76 658.984 952.074 658.984H951.53C951.21 658.984 950.965 658.995 950.794 659.016H949.994H949.29H947.946C947.776 659.016 947.52 659.005 947.178 658.984C946.837 658.984 946.581 658.973 946.41 658.952C945.045 659.656 944.362 660.669 944.362 661.992C944.362 662.739 944.704 663.4 945.386 663.976C946.154 664.552 947.349 664.84 948.97 664.84C950.4 664.84 951.69 664.488 952.842 663.784C954.016 663.101 954.602 662.099 954.602 660.776ZM948.586 652.584C949.269 652.584 949.824 652.317 950.25 651.784C950.698 651.229 950.986 650.643 951.114 650.024C951.242 649.384 951.306 648.723 951.306 648.04C951.306 647.549 951.264 647.059 951.178 646.568C951.114 646.077 950.986 645.576 950.794 645.064C950.602 644.531 950.314 644.104 949.93 643.784C949.568 643.464 949.12 643.304 948.586 643.304C947.669 643.304 946.986 643.816 946.538 644.84C946.112 645.843 945.898 646.899 945.898 648.008C945.898 649.117 946.101 650.163 946.506 651.144C946.933 652.104 947.626 652.584 948.586 652.584ZM961.005 652.712V643.624H958.605V642.76H964.045V652.232C964.045 654.536 964.93 655.688 966.701 655.688C967.853 655.688 968.738 655.101 969.357 653.928C969.976 652.733 970.285 651.485 970.285 650.184V643.624H967.885V642.76H973.325V656.136H975.725V657H970.285V653.544C969.922 654.675 969.304 655.581 968.429 656.264C967.554 656.925 966.53 657.256 965.357 657.256C963.928 657.256 962.84 656.861 962.093 656.072C961.368 655.261 961.005 654.141 961.005 652.712ZM983.088 634.248V656.136H985.488V657H977.648V656.136H980.048V635.432H977.648V634.568H980.08L983.088 634.248ZM992.749 649.224C993.944 649.224 994.968 649.384 995.821 649.704V645.864C995.821 644.989 995.618 644.349 995.213 643.944C994.829 643.517 994.2 643.304 993.325 643.304C992.28 643.304 991.405 643.581 990.701 644.136C990.978 644.221 991.256 644.403 991.533 644.68C991.768 644.979 991.885 645.363 991.885 645.832C991.885 646.301 991.736 646.685 991.437 646.984C991.138 647.283 990.754 647.432 990.285 647.432C989.816 647.432 989.442 647.272 989.165 646.952C988.866 646.653 988.717 646.259 988.717 645.768C988.717 644.744 989.282 643.944 990.413 643.368C991.565 642.771 992.717 642.472 993.869 642.472C997.197 642.472 998.861 643.709 998.861 646.184V654.568C998.861 655.485 999.202 655.944 999.885 655.944C1000.21 655.944 1000.5 655.827 1000.78 655.592C1000.99 655.379 1001.19 655.155 1001.36 654.92L1001.87 655.432C1001.04 656.648 1000.02 657.256 998.829 657.256C998.21 657.256 997.656 657.128 997.165 656.872C996.674 656.637 996.28 656.2 995.981 655.56C994.658 656.712 993.208 657.288 991.629 657.288C990.413 657.288 989.4 656.936 988.589 656.232C987.8 655.507 987.405 654.547 987.405 653.352C987.405 651.923 987.917 650.877 988.941 650.216C989.986 649.555 991.256 649.224 992.749 649.224ZM990.605 652.968C990.605 653.864 990.829 654.568 991.277 655.08C991.746 655.592 992.418 655.848 993.293 655.848C993.805 655.848 994.264 655.752 994.669 655.56C995.074 655.411 995.458 655.165 995.821 654.824V650.504C995.416 650.355 995.01 650.227 994.605 650.12C994.221 650.056 993.794 650.024 993.325 650.024C992.429 650.024 991.746 650.291 991.277 650.824C990.829 651.336 990.605 652.051 990.605 652.968ZM1008.44 642.312V645.864C1009.29 643.603 1010.78 642.472 1012.92 642.472C1013.75 642.472 1014.44 642.717 1015 643.208C1015.55 643.699 1015.83 644.36 1015.83 645.192C1015.83 645.683 1015.66 646.109 1015.32 646.472C1015 646.813 1014.59 646.984 1014.1 646.984C1013.65 646.984 1013.28 646.845 1012.98 646.568C1012.68 646.269 1012.53 645.896 1012.53 645.448C1012.53 644.637 1012.96 644.029 1013.81 643.624C1013.53 643.453 1013.19 643.368 1012.79 643.368C1011.44 643.368 1010.38 644.029 1009.59 645.352C1008.82 646.653 1008.44 648.04 1008.44 649.512V656.136H1011.16V657H1003V656.136H1005.4V643.624H1003V642.76H1005.4L1008.44 642.312Z" fill="white"/>
</svg>
