<svg width="928" height="968" viewBox="0 0 928 968" fill="none" xmlns="http://www.w3.org/2000/svg">
<path d="M146 273L835 273" stroke="white" stroke-width="3"/>
<path d="M146 281L835 281" stroke="white" stroke-width="3"/>
<path d="M146 516L835 516" stroke="white" stroke-width="3"/>
<path d="M147 508L836 508" stroke="white" stroke-width="3"/>
<path d="M135 726L824 726" stroke="white" stroke-width="3"/>
<path d="M135 734L824 734" stroke="white" stroke-width="3"/>
<rect x="59" y="2" width="850" height="950" stroke="white" stroke-width="4"/>
<rect x="75.5" y="15.5" width="851" height="951" stroke="white" stroke-width="3"/>
<path d="M112 158.967C111.416 139.051 99.4648 100.234 56.3366 104.295C13.2085 108.357 4.17965 142.436 5.05624 158.967C7.83209 174.588 21.9744 206.063 56.3366 207" stroke="white" stroke-width="4"/>
<path d="M112 190.967C111.416 171.051 99.4648 132.234 56.3366 136.295C13.2085 140.357 4.17965 174.436 5.05624 190.967C7.83209 206.588 21.9744 238.063 56.3366 239" stroke="white" stroke-width="4"/>
<path d="M112 297.967C111.416 278.051 99.4648 239.234 56.3366 243.295C13.2085 247.357 4.17965 281.436 5.05624 297.967C7.83209 313.588 21.9744 345.063 56.3366 346" stroke="white" stroke-width="4"/>
<path d="M109 321.967C108.416 302.051 96.4648 263.234 53.3366 267.295C10.2085 271.357 1.17965 305.436 2.05624 321.967C4.83209 337.588 18.9744 369.063 53.3366 370" stroke="white" stroke-width="4"/>
<path d="M112 459.967C111.416 440.051 99.4648 401.234 56.3366 405.295C13.2085 409.357 4.17965 443.436 5.05624 459.967C7.83209 475.588 21.9744 507.063 56.3366 508" stroke="white" stroke-width="4"/>
<path d="M112 485.967C111.416 466.051 99.4648 427.234 56.3366 431.295C13.2085 435.357 4.17965 469.436 5.05624 485.967C7.83209 501.588 21.9744 533.063 56.3366 534" stroke="white" stroke-width="4"/>
<path d="M112 615.967C111.416 596.051 99.4648 557.234 56.3366 561.295C13.2085 565.357 4.17965 599.436 5.05624 615.967C7.83209 631.588 21.9744 663.063 56.3366 664" stroke="white" stroke-width="4"/>
<path d="M112 664.967C111.416 645.051 99.4648 606.234 56.3366 610.295C13.2085 614.357 4.17965 648.436 5.05624 664.967C7.83209 680.588 21.9744 712.063 56.3366 713" stroke="white" stroke-width="4"/>
<path d="M112 771.967C111.416 752.051 99.4648 713.234 56.3366 717.295C13.2085 721.357 4.17965 755.436 5.05624 771.967C7.83209 787.588 21.9744 819.063 56.3366 820" stroke="white" stroke-width="4"/>
<path d="M112 813.967C111.416 794.051 99.4648 755.234 56.3366 759.295C13.2085 763.357 4.17965 797.436 5.05624 813.967C7.83209 829.588 21.9744 861.063 56.3366 862" stroke="white" stroke-width="4"/>
<path d="M105.888 166.68C104.128 164.811 103.249 162.446 103.249 159.586C103.249 156.727 104.128 154.417 105.888 152.658C107.758 150.788 110.122 149.853 112.982 149.853C115.951 149.853 118.316 150.733 120.076 152.493C121.835 154.252 122.715 156.617 122.715 159.586C122.715 162.446 121.78 164.811 119.911 166.68C118.151 168.44 115.841 169.32 112.982 169.32C110.122 169.32 107.758 168.44 105.888 166.68Z" fill="white"/>
<path d="M105.888 202.68C104.128 200.811 103.249 198.446 103.249 195.586C103.249 192.727 104.128 190.417 105.888 188.658C107.758 186.788 110.122 185.853 112.982 185.853C115.951 185.853 118.316 186.733 120.076 188.493C121.835 190.252 122.715 192.617 122.715 195.586C122.715 198.446 121.78 200.811 119.911 202.68C118.151 204.44 115.841 205.32 112.982 205.32C110.122 205.32 107.758 204.44 105.888 202.68Z" fill="white"/>
<path d="M105.888 308.68C104.128 306.811 103.249 304.446 103.249 301.586C103.249 298.727 104.128 296.417 105.888 294.658C107.758 292.788 110.122 291.853 112.982 291.853C115.951 291.853 118.316 292.733 120.076 294.493C121.835 296.252 122.715 298.617 122.715 301.586C122.715 304.446 121.78 306.811 119.911 308.68C118.151 310.44 115.841 311.32 112.982 311.32C110.122 311.32 107.758 310.44 105.888 308.68Z" fill="white"/>
<path d="M101.888 328.68C100.128 326.811 99.2486 324.446 99.2486 321.586C99.2486 318.727 100.128 316.417 101.888 314.658C103.758 312.788 106.122 311.853 108.982 311.853C111.951 311.853 114.316 312.733 116.076 314.493C117.835 316.252 118.715 318.617 118.715 321.586C118.715 324.446 117.78 326.811 115.911 328.68C114.151 330.44 111.841 331.32 108.982 331.32C106.122 331.32 103.758 330.44 101.888 328.68Z" fill="white"/>
<path d="M102.888 465.68C101.128 463.811 100.249 461.446 100.249 458.586C100.249 455.727 101.128 453.417 102.888 451.658C104.758 449.788 107.122 448.853 109.982 448.853C112.951 448.853 115.316 449.733 117.076 451.493C118.835 453.252 119.715 455.617 119.715 458.586C119.715 461.446 118.78 463.811 116.911 465.68C115.151 467.44 112.841 468.32 109.982 468.32C107.122 468.32 104.758 467.44 102.888 465.68Z" fill="white"/>
<path d="M102.888 491.68C101.128 489.811 100.249 487.446 100.249 484.586C100.249 481.727 101.128 479.417 102.888 477.658C104.758 475.788 107.122 474.853 109.982 474.853C112.951 474.853 115.316 475.733 117.076 477.493C118.835 479.252 119.715 481.617 119.715 484.586C119.715 487.446 118.78 489.811 116.911 491.68C115.151 493.44 112.841 494.32 109.982 494.32C107.122 494.32 104.758 493.44 102.888 491.68Z" fill="white"/>
<path d="M102.888 619.68C101.128 617.811 100.249 615.446 100.249 612.586C100.249 609.727 101.128 607.417 102.888 605.658C104.758 603.788 107.122 602.853 109.982 602.853C112.951 602.853 115.316 603.733 117.076 605.493C118.835 607.252 119.715 609.617 119.715 612.586C119.715 615.446 118.78 617.811 116.911 619.68C115.151 621.44 112.841 622.32 109.982 622.32C107.122 622.32 104.758 621.44 102.888 619.68Z" fill="white"/>
<path d="M105.888 675.68C104.128 673.811 103.249 671.446 103.249 668.586C103.249 665.727 104.128 663.417 105.888 661.658C107.758 659.788 110.122 658.853 112.982 658.853C115.951 658.853 118.316 659.733 120.076 661.493C121.835 663.252 122.715 665.617 122.715 668.586C122.715 671.446 121.78 673.811 119.911 675.68C118.151 677.44 115.841 678.32 112.982 678.32C110.122 678.32 107.758 677.44 105.888 675.68Z" fill="white"/>
<path d="M105.888 782.68C104.128 780.811 103.249 778.446 103.249 775.586C103.249 772.727 104.128 770.417 105.888 768.658C107.758 766.788 110.122 765.853 112.982 765.853C115.951 765.853 118.316 766.733 120.076 768.493C121.835 770.252 122.715 772.617 122.715 775.586C122.715 778.446 121.78 780.811 119.911 782.68C118.151 784.44 115.841 785.32 112.982 785.32C110.122 785.32 107.758 784.44 105.888 782.68Z" fill="white"/>
<path d="M105.888 821.68C104.128 819.811 103.249 817.446 103.249 814.586C103.249 811.727 104.128 809.417 105.888 807.658C107.758 805.788 110.122 804.853 112.982 804.853C115.951 804.853 118.316 805.733 120.076 807.493C121.835 809.252 122.715 811.617 122.715 814.586C122.715 817.446 121.78 819.811 119.911 821.68C118.151 823.44 115.841 824.32 112.982 824.32C110.122 824.32 107.758 823.44 105.888 821.68Z" fill="white"/>
</svg>
