<svg width="703" height="905" viewBox="0 0 703 905" fill="none" xmlns="http://www.w3.org/2000/svg">
<g clip-path="url(#clip0_114_13)">
<path d="M270.542 711.934C238.347 678.671 224.243 666.13 213.627 661.371C204.989 657.504 204.078 657.424 163.339 657.424C140.519 657.424 121.485 656.803 121.029 656.055C119.836 654.098 149.33 595.052 158.125 581.811C162.192 575.7 169.307 566.437 173.94 561.233L182.358 551.779L177.976 538.904C173.139 524.707 170.453 508.856 170.406 494.389L170.375 484.935L165.836 489.344C161.957 493.1 161.203 495.232 160.669 503.874C159.884 516.4 156.806 520.553 148.262 520.553C139.263 520.553 137.394 523.498 137.394 537.694C137.394 551.89 134.504 551.668 133.373 536.66C132.761 528.559 133.311 525.296 136.467 518.309C138.572 513.646 142.294 508.315 144.728 506.469C152.267 500.771 154.089 498.463 156.193 492.033C158.25 485.699 157.387 477.582 154.654 477.582C153.822 477.582 151.419 480.988 149.314 485.142C147.21 489.296 141.823 496.553 137.331 501.28C127.123 512.023 124.186 518.755 125.584 528.209C126.165 532.108 127.06 536.453 127.578 537.869C128.411 540.113 128.175 540.161 125.882 538.267C124.422 537.073 123.228 535.1 123.228 533.89C123.228 532.681 122.254 531.694 121.061 531.694C119.867 531.694 118.045 530.66 117.009 529.402C115.972 528.145 112.533 526.872 109.36 526.569L103.597 526.044L110.664 524.262C117.37 522.575 117.464 522.479 112.517 522.32C109.659 522.225 105.905 522.909 104.178 523.848C97.6286 527.397 97.7542 524.118 104.319 520.156L111.214 515.986L106.612 514.84C104.083 514.203 98.9478 512.373 95.21 510.766C87.1532 507.296 86.7135 510.368 94.7074 514.267L99.733 516.718L95.1 521.206C90.4042 525.774 85.0644 525.758 88.8023 521.19C89.8388 519.933 90.3885 518.66 90.0587 518.357C84.7189 513.614 71.1183 503.031 68.6055 501.678C66.7837 500.691 63.4856 499.896 61.2712 499.896C59.0567 499.896 57.2506 499.72 57.2506 499.498C57.2506 499.275 59.0253 495.583 61.1769 491.27C63.3285 486.956 65.1189 481.943 65.1503 480.129C65.1817 478.315 66.1398 475.561 67.3019 474.017C70.1289 470.246 83.2898 463.291 87.5773 463.291C90.577 463.291 90.3571 463.704 85.9282 466.458C80.133 470.039 79.6462 471.009 83.5725 471.137C88.3154 471.28 102.152 474.001 99.6702 474.288C98.3667 474.447 95.1943 475.545 92.6029 476.739L87.8914 478.903L93.3882 478.299C114.339 476.023 113.412 476.405 115.784 469.163C117.715 463.243 118.579 462.415 123.354 461.97L128.725 461.46L123.621 466.824C117.967 472.776 117.37 474.431 120.872 474.431C124.374 474.431 123.793 475.911 119.223 479.556C117.024 481.307 115.517 483.567 115.894 484.553C116.271 485.54 114.747 488.341 112.533 490.744L108.512 495.121H118.281C129.4 495.121 136.499 492.575 141.87 486.67C147.021 481.004 147.916 470.659 143.943 462.925C141.289 457.768 141.179 456.749 143.189 455.062C144.98 453.566 146.157 453.55 148.497 455.047C151.073 456.67 151.513 456.511 151.513 453.948C151.513 452.293 150.461 450.065 149.173 448.967C147.241 447.344 146.267 447.662 143.723 450.765L140.629 454.537L140.582 446.15C140.535 438.097 140.676 437.794 144.273 438.718C147.901 439.641 148.011 439.386 147.806 430.824C147.618 422.627 148.026 421.545 153.397 416.102C160.151 409.258 159.067 407.158 163.15 435.153C164.894 447.057 165.176 453.28 164.093 455.333C161.878 459.535 162.145 461.699 164.878 461.699C166.307 461.699 167.234 460.219 167.234 457.959C167.234 451.911 172.338 448.41 179.342 449.651C182.625 450.224 190.948 451.291 197.859 452.007C205.806 452.834 213.752 454.856 219.5 457.497C224.495 459.805 230.29 461.699 232.394 461.699C237.043 461.699 238.771 464.739 240.2 475.402C241.205 482.898 241.016 483.614 237.813 484.458C235.787 484.999 233.399 484.426 232.08 483.089C230.84 481.832 229.159 480.797 228.358 480.797C227.557 480.797 226.898 479.795 226.898 478.585C226.898 476.5 223.709 474.431 220.49 474.431C219.689 474.431 219.045 476.214 219.045 478.378C219.045 481.211 217.993 482.596 215.276 483.28C207.078 485.365 203.575 483.391 200.984 475.227C199.979 472.092 199.948 472.076 197.733 475.131C196.492 476.834 195.487 480.543 195.487 483.391C195.487 491.524 199.775 493.529 217.176 493.529C228.232 493.529 231.719 494.023 231.232 495.519C230.777 496.903 225.515 497.651 213.847 497.954C192.268 498.543 190.148 497.461 182.499 481.975C179.28 475.466 176.657 469.322 176.657 468.304C176.657 467.285 175.95 466.458 175.086 466.458C171.38 466.458 175.369 507.583 181.415 531.774C185.122 546.591 195 567.249 210.376 592.299C216.815 602.803 221.479 611.015 220.741 610.554C219.5 609.774 193.964 571.944 189.535 564.336C187.807 561.36 186.897 562.013 175.824 573.885C169.291 580.888 161.486 590.389 158.455 595.021C151.45 605.716 128.96 649.419 129.934 650.405C130.342 650.819 147.728 651.154 168.584 651.169H206.497L217.333 657.138C224.055 660.83 235.441 669.886 247.299 680.963C261.999 694.682 267.213 698.66 269.835 698.135C280.326 696.003 281.881 695.414 281.834 693.631C281.803 692.549 279.039 684.989 275.678 676.809L269.568 661.944L278.473 662.979C293.252 664.697 313.621 661.307 325.636 655.116C331.368 652.156 337.477 648.607 339.205 647.207C340.933 645.806 336.409 647.62 329.138 651.217C313.386 659.032 300.35 661.323 278.379 660.161C266.537 659.525 261.889 658.586 257.727 655.976C251.68 652.188 240.357 640.108 241.645 638.819C242.1 638.358 245.964 640.57 250.22 643.737C259.501 650.644 270.652 651.854 274.437 646.379C276.573 643.291 276.604 643.291 279.227 646.379C283.844 651.838 293.723 649.546 304.387 640.522C307.119 638.214 310.857 636.766 314.092 636.766C321.317 636.766 326.044 634.713 332.939 628.586C341.671 620.819 346.225 612.384 348.659 599.477C351.282 585.599 351.565 545.859 349.131 532.84C347.466 523.959 347.544 523.498 351.157 520.967C358.726 515.667 371.997 502.108 376.348 495.216C380.148 489.201 380.824 486.495 380.824 477.264C380.824 469.402 380.211 466.155 378.625 465.535C375.452 464.309 364.051 470.612 361.035 475.259C359.496 477.646 356.983 479.222 354.737 479.222C352.68 479.222 351 479.874 351 480.686C351 482.341 332.75 491.954 329.593 491.954C328.416 491.954 327.929 490.935 328.447 489.567C329.138 487.768 328.164 487.179 324.474 487.179C321.788 487.179 319.589 486.463 319.589 485.588C319.589 484.712 321.474 483.996 323.767 483.996C329.593 483.996 340.98 476.866 342.142 472.505C342.676 470.516 343.116 466.903 343.116 464.5C343.131 460.728 342.503 460.123 338.577 460.123C334.855 460.123 334.164 460.681 334.792 463.163C336.048 468.033 330.033 472.856 322.683 472.856C317.359 472.856 316.118 472.219 314.846 468.829C313.37 464.898 313.244 464.866 309.271 467.492C306.868 469.084 305.502 471.216 305.926 472.712C306.318 474.097 306.9 476.182 307.214 477.328C307.748 479.238 300.398 482.978 292.058 485.047C290.315 485.476 287.174 487.132 285.101 488.723C281.41 491.54 281.363 491.874 283.295 500.58C284.457 505.816 287.362 512.341 290.315 516.272C297.052 525.264 308.596 548.819 308.596 553.593C308.596 559.737 305.894 563.19 299.581 565.148C296.33 566.15 291.21 568.283 288.179 569.891C285.148 571.498 279.73 573.694 276.117 574.777C270.024 576.607 269.05 576.432 262.485 572.548C258.606 570.241 254.334 568.347 253.015 568.347C250.895 568.347 247.141 566.198 236.933 559.148C234.342 557.365 234.656 557.206 239.493 557.922C260.805 561.058 260.726 561.074 264.354 556.379C266.223 553.959 267.762 550.697 267.762 549.121C267.762 547.546 268.406 545.843 269.191 545.349C269.977 544.856 270.259 543.105 269.835 541.434C269.333 539.477 270.966 536.262 274.5 532.283C278.913 527.317 279.683 525.471 278.599 522.543C277.452 519.455 276.29 518.994 270.558 519.36L263.852 519.79V508.649C263.852 499.514 264.511 496.569 267.527 492.272C271.689 486.352 271.516 485.906 261.135 475.864C253.094 468.097 253.424 464.787 262.674 460.283C266.773 458.277 273.903 454.123 278.505 451.052C283.766 447.535 290.755 444.638 297.335 443.237C303.099 442.012 313.103 439.259 319.589 437.094C327.74 434.389 334.698 433.211 342.126 433.29C348.031 433.354 353.465 432.797 354.188 432.033C354.926 431.285 354.502 426.367 353.277 421.115C352.036 415.863 351.125 407.269 351.267 402.017C351.439 394.744 350.513 390.24 347.34 383.126C344.67 377.126 343.178 370.998 343.178 366.017C343.178 359.221 343.587 358.25 346.429 358.25C348.235 358.25 352.193 361.067 355.318 364.616C358.412 368.118 361.789 370.982 362.81 370.982C363.831 370.982 365.904 372.367 367.427 374.07C370.568 377.587 382.583 382.139 388.598 382.091C392.116 382.059 391.644 381.439 384.781 377.189C377.164 372.463 369.893 365.253 369.861 362.436C369.861 361.672 370.882 361.911 372.139 362.977C373.395 364.028 375.044 364.521 375.798 364.043C376.552 363.566 380.996 364.218 385.676 365.476C390.357 366.733 394.424 367.783 394.723 367.783C395.021 367.783 393.419 365.603 391.189 362.913C388.959 360.224 387.121 357.279 387.121 356.388C387.121 355.497 385.598 352.6 383.729 349.943C381.86 347.285 379.803 342.526 379.143 339.359C378.484 336.192 377.447 331.99 376.866 330.049C375.814 326.579 375.892 326.547 380.588 328.935C383.226 330.271 387.907 334.823 390.969 339.072C394.032 343.306 398.837 347.874 401.649 349.226C407.679 352.123 421.484 355.815 422.489 354.797C422.882 354.399 418.453 350.913 412.658 347.03C400.675 339.009 388.472 327.009 380.776 315.693C376.206 308.977 374.809 307.958 370.301 308.054C366.909 308.117 364.804 309.072 364.27 310.791C363.815 312.239 362.354 313.847 361.051 314.356C358.946 315.168 358.931 315.693 360.941 318.59C362.197 320.404 362.873 323.221 362.464 324.844C361.962 326.786 363.925 330.224 368.134 334.871C374.18 341.523 376.929 346.346 372.61 342.717C370.348 340.823 362.009 340.95 362.009 342.892C362.009 343.608 362.826 345.757 363.846 347.667C365.464 350.722 364.961 350.579 359.732 346.537L353.779 341.937L347.277 345.136C341.576 347.937 340.367 348.065 337.477 346.107C335.656 344.882 331.07 343.354 327.285 342.685L320.39 341.492L334.525 333.216C343.927 327.709 346.592 324.94 342.519 324.908C336.676 324.876 336.504 324.733 338.985 321.964C342.283 318.271 342.252 317.285 338.828 316.568C336.771 316.139 337.76 314.865 342.754 311.46C347.654 308.133 349.429 305.873 349.429 302.913C349.429 298.314 351.031 297.295 332.687 313.529C324.395 320.866 319.338 324.049 313.449 325.608C309.051 326.786 305.455 327.136 305.455 326.388C305.455 325.64 304.041 325.147 302.314 325.274C300.586 325.401 299.173 326.133 299.173 326.913C299.173 327.693 296.408 327.836 293.032 327.247C288.76 326.515 285.415 326.977 282.023 328.744C278.269 330.717 276.416 330.892 273.934 329.539C271.563 328.25 270.134 328.282 268.5 329.635C266.27 331.513 263.161 329.889 252.057 321.12L248.131 318.017L254.884 318.892C260.569 319.624 261.339 319.417 259.8 317.523C258.716 316.202 255.073 315.279 250.974 315.279C245.163 315.279 244.079 314.802 244.503 312.494C244.849 310.616 246.78 309.534 250.408 309.184C254.209 308.818 255.151 308.261 253.596 307.29C251.9 306.224 252.387 305.539 255.669 304.266C260.208 302.515 261.213 300.144 257.978 298.823C256.894 298.377 257.601 297.964 259.549 297.9C263.569 297.757 263.742 297.231 261.386 292.775C259.847 289.847 259.988 289.735 263.082 291.406C264.935 292.409 267.558 292.823 268.893 292.298C270.715 291.582 268.171 288.032 258.653 277.99C243.828 262.329 242.132 257.682 247.094 246.287C251.146 236.992 263.286 224.547 268.296 224.547C270.354 224.547 275.112 222.08 278.866 219.072C282.619 216.064 286.279 213.979 287.017 214.441C287.755 214.902 285.87 217.178 282.839 219.518C275.505 225.152 275.678 227.38 283.106 222.876C286.341 220.918 294.194 216.43 300.555 212.929C310.103 207.677 311.642 206.292 309.428 205.035C307.009 203.666 307.104 203.316 310.433 201.645C312.459 200.626 314.124 198.366 314.124 196.647C314.124 194.021 313.229 193.592 308.627 194.037C305.596 194.324 300.146 195.883 296.503 197.507L289.875 200.451L295.356 192.382C298.372 187.942 300.586 184.059 300.288 183.756C299.989 183.454 296.346 186.494 292.2 190.52C283.483 198.971 274.06 203.793 266.223 203.809H260.726L269.364 199.051C277.358 194.642 287.692 185.316 286.232 183.82C285.886 183.47 280.138 186.334 273.463 190.186C266.789 194.037 256.596 198.398 250.816 199.862C245.037 201.326 239.038 203.22 237.467 204.064C235.582 205.067 232.913 204.955 229.552 203.73C225.06 202.09 223.505 202.377 215.982 206.228C200.23 214.329 190.21 222.796 178.808 237.677C174.961 242.706 170.94 246.828 169.872 246.828C164.768 246.828 157.811 267.916 157.905 283.115C157.936 288.112 159.24 295.942 160.795 300.526L163.637 308.865L159.837 311.396C154.937 314.659 136.624 321.645 132.997 321.645C130.861 321.645 130.201 322.934 130.201 327.216C130.201 333.168 133.059 334.728 135.588 330.16C136.514 328.489 138.038 327.916 139.765 328.584C141.98 329.444 142.137 330.08 140.551 332.006C139.483 333.311 139.231 334.441 139.985 334.537C140.739 334.632 143.833 334.966 146.848 335.301C149.88 335.635 156.947 336.478 162.554 337.163L172.762 338.42L168.302 341.444C162.349 345.486 149.126 345.152 140.598 340.744C132.949 336.781 132.604 338.022 139.389 345.136L144.493 350.484L140.064 348.781C134.112 346.489 133.515 346.632 136.043 349.72C139.216 353.587 147.414 356.643 154.67 356.643C162.569 356.643 179.452 349.083 188.703 341.396C197.639 333.98 197.498 332.07 188.059 333.327L180.599 334.314L184.321 331.401C190.65 326.436 201.958 323.253 217.066 322.186C225.029 321.614 231.169 320.547 230.714 319.799C230.258 319.051 227.856 318.446 225.358 318.446C222.861 318.446 220.427 317.778 219.924 316.95C218.809 315.136 242.603 316.123 244.236 317.969C244.849 318.669 245.775 321.47 246.278 324.208C247.173 329.062 247.032 329.189 240.231 330.144C233.415 331.083 215.496 339.2 213.705 342.144C213.203 342.956 209.151 346.728 204.69 350.5L196.587 357.375L204.643 346.266C209.072 340.155 212.025 334.919 211.208 334.632C210.376 334.346 205.633 337.656 200.654 342.017C190.713 350.706 182.531 355.354 172.354 358.139C168.427 359.205 165.695 360.892 165.695 362.261C165.695 364.919 159.24 366.956 154.67 365.746C152.958 365.285 151.56 365.508 151.56 366.208C151.56 367.752 160.245 370.982 164.36 370.982C168.003 370.982 167.972 374.356 164.234 383.715C161.674 390.113 160.732 390.972 155.298 391.815L149.204 392.754L154.308 393.996C162.13 395.906 161.219 401.285 151.529 410.468C145.011 416.643 143.409 419.269 142.278 425.683C141.038 432.67 138.807 436.139 135.462 436.203C133.562 436.235 134.19 432.495 136.624 429.248C138.069 427.322 138.383 425.317 137.52 423.678C136.781 422.261 135.666 416.102 135.054 409.975C134.112 400.601 132.839 397.083 127.044 387.805C123.259 381.741 120.15 375.837 120.15 374.675C120.15 367.624 113.349 378.797 111.465 388.951C110.365 394.919 111.905 399.041 118.03 406.505C122.553 412.012 122.694 416.85 118.579 423.916C116.035 428.293 113.93 429.662 107.46 431.174C97.5186 433.497 91.0167 433.545 86.9177 431.317C82.0962 428.707 81.1382 431.285 85.567 434.93C89.6346 438.272 90.0273 438.272 111.308 435.248C117.527 434.373 119.459 433.306 121.516 429.63C124.924 423.566 126.997 423.869 125.819 430.251C125.301 433.099 124.626 436.855 124.327 438.606C124.029 440.357 122.537 444.208 121.029 447.168C118.846 451.434 118.689 452.818 120.291 453.805C121.924 454.824 121.909 455.54 120.244 457.577C117.574 460.824 115.03 460.744 107.915 457.131C104.712 455.508 98.8221 453.375 94.833 452.389C90.8439 451.402 86.4308 450.145 85.0173 449.604C83.3055 448.935 82.4574 449.46 82.4574 451.163C82.4574 452.627 81.1696 453.726 79.4106 453.726C76.7878 453.726 76.4894 454.521 77.3061 459.551C77.9238 463.423 76.5837 465.031 73.2856 464.373C68.7311 463.45 68.0872 463.864 65.1503 469.688C62.7003 474.543 61.0513 476.007 57.9888 476.007C54.1881 476.007 54.1096 475.848 56.4497 472.474C60.0462 467.269 59.4808 462.543 54.9734 460.092C52.8061 458.914 51.0471 457.354 51.0471 456.606C51.0471 455.858 53.5914 448.951 56.701 441.232C61.8208 428.564 63.0144 426.861 69.1866 423.439C74.6362 420.415 76.1125 418.68 76.4894 414.813C76.8664 410.898 77.7616 409.863 81.1068 409.481C84.3734 409.099 85.0802 408.32 84.4362 405.853C83.9965 404.118 84.6718 401.476 85.9753 399.98C87.4516 398.261 88.6766 392.229 89.2734 383.715C90.8596 361.115 95.1943 346.839 107.633 323.253C117.747 304.075 120.291 300.558 132.918 288.319L146.958 274.696L144.226 266.245C142.357 260.483 142.011 257.443 143.158 256.695C144.069 256.091 145.576 253.449 146.503 250.823C147.613 247.661 148.215 248.377 148.309 252.971C148.435 259.56 152.424 269.125 155.047 269.125C157.214 269.125 156.366 258.446 154.041 256.489C152.408 255.12 152.015 252.191 152.565 245.555C153.712 231.82 154.544 228.923 157.025 229.894C158.627 230.515 159.742 228.382 161.14 222.08C163.15 213.008 165.114 210.923 165.993 216.987C166.417 219.963 167.265 219.183 171.019 212.308C175.118 204.796 179.123 201.024 181.007 202.918C181.4 203.316 179.923 206.037 177.725 208.95C173.343 214.775 170.123 226.266 172.008 229.369C173.563 231.931 175.872 227.555 177.364 219.199C177.992 215.634 180.238 211.385 182.672 209.077L186.881 205.098L187.666 211.114C188.106 214.425 189.189 217.369 190.085 217.671C190.98 217.974 204.706 208.886 220.584 197.491C246.812 178.663 249.686 176.992 252.073 179.188C254.444 181.353 256.298 180.875 271.045 174.302C286.012 167.618 287.833 167.157 292.592 168.859C295.812 170.005 300.853 170.292 305.832 169.592L313.888 168.478L322.149 177.82L330.41 187.162L340.32 181.719L350.23 176.276L344.341 182.913C337.54 190.568 336.535 194.356 342.315 190.52C347.183 187.289 349.445 187.257 349.445 190.409C349.445 195.231 341.576 200.674 334.682 200.626C328.667 200.578 328.447 200.419 331.29 198.239C333.237 196.743 333.567 195.899 332.216 195.899C329.531 195.899 319.589 203.507 319.589 205.56C319.589 206.435 321.395 206.642 323.751 206.037C326.672 205.289 327.583 205.512 326.798 206.801C326.185 207.804 326.515 208.632 327.536 208.632C328.557 208.632 326.233 212.388 322.369 216.987C313.229 227.857 310.166 234.096 310.166 241.847C310.166 253.735 313.763 257.3 315.632 247.242C318.725 230.515 329.562 211.815 336.158 211.815C339.786 211.815 339.645 212.149 333.614 217.655C325.981 224.642 323.154 229.799 321.819 239.093L320.83 246.016L330.19 231.693C335.342 223.815 341.828 215.22 344.608 212.594L349.665 207.82L343.65 206.96L337.634 206.101L343.697 203.395C347.026 201.899 350.246 200.992 350.827 201.358C351.408 201.724 355.758 198.51 360.47 194.196C365.181 189.883 367.631 186.812 365.904 187.385C364.176 187.958 360.894 190.154 358.601 192.287C356.308 194.419 353.402 195.931 352.13 195.629C350.104 195.151 350.12 194.101 352.162 187.13C354.235 180.08 354.643 179.586 355.821 182.753C356.559 184.727 357.706 186.318 358.381 186.303C359.056 186.287 364.49 183.056 370.474 179.141C376.442 175.226 381.829 172.011 382.426 172.011C383.022 172.011 381.499 179.3 379.033 188.196C376.568 197.093 374.793 204.637 375.107 204.939C375.405 205.242 387.247 206.642 401.413 208.043C419.003 209.777 428.41 211.417 431.096 213.183C434.959 215.73 434.865 215.793 424.028 216.764C401.931 218.77 389.242 218.356 386.949 215.571C385.205 213.438 382.677 213.136 372.814 213.82C360.376 214.679 355.821 216.271 349.806 221.825C343.838 227.332 345.848 227.634 354.989 222.621C365.605 216.796 377.164 216.303 387.498 221.236L394.173 224.419L381.609 223.544C369.045 222.669 360.407 224.388 360.407 227.762C360.407 230.881 351.816 240.446 349.021 240.446C347.513 240.446 346.272 241.512 346.272 242.817C346.272 244.186 342.016 247.146 336.158 249.836C322.291 256.218 312.412 263.38 306.9 271.083C304.355 274.648 302.455 277.735 302.675 277.958C304.088 279.343 324.929 270.653 328.525 267.184C334.054 261.836 339.959 259.56 348.267 259.56C353.811 259.56 354.439 259.878 352.476 261.693C351.204 262.871 347.34 264.637 343.869 265.624C340.399 266.611 336.158 268.505 334.446 269.81C331.604 271.99 332.389 272.197 343.775 272.245C357.454 272.292 358.522 273.406 346.806 275.396L339.189 276.685L345.581 276.876C353.889 277.115 367.333 281.205 369.814 284.229C371.416 286.17 371.306 286.616 369.217 286.616C367.82 286.616 366.563 287.332 366.438 288.208C365.747 292.839 366.218 293.714 369.814 294.574C371.982 295.083 374.667 297.438 375.782 299.81C376.913 302.165 380.557 307.163 383.886 310.887C387.216 314.611 391.362 319.449 393.089 321.645C394.817 323.842 396.764 325.099 397.408 324.446C398.052 323.794 397.502 322.011 396.168 320.468C394.848 318.924 393.262 314.802 392.665 311.3C392.068 307.799 389.917 301.226 387.891 296.674C385.237 290.722 384.828 288.669 386.43 289.29C388.017 289.91 388.66 288.908 388.66 285.836C388.66 282.765 386.525 279.375 381.593 274.457C374.432 267.295 372.94 264.351 376.489 264.367C380.886 264.367 389.116 271.242 393.702 278.722C400.314 289.513 401.225 287.38 395.241 275.125C386.807 257.857 382.598 253.958 367.301 249.231C359.543 246.828 354.141 244.345 354.486 243.311C354.8 242.34 357.768 240.589 361.067 239.427C366.815 237.406 367.286 237.518 372.233 241.926C375.311 244.664 380.148 246.987 384.2 247.672C393.67 249.263 396.136 250.886 399.261 257.634C402.402 264.382 407.491 266.579 407.491 261.184C407.491 258.367 408.103 257.969 411.025 258.924C416.867 260.817 419.128 260.515 419.678 257.81C420.039 256.027 418.123 254.388 413.506 252.51C409.831 251.014 405.151 248.117 403.141 246.064C400.565 243.454 396.215 241.783 388.566 240.478C382.567 239.459 377.274 237.963 376.787 237.168C374.227 232.982 396.592 238.886 410.852 246.175C422.568 252.16 424.767 252.685 424.767 249.55C424.767 247.083 418.626 242.26 409.407 237.486C405.763 235.608 402.779 233.65 402.779 233.141C402.779 232.632 406.376 232.727 410.773 233.348C417.982 234.351 418.72 234.175 418.218 231.565C417.872 229.719 415.516 228.16 411.716 227.236C405.795 225.82 404.271 221.746 410.004 222.653C414.762 223.417 415.516 223.401 427.955 222.175L439.796 221.014L449.942 228.844C461.846 238.043 467.375 247.369 479.719 279.2C489.283 303.852 495.707 316.775 506.716 333.534C513.312 343.576 516.139 346.521 520.332 347.746C524.007 348.813 526.08 350.627 527.148 353.73C529.488 360.558 537.686 361.561 544.974 355.927C548.916 352.871 551.083 352.107 552.449 353.253C553.502 354.144 559.25 356.118 565.202 357.63L576.038 360.383L571.657 363.916C567.636 367.163 567.401 367.974 568.688 373.545C569.882 378.638 571.971 380.993 581.535 387.932L592.953 396.24L588.163 399.837C584.755 402.383 583.373 404.754 583.373 407.985V412.537L578.017 408.399C570.824 402.845 569.285 398.914 574.861 400.33C577.154 400.919 578.551 400.744 578.064 399.932C577.578 399.136 573.95 398.054 569.992 397.497C566.034 396.94 561.778 395.476 560.553 394.235C559.328 392.993 556.862 392.357 555.072 392.834C552.025 393.646 552.088 393.853 556.219 396.415C558.637 397.911 561.59 400.33 562.768 401.778C563.945 403.227 565.862 404.42 567.024 404.42C570.118 404.42 581.818 416.213 581.818 419.333C581.818 422.452 573.588 438.909 569.599 443.603C568.013 445.466 565.343 447.423 563.663 447.964C561.982 448.505 559.203 451.1 557.475 453.741C555.747 456.367 553.454 458.516 552.371 458.532C551.287 458.532 550.408 460.187 550.408 462.208C550.408 465.423 548.397 466.601 534.059 471.757C516.516 478.076 514.286 478.553 514.286 475.975C514.286 474.94 512.228 474.702 508.805 475.354L503.324 476.405L505.774 469.466C507.124 465.646 508.459 460.665 508.758 458.389C509.056 456.113 511.129 448.378 513.375 441.2C518.134 425.906 518.353 421.975 514.851 414.479C512.276 408.972 512.291 408.892 516.61 405.136C520.003 402.176 520.741 400.457 519.971 397.338C518.872 392.882 510.171 382.139 507.674 382.139C506.653 382.139 506.7 382.903 507.8 384.256C511.663 388.983 513.956 397.243 512.495 401.158L511.035 405.057L507.47 399.089C503.669 392.691 496.351 386.945 492.016 386.929C490.555 386.929 488.859 386.102 488.262 385.099C487.461 383.794 488.812 383.603 493.037 384.399C497.34 385.211 498.612 385.02 497.78 383.667C495.471 379.879 485.985 377.364 474.709 377.555L463.276 377.746L471.521 379.274C479.687 380.786 482.012 382.967 477.347 384.781C476.012 385.29 470.641 384.861 465.411 383.826C460.182 382.792 455.549 382.282 455.14 382.696C454.732 383.11 455.109 384.845 456.004 386.548C457.339 389.094 460.04 389.81 471.411 390.701C478.996 391.29 487.823 392.5 491.042 393.375C499.13 395.587 506.056 401.938 507.972 408.908C509.794 415.545 509.888 433.147 508.177 445.02L507.03 452.978L500.952 440.373C493.932 425.826 494.262 425.508 489.88 451.1C487.399 465.63 485.64 468.654 484.179 460.935C483.802 458.962 482.546 457.927 480.865 458.23C478.447 458.659 478.258 457.561 479.153 447.821C480.049 438.001 479.735 436.092 475.824 428.245C469.024 414.606 462.537 406.346 451.921 397.895C446.518 393.598 440.252 387.232 437.99 383.778C435.729 380.309 432.619 377.078 431.096 376.585C429.572 376.091 426.023 373.481 423.243 370.776C419.285 366.94 418.642 365.555 420.306 364.489C422.05 363.375 421.987 363.104 419.992 363.089C418.642 363.089 415.987 361.608 414.103 359.826L410.663 356.579V359.826C410.663 361.656 409.627 363.073 408.308 363.073C405.512 363.073 405.496 363.232 407.554 368.723C408.763 371.953 409.941 372.781 412.359 372.128C416.553 371.014 418.469 375.614 414.7 377.746C412.736 378.86 412.234 380.468 412.909 383.524C413.679 386.977 413.553 387.248 412.171 384.956C410.648 382.41 405.952 380.977 405.952 383.046C405.952 386.786 418.202 402.144 424.327 406.091C434.033 412.33 438.336 412.266 431.08 405.996C424.971 400.712 424.091 400.521 445.089 408.988C463.087 416.245 465.05 423.264 452.015 433.8C445.592 438.988 438.587 440.978 426.368 441.057L417.731 441.121L415.186 449.253C413.239 455.476 413.019 458.643 414.244 462.67L415.846 467.954L421.468 463.259C424.562 460.681 428.693 458.564 430.656 458.564C433.012 458.564 434.221 457.609 434.221 455.779C434.221 453.407 435.462 453.073 442.623 453.519C450.821 454.044 451.167 453.885 456.758 447.264C460.087 443.317 462.506 438.765 462.522 436.394C462.569 428.07 465.035 427.816 468.38 435.789C476.672 455.492 476.876 463.657 469.558 479.954C466.542 486.67 464.061 492.399 464.061 492.67C464.061 492.941 467.422 494.373 471.521 495.869C475.62 497.349 483.048 500.453 488.011 502.744C496.398 506.628 497.261 507.535 500.293 515.715C502.083 520.553 505.004 533.859 506.794 545.27C508.585 556.681 513.092 582.113 516.799 601.801C520.505 621.472 523.238 637.896 522.861 638.278C522.484 638.66 518.102 639.249 513.139 639.583C508.177 639.917 491.969 641.222 477.143 642.496C462.302 643.769 439.812 644.803 427.169 644.803C405.167 644.803 403.847 644.994 396.811 649.021C370.631 664.061 364.632 668.994 344.309 692.278C335.451 702.416 325.73 713.366 322.715 716.597C315.098 724.745 298.686 737.111 295.513 737.111C295.121 737.111 283.891 725.828 270.558 712.045L270.542 711.934ZM345.409 683.286C353.198 674.326 362.935 665.477 372.688 658.474C397.487 640.681 396.089 641.143 430.279 639.695C482.483 637.498 510.045 633.583 512.134 628.045C514.05 623 495.817 526.267 490.791 514.713C486.629 505.179 484.211 504.479 470.233 508.856L458.344 512.58L431.316 544.012C401.272 578.946 388.519 596.214 376.882 617.732C369.202 631.928 349.617 661.26 339.032 674.406L333.692 681.042L321.128 681.567C311.957 681.949 308.564 681.567 308.564 680.135C308.564 677.509 297.178 671.748 291.98 671.748C287.221 671.748 287.378 672.814 293.723 683L297.9 689.716L316.59 688.841C326.861 688.363 335.279 688.284 335.279 688.666C335.279 689.048 334.132 691.132 332.734 693.297C327.253 701.78 333.928 696.512 345.409 683.286ZM285.792 545.493C292.812 542.898 296.581 536.421 293.11 532.904C290.456 530.214 277.358 537.28 275.426 542.437C272.505 550.219 272.788 550.299 285.792 545.477V545.493ZM82.0176 479.556C82.4417 478.267 81.735 477.948 80.0231 478.617C78.5625 479.19 76.835 478.744 76.1439 477.63C75.2959 476.246 73.6311 477.821 70.8042 482.707C68.5426 486.606 66.7051 490.346 66.7051 491.015C66.7051 492.766 81.2638 481.895 82.0176 479.572V479.556ZM61.9936 453.71C58.9468 451.72 57.2821 451.72 57.2821 453.71C57.2821 454.585 58.8683 455.285 60.8157 455.269C63.674 455.253 63.8939 454.951 61.9936 453.71ZM71.825 445.577C70.8984 441.964 68.5269 441.646 67.2705 444.972C66.0769 448.107 69.8933 453.041 71.4795 450.415C72.092 449.397 72.2491 447.216 71.825 445.561V445.577ZM106.565 381.693C107.884 377.094 109.172 372.685 109.423 371.874C109.674 371.078 109.093 370.139 108.12 369.821C106.031 369.12 101.241 380.436 101.241 386.102C101.241 392.802 104.036 390.479 106.549 381.693H106.565ZM533.854 377.428C534.341 376.616 530.808 374.786 525.986 373.37C516.485 370.569 515.071 366.956 523.473 366.972C532.52 367.004 527.62 363.98 515.134 361.847C501.47 359.508 497.984 360.112 507.862 363.12C515.841 365.539 516.17 367.752 508.553 367.752C504.732 367.752 503.816 368.866 505.805 371.094C507.454 372.94 508.444 374.914 508.004 375.471C507.58 376.028 508.805 376.728 510.752 376.998C513.485 377.396 514.05 376.919 513.281 374.85C512.417 372.558 513.108 372.638 518.385 375.471C524.855 378.924 532.347 379.863 533.854 377.412V377.428ZM115.391 363.359C115.391 361.815 117.888 356.802 120.935 352.218C125.27 345.693 125.914 343.879 123.888 343.879C119.82 343.879 109.109 355.672 109.109 360.144C109.109 362.293 109.58 364.521 110.161 365.11C112.219 367.195 115.391 366.128 115.391 363.359ZM375.123 185.586C378.813 179.873 378.232 178.854 373.741 183.135C369.736 186.955 368.715 189.502 371.196 189.502C371.966 189.502 373.725 187.735 375.123 185.586ZM258.308 618.432C254.743 608.93 257.036 606.877 273.448 604.936C280.232 604.14 288.744 602.007 292.372 600.225C296 598.442 300.225 597.392 301.795 597.901C303.366 598.411 305.706 599.174 306.994 599.588C308.957 600.225 308.863 600.702 306.444 602.517C302.078 605.779 304.732 608.087 312.852 608.087C317.249 608.087 321.175 609.074 322.84 610.602C325.384 612.941 325.4 613.339 323.013 616.172C320.924 618.639 318.333 619.228 309.381 619.228C303.303 619.228 296.016 618.559 293.189 617.732C288.572 616.395 273.934 618.32 262.627 621.79C260.695 622.379 259.407 621.392 258.308 618.448V618.432ZM231.609 600.161C231.609 592.108 238.394 589.418 257.931 589.721C272.866 589.944 274.28 589.705 277.421 586.315C280.028 583.498 281.3 583.068 282.949 584.453C285.195 586.347 302.204 585.472 317.202 582.702C321.521 581.907 326.468 581.015 328.18 580.745C332.342 580.06 337.666 590.023 334.933 593.365C333.158 595.53 308.8 596.198 261.951 595.387C248.916 595.164 244.644 595.705 238.786 598.331C234.844 600.098 231.609 600.925 231.609 600.177V600.161ZM182.483 300.478C177.788 299.3 176.735 298.393 177.426 296.149C178.023 294.255 176.861 292.155 173.94 289.831C171.144 287.603 170.626 286.68 172.495 287.284C174.961 288.08 175.259 287.603 174.427 284.229C173.814 281.762 174.097 280.234 175.181 280.234C176.139 280.234 175.086 278.038 172.856 275.332C168.349 269.905 167.862 267.486 170.673 264.637C173.657 261.613 174.474 262.266 177.348 269.905C180.772 278.977 191.702 290.133 200.921 293.985C204.832 295.608 208.036 297.486 208.036 298.139C208.036 300.494 199.948 299.269 193.446 295.942C187.195 292.727 186.975 292.712 189.582 295.672C191.09 297.391 192.331 299.205 192.331 299.698C192.331 301.592 188.169 301.926 182.468 300.494L182.483 300.478ZM163.386 276.494C162.255 269.634 164.564 254.722 166.464 256.664C166.794 256.998 166.527 263.332 165.867 270.749L164.674 284.229L163.386 276.51V276.494ZM210.548 275.268C202.225 273.295 194.466 268.202 193.383 264.016C192.896 262.123 193.273 256.934 194.231 252.494L195.974 244.409L197.733 253.162C199.79 263.364 201.094 265.894 204.266 265.894C206.073 265.894 206.23 265.21 204.957 262.823C202.837 258.828 202.806 246.287 204.895 247.592C205.821 248.181 206.465 246.335 206.465 243.088C206.465 239.571 207.345 237.247 208.931 236.642C210.47 236.038 211.051 234.589 210.486 232.775C209.842 230.69 211.271 228.51 215.48 225.104C225.327 217.162 226.034 217.337 219.249 226.027C210.36 237.422 210.533 242.786 219.563 235.592L223.647 232.329L222.704 242.547C221.888 251.348 222.312 253.99 225.751 261.597C229.348 269.539 229.489 270.542 227.133 271.465C224.777 272.388 224.824 272.722 227.573 274.759C230.368 276.844 230.054 277.019 223.647 276.876C219.815 276.78 213.909 276.064 210.533 275.253L210.548 275.268ZM209.622 220.807C209.622 218.992 213.438 216.303 219.83 213.629C220.694 213.263 219.328 215.22 216.783 217.958C211.821 223.321 209.622 224.197 209.622 220.807ZM231.609 219.804C231.609 218.961 233.195 217.417 235.143 216.382C237.488 215.141 237.671 215.65 235.692 217.91C232.363 221.698 231.609 222.048 231.609 219.788V219.804Z" fill="black"/>
</g>
<rect y="212" width="91" height="563" fill="white"/>
<rect x="83" y="2" width="618" height="901" stroke="black" stroke-width="4"/>
<rect x="93" y="14" width="598" height="877" stroke="black" stroke-width="4"/>
<path d="M636.834 96H619.1V94.3258H624.991V54.2076H619.1V52.5334H636.462C646.177 52.5334 651.034 55.7577 651.034 62.2064C651.034 65.1001 650 67.4563 647.933 69.2752C645.866 71.094 643.345 72.2308 640.369 72.6855V72.9336C643.676 73.2229 646.487 74.1944 648.801 75.8479C651.116 77.7907 652.274 80.3123 652.274 83.4127C652.274 86.141 651.488 88.4972 649.918 90.4814C648.388 92.4243 646.487 93.8298 644.213 94.6979C641.939 95.566 639.48 96 636.834 96ZM631.192 94.3258H636.276C639.335 94.3258 641.65 93.3337 643.221 91.3495C644.833 89.3653 645.639 86.8024 645.639 83.6607C645.639 77.0467 642.518 73.7396 636.276 73.7396H631.192V94.3258ZM631.192 72.0655H636.276C639.046 72.0655 641.092 71.1767 642.415 69.3992C643.738 67.6217 644.399 65.2861 644.399 62.3924C644.399 56.9359 641.567 54.2076 635.904 54.2076H631.192V72.0655ZM651.22 190H619.1V188.326H624.991V148.208H619.1V146.533H649.608V159.245H647.933L645.825 148.208H631.192V166.81H640.307L641.609 159.555H643.283V175.676H641.671L640.307 168.484H631.192V188.326H647.437L649.546 176.669H651.22V190ZM651.22 284H619.1V282.326H624.991V242.208H619.1V240.533H649.608V253.245H647.933L645.825 242.208H631.192V260.81H640.307L641.609 253.555H643.283V269.676H641.671L640.307 262.484H631.192V282.326H647.437L649.546 270.669H651.22V284ZM620.837 347.183H619.162V334.533H654.32V347.183H652.646L650.538 336.456H639.811V376.326H645.701V378H627.719V376.326H633.61V336.456H622.883L620.837 347.183ZM663.807 430.208H657.916V470.326H663.807V472H645.825V470.326H651.716V450.67H631.192V470.326H637.082V472H619.1V470.326H624.991V430.208H619.1V428.533H637.082V430.208H631.192V448.996H651.716V430.208H645.825V428.533H663.807V430.208ZM639.749 566.496C633.589 566.496 628.711 564.346 625.115 560.047C621.519 555.748 619.72 550.519 619.72 544.36C619.72 537.952 621.498 532.64 625.053 528.424C628.649 524.166 633.548 522.037 639.749 522.037C646.073 522.037 650.972 524.146 654.444 528.362C657.916 532.578 659.653 537.87 659.653 544.236C659.653 548.039 658.826 551.635 657.172 555.025C655.56 558.373 653.204 561.122 650.104 563.272C647.003 565.421 643.552 566.496 639.749 566.496ZM639.749 523.712C637.31 523.712 635.16 524.394 633.3 525.758C631.481 527.122 630.096 528.899 629.145 531.09C628.195 533.24 627.492 535.451 627.037 537.725C626.582 539.999 626.355 542.272 626.355 544.546C626.355 548.307 627.016 551.925 628.339 555.397C629.703 558.828 631.77 561.412 634.54 563.148C636.111 564.181 637.847 564.698 639.749 564.698C642.766 564.698 645.35 563.499 647.499 561.101C649.649 558.704 651.158 555.872 652.026 552.607C652.687 550.25 653.018 547.563 653.018 544.546C653.018 542.189 652.811 539.895 652.398 537.663C651.984 535.431 651.302 533.219 650.352 531.028C649.442 528.837 648.057 527.081 646.197 525.758C644.378 524.394 642.229 523.712 639.749 523.712ZM648.367 618.208V616.533H662.133V618.208L656.242 618.828L641.919 660.496H640.059L623.751 618.208H617.86V616.533H636.338V618.208H630.448L642.911 651.567L654.258 618.828L648.367 618.208ZM651.22 754H619.1V752.326H624.991V712.208H619.1V710.533H649.608V723.245H647.933L645.825 712.208H631.192V730.81H640.307L641.609 723.555H643.283V739.676H641.671L640.307 732.484H631.192V752.326H647.437L649.546 740.669H651.22V754ZM632.68 848H619.162V846.326L625.053 845.706V806.208H619.162V804.533H631.192L651.468 837.459V806.828L645.577 806.208V804.533H659.157V806.208L653.266 806.828V848.496H651.468L626.851 809.06V845.706L632.68 846.326V848Z" fill="black"/>
<path d="M301.844 795H288.332V794.28H290.864V777.038H288.332V776.319H296.034V777.038H293.502V794.28H300.298L301.417 788.657H302.11L301.844 795ZM309.963 782.901C311.793 782.901 313.25 783.479 314.334 784.633C315.418 785.77 315.96 787.236 315.96 789.031C315.96 790.825 315.4 792.308 314.281 793.481C313.161 794.636 311.722 795.213 309.963 795.213C308.098 795.213 306.632 794.654 305.566 793.534C304.5 792.397 303.967 790.905 303.967 789.057C303.967 787.245 304.518 785.77 305.619 784.633C306.739 783.479 308.187 782.901 309.963 782.901ZM309.937 794.494C310.559 794.494 311.092 794.316 311.536 793.961C311.998 793.588 312.344 793.117 312.575 792.548C312.806 791.962 312.975 791.385 313.081 790.816C313.188 790.23 313.241 789.643 313.241 789.057C313.241 788.453 313.188 787.867 313.081 787.298C312.993 786.73 312.833 786.152 312.602 785.566C312.388 784.98 312.051 784.509 311.589 784.154C311.145 783.798 310.603 783.621 309.963 783.621C309.359 783.621 308.826 783.807 308.364 784.18C307.92 784.536 307.583 785.006 307.352 785.593C307.121 786.161 306.952 786.739 306.845 787.325C306.739 787.911 306.685 788.489 306.685 789.057C306.685 790.656 306.97 791.926 307.538 792.868C308.107 793.952 308.906 794.494 309.937 794.494ZM330.358 786.765V794.28H332.356V795H325.96V794.28H327.826V786.872C327.826 785.077 327.089 784.18 325.614 784.18C324.672 784.18 323.917 784.589 323.349 785.406C322.78 786.206 322.496 787.094 322.496 788.071V794.28H324.361V795H317.966V794.28H319.964V783.86H317.966V783.141H319.964L322.496 782.768V785.673C323.224 783.825 324.61 782.901 326.653 782.901C329.123 782.901 330.358 784.189 330.358 786.765ZM343.118 795.293V792.735C342.692 793.499 342.132 794.103 341.44 794.547C340.764 794.991 340.009 795.213 339.174 795.213C337.504 795.213 336.19 794.627 335.23 793.454C334.289 792.264 333.818 790.825 333.818 789.137C333.818 787.467 334.315 786.01 335.31 784.767C336.323 783.505 337.638 782.874 339.254 782.874C341.084 782.874 342.372 783.665 343.118 785.246V777.038H341.12V776.319H343.118L345.65 775.946V794.227H347.649V794.947H345.65L343.118 795.293ZM339.947 794.094C340.605 794.094 341.191 793.863 341.706 793.401C342.239 792.939 342.639 792.379 342.905 791.722C343.047 791.296 343.118 790.94 343.118 790.656V787.911C343.118 787.449 343.047 786.978 342.905 786.499C342.586 785.575 342.035 784.864 341.253 784.367C340.844 784.154 340.409 784.047 339.947 784.047C339.325 784.047 338.775 784.207 338.295 784.527C337.833 784.847 337.478 785.273 337.229 785.806C336.98 786.321 336.794 786.863 336.669 787.432C336.545 788 336.483 788.569 336.483 789.137C336.483 789.937 336.589 790.692 336.803 791.402C337.016 792.113 337.389 792.744 337.922 793.294C338.473 793.827 339.148 794.094 339.947 794.094ZM355.247 782.901C357.077 782.901 358.534 783.479 359.617 784.633C360.701 785.77 361.243 787.236 361.243 789.031C361.243 790.825 360.683 792.308 359.564 793.481C358.445 794.636 357.006 795.213 355.247 795.213C353.381 795.213 351.916 794.654 350.85 793.534C349.784 792.397 349.251 790.905 349.251 789.057C349.251 787.245 349.801 785.77 350.903 784.633C352.022 783.479 353.47 782.901 355.247 782.901ZM355.22 794.494C355.842 794.494 356.375 794.316 356.819 793.961C357.281 793.588 357.627 793.117 357.858 792.548C358.089 791.962 358.258 791.385 358.365 790.816C358.471 790.23 358.525 789.643 358.525 789.057C358.525 788.453 358.471 787.867 358.365 787.298C358.276 786.73 358.116 786.152 357.885 785.566C357.672 784.98 357.334 784.509 356.872 784.154C356.428 783.798 355.886 783.621 355.247 783.621C354.643 783.621 354.11 783.807 353.648 784.18C353.204 784.536 352.866 785.006 352.635 785.593C352.404 786.161 352.235 786.739 352.129 787.325C352.022 787.911 351.969 788.489 351.969 789.057C351.969 790.656 352.253 791.926 352.822 792.868C353.39 793.952 354.19 794.494 355.22 794.494ZM375.641 786.765V794.28H377.64V795H371.244V794.28H373.109V786.872C373.109 785.077 372.372 784.18 370.897 784.18C369.956 784.18 369.201 784.589 368.632 785.406C368.064 786.206 367.779 787.094 367.779 788.071V794.28H369.645V795H363.249V794.28H365.248V783.86H363.249V783.141H365.248L367.779 782.768V785.673C368.508 783.825 369.893 782.901 371.937 782.901C374.406 782.901 375.641 784.189 375.641 786.765ZM295.608 813.659C295.235 813.659 294.835 813.632 294.409 813.579C294.107 813.561 293.689 813.499 293.156 813.392V821.28H295.954V822H287.959V821.28H290.491V804.038H287.959V803.319H295.928C297.722 803.319 299.197 803.692 300.351 804.438C301.506 805.166 302.084 806.357 302.084 808.009C302.084 809.803 301.453 811.198 300.192 812.193C298.948 813.17 297.42 813.659 295.608 813.659ZM295.288 812.939C296.585 812.939 297.562 812.468 298.219 811.527C298.895 810.585 299.232 809.448 299.232 808.116C299.232 806.73 298.903 805.708 298.246 805.051C297.589 804.376 296.567 804.038 295.181 804.038H293.156V812.619C293.778 812.833 294.489 812.939 295.288 812.939ZM316.304 813.765V821.28H318.303V822H311.907V821.28H313.772V813.899C313.772 813.01 313.612 812.344 313.293 811.9C312.973 811.438 312.395 811.207 311.56 811.207C310.601 811.207 309.837 811.616 309.269 812.433C308.718 813.25 308.442 814.156 308.442 815.151V821.28H310.308V822H303.912V821.28H305.911V804.038H303.912V803.319H305.911L308.442 802.946V812.753C308.833 811.847 309.393 811.145 310.121 810.647C310.868 810.132 311.729 809.874 312.706 809.874C315.052 809.874 316.251 811.171 316.304 813.765ZM323.948 806.943C323.646 807.263 323.281 807.423 322.855 807.423C322.429 807.423 322.056 807.272 321.736 806.97C321.416 806.65 321.256 806.268 321.256 805.824C321.256 805.38 321.407 805.015 321.709 804.731C322.029 804.447 322.411 804.305 322.855 804.305C323.299 804.305 323.663 804.447 323.948 804.731C324.25 805.015 324.401 805.38 324.401 805.824C324.401 806.25 324.25 806.623 323.948 806.943ZM324.188 809.768V821.28H326.186V822H319.657V821.28H321.656V810.86H319.657V810.141H321.656L324.188 809.768ZM332.044 803.052V821.28H334.043V822H327.514V821.28H329.512V804.038H327.514V803.319H329.539L332.044 803.052ZM347.898 813.765V821.28H349.897V822H343.501V821.28H345.367V813.899C345.367 813.01 345.207 812.344 344.887 811.9C344.567 811.438 343.99 811.207 343.155 811.207C342.195 811.207 341.431 811.616 340.863 812.433C340.312 813.25 340.037 814.156 340.037 815.151V821.28H341.902V822H335.506V821.28H337.505V804.038H335.506V803.319H337.505L340.037 802.946V812.753C340.428 811.847 340.987 811.145 341.716 810.647C342.462 810.132 343.324 809.874 344.301 809.874C346.646 809.874 347.845 811.171 347.898 813.765ZM355.835 815.524C356.83 815.524 357.683 815.657 358.393 815.924V812.726C358.393 811.998 358.225 811.465 357.887 811.127C357.567 810.772 357.043 810.594 356.315 810.594C355.444 810.594 354.716 810.825 354.13 811.287C354.361 811.358 354.591 811.509 354.822 811.74C355.018 811.989 355.116 812.308 355.116 812.699C355.116 813.09 354.991 813.41 354.742 813.659C354.494 813.907 354.174 814.032 353.783 814.032C353.392 814.032 353.081 813.899 352.85 813.632C352.602 813.383 352.477 813.055 352.477 812.646C352.477 811.793 352.948 811.127 353.89 810.647C354.849 810.15 355.808 809.901 356.768 809.901C359.539 809.901 360.925 810.932 360.925 812.992V819.975C360.925 820.739 361.209 821.121 361.778 821.121C362.044 821.121 362.293 821.023 362.524 820.827C362.702 820.65 362.862 820.463 363.004 820.268L363.43 820.694C362.737 821.707 361.893 822.213 360.899 822.213C360.383 822.213 359.921 822.107 359.513 821.893C359.104 821.698 358.775 821.334 358.527 820.801C357.425 821.76 356.217 822.24 354.902 822.24C353.89 822.24 353.046 821.947 352.371 821.36C351.713 820.756 351.385 819.957 351.385 818.962C351.385 817.772 351.811 816.901 352.664 816.35C353.534 815.8 354.591 815.524 355.835 815.524ZM354.05 818.642C354.05 819.388 354.236 819.975 354.609 820.401C355 820.827 355.56 821.041 356.288 821.041C356.715 821.041 357.097 820.961 357.434 820.801C357.772 820.676 358.091 820.472 358.393 820.188V816.59C358.056 816.466 357.718 816.359 357.381 816.27C357.061 816.217 356.706 816.19 356.315 816.19C355.569 816.19 355 816.412 354.609 816.857C354.236 817.283 354.05 817.878 354.05 818.642ZM368.898 809.768V812.726C369.609 810.843 370.853 809.901 372.629 809.901C373.322 809.901 373.9 810.105 374.362 810.514C374.823 810.923 375.054 811.473 375.054 812.166C375.054 812.575 374.912 812.93 374.628 813.232C374.362 813.517 374.024 813.659 373.615 813.659C373.242 813.659 372.931 813.543 372.683 813.312C372.434 813.064 372.31 812.753 372.31 812.38C372.31 811.704 372.665 811.198 373.375 810.86C373.145 810.718 372.86 810.647 372.523 810.647C371.403 810.647 370.515 811.198 369.858 812.3C369.218 813.383 368.898 814.538 368.898 815.764V821.28H371.164V822H364.368V821.28H366.367V810.86H364.368V810.141H366.367L368.898 809.768ZM396.008 814.325V821.28H398.007V822H391.558V821.28H393.423V814.458C393.423 813.836 393.379 813.312 393.29 812.886C393.219 812.459 393.014 812.069 392.677 811.713C392.339 811.358 391.868 811.18 391.264 811.18C390.785 811.18 390.367 811.287 390.012 811.5C388.928 812.246 388.386 813.463 388.386 815.151V821.28H390.252V822H383.989V821.28H385.855V814.272C385.855 813.668 385.81 813.161 385.721 812.753C385.632 812.344 385.419 811.98 385.082 811.66C384.762 811.34 384.309 811.18 383.723 811.18C382.799 811.18 382.079 811.598 381.564 812.433C381.067 813.25 380.818 814.156 380.818 815.151V821.28H382.683V822H376.287V821.28H378.286V810.86H376.287V810.141H378.313L380.818 809.768V812.673C381.546 810.825 382.879 809.901 384.815 809.901C386.77 809.901 387.942 810.816 388.333 812.646C389.15 810.816 390.483 809.901 392.33 809.901C394.782 809.901 396.008 811.376 396.008 814.325ZM405.475 809.901C407.305 809.901 408.762 810.479 409.845 811.633C410.929 812.77 411.471 814.236 411.471 816.031C411.471 817.825 410.911 819.308 409.792 820.481C408.673 821.636 407.234 822.213 405.475 822.213C403.609 822.213 402.144 821.654 401.078 820.534C400.012 819.397 399.479 817.905 399.479 816.057C399.479 814.245 400.029 812.77 401.131 811.633C402.25 810.479 403.698 809.901 405.475 809.901ZM405.448 821.494C406.07 821.494 406.603 821.316 407.047 820.961C407.509 820.588 407.856 820.117 408.087 819.548C408.317 818.962 408.486 818.385 408.593 817.816C408.699 817.23 408.753 816.643 408.753 816.057C408.753 815.453 408.699 814.867 408.593 814.298C408.504 813.73 408.344 813.152 408.113 812.566C407.9 811.98 407.562 811.509 407.1 811.154C406.656 810.798 406.114 810.621 405.475 810.621C404.871 810.621 404.338 810.807 403.876 811.18C403.432 811.536 403.094 812.006 402.863 812.593C402.632 813.161 402.463 813.739 402.357 814.325C402.25 814.911 402.197 815.489 402.197 816.057C402.197 817.656 402.481 818.926 403.05 819.868C403.618 820.952 404.418 821.494 405.448 821.494ZM425.869 813.765V821.28H427.868V822H421.472V821.28H423.337V813.872C423.337 812.077 422.6 811.18 421.125 811.18C420.184 811.18 419.429 811.589 418.86 812.406C418.292 813.206 418.007 814.094 418.007 815.071V821.28H419.873V822H413.477V821.28H415.476V810.86H413.477V810.141H415.476L418.007 809.768V812.673C418.736 810.825 420.122 809.901 422.165 809.901C424.634 809.901 425.869 811.189 425.869 813.765ZM433.487 806.943C433.185 807.263 432.82 807.423 432.394 807.423C431.968 807.423 431.595 807.272 431.275 806.97C430.955 806.65 430.795 806.268 430.795 805.824C430.795 805.38 430.946 805.015 431.248 804.731C431.568 804.447 431.95 804.305 432.394 804.305C432.838 804.305 433.202 804.447 433.487 804.731C433.789 805.015 433.94 805.38 433.94 805.824C433.94 806.25 433.789 806.623 433.487 806.943ZM433.726 809.768V821.28H435.725V822H429.196V821.28H431.195V810.86H429.196V810.141H431.195L433.726 809.768ZM447.126 818.935L447.659 819.282C447.179 820.17 446.54 820.881 445.74 821.414C444.941 821.929 444.061 822.187 443.102 822.187C441.361 822.187 439.957 821.6 438.891 820.428C437.843 819.237 437.319 817.78 437.319 816.057C437.319 814.245 437.852 812.77 438.918 811.633C439.984 810.479 441.396 809.901 443.155 809.901C443.99 809.901 444.772 810.07 445.5 810.407C446.229 810.745 446.788 811.242 447.179 811.9C447.41 812.291 447.526 812.664 447.526 813.019C447.526 813.41 447.392 813.748 447.126 814.032C446.877 814.298 446.557 814.432 446.167 814.432C445.794 814.432 445.483 814.316 445.234 814.085C445.003 813.854 444.887 813.552 444.887 813.179C444.887 812.557 445.225 812.051 445.9 811.66C445.349 810.985 444.55 810.647 443.502 810.647C442.844 810.647 442.276 810.825 441.796 811.18C441.316 811.518 440.952 811.971 440.703 812.539C440.472 813.09 440.304 813.659 440.197 814.245C440.091 814.814 440.037 815.409 440.037 816.031C440.037 817.434 440.339 818.651 440.943 819.681C441.547 820.694 442.489 821.201 443.768 821.201C445.154 821.201 446.273 820.445 447.126 818.935ZM297.207 849.213C294.56 849.213 292.463 848.289 290.917 846.442C289.372 844.594 288.599 842.347 288.599 839.699C288.599 836.946 289.363 834.663 290.891 832.85C292.437 831.02 294.542 830.105 297.207 830.105C299.925 830.105 302.03 831.012 303.523 832.824C305.015 834.636 305.761 836.91 305.761 839.646C305.761 841.281 305.406 842.826 304.695 844.283C304.002 845.722 302.99 846.904 301.657 847.827C300.325 848.751 298.841 849.213 297.207 849.213ZM297.207 830.825C296.159 830.825 295.235 831.118 294.435 831.704C293.653 832.291 293.058 833.055 292.65 833.996C292.241 834.92 291.939 835.871 291.744 836.848C291.548 837.825 291.45 838.802 291.45 839.779C291.45 841.396 291.735 842.951 292.303 844.443C292.89 845.918 293.778 847.028 294.968 847.774C295.643 848.218 296.39 848.44 297.207 848.44C298.504 848.44 299.614 847.925 300.538 846.895C301.462 845.864 302.11 844.647 302.483 843.244C302.768 842.231 302.91 841.076 302.91 839.779C302.91 838.767 302.821 837.781 302.643 836.821C302.466 835.862 302.172 834.911 301.764 833.97C301.373 833.028 300.778 832.273 299.978 831.704C299.197 831.118 298.273 830.825 297.207 830.825ZM312.32 836.768V839.726C313.031 837.843 314.274 836.901 316.051 836.901C316.744 836.901 317.321 837.105 317.783 837.514C318.245 837.923 318.476 838.473 318.476 839.166C318.476 839.575 318.334 839.93 318.05 840.232C317.783 840.517 317.446 840.659 317.037 840.659C316.664 840.659 316.353 840.543 316.104 840.312C315.856 840.064 315.731 839.753 315.731 839.38C315.731 838.704 316.087 838.198 316.797 837.86C316.566 837.718 316.282 837.647 315.945 837.647C314.825 837.647 313.937 838.198 313.28 839.3C312.64 840.383 312.32 841.538 312.32 842.764V848.28H314.585V849H307.79V848.28H309.788V837.86H307.79V837.141H309.788L312.32 836.768ZM329.649 845.935L330.182 846.282C329.703 847.17 329.063 847.881 328.264 848.414C327.464 848.929 326.585 849.187 325.625 849.187C323.884 849.187 322.481 848.6 321.415 847.428C320.367 846.237 319.842 844.78 319.842 843.057C319.842 841.245 320.375 839.77 321.441 838.633C322.507 837.479 323.92 836.901 325.679 836.901C326.514 836.901 327.295 837.07 328.024 837.407C328.752 837.745 329.312 838.242 329.703 838.9C329.934 839.291 330.049 839.664 330.049 840.019C330.049 840.41 329.916 840.748 329.649 841.032C329.401 841.298 329.081 841.432 328.69 841.432C328.317 841.432 328.006 841.316 327.757 841.085C327.526 840.854 327.411 840.552 327.411 840.179C327.411 839.557 327.748 839.051 328.424 838.66C327.873 837.985 327.073 837.647 326.025 837.647C325.368 837.647 324.799 837.825 324.32 838.18C323.84 838.518 323.476 838.971 323.227 839.539C322.996 840.09 322.827 840.659 322.721 841.245C322.614 841.814 322.561 842.409 322.561 843.031C322.561 844.434 322.863 845.651 323.467 846.681C324.071 847.694 325.012 848.201 326.292 848.201C327.677 848.201 328.797 847.445 329.649 845.935ZM344.333 840.765V848.28H346.332V849H339.936V848.28H341.801V840.899C341.801 840.01 341.641 839.344 341.322 838.9C341.002 838.438 340.424 838.207 339.589 838.207C338.63 838.207 337.866 838.616 337.297 839.433C336.747 840.25 336.471 841.156 336.471 842.151V848.28H338.337V849H331.941V848.28H333.94V831.038H331.941V830.319H333.94L336.471 829.946V839.753C336.862 838.847 337.422 838.145 338.15 837.647C338.896 837.132 339.758 836.874 340.735 836.874C343.08 836.874 344.28 838.171 344.333 840.765ZM353.336 836.901C354.881 836.901 356.072 837.39 356.907 838.367C357.759 839.326 358.186 840.579 358.186 842.124H350.537C350.52 842.213 350.511 842.364 350.511 842.577V843.057C350.529 844.514 350.813 845.731 351.364 846.708C351.932 847.685 352.883 848.174 354.215 848.174C355.761 848.174 356.871 847.392 357.546 845.829L358.133 846.255C357.227 848.227 355.699 849.213 353.549 849.213C351.754 849.213 350.351 848.645 349.338 847.508C348.326 846.353 347.819 844.887 347.819 843.11C347.819 841.387 348.317 839.921 349.312 838.713C350.324 837.505 351.666 836.901 353.336 836.901ZM350.617 841.405H355.521C355.45 840.339 355.254 839.513 354.935 838.926C354.508 838.038 353.904 837.594 353.122 837.594C351.79 837.594 350.955 838.864 350.617 841.405ZM368.098 837.088V841.138H367.379C367.308 840.126 366.997 839.291 366.446 838.633C365.913 837.958 365.158 837.621 364.181 837.621C363.577 837.621 363.088 837.798 362.715 838.154C362.36 838.491 362.182 838.953 362.182 839.539C362.182 839.984 362.262 840.339 362.422 840.605C362.6 840.854 362.884 841.085 363.275 841.298C363.879 841.618 364.687 841.938 365.7 842.258C366.89 842.595 367.734 842.986 368.232 843.43C368.747 843.945 369.005 844.665 369.005 845.589C369.005 846.69 368.623 847.57 367.859 848.227C367.112 848.885 366.197 849.213 365.114 849.213C363.533 849.213 362.395 848.654 361.703 847.534L361.436 849.133H360.717V844.976H361.436C361.987 847.321 363.177 848.494 365.007 848.494C365.593 848.494 366.082 848.325 366.473 847.987C366.953 847.632 367.192 847.099 367.192 846.388C367.192 845.589 366.739 845.047 365.833 844.763C365.709 844.727 365.531 844.674 365.3 844.603C365.069 844.514 364.847 844.434 364.634 844.363C364.439 844.292 364.252 844.23 364.074 844.176C361.64 843.466 360.423 842.249 360.423 840.525C360.423 839.388 360.761 838.5 361.436 837.86C362.111 837.221 363.026 836.901 364.181 836.901C365.549 836.901 366.544 837.354 367.166 838.26L367.326 837.088H368.098ZM373.009 846.255V837.86H370.478V837.141H373.036L374.848 833.17H375.541V837.141H378.925V837.86H375.541V845.882C375.541 847.321 376.056 848.041 377.087 848.041C377.815 848.041 378.455 847.605 379.005 846.735L379.565 847.188C378.623 848.538 377.478 849.213 376.127 849.213C375.168 849.213 374.404 848.956 373.835 848.44C373.285 847.925 373.009 847.197 373.009 846.255ZM385.867 836.768V839.726C386.577 837.843 387.821 836.901 389.598 836.901C390.29 836.901 390.868 837.105 391.33 837.514C391.792 837.923 392.023 838.473 392.023 839.166C392.023 839.575 391.881 839.93 391.596 840.232C391.33 840.517 390.992 840.659 390.584 840.659C390.211 840.659 389.9 840.543 389.651 840.312C389.402 840.064 389.278 839.753 389.278 839.38C389.278 838.704 389.633 838.198 390.344 837.86C390.113 837.718 389.829 837.647 389.491 837.647C388.372 837.647 387.483 838.198 386.826 839.3C386.186 840.383 385.867 841.538 385.867 842.764V848.28H388.132V849H381.336V848.28H383.335V837.86H381.336V837.141H383.335L385.867 836.768ZM397.319 842.524C398.314 842.524 399.167 842.657 399.877 842.924V839.726C399.877 838.998 399.708 838.465 399.371 838.127C399.051 837.772 398.527 837.594 397.799 837.594C396.928 837.594 396.2 837.825 395.613 838.287C395.844 838.358 396.075 838.509 396.306 838.74C396.502 838.989 396.599 839.308 396.599 839.699C396.599 840.09 396.475 840.41 396.226 840.659C395.977 840.907 395.658 841.032 395.267 841.032C394.876 841.032 394.565 840.899 394.334 840.632C394.085 840.383 393.961 840.055 393.961 839.646C393.961 838.793 394.432 838.127 395.373 837.647C396.333 837.15 397.292 836.901 398.252 836.901C401.023 836.901 402.409 837.932 402.409 839.992V846.975C402.409 847.739 402.693 848.121 403.262 848.121C403.528 848.121 403.777 848.023 404.008 847.827C404.186 847.65 404.345 847.463 404.488 847.268L404.914 847.694C404.221 848.707 403.377 849.213 402.382 849.213C401.867 849.213 401.405 849.107 400.996 848.893C400.588 848.698 400.259 848.334 400.01 847.801C398.909 848.76 397.701 849.24 396.386 849.24C395.373 849.24 394.53 848.947 393.854 848.36C393.197 847.756 392.868 846.957 392.868 845.962C392.868 844.772 393.295 843.901 394.148 843.35C395.018 842.8 396.075 842.524 397.319 842.524ZM395.533 845.642C395.533 846.388 395.72 846.975 396.093 847.401C396.484 847.827 397.043 848.041 397.772 848.041C398.198 848.041 398.58 847.961 398.918 847.801C399.255 847.676 399.575 847.472 399.877 847.188V843.59C399.54 843.466 399.202 843.359 398.865 843.27C398.545 843.217 398.189 843.19 397.799 843.19C397.052 843.19 396.484 843.412 396.093 843.857C395.72 844.283 395.533 844.878 395.533 845.642Z" fill="black"/>
<path d="M125.12 782.624V781.76H132.96V782.624H130.56V795.136H132.96V796H125.12V795.136H127.52V782.624H125.12ZM142.862 781.856C144.654 781.856 146.147 782.453 147.342 783.648C148.558 784.992 149.166 786.677 149.166 788.704C149.166 790.752 148.526 792.533 147.246 794.048C145.966 795.541 144.334 796.288 142.35 796.288C140.003 796.288 138.254 795.488 137.102 793.888C135.95 792.288 135.374 790.293 135.374 787.904C135.374 784.448 136.398 781.557 138.446 779.232C140.515 776.907 143.246 775.435 146.638 774.816L146.702 775.68C144.803 775.936 143.096 776.885 141.582 778.528C140.067 780.149 139.118 781.941 138.734 783.904L138.862 783.936C139.267 783.253 139.822 782.741 140.526 782.4C141.251 782.037 142.03 781.856 142.862 781.856ZM142.318 795.424C143.064 795.424 143.694 795.211 144.206 794.784C144.739 794.357 145.134 793.792 145.39 793.088C145.646 792.363 145.816 791.669 145.902 791.008C146.008 790.325 146.062 789.632 146.062 788.928C146.062 784.811 144.835 782.752 142.382 782.752C141.635 782.752 140.984 782.965 140.43 783.392C139.896 783.819 139.502 784.384 139.246 785.088C138.99 785.792 138.808 786.485 138.702 787.168C138.595 787.829 138.542 788.523 138.542 789.248C138.542 790.421 138.723 791.584 139.086 792.736C139.448 793.867 140.056 794.635 140.91 795.04C141.358 795.296 141.827 795.424 142.318 795.424ZM152.549 795.744C152.208 795.381 152.038 794.923 152.038 794.368C152.038 793.813 152.208 793.365 152.549 793.024C152.912 792.661 153.371 792.48 153.926 792.48C154.502 792.48 154.96 792.651 155.302 792.992C155.643 793.333 155.814 793.792 155.814 794.368C155.814 794.923 155.632 795.381 155.27 795.744C154.928 796.085 154.48 796.256 153.926 796.256C153.371 796.256 152.912 796.085 152.549 795.744ZM166.622 781.12C168.969 781.12 170.761 781.803 171.998 783.168C173.257 784.533 173.886 786.379 173.886 788.704C173.886 790.901 173.204 792.715 171.838 794.144C170.494 795.552 168.745 796.256 166.59 796.256C164.244 796.256 162.334 795.573 160.862 794.208C159.412 792.821 158.686 790.987 158.686 788.704C158.686 786.443 159.444 784.619 160.958 783.232C162.494 781.824 164.382 781.12 166.622 781.12ZM167.646 795.168C169.268 795.168 170.548 794.517 171.486 793.216C172.425 791.893 172.894 790.389 172.894 788.704C172.894 785.589 171.753 783.52 169.47 782.496C168.788 782.24 168.105 782.112 167.422 782.112C165.63 782.112 164.265 782.752 163.326 784.032C162.409 785.312 161.95 786.869 161.95 788.704C161.95 790.517 162.462 792.053 163.486 793.312C164.51 794.549 165.897 795.168 167.646 795.168ZM175.964 782.624V781.76H183.804V782.624H181.404V795.136H183.804V796H175.964V795.136H178.364V782.624H175.964ZM187.049 795.744C186.708 795.381 186.538 794.923 186.538 794.368C186.538 793.813 186.708 793.365 187.049 793.024C187.412 792.661 187.871 792.48 188.426 792.48C189.002 792.48 189.46 792.651 189.802 792.992C190.143 793.333 190.314 793.792 190.314 794.368C190.314 794.923 190.132 795.381 189.77 795.744C189.428 796.085 188.98 796.256 188.426 796.256C187.871 796.256 187.412 796.085 187.049 795.744ZM204.162 786.304C204.162 787.733 203.533 789.152 202.274 790.56C201.037 791.968 199.682 792.928 198.21 793.44H203.234L204.962 789.632H205.826L204.962 796H193.186V795.232C195.213 794.805 197.016 793.824 198.594 792.288C200.194 790.752 200.994 789.003 200.994 787.04C200.994 785.867 200.706 784.928 200.13 784.224C199.576 783.499 198.722 783.136 197.57 783.136C196.589 783.136 195.789 783.424 195.17 784C194.573 784.576 194.274 785.344 194.274 786.304C194.274 786.752 194.317 787.093 194.402 787.328C194.701 786.88 195.117 786.656 195.65 786.656C196.12 786.656 196.504 786.805 196.802 787.104C197.058 787.403 197.186 787.765 197.186 788.192C197.186 788.597 197.037 788.949 196.738 789.248C196.44 789.547 196.077 789.696 195.65 789.696C195.288 789.696 194.957 789.6 194.658 789.408C193.762 788.917 193.314 787.925 193.314 786.432C193.314 784.896 193.848 783.68 194.914 782.784C196.002 781.888 197.314 781.44 198.85 781.44C200.429 781.44 201.709 781.877 202.69 782.752C203.672 783.605 204.162 784.789 204.162 786.304ZM216.529 781.12C218.875 781.12 220.667 781.803 221.905 783.168C223.163 784.533 223.793 786.379 223.793 788.704C223.793 790.901 223.11 792.715 221.745 794.144C220.401 795.552 218.651 796.256 216.497 796.256C214.15 796.256 212.241 795.573 210.769 794.208C209.318 792.821 208.593 790.987 208.593 788.704C208.593 786.443 209.35 784.619 210.865 783.232C212.401 781.824 214.289 781.12 216.529 781.12ZM217.553 795.168C219.174 795.168 220.454 794.517 221.393 793.216C222.331 791.893 222.801 790.389 222.801 788.704C222.801 785.589 221.659 783.52 219.377 782.496C218.694 782.24 218.011 782.112 217.329 782.112C215.537 782.112 214.171 782.752 213.233 784.032C212.315 785.312 211.857 786.869 211.857 788.704C211.857 790.517 212.369 792.053 213.393 793.312C214.417 794.549 215.803 795.168 217.553 795.168ZM233.966 781.12C236.313 781.12 238.105 781.803 239.342 783.168C240.601 784.533 241.23 786.379 241.23 788.704C241.23 790.901 240.547 792.715 239.182 794.144C237.838 795.552 236.089 796.256 233.934 796.256C231.587 796.256 229.678 795.573 228.206 794.208C226.755 792.821 226.03 790.987 226.03 788.704C226.03 786.443 226.787 784.619 228.302 783.232C229.838 781.824 231.726 781.12 233.966 781.12ZM234.99 795.168C236.611 795.168 237.891 794.517 238.83 793.216C239.769 791.893 240.238 790.389 240.238 788.704C240.238 785.589 239.097 783.52 236.814 782.496C236.131 782.24 235.449 782.112 234.766 782.112C232.974 782.112 231.609 782.752 230.67 784.032C229.753 785.312 229.294 786.869 229.294 788.704C229.294 790.517 229.806 792.053 230.83 793.312C231.854 794.549 233.241 795.168 234.99 795.168ZM243.404 797.408C243.404 796.917 243.564 796.48 243.884 796.096C244.225 795.733 244.641 795.552 245.132 795.552C245.622 795.552 245.996 795.691 246.252 795.968C246.486 796.267 246.604 796.619 246.604 797.024C246.604 797.472 246.465 797.856 246.188 798.176C245.91 798.496 245.548 798.656 245.1 798.656C244.972 798.656 244.844 798.635 244.716 798.592C245.42 799.808 246.593 800.416 248.236 800.416C249.217 800.416 250.028 800.096 250.668 799.456C251.329 798.837 251.766 798.112 251.98 797.28C252.214 796.469 252.332 795.584 252.332 794.624C252.332 793.216 252.001 791.989 251.34 790.944C250.678 789.877 249.686 789.344 248.364 789.344C246.721 789.344 245.718 790.08 245.356 791.552H244.748V781.312H252.556L253.9 778.048H254.764L253.932 783.872H245.644V789.6C246.497 788.747 247.681 788.32 249.196 788.32C251.18 788.32 252.737 788.821 253.868 789.824C255.02 790.827 255.596 792.299 255.596 794.24C255.596 796.395 254.924 798.112 253.58 799.392C252.257 800.693 250.529 801.344 248.396 801.344C247.116 801.344 245.964 800.992 244.94 800.288C243.916 799.584 243.404 798.624 243.404 797.408Z" fill="black"/>
<path d="M132.768 824.856C134.56 824.856 136.053 825.453 137.248 826.648C138.464 827.992 139.072 829.677 139.072 831.704C139.072 833.752 138.432 835.533 137.152 837.048C135.872 838.541 134.24 839.288 132.256 839.288C129.909 839.288 128.16 838.488 127.008 836.888C125.856 835.288 125.28 833.293 125.28 830.904C125.28 827.448 126.304 824.557 128.352 822.232C130.421 819.907 133.152 818.435 136.544 817.816L136.608 818.68C134.709 818.936 133.003 819.885 131.488 821.528C129.973 823.149 129.024 824.941 128.64 826.904L128.768 826.936C129.173 826.253 129.728 825.741 130.432 825.4C131.157 825.037 131.936 824.856 132.768 824.856ZM132.224 838.424C132.971 838.424 133.6 838.211 134.112 837.784C134.645 837.357 135.04 836.792 135.296 836.088C135.552 835.363 135.723 834.669 135.808 834.008C135.915 833.325 135.968 832.632 135.968 831.928C135.968 827.811 134.741 825.752 132.288 825.752C131.541 825.752 130.891 825.965 130.336 826.392C129.803 826.819 129.408 827.384 129.152 828.088C128.896 828.792 128.715 829.485 128.608 830.168C128.501 830.829 128.448 831.523 128.448 832.248C128.448 833.421 128.629 834.584 128.992 835.736C129.355 836.867 129.963 837.635 130.816 838.04C131.264 838.296 131.733 838.424 132.224 838.424ZM141.944 837.368C141.944 836.813 142.114 836.365 142.456 836.024C142.818 835.661 143.277 835.48 143.832 835.48C144.408 835.48 144.866 835.651 145.208 835.992C145.549 836.333 145.72 836.792 145.72 837.368C145.72 837.965 145.549 838.435 145.208 838.776C144.888 839.096 144.429 839.256 143.832 839.256C143.234 839.256 142.776 839.085 142.456 838.744C142.114 838.424 141.944 837.965 141.944 837.368ZM141.944 826.648C141.944 826.093 142.114 825.645 142.456 825.304C142.818 824.941 143.277 824.76 143.832 824.76C144.408 824.76 144.866 824.931 145.208 825.272C145.549 825.613 145.72 826.072 145.72 826.648C145.72 827.245 145.549 827.715 145.208 828.056C144.888 828.376 144.429 828.536 143.832 828.536C143.234 828.536 142.776 828.365 142.456 828.024C142.114 827.704 141.944 827.245 141.944 826.648ZM156.529 824.12C158.875 824.12 160.667 824.803 161.905 826.168C163.163 827.533 163.793 829.379 163.793 831.704C163.793 833.901 163.11 835.715 161.745 837.144C160.401 838.552 158.651 839.256 156.497 839.256C154.15 839.256 152.241 838.573 150.769 837.208C149.318 835.821 148.593 833.987 148.593 831.704C148.593 829.443 149.35 827.619 150.865 826.232C152.401 824.824 154.289 824.12 156.529 824.12ZM157.553 838.168C159.174 838.168 160.454 837.517 161.393 836.216C162.331 834.893 162.801 833.389 162.801 831.704C162.801 828.589 161.659 826.52 159.377 825.496C158.694 825.24 158.011 825.112 157.329 825.112C155.537 825.112 154.171 825.752 153.233 827.032C152.315 828.312 151.857 829.869 151.857 831.704C151.857 833.517 152.369 835.053 153.393 836.312C154.417 837.549 155.803 838.168 157.553 838.168ZM173.966 824.12C176.313 824.12 178.105 824.803 179.342 826.168C180.601 827.533 181.23 829.379 181.23 831.704C181.23 833.901 180.547 835.715 179.182 837.144C177.838 838.552 176.089 839.256 173.934 839.256C171.587 839.256 169.678 838.573 168.206 837.208C166.755 835.821 166.03 833.987 166.03 831.704C166.03 829.443 166.787 827.619 168.302 826.232C169.838 824.824 171.726 824.12 173.966 824.12ZM174.99 838.168C176.611 838.168 177.891 837.517 178.83 836.216C179.769 834.893 180.238 833.389 180.238 831.704C180.238 828.589 179.097 826.52 176.814 825.496C176.131 825.24 175.449 825.112 174.766 825.112C172.974 825.112 171.609 825.752 170.67 827.032C169.753 828.312 169.294 829.869 169.294 831.704C169.294 833.517 169.806 835.053 170.83 836.312C171.854 837.549 173.241 838.168 174.99 838.168ZM192.524 828.984C192.076 828.984 191.596 828.952 191.084 828.888C190.721 828.867 190.22 828.792 189.58 828.664V838.136H192.94V839H183.34V838.136H186.38V817.432H183.34V816.568H192.908C195.062 816.568 196.833 817.016 198.22 817.912C199.606 818.787 200.3 820.216 200.3 822.2C200.3 824.355 199.542 826.029 198.028 827.224C196.534 828.397 194.7 828.984 192.524 828.984ZM192.14 828.12C193.697 828.12 194.87 827.555 195.66 826.424C196.47 825.293 196.876 823.928 196.876 822.328C196.876 820.664 196.481 819.437 195.692 818.648C194.902 817.837 193.676 817.432 192.012 817.432H189.58V827.736C190.326 827.992 191.18 828.12 192.14 828.12ZM228.287 817.432H225.247V838.136H228.287V839H219.007V838.136H222.047V819.192L214.879 839.288H214.015L207.295 819.224V837.688L210.335 838.136V839H202.943V838.136L206.367 837.688V817.432H203.327V816.568H209.887L215.679 834.296L221.983 816.568H228.287V817.432Z" fill="black"/>
<path d="M166.68 77.56C166.92 78.28 167.04 79.1333 167.04 80.12C167.04 82.5733 166.147 84.56 164.36 86.08C162.573 87.5733 160.453 88.32 158 88.32C154.693 88.32 152.213 87.1467 150.56 84.8L150.2 88.36H148.76V78.4H150.08C150.267 80.88 150.96 82.9467 152.16 84.6C153.36 86.2267 155.12 87.04 157.44 87.04C158.987 87.04 160.213 86.5867 161.12 85.68C162.053 84.7733 162.52 83.5333 162.52 81.96C162.52 80.92 162.307 80.08 161.88 79.44C161.48 78.8 160.8 78.2267 159.84 77.72C159.653 77.6133 159.4 77.48 159.08 77.32C158.76 77.1333 158.533 77 158.4 76.92C157.973 76.7067 157.027 76.2267 155.56 75.48C152.867 74.2533 151.053 73.1067 150.12 72.04C148.84 70.76 148.2 69.1333 148.2 67.16C148.2 64.92 148.973 63.1067 150.52 61.72C152.067 60.3333 153.96 59.64 156.2 59.64C157.613 59.64 158.947 59.92 160.2 60.48C161.453 61.0133 162.427 61.8133 163.12 62.88L163.48 59.32H164.92V69.28H163.6C163.6 67.0133 163 65.0533 161.8 63.4C160.627 61.7467 158.973 60.92 156.84 60.92C155.56 60.92 154.533 61.32 153.76 62.12C152.987 62.8933 152.6 63.92 152.6 65.2C152.6 66.5867 153.053 67.7067 153.96 68.56C154.867 69.3867 156.093 70.16 157.64 70.88C158.173 71.2 158.627 71.44 159 71.6L160.28 72.24C161.88 72.96 163.213 73.72 164.28 74.52C165.373 75.32 166.173 76.3333 166.68 77.56ZM214.521 61.28V59.96H223.601V61.28L219.921 61.68L212.721 73.96V86.72H216.521V88H203.721V86.72H207.521V75.08L199.001 61.24H195.201V59.96H208.721V61.24H204.921L211.881 72.52L218.321 61.68L214.521 61.28ZM284.536 61.24H280.736V86.72H284.536V88H271.776V86.72H275.576V63.48L266.976 88.36H265.656L257.336 65.28V86.16L261.136 86.72V88H251.616V86.72L255.896 86.16V61.24H252.096V59.96H260.816L268.216 80.52L275.416 59.96H284.536V61.24ZM326.633 75.48C325.38 75.48 324.153 75.36 322.953 75.12V86.72H327.153V88H313.953V86.72H317.753V61.24H313.953V59.96H327.113C331.593 59.96 334.566 61.2 336.033 63.68C336.513 64.6133 336.753 65.72 336.753 67C336.753 69.72 335.766 71.8133 333.793 73.28C331.82 74.7467 329.433 75.48 326.633 75.48ZM325.913 74.2C327.726 74.2 329.1 73.4933 330.033 72.08C330.966 70.6667 331.433 69.0267 331.433 67.16C331.433 63.2133 329.54 61.24 325.753 61.24H322.953V73.8C323.726 74.0667 324.713 74.2 325.913 74.2ZM395.988 61.24H392.188V86.72H395.988V88H383.188V86.72H386.988V74.4H374.548V86.72H378.348V88H365.548V86.72H369.348V61.24H365.548V59.96H378.348V61.24H374.548V73.12H386.988V61.24H383.188V59.96H395.988V61.24ZM438.906 88.32C434.826 88.32 431.546 86.9733 429.066 84.28C426.613 81.5867 425.386 78.2133 425.386 74.16C425.386 70.0267 426.626 66.5733 429.106 63.8C431.613 61.0267 434.879 59.64 438.906 59.64C442.959 59.64 446.213 61.0267 448.666 63.8C451.146 66.5733 452.386 69.9867 452.386 74.04C452.386 77.9067 451.079 81.2533 448.466 84.08C445.879 86.9067 442.693 88.32 438.906 88.32ZM438.906 60.92C437.679 60.92 436.573 61.2267 435.586 61.84C434.599 62.4267 433.813 63.1867 433.226 64.12C432.639 65.0267 432.146 66.08 431.746 67.28C431.346 68.48 431.066 69.6533 430.906 70.8C430.773 71.92 430.706 73.04 430.706 74.16C430.706 76.56 431.093 78.88 431.866 81.12C432.639 83.3333 433.893 84.96 435.626 86C436.613 86.64 437.706 86.96 438.906 86.96C440.373 86.96 441.653 86.5467 442.746 85.72C443.866 84.8667 444.719 83.7733 445.306 82.44C445.919 81.08 446.359 79.7067 446.626 78.32C446.919 76.9333 447.066 75.5467 447.066 74.16C447.066 73.2267 447.013 72.2933 446.906 71.36C446.826 70.4267 446.666 69.4533 446.426 68.44C446.213 67.4 445.893 66.4533 445.466 65.6C445.039 64.72 444.533 63.92 443.946 63.2C443.386 62.48 442.666 61.92 441.786 61.52C440.933 61.12 439.973 60.92 438.906 60.92ZM491.332 88H482.412V86.72L486.172 86.32V61.24H482.372V59.96H491.172L503.452 79.12V61.6L499.652 61.24V59.96H508.652V61.24L504.852 61.6V88.32H503.452L487.572 63.68V86.32L491.332 86.72V88ZM556.124 61.28V59.96H565.204V61.28L561.524 61.68L554.324 73.96V86.72H558.124V88H545.324V86.72H549.124V75.08L540.604 61.24H536.804V59.96H550.324V61.24H546.524L553.484 72.52L559.924 61.68L556.124 61.28Z" fill="black"/>
<path d="M370.36 139.16C370.36 138.333 370.6 137.627 371.08 137.04C371.56 136.427 372.2 136.12 373 136.12C373.747 136.12 374.32 136.333 374.72 136.76C375.147 137.16 375.36 137.733 375.36 138.48C375.36 139.12 375.187 139.667 374.84 140.12C374.493 140.573 374 140.8 373.36 140.8C372.64 140.8 372.16 140.6 371.92 140.2C372.133 141.133 372.653 141.84 373.48 142.32C374.307 142.8 375.227 143.04 376.24 143.04C376.853 143.04 377.507 142.933 378.2 142.72C378.787 142.507 379.36 142.12 379.92 141.56C381.013 140.307 381.56 138.493 381.56 136.12C381.56 134.333 381.16 132.867 380.36 131.72C379.587 130.547 378.347 129.96 376.64 129.96C374.907 129.96 373.653 130.787 372.88 132.44H371.92V119.64H382.8L384.88 115.56H386.16L384.52 123.84H373.24V130.08C374.307 128.8 375.973 128.16 378.24 128.16C380.64 128.16 382.613 128.88 384.16 130.32C385.733 131.733 386.52 133.613 386.52 135.96C386.52 138.52 385.653 140.613 383.92 142.24C382.187 143.867 380.053 144.68 377.52 144.68C375.6 144.68 373.92 144.2 372.48 143.24C371.067 142.307 370.36 140.947 370.36 139.16Z" fill="black"/>
<path d="M345.986 144.639V119L366.615 146.151L366.69 146.25H366.814H368.061H368.311V146V118.361H372.932H373.182V118.111V117.377H372.932V117.127H361.804H361.554V117.377V118.111V118.361H361.804H366.887V139.052L350.577 117.227L350.502 117.127H350.377H345.736H345.067H344.563H340.057H339.807V117.377V118.111V118.361H340.057H344.54V144.639H340.057H339.807V144.889V145.623V145.873H340.057H351.185H351.435V145.623V144.889V144.639H351.185H345.986ZM373.562 120.155L373.562 120.155C372.88 121.264 372.544 122.594 372.544 124.137C372.544 125.68 372.88 127.017 373.561 128.137C374.24 129.252 375.187 130.104 376.39 130.689C377.591 131.274 378.99 131.562 380.574 131.562C382.158 131.562 383.563 131.274 384.78 130.69C385.999 130.105 386.953 129.253 387.632 128.137C388.314 127.017 388.65 125.68 388.65 124.137C388.65 122.594 388.314 121.262 387.632 120.155C386.952 119.052 385.998 118.207 384.78 117.622C383.563 117.038 382.158 116.75 380.574 116.75C378.99 116.75 377.591 117.038 376.39 117.623C375.187 118.207 374.241 119.053 373.562 120.155ZM374.806 134.118V134.368H375.056H386.138H386.388V134.118V133.402V133.152H386.138H375.056H374.806V133.402V134.118ZM376.968 124.137C376.968 122.008 377.271 120.397 377.852 119.281C378.137 118.732 378.504 118.332 378.949 118.067C379.395 117.802 379.933 117.664 380.574 117.664C381.222 117.664 381.766 117.802 382.216 118.067C382.664 118.332 383.033 118.733 383.318 119.281C383.899 120.397 384.202 122.008 384.202 124.137C384.202 126.279 383.899 127.9 383.318 129.022C383.033 129.573 382.664 129.976 382.215 130.242C381.766 130.509 381.222 130.647 380.574 130.647C379.933 130.647 379.395 130.509 378.95 130.242C378.505 129.976 378.138 129.574 377.852 129.022C377.272 127.9 376.968 126.279 376.968 124.137Z" fill="black" stroke="black" stroke-width="0.5"/>
<defs>
<clipPath id="clip0_114_13">
<rect width="542" height="569" fill="white" transform="translate(51 168)"/>
</clipPath>
</defs>
</svg>
