<svg width="853" height="958" viewBox="0 0 853 958" fill="none" xmlns="http://www.w3.org/2000/svg">
<rect x="665.357" y="192.79" width="55.7931" height="370.534" rx="27.8966" transform="rotate(51.3652 665.357 192.79)" fill="black"/>
<rect x="722.428" y="277.119" width="55.7931" height="370.534" rx="27.8966" transform="rotate(51.3652 722.428 277.119)" fill="black"/>
<rect x="787.165" y="361.021" width="55.7931" height="370.534" rx="27.8966" transform="rotate(51.3652 787.165 361.021)" fill="black"/>
<path d="M684 203L27 748" stroke="black" stroke-width="6"/>
<path d="M684 336L27 879" stroke="black" stroke-width="6"/>
<path d="M684 476L110 919" stroke="black" stroke-width="6"/>
<rect x="69" y="13" width="569" height="864" stroke="black" stroke-width="4"/>
<rect y="635" width="67" height="244" fill="white"/>
<rect x="6" y="879" width="277" height="79" fill="white"/>
<rect x="640" y="195" width="213" height="413" fill="white"/>
<path d="M144.52 127H124.5V125.11H131.15V79.82H124.5V77.93H144.1C155.067 77.93 160.55 81.57 160.55 88.85C160.55 92.1167 159.383 94.7767 157.05 96.83C154.717 98.8833 151.87 100.167 148.51 100.68V100.96C152.243 101.287 155.417 102.383 158.03 104.25C160.643 106.443 161.95 109.29 161.95 112.79C161.95 115.87 161.063 118.53 159.29 120.77C157.563 122.963 155.417 124.55 152.85 125.53C150.283 126.51 147.507 127 144.52 127ZM138.15 125.11H143.89C147.343 125.11 149.957 123.99 151.73 121.75C153.55 119.51 154.46 116.617 154.46 113.07C154.46 105.603 150.937 101.87 143.89 101.87H138.15V125.11ZM138.15 99.98H143.89C147.017 99.98 149.327 98.9767 150.82 96.97C152.313 94.9633 153.06 92.3267 153.06 89.06C153.06 82.9 149.863 79.82 143.47 79.82H138.15V99.98ZM209.41 127H173.15V125.11H179.8V79.82H173.15V77.93H207.59V92.28H205.7L203.32 79.82H186.8V100.82H197.09L198.56 92.63H200.45V110.83H198.63L197.09 102.71H186.8V125.11H205.14L207.52 111.95H209.41V127ZM257.923 127H221.663V125.11H228.313V79.82H221.663V77.93H256.103V92.28H254.213L251.833 79.82H235.313V100.82H245.603L247.073 92.63H248.963V110.83H247.143L245.603 102.71H235.313V125.11H253.653L256.033 111.95H257.923V127ZM272.137 92.21H270.247V77.93H309.937V92.21H308.047L305.667 80.1H293.557V125.11H300.207V127H279.907V125.11H286.557V80.1H274.447L272.137 92.21ZM370.937 79.82H364.287V125.11H370.937V127H350.637V125.11H357.287V102.92H334.117V125.11H340.767V127H320.467V125.11H327.117V79.82H320.467V77.93H340.767V79.82H334.117V101.03H357.287V79.82H350.637V77.93H370.937V79.82ZM405.074 127.56C398.12 127.56 392.614 125.133 388.554 120.28C384.494 115.427 382.464 109.523 382.464 102.57C382.464 95.3367 384.47 89.34 388.484 84.58C392.544 79.7733 398.074 77.37 405.074 77.37C412.214 77.37 417.744 79.75 421.664 84.51C425.584 89.27 427.544 95.2433 427.544 102.43C427.544 106.723 426.61 110.783 424.744 114.61C422.924 118.39 420.264 121.493 416.764 123.92C413.264 126.347 409.367 127.56 405.074 127.56ZM405.074 79.26C402.32 79.26 399.894 80.03 397.794 81.57C395.74 83.11 394.177 85.1167 393.104 87.59C392.03 90.0167 391.237 92.5133 390.724 95.08C390.21 97.6467 389.954 100.213 389.954 102.78C389.954 107.027 390.7 111.11 392.194 115.03C393.734 118.903 396.067 121.82 399.194 123.78C400.967 124.947 402.927 125.53 405.074 125.53C408.48 125.53 411.397 124.177 413.824 121.47C416.25 118.763 417.954 115.567 418.934 111.88C419.68 109.22 420.054 106.187 420.054 102.78C420.054 100.12 419.82 97.53 419.354 95.01C418.887 92.49 418.117 89.9933 417.044 87.52C416.017 85.0467 414.454 83.0633 412.354 81.57C410.3 80.03 407.874 79.26 405.074 79.26ZM468.034 79.82V77.93H483.574V79.82L476.924 80.52L460.754 127.56H458.654L440.244 79.82H433.594V77.93H454.454V79.82H447.804L461.874 117.48L474.684 80.52L468.034 79.82ZM527.56 127H491.3V125.11H497.95V79.82H491.3V77.93H525.74V92.28H523.85L521.47 79.82H504.95V100.82H515.24L516.71 92.63H518.6V110.83H516.78L515.24 102.71H504.95V125.11H523.29L525.67 111.95H527.56V127ZM555.143 127H539.883V125.11L546.533 124.41V79.82H539.883V77.93H553.463L576.353 115.1V80.52L569.703 79.82V77.93H585.033V79.82L578.383 80.52V127.56H576.353L548.563 83.04V124.41L555.143 125.11V127Z" fill="black"/>
<path d="M103.12 411.624V410.76H110.96V411.624H108.56V424.136H110.96V425H103.12V424.136H105.52V411.624H103.12ZM120.862 410.856C122.654 410.856 124.147 411.453 125.342 412.648C126.558 413.992 127.166 415.677 127.166 417.704C127.166 419.752 126.526 421.533 125.246 423.048C123.966 424.541 122.334 425.288 120.35 425.288C118.003 425.288 116.254 424.488 115.102 422.888C113.95 421.288 113.374 419.293 113.374 416.904C113.374 413.448 114.398 410.557 116.446 408.232C118.515 405.907 121.246 404.435 124.638 403.816L124.702 404.68C122.803 404.936 121.096 405.885 119.582 407.528C118.067 409.149 117.118 410.941 116.734 412.904L116.862 412.936C117.267 412.253 117.822 411.741 118.526 411.4C119.251 411.037 120.03 410.856 120.862 410.856ZM120.318 424.424C121.064 424.424 121.694 424.211 122.206 423.784C122.739 423.357 123.134 422.792 123.39 422.088C123.646 421.363 123.816 420.669 123.902 420.008C124.008 419.325 124.062 418.632 124.062 417.928C124.062 413.811 122.835 411.752 120.382 411.752C119.635 411.752 118.984 411.965 118.43 412.392C117.896 412.819 117.502 413.384 117.246 414.088C116.99 414.792 116.808 415.485 116.702 416.168C116.595 416.829 116.542 417.523 116.542 418.248C116.542 419.421 116.723 420.584 117.086 421.736C117.448 422.867 118.056 423.635 118.91 424.04C119.358 424.296 119.827 424.424 120.318 424.424ZM130.549 424.744C130.208 424.381 130.038 423.923 130.038 423.368C130.038 422.813 130.208 422.365 130.549 422.024C130.912 421.661 131.371 421.48 131.926 421.48C132.502 421.48 132.96 421.651 133.302 421.992C133.643 422.333 133.814 422.792 133.814 423.368C133.814 423.923 133.632 424.381 133.27 424.744C132.928 425.085 132.48 425.256 131.926 425.256C131.371 425.256 130.912 425.085 130.549 424.744ZM144.622 410.12C146.969 410.12 148.761 410.803 149.998 412.168C151.257 413.533 151.886 415.379 151.886 417.704C151.886 419.901 151.204 421.715 149.838 423.144C148.494 424.552 146.745 425.256 144.59 425.256C142.244 425.256 140.334 424.573 138.862 423.208C137.412 421.821 136.686 419.987 136.686 417.704C136.686 415.443 137.444 413.619 138.958 412.232C140.494 410.824 142.382 410.12 144.622 410.12ZM145.646 424.168C147.268 424.168 148.548 423.517 149.486 422.216C150.425 420.893 150.894 419.389 150.894 417.704C150.894 414.589 149.753 412.52 147.47 411.496C146.788 411.24 146.105 411.112 145.422 411.112C143.63 411.112 142.265 411.752 141.326 413.032C140.409 414.312 139.95 415.869 139.95 417.704C139.95 419.517 140.462 421.053 141.486 422.312C142.51 423.549 143.897 424.168 145.646 424.168ZM153.964 411.624V410.76H161.804V411.624H159.404V424.136H161.804V425H153.964V424.136H156.364V411.624H153.964ZM165.049 424.744C164.708 424.381 164.538 423.923 164.538 423.368C164.538 422.813 164.708 422.365 165.049 422.024C165.412 421.661 165.871 421.48 166.426 421.48C167.002 421.48 167.46 421.651 167.802 421.992C168.143 422.333 168.314 422.792 168.314 423.368C168.314 423.923 168.132 424.381 167.77 424.744C167.428 425.085 166.98 425.256 166.426 425.256C165.871 425.256 165.412 425.085 165.049 424.744ZM182.162 415.304C182.162 416.733 181.533 418.152 180.274 419.56C179.037 420.968 177.682 421.928 176.21 422.44H181.234L182.962 418.632H183.826L182.962 425H171.186V424.232C173.213 423.805 175.016 422.824 176.594 421.288C178.194 419.752 178.994 418.003 178.994 416.04C178.994 414.867 178.706 413.928 178.13 413.224C177.576 412.499 176.722 412.136 175.57 412.136C174.589 412.136 173.789 412.424 173.17 413C172.573 413.576 172.274 414.344 172.274 415.304C172.274 415.752 172.317 416.093 172.402 416.328C172.701 415.88 173.117 415.656 173.65 415.656C174.12 415.656 174.504 415.805 174.802 416.104C175.058 416.403 175.186 416.765 175.186 417.192C175.186 417.597 175.037 417.949 174.738 418.248C174.44 418.547 174.077 418.696 173.65 418.696C173.288 418.696 172.957 418.6 172.658 418.408C171.762 417.917 171.314 416.925 171.314 415.432C171.314 413.896 171.848 412.68 172.914 411.784C174.002 410.888 175.314 410.44 176.85 410.44C178.429 410.44 179.709 410.877 180.69 411.752C181.672 412.605 182.162 413.789 182.162 415.304ZM194.529 410.12C196.875 410.12 198.667 410.803 199.905 412.168C201.163 413.533 201.793 415.379 201.793 417.704C201.793 419.901 201.11 421.715 199.745 423.144C198.401 424.552 196.651 425.256 194.497 425.256C192.15 425.256 190.241 424.573 188.769 423.208C187.318 421.821 186.593 419.987 186.593 417.704C186.593 415.443 187.35 413.619 188.865 412.232C190.401 410.824 192.289 410.12 194.529 410.12ZM195.553 424.168C197.174 424.168 198.454 423.517 199.393 422.216C200.331 420.893 200.801 419.389 200.801 417.704C200.801 414.589 199.659 412.52 197.377 411.496C196.694 411.24 196.011 411.112 195.329 411.112C193.537 411.112 192.171 411.752 191.233 413.032C190.315 414.312 189.857 415.869 189.857 417.704C189.857 419.517 190.369 421.053 191.393 422.312C192.417 423.549 193.803 424.168 195.553 424.168ZM211.966 410.12C214.313 410.12 216.105 410.803 217.342 412.168C218.601 413.533 219.23 415.379 219.23 417.704C219.23 419.901 218.547 421.715 217.182 423.144C215.838 424.552 214.089 425.256 211.934 425.256C209.587 425.256 207.678 424.573 206.206 423.208C204.755 421.821 204.03 419.987 204.03 417.704C204.03 415.443 204.787 413.619 206.302 412.232C207.838 410.824 209.726 410.12 211.966 410.12ZM212.99 424.168C214.611 424.168 215.891 423.517 216.83 422.216C217.769 420.893 218.238 419.389 218.238 417.704C218.238 414.589 217.097 412.52 214.814 411.496C214.131 411.24 213.449 411.112 212.766 411.112C210.974 411.112 209.609 411.752 208.67 413.032C207.753 414.312 207.294 415.869 207.294 417.704C207.294 419.517 207.806 421.053 208.83 422.312C209.854 423.549 211.241 424.168 212.99 424.168ZM221.404 426.408C221.404 425.917 221.564 425.48 221.884 425.096C222.225 424.733 222.641 424.552 223.132 424.552C223.622 424.552 223.996 424.691 224.252 424.968C224.486 425.267 224.604 425.619 224.604 426.024C224.604 426.472 224.465 426.856 224.188 427.176C223.91 427.496 223.548 427.656 223.1 427.656C222.972 427.656 222.844 427.635 222.716 427.592C223.42 428.808 224.593 429.416 226.236 429.416C227.217 429.416 228.028 429.096 228.668 428.456C229.329 427.837 229.766 427.112 229.98 426.28C230.214 425.469 230.332 424.584 230.332 423.624C230.332 422.216 230.001 420.989 229.34 419.944C228.678 418.877 227.686 418.344 226.364 418.344C224.721 418.344 223.718 419.08 223.356 420.552H222.748V410.312H230.556L231.9 407.048H232.764L231.932 412.872H223.644V418.6C224.497 417.747 225.681 417.32 227.196 417.32C229.18 417.32 230.737 417.821 231.868 418.824C233.02 419.827 233.596 421.299 233.596 423.24C233.596 425.395 232.924 427.112 231.58 428.392C230.257 429.693 228.529 430.344 226.396 430.344C225.116 430.344 223.964 429.992 222.94 429.288C221.916 428.584 221.404 427.624 221.404 426.408Z" fill="black"/>
<path d="M110.768 449.856C112.56 449.856 114.053 450.453 115.248 451.648C116.464 452.992 117.072 454.677 117.072 456.704C117.072 458.752 116.432 460.533 115.152 462.048C113.872 463.541 112.24 464.288 110.256 464.288C107.909 464.288 106.16 463.488 105.008 461.888C103.856 460.288 103.28 458.293 103.28 455.904C103.28 452.448 104.304 449.557 106.352 447.232C108.421 444.907 111.152 443.435 114.544 442.816L114.608 443.68C112.709 443.936 111.003 444.885 109.488 446.528C107.973 448.149 107.024 449.941 106.64 451.904L106.768 451.936C107.173 451.253 107.728 450.741 108.432 450.4C109.157 450.037 109.936 449.856 110.768 449.856ZM110.224 463.424C110.971 463.424 111.6 463.211 112.112 462.784C112.645 462.357 113.04 461.792 113.296 461.088C113.552 460.363 113.723 459.669 113.808 459.008C113.915 458.325 113.968 457.632 113.968 456.928C113.968 452.811 112.741 450.752 110.288 450.752C109.541 450.752 108.891 450.965 108.336 451.392C107.803 451.819 107.408 452.384 107.152 453.088C106.896 453.792 106.715 454.485 106.608 455.168C106.501 455.829 106.448 456.523 106.448 457.248C106.448 458.421 106.629 459.584 106.992 460.736C107.355 461.867 107.963 462.635 108.816 463.04C109.264 463.296 109.733 463.424 110.224 463.424ZM119.944 462.368C119.944 461.813 120.114 461.365 120.456 461.024C120.818 460.661 121.277 460.48 121.832 460.48C122.408 460.48 122.866 460.651 123.208 460.992C123.549 461.333 123.72 461.792 123.72 462.368C123.72 462.965 123.549 463.435 123.208 463.776C122.888 464.096 122.429 464.256 121.832 464.256C121.234 464.256 120.776 464.085 120.456 463.744C120.114 463.424 119.944 462.965 119.944 462.368ZM119.944 451.648C119.944 451.093 120.114 450.645 120.456 450.304C120.818 449.941 121.277 449.76 121.832 449.76C122.408 449.76 122.866 449.931 123.208 450.272C123.549 450.613 123.72 451.072 123.72 451.648C123.72 452.245 123.549 452.715 123.208 453.056C122.888 453.376 122.429 453.536 121.832 453.536C121.234 453.536 120.776 453.365 120.456 453.024C120.114 452.704 119.944 452.245 119.944 451.648ZM134.529 449.12C136.875 449.12 138.667 449.803 139.905 451.168C141.163 452.533 141.793 454.379 141.793 456.704C141.793 458.901 141.11 460.715 139.745 462.144C138.401 463.552 136.651 464.256 134.497 464.256C132.15 464.256 130.241 463.573 128.769 462.208C127.318 460.821 126.593 458.987 126.593 456.704C126.593 454.443 127.35 452.619 128.865 451.232C130.401 449.824 132.289 449.12 134.529 449.12ZM135.553 463.168C137.174 463.168 138.454 462.517 139.393 461.216C140.331 459.893 140.801 458.389 140.801 456.704C140.801 453.589 139.659 451.52 137.377 450.496C136.694 450.24 136.011 450.112 135.329 450.112C133.537 450.112 132.171 450.752 131.233 452.032C130.315 453.312 129.857 454.869 129.857 456.704C129.857 458.517 130.369 460.053 131.393 461.312C132.417 462.549 133.803 463.168 135.553 463.168ZM151.966 449.12C154.313 449.12 156.105 449.803 157.342 451.168C158.601 452.533 159.23 454.379 159.23 456.704C159.23 458.901 158.547 460.715 157.182 462.144C155.838 463.552 154.089 464.256 151.934 464.256C149.587 464.256 147.678 463.573 146.206 462.208C144.755 460.821 144.03 458.987 144.03 456.704C144.03 454.443 144.787 452.619 146.302 451.232C147.838 449.824 149.726 449.12 151.966 449.12ZM152.99 463.168C154.611 463.168 155.891 462.517 156.83 461.216C157.769 459.893 158.238 458.389 158.238 456.704C158.238 453.589 157.097 451.52 154.814 450.496C154.131 450.24 153.449 450.112 152.766 450.112C150.974 450.112 149.609 450.752 148.67 452.032C147.753 453.312 147.294 454.869 147.294 456.704C147.294 458.517 147.806 460.053 148.83 461.312C149.854 462.549 151.241 463.168 152.99 463.168ZM170.524 453.984C170.076 453.984 169.596 453.952 169.084 453.888C168.721 453.867 168.22 453.792 167.58 453.664V463.136H170.94V464H161.34V463.136H164.38V442.432H161.34V441.568H170.908C173.062 441.568 174.833 442.016 176.22 442.912C177.606 443.787 178.3 445.216 178.3 447.2C178.3 449.355 177.542 451.029 176.028 452.224C174.534 453.397 172.7 453.984 170.524 453.984ZM170.14 453.12C171.697 453.12 172.87 452.555 173.66 451.424C174.47 450.293 174.876 448.928 174.876 447.328C174.876 445.664 174.481 444.437 173.692 443.648C172.902 442.837 171.676 442.432 170.012 442.432H167.58V452.736C168.326 452.992 169.18 453.12 170.14 453.12ZM206.287 442.432H203.247V463.136H206.287V464H197.007V463.136H200.047V444.192L192.879 464.288H192.015L185.295 444.224V462.688L188.335 463.136V464H180.943V463.136L184.367 462.688V442.432H181.327V441.568H187.887L193.679 459.296L199.983 441.568H206.287V442.432Z" fill="black"/>
<path d="M369.232 851.216C369.147 850.811 369.051 850.16 368.944 849.264C368.795 847.984 368.645 846.853 368.496 845.872C368.283 844.613 367.877 843.824 367.28 843.504C366.683 843.163 365.701 842.992 364.336 842.992H361.84V853.136H365.2V854H355.6V853.136H358.64V832.432H355.6V831.568H364.656C369.819 831.568 372.4 833.253 372.4 836.624C372.4 838.16 371.813 839.472 370.64 840.56C369.467 841.627 368.091 842.267 366.512 842.48V842.608C369.669 842.629 371.408 843.675 371.728 845.744C371.963 847.301 372.101 848.272 372.144 848.656C372.251 849.637 372.389 850.555 372.56 851.408C372.816 852.56 373.605 853.136 374.928 853.136H375.536V854H373.36C372.187 854 371.259 853.808 370.576 853.424C369.915 853.019 369.467 852.283 369.232 851.216ZM361.84 842.128H364.336C365.851 842.128 367.013 841.659 367.824 840.72C368.635 839.76 369.04 838.523 369.04 837.008C369.04 835.408 368.645 834.245 367.856 833.52C367.088 832.795 365.893 832.432 364.272 832.432H361.84V842.128ZM384.668 839.472C386.865 839.472 388.614 840.165 389.916 841.552C391.217 842.917 391.868 844.677 391.868 846.832C391.868 848.987 391.196 850.768 389.852 852.176C388.508 853.563 386.78 854.256 384.668 854.256C382.428 854.256 380.668 853.584 379.388 852.24C378.108 850.875 377.468 849.083 377.468 846.864C377.468 844.688 378.129 842.917 379.452 841.552C380.796 840.165 382.534 839.472 384.668 839.472ZM384.635 853.392C385.382 853.392 386.022 853.179 386.556 852.752C387.11 852.304 387.526 851.739 387.804 851.056C388.081 850.352 388.284 849.659 388.412 848.976C388.54 848.272 388.604 847.568 388.604 846.864C388.604 846.139 388.54 845.435 388.412 844.752C388.305 844.069 388.113 843.376 387.836 842.672C387.58 841.968 387.174 841.403 386.62 840.976C386.086 840.549 385.436 840.336 384.668 840.336C383.942 840.336 383.302 840.56 382.748 841.008C382.214 841.435 381.809 842 381.532 842.704C381.254 843.387 381.052 844.08 380.924 844.784C380.796 845.488 380.732 846.181 380.732 846.864C380.732 848.784 381.073 850.309 381.756 851.44C382.438 852.741 383.398 853.392 384.635 853.392ZM396.243 862.704C395.497 862.704 394.889 862.491 394.419 862.064C393.95 861.659 393.715 861.093 393.715 860.368C393.715 859.771 393.886 859.301 394.227 858.96C394.547 858.576 394.953 858.384 395.443 858.384C395.913 858.384 396.297 858.523 396.595 858.8C396.894 859.077 397.043 859.44 397.043 859.888C397.043 860.699 396.702 861.243 396.019 861.52C396.126 861.648 396.318 861.712 396.595 861.712C397.833 861.712 399.166 859.813 400.595 856.016L401.203 854.48L394.611 840.624H392.211V839.76H400.371V840.624H397.875L402.707 851.056L407.123 840.624H404.883V839.76H410.515V840.624H408.115L401.843 855.408C401.161 856.987 400.723 857.989 400.531 858.416C400.233 859.035 399.987 859.515 399.795 859.856C399.603 860.219 399.315 860.656 398.931 861.168C398.569 861.68 398.163 862.064 397.715 862.32C397.267 862.576 396.777 862.704 396.243 862.704ZM415.843 846.224C417.037 846.224 418.061 846.384 418.915 846.704V842.864C418.915 841.989 418.712 841.349 418.307 840.944C417.923 840.517 417.293 840.304 416.419 840.304C415.373 840.304 414.499 840.581 413.795 841.136C414.072 841.221 414.349 841.403 414.627 841.68C414.861 841.979 414.979 842.363 414.979 842.832C414.979 843.301 414.829 843.685 414.531 843.984C414.232 844.283 413.848 844.432 413.379 844.432C412.909 844.432 412.536 844.272 412.259 843.952C411.96 843.653 411.811 843.259 411.811 842.768C411.811 841.744 412.376 840.944 413.507 840.368C414.659 839.771 415.811 839.472 416.963 839.472C420.291 839.472 421.955 840.709 421.955 843.184V851.568C421.955 852.485 422.296 852.944 422.979 852.944C423.299 852.944 423.597 852.827 423.875 852.592C424.088 852.379 424.28 852.155 424.451 851.92L424.963 852.432C424.131 853.648 423.117 854.256 421.923 854.256C421.304 854.256 420.749 854.128 420.259 853.872C419.768 853.637 419.373 853.2 419.075 852.56C417.752 853.712 416.301 854.288 414.723 854.288C413.507 854.288 412.493 853.936 411.683 853.232C410.893 852.507 410.499 851.547 410.499 850.352C410.499 848.923 411.011 847.877 412.035 847.216C413.08 846.555 414.349 846.224 415.843 846.224ZM413.699 849.968C413.699 850.864 413.923 851.568 414.371 852.08C414.84 852.592 415.512 852.848 416.387 852.848C416.899 852.848 417.357 852.752 417.763 852.56C418.168 852.411 418.552 852.165 418.915 851.824V847.504C418.509 847.355 418.104 847.227 417.699 847.12C417.315 847.056 416.888 847.024 416.419 847.024C415.523 847.024 414.84 847.291 414.371 847.824C413.923 848.336 413.699 849.051 413.699 849.968ZM431.369 831.248V853.136H433.769V854H425.929V853.136H428.329V832.432H425.929V831.568H428.361L431.369 831.248ZM452.981 854H443.381V853.136H446.421V832.432H443.381V831.568H459.125V838.128H458.261L457.173 832.432H449.621V842.352H454.613L455.317 838.608H456.181V846.928H455.349L454.613 843.216H449.621V853.136H452.981V854ZM467.029 839.472C468.885 839.472 470.314 840.059 471.317 841.232C472.341 842.384 472.853 843.888 472.853 845.744H463.669C463.648 845.851 463.637 846.032 463.637 846.288V846.864C463.658 848.613 464 850.075 464.661 851.248C465.344 852.421 466.485 853.008 468.085 853.008C469.941 853.008 471.274 852.069 472.085 850.192L472.789 850.704C471.701 853.072 469.866 854.256 467.285 854.256C465.13 854.256 463.445 853.573 462.229 852.208C461.013 850.821 460.405 849.061 460.405 846.928C460.405 844.859 461.002 843.099 462.197 841.648C463.413 840.197 465.024 839.472 467.029 839.472ZM463.765 844.88H469.653C469.568 843.6 469.333 842.608 468.949 841.904C468.437 840.837 467.712 840.304 466.773 840.304C465.173 840.304 464.17 841.829 463.765 844.88ZM484.756 839.696V844.56H483.892C483.806 843.344 483.433 842.341 482.772 841.552C482.132 840.741 481.225 840.336 480.052 840.336C479.326 840.336 478.74 840.549 478.292 840.976C477.865 841.381 477.652 841.936 477.652 842.64C477.652 843.173 477.748 843.6 477.94 843.92C478.153 844.219 478.494 844.496 478.964 844.752C479.689 845.136 480.66 845.52 481.876 845.904C483.305 846.309 484.318 846.779 484.916 847.312C485.534 847.931 485.844 848.795 485.844 849.904C485.844 851.227 485.385 852.283 484.468 853.072C483.572 853.861 482.473 854.256 481.172 854.256C479.273 854.256 477.908 853.584 477.076 852.24L476.756 854.16H475.892V849.168H476.756C477.417 851.984 478.846 853.392 481.044 853.392C481.748 853.392 482.334 853.189 482.804 852.784C483.38 852.357 483.668 851.717 483.668 850.864C483.668 849.904 483.124 849.253 482.036 848.912C481.886 848.869 481.673 848.805 481.396 848.72C481.118 848.613 480.852 848.517 480.596 848.432C480.361 848.347 480.137 848.272 479.924 848.208C477.001 847.355 475.54 845.893 475.54 843.824C475.54 842.459 475.945 841.392 476.756 840.624C477.566 839.856 478.665 839.472 480.052 839.472C481.694 839.472 482.889 840.016 483.636 841.104L483.828 839.696H484.756ZM490.653 850.704V840.624H487.613V839.76H490.685L492.861 834.992H493.693V839.76H497.757V840.624H493.693V850.256C493.693 851.984 494.311 852.848 495.549 852.848C496.423 852.848 497.191 852.325 497.853 851.28L498.525 851.824C497.394 853.445 496.018 854.256 494.397 854.256C493.245 854.256 492.327 853.947 491.645 853.328C490.983 852.709 490.653 851.835 490.653 850.704ZM505.803 835.92C505.441 836.304 505.003 836.496 504.491 836.496C503.979 836.496 503.531 836.315 503.147 835.952C502.763 835.568 502.571 835.109 502.571 834.576C502.571 834.043 502.753 833.605 503.115 833.264C503.499 832.923 503.958 832.752 504.491 832.752C505.025 832.752 505.462 832.923 505.803 833.264C506.166 833.605 506.347 834.043 506.347 834.576C506.347 835.088 506.166 835.536 505.803 835.92ZM506.091 839.312V853.136H508.491V854H500.651V853.136H503.051V840.624H500.651V839.76H503.051L506.091 839.312ZM517.605 854.256L511.205 840.624H508.805V839.76H516.869V840.624H514.469L518.981 850.448L523.205 840.624H520.677V839.76H526.789V840.624H524.389L518.469 854.256H517.605ZM532.468 846.224C533.662 846.224 534.686 846.384 535.54 846.704V842.864C535.54 841.989 535.337 841.349 534.932 840.944C534.548 840.517 533.918 840.304 533.044 840.304C531.998 840.304 531.124 840.581 530.42 841.136C530.697 841.221 530.974 841.403 531.252 841.68C531.486 841.979 531.604 842.363 531.604 842.832C531.604 843.301 531.454 843.685 531.156 843.984C530.857 844.283 530.473 844.432 530.004 844.432C529.534 844.432 529.161 844.272 528.884 843.952C528.585 843.653 528.436 843.259 528.436 842.768C528.436 841.744 529.001 840.944 530.132 840.368C531.284 839.771 532.436 839.472 533.588 839.472C536.916 839.472 538.58 840.709 538.58 843.184V851.568C538.58 852.485 538.921 852.944 539.604 852.944C539.924 852.944 540.222 852.827 540.5 852.592C540.713 852.379 540.905 852.155 541.076 851.92L541.588 852.432C540.756 853.648 539.742 854.256 538.548 854.256C537.929 854.256 537.374 854.128 536.884 853.872C536.393 853.637 535.998 853.2 535.7 852.56C534.377 853.712 532.926 854.288 531.348 854.288C530.132 854.288 529.118 853.936 528.308 853.232C527.518 852.507 527.124 851.547 527.124 850.352C527.124 848.923 527.636 847.877 528.66 847.216C529.705 846.555 530.974 846.224 532.468 846.224ZM530.324 849.968C530.324 850.864 530.548 851.568 530.996 852.08C531.465 852.592 532.137 852.848 533.012 852.848C533.524 852.848 533.982 852.752 534.388 852.56C534.793 852.411 535.177 852.165 535.54 851.824V847.504C535.134 847.355 534.729 847.227 534.324 847.12C533.94 847.056 533.513 847.024 533.044 847.024C532.148 847.024 531.465 847.291 530.996 847.824C530.548 848.336 530.324 849.051 530.324 849.968ZM547.994 831.248V853.136H550.394V854H542.554V853.136H544.954V832.432H542.554V831.568H544.986L547.994 831.248ZM583.078 832.432H580.038V853.136H583.078V854H573.798V853.136H576.838V842.992H566.246V853.136H569.286V854H560.006V853.136H563.046V832.432H560.006V831.568H569.286V832.432H566.246V842.128H576.838V832.432H573.798V831.568H583.078V832.432ZM590.812 846.224C592.006 846.224 593.03 846.384 593.884 846.704V842.864C593.884 841.989 593.681 841.349 593.276 840.944C592.892 840.517 592.262 840.304 591.388 840.304C590.342 840.304 589.468 840.581 588.764 841.136C589.041 841.221 589.318 841.403 589.596 841.68C589.83 841.979 589.948 842.363 589.948 842.832C589.948 843.301 589.798 843.685 589.5 843.984C589.201 844.283 588.817 844.432 588.348 844.432C587.878 844.432 587.505 844.272 587.228 843.952C586.929 843.653 586.78 843.259 586.78 842.768C586.78 841.744 587.345 840.944 588.476 840.368C589.628 839.771 590.78 839.472 591.932 839.472C595.26 839.472 596.924 840.709 596.924 843.184V851.568C596.924 852.485 597.265 852.944 597.948 852.944C598.268 852.944 598.566 852.827 598.844 852.592C599.057 852.379 599.249 852.155 599.42 851.92L599.932 852.432C599.1 853.648 598.086 854.256 596.892 854.256C596.273 854.256 595.718 854.128 595.228 853.872C594.737 853.637 594.342 853.2 594.044 852.56C592.721 853.712 591.27 854.288 589.692 854.288C588.476 854.288 587.462 853.936 586.652 853.232C585.862 852.507 585.468 851.547 585.468 850.352C585.468 848.923 585.98 847.877 587.004 847.216C588.049 846.555 589.318 846.224 590.812 846.224ZM588.668 849.968C588.668 850.864 588.892 851.568 589.34 852.08C589.809 852.592 590.481 852.848 591.356 852.848C591.868 852.848 592.326 852.752 592.732 852.56C593.137 852.411 593.521 852.165 593.884 851.824V847.504C593.478 847.355 593.073 847.227 592.668 847.12C592.284 847.056 591.857 847.024 591.388 847.024C590.492 847.024 589.809 847.291 589.34 847.824C588.892 848.336 588.668 849.051 588.668 849.968ZM606.338 831.248V853.136H608.738V854H600.898V853.136H603.298V832.432H600.898V831.568H603.33L606.338 831.248ZM615.775 831.248V853.136H618.175V854H610.335V853.136H612.735V832.432H610.335V831.568H612.767L615.775 831.248Z" fill="black"/>
<rect x="62.051" y="2.05097" width="582.898" height="885.898" stroke="black" stroke-width="4.10193"/>
<path d="M128.052 207H109.8V206.028H113.22V182.736H109.8V181.764H120.204V182.736H116.784V206.028H125.964L127.476 198.432H128.412L128.052 207ZM139.02 190.656C141.492 190.656 143.46 191.436 144.924 192.996C146.388 194.532 147.12 196.512 147.12 198.936C147.12 201.36 146.364 203.364 144.852 204.948C143.34 206.508 141.396 207.288 139.02 207.288C136.5 207.288 134.52 206.532 133.08 205.02C131.64 203.484 130.92 201.468 130.92 198.972C130.92 196.524 131.664 194.532 133.152 192.996C134.664 191.436 136.62 190.656 139.02 190.656ZM138.984 206.316C139.824 206.316 140.544 206.076 141.144 205.596C141.768 205.092 142.236 204.456 142.548 203.688C142.86 202.896 143.088 202.116 143.232 201.348C143.376 200.556 143.448 199.764 143.448 198.972C143.448 198.156 143.376 197.364 143.232 196.596C143.112 195.828 142.896 195.048 142.584 194.256C142.296 193.464 141.84 192.828 141.216 192.348C140.616 191.868 139.884 191.628 139.02 191.628C138.204 191.628 137.484 191.88 136.86 192.384C136.26 192.864 135.804 193.5 135.492 194.292C135.18 195.06 134.952 195.84 134.808 196.632C134.664 197.424 134.592 198.204 134.592 198.972C134.592 201.132 134.976 202.848 135.744 204.12C136.512 205.584 137.592 206.316 138.984 206.316ZM166.57 195.876V206.028H169.27V207H160.63V206.028H163.15V196.02C163.15 193.596 162.154 192.384 160.162 192.384C158.89 192.384 157.87 192.936 157.102 194.04C156.334 195.12 155.95 196.32 155.95 197.64V206.028H158.47V207H149.83V206.028H152.53V191.952H149.83V190.98H152.53L155.95 190.476V194.4C156.934 191.904 158.806 190.656 161.566 190.656C164.902 190.656 166.57 192.396 166.57 195.876ZM183.809 207.396V203.94C183.233 204.972 182.477 205.788 181.541 206.388C180.629 206.988 179.609 207.288 178.481 207.288C176.225 207.288 174.449 206.496 173.153 204.912C171.881 203.304 171.245 201.36 171.245 199.08C171.245 196.824 171.917 194.856 173.261 193.176C174.629 191.472 176.405 190.62 178.589 190.62C181.061 190.62 182.801 191.688 183.809 193.824V182.736H181.109V181.764H183.809L187.229 181.26V205.956H189.929V206.928H187.229L183.809 207.396ZM179.525 205.776C180.413 205.776 181.205 205.464 181.901 204.84C182.621 204.216 183.161 203.46 183.521 202.572C183.713 201.996 183.809 201.516 183.809 201.132V197.424C183.809 196.8 183.713 196.164 183.521 195.516C183.089 194.268 182.345 193.308 181.289 192.636C180.737 192.348 180.149 192.204 179.525 192.204C178.685 192.204 177.941 192.42 177.293 192.852C176.669 193.284 176.189 193.86 175.853 194.58C175.517 195.276 175.265 196.008 175.097 196.776C174.929 197.544 174.845 198.312 174.845 199.08C174.845 200.16 174.989 201.18 175.277 202.14C175.565 203.1 176.069 203.952 176.789 204.696C177.533 205.416 178.445 205.776 179.525 205.776ZM200.192 190.656C202.664 190.656 204.632 191.436 206.096 192.996C207.56 194.532 208.292 196.512 208.292 198.936C208.292 201.36 207.536 203.364 206.024 204.948C204.512 206.508 202.568 207.288 200.192 207.288C197.672 207.288 195.692 206.532 194.252 205.02C192.812 203.484 192.092 201.468 192.092 198.972C192.092 196.524 192.836 194.532 194.324 192.996C195.836 191.436 197.792 190.656 200.192 190.656ZM200.156 206.316C200.996 206.316 201.716 206.076 202.316 205.596C202.94 205.092 203.408 204.456 203.72 203.688C204.032 202.896 204.26 202.116 204.404 201.348C204.548 200.556 204.62 199.764 204.62 198.972C204.62 198.156 204.548 197.364 204.404 196.596C204.284 195.828 204.068 195.048 203.756 194.256C203.468 193.464 203.012 192.828 202.388 192.348C201.788 191.868 201.056 191.628 200.192 191.628C199.376 191.628 198.656 191.88 198.032 192.384C197.432 192.864 196.976 193.5 196.664 194.292C196.352 195.06 196.124 195.84 195.98 196.632C195.836 197.424 195.764 198.204 195.764 198.972C195.764 201.132 196.148 202.848 196.916 204.12C197.684 205.584 198.764 206.316 200.156 206.316ZM227.742 195.876V206.028H230.442V207H221.802V206.028H224.322V196.02C224.322 193.596 223.326 192.384 221.334 192.384C220.062 192.384 219.042 192.936 218.274 194.04C217.506 195.12 217.122 196.32 217.122 197.64V206.028H219.642V207H211.002V206.028H213.702V191.952H211.002V190.98H213.702L217.122 190.476V194.4C218.106 191.904 219.978 190.656 222.738 190.656C226.074 190.656 227.742 192.396 227.742 195.876ZM250.901 195.732C250.397 195.732 249.857 195.696 249.281 195.624C248.873 195.6 248.309 195.516 247.589 195.372V206.028H251.369V207H240.569V206.028H243.989V182.736H240.569V181.764H251.333C253.757 181.764 255.749 182.268 257.309 183.276C258.869 184.26 259.649 185.868 259.649 188.1C259.649 190.524 258.797 192.408 257.093 193.752C255.413 195.072 253.349 195.732 250.901 195.732ZM250.469 194.76C252.221 194.76 253.541 194.124 254.429 192.852C255.341 191.58 255.797 190.044 255.797 188.244C255.797 186.372 255.353 184.992 254.465 184.104C253.577 183.192 252.197 182.736 250.325 182.736H247.589V194.328C248.429 194.616 249.389 194.76 250.469 194.76ZM278.859 195.876V206.028H281.559V207H272.919V206.028H275.439V196.056C275.439 194.856 275.223 193.956 274.791 193.356C274.359 192.732 273.579 192.42 272.451 192.42C271.155 192.42 270.123 192.972 269.355 194.076C268.611 195.18 268.239 196.404 268.239 197.748V206.028H270.759V207H262.119V206.028H264.819V182.736H262.119V181.764H264.819L268.239 181.26V194.508C268.767 193.284 269.523 192.336 270.507 191.664C271.515 190.968 272.679 190.62 273.999 190.62C277.167 190.62 278.787 192.372 278.859 195.876ZM289.185 186.66C288.777 187.092 288.285 187.308 287.709 187.308C287.133 187.308 286.629 187.104 286.197 186.696C285.765 186.264 285.549 185.748 285.549 185.148C285.549 184.548 285.753 184.056 286.161 183.672C286.593 183.288 287.109 183.096 287.709 183.096C288.309 183.096 288.801 183.288 289.185 183.672C289.593 184.056 289.797 184.548 289.797 185.148C289.797 185.724 289.593 186.228 289.185 186.66ZM289.509 190.476V206.028H292.209V207H283.389V206.028H286.089V191.952H283.389V190.98H286.089L289.509 190.476ZM300.122 181.404V206.028H302.822V207H294.002V206.028H296.702V182.736H294.002V181.764H296.738L300.122 181.404ZM321.539 195.876V206.028H324.239V207H315.599V206.028H318.119V196.056C318.119 194.856 317.903 193.956 317.471 193.356C317.039 192.732 316.259 192.42 315.131 192.42C313.835 192.42 312.803 192.972 312.035 194.076C311.291 195.18 310.919 196.404 310.919 197.748V206.028H313.439V207H304.799V206.028H307.499V182.736H304.799V181.764H307.499L310.919 181.26V194.508C311.447 193.284 312.203 192.336 313.187 191.664C314.195 190.968 315.359 190.62 316.679 190.62C319.847 190.62 321.467 192.372 321.539 195.876ZM332.261 198.252C333.605 198.252 334.757 198.432 335.717 198.792V194.472C335.717 193.488 335.489 192.768 335.033 192.312C334.601 191.832 333.893 191.592 332.909 191.592C331.733 191.592 330.749 191.904 329.957 192.528C330.269 192.624 330.581 192.828 330.893 193.14C331.157 193.476 331.289 193.908 331.289 194.436C331.289 194.964 331.121 195.396 330.785 195.732C330.449 196.068 330.017 196.236 329.489 196.236C328.961 196.236 328.541 196.056 328.229 195.696C327.893 195.36 327.725 194.916 327.725 194.364C327.725 193.212 328.361 192.312 329.633 191.664C330.929 190.992 332.225 190.656 333.521 190.656C337.265 190.656 339.137 192.048 339.137 194.832V204.264C339.137 205.296 339.521 205.812 340.289 205.812C340.649 205.812 340.985 205.68 341.297 205.416C341.537 205.176 341.753 204.924 341.945 204.66L342.521 205.236C341.585 206.604 340.445 207.288 339.101 207.288C338.405 207.288 337.781 207.144 337.229 206.856C336.677 206.592 336.233 206.1 335.897 205.38C334.409 206.676 332.777 207.324 331.001 207.324C329.633 207.324 328.493 206.928 327.581 206.136C326.693 205.32 326.249 204.24 326.249 202.896C326.249 201.288 326.825 200.112 327.977 199.368C329.153 198.624 330.581 198.252 332.261 198.252ZM329.849 202.464C329.849 203.472 330.101 204.264 330.605 204.84C331.133 205.416 331.889 205.704 332.873 205.704C333.449 205.704 333.965 205.596 334.421 205.38C334.877 205.212 335.309 204.936 335.717 204.552V199.692C335.261 199.524 334.805 199.38 334.349 199.26C333.917 199.188 333.437 199.152 332.909 199.152C331.901 199.152 331.133 199.452 330.605 200.052C330.101 200.628 329.849 201.432 329.849 202.464ZM349.907 190.476V194.472C350.867 191.928 352.547 190.656 354.947 190.656C355.883 190.656 356.663 190.932 357.287 191.484C357.911 192.036 358.223 192.78 358.223 193.716C358.223 194.268 358.031 194.748 357.647 195.156C357.287 195.54 356.831 195.732 356.279 195.732C355.775 195.732 355.355 195.576 355.019 195.264C354.683 194.928 354.515 194.508 354.515 194.004C354.515 193.092 354.995 192.408 355.955 191.952C355.643 191.76 355.259 191.664 354.803 191.664C353.291 191.664 352.091 192.408 351.203 193.896C350.339 195.36 349.907 196.92 349.907 198.576V206.028H352.967V207H343.787V206.028H346.487V191.952H343.787V190.98H346.487L349.907 190.476ZM386.529 196.632V206.028H389.229V207H380.517V206.028H383.037V196.812C383.037 195.972 382.977 195.264 382.857 194.688C382.761 194.112 382.485 193.584 382.029 193.104C381.573 192.624 380.937 192.384 380.121 192.384C379.473 192.384 378.909 192.528 378.429 192.816C376.965 193.824 376.233 195.468 376.233 197.748V206.028H378.753V207H370.293V206.028H372.813V196.56C372.813 195.744 372.753 195.06 372.633 194.508C372.513 193.956 372.225 193.464 371.769 193.032C371.337 192.6 370.725 192.384 369.933 192.384C368.685 192.384 367.713 192.948 367.017 194.076C366.345 195.18 366.009 196.404 366.009 197.748V206.028H368.529V207H359.889V206.028H362.589V191.952H359.889V190.98H362.625L366.009 190.476V194.4C366.993 191.904 368.793 190.656 371.409 190.656C374.049 190.656 375.633 191.892 376.161 194.364C377.265 191.892 379.065 190.656 381.561 190.656C384.873 190.656 386.529 192.648 386.529 196.632ZM399.317 190.656C401.789 190.656 403.757 191.436 405.221 192.996C406.685 194.532 407.417 196.512 407.417 198.936C407.417 201.36 406.661 203.364 405.149 204.948C403.637 206.508 401.693 207.288 399.317 207.288C396.797 207.288 394.817 206.532 393.377 205.02C391.937 203.484 391.217 201.468 391.217 198.972C391.217 196.524 391.961 194.532 393.449 192.996C394.961 191.436 396.917 190.656 399.317 190.656ZM399.281 206.316C400.121 206.316 400.841 206.076 401.441 205.596C402.065 205.092 402.533 204.456 402.845 203.688C403.157 202.896 403.385 202.116 403.529 201.348C403.673 200.556 403.745 199.764 403.745 198.972C403.745 198.156 403.673 197.364 403.529 196.596C403.409 195.828 403.193 195.048 402.881 194.256C402.593 193.464 402.137 192.828 401.513 192.348C400.913 191.868 400.181 191.628 399.317 191.628C398.501 191.628 397.781 191.88 397.157 192.384C396.557 192.864 396.101 193.5 395.789 194.292C395.477 195.06 395.249 195.84 395.105 196.632C394.961 197.424 394.889 198.204 394.889 198.972C394.889 201.132 395.273 202.848 396.041 204.12C396.809 205.584 397.889 206.316 399.281 206.316ZM426.867 195.876V206.028H429.567V207H420.927V206.028H423.447V196.02C423.447 193.596 422.451 192.384 420.459 192.384C419.187 192.384 418.167 192.936 417.399 194.04C416.631 195.12 416.247 196.32 416.247 197.64V206.028H418.767V207H410.127V206.028H412.827V191.952H410.127V190.98H412.827L416.247 190.476V194.4C417.231 191.904 419.103 190.656 421.863 190.656C425.199 190.656 426.867 192.396 426.867 195.876ZM437.158 186.66C436.75 187.092 436.258 187.308 435.682 187.308C435.106 187.308 434.602 187.104 434.17 186.696C433.738 186.264 433.522 185.748 433.522 185.148C433.522 184.548 433.726 184.056 434.134 183.672C434.566 183.288 435.082 183.096 435.682 183.096C436.282 183.096 436.774 183.288 437.158 183.672C437.566 184.056 437.77 184.548 437.77 185.148C437.77 185.724 437.566 186.228 437.158 186.66ZM437.482 190.476V206.028H440.182V207H431.362V206.028H434.062V191.952H431.362V190.98H434.062L437.482 190.476ZM455.583 202.86L456.303 203.328C455.655 204.528 454.791 205.488 453.711 206.208C452.631 206.904 451.443 207.252 450.147 207.252C447.795 207.252 445.899 206.46 444.459 204.876C443.043 203.268 442.335 201.3 442.335 198.972C442.335 196.524 443.055 194.532 444.495 192.996C445.935 191.436 447.843 190.656 450.219 190.656C451.347 190.656 452.403 190.884 453.387 191.34C454.371 191.796 455.127 192.468 455.655 193.356C455.967 193.884 456.123 194.388 456.123 194.868C456.123 195.396 455.943 195.852 455.583 196.236C455.247 196.596 454.815 196.776 454.287 196.776C453.783 196.776 453.363 196.62 453.027 196.308C452.715 195.996 452.559 195.588 452.559 195.084C452.559 194.244 453.015 193.56 453.927 193.032C453.183 192.12 452.103 191.664 450.687 191.664C449.799 191.664 449.031 191.904 448.383 192.384C447.735 192.84 447.243 193.452 446.907 194.22C446.595 194.964 446.367 195.732 446.223 196.524C446.079 197.292 446.007 198.096 446.007 198.936C446.007 200.832 446.415 202.476 447.231 203.868C448.047 205.236 449.319 205.92 451.047 205.92C452.919 205.92 454.431 204.9 455.583 202.86ZM121.788 244.288C118.212 244.288 115.38 243.04 113.292 240.544C111.204 238.048 110.16 235.012 110.16 231.436C110.16 227.716 111.192 224.632 113.256 222.184C115.344 219.712 118.188 218.476 121.788 218.476C125.46 218.476 128.304 219.7 130.32 222.148C132.336 224.596 133.344 227.668 133.344 231.364C133.344 233.572 132.864 235.66 131.904 237.628C130.968 239.572 129.6 241.168 127.8 242.416C126 243.664 123.996 244.288 121.788 244.288ZM121.788 219.448C120.372 219.448 119.124 219.844 118.044 220.636C116.988 221.428 116.184 222.46 115.632 223.732C115.08 224.98 114.672 226.264 114.408 227.584C114.144 228.904 114.012 230.224 114.012 231.544C114.012 233.728 114.396 235.828 115.164 237.844C115.956 239.836 117.156 241.336 118.764 242.344C119.676 242.944 120.684 243.244 121.788 243.244C123.54 243.244 125.04 242.548 126.288 241.156C127.536 239.764 128.412 238.12 128.916 236.224C129.3 234.856 129.492 233.296 129.492 231.544C129.492 230.176 129.372 228.844 129.132 227.548C128.892 226.252 128.496 224.968 127.944 223.696C127.416 222.424 126.612 221.404 125.532 220.636C124.476 219.844 123.228 219.448 121.788 219.448ZM142.204 227.476V231.472C143.164 228.928 144.844 227.656 147.244 227.656C148.18 227.656 148.96 227.932 149.584 228.484C150.208 229.036 150.52 229.78 150.52 230.716C150.52 231.268 150.328 231.748 149.944 232.156C149.584 232.54 149.128 232.732 148.576 232.732C148.072 232.732 147.652 232.576 147.316 232.264C146.98 231.928 146.812 231.508 146.812 231.004C146.812 230.092 147.292 229.408 148.252 228.952C147.94 228.76 147.556 228.664 147.1 228.664C145.588 228.664 144.388 229.408 143.5 230.896C142.636 232.36 142.204 233.92 142.204 235.576V243.028H145.264V244H136.084V243.028H138.784V228.952H136.084V227.98H138.784L142.204 227.476ZM165.614 239.86L166.334 240.328C165.686 241.528 164.822 242.488 163.742 243.208C162.662 243.904 161.474 244.252 160.178 244.252C157.826 244.252 155.93 243.46 154.49 241.876C153.074 240.268 152.366 238.3 152.366 235.972C152.366 233.524 153.086 231.532 154.526 229.996C155.966 228.436 157.874 227.656 160.25 227.656C161.378 227.656 162.434 227.884 163.418 228.34C164.402 228.796 165.158 229.468 165.686 230.356C165.998 230.884 166.154 231.388 166.154 231.868C166.154 232.396 165.974 232.852 165.614 233.236C165.278 233.596 164.846 233.776 164.318 233.776C163.814 233.776 163.394 233.62 163.058 233.308C162.746 232.996 162.59 232.588 162.59 232.084C162.59 231.244 163.046 230.56 163.958 230.032C163.214 229.12 162.134 228.664 160.718 228.664C159.83 228.664 159.062 228.904 158.414 229.384C157.766 229.84 157.274 230.452 156.938 231.22C156.626 231.964 156.398 232.732 156.254 233.524C156.11 234.292 156.038 235.096 156.038 235.936C156.038 237.832 156.446 239.476 157.262 240.868C158.078 242.236 159.35 242.92 161.078 242.92C162.95 242.92 164.462 241.9 165.614 239.86ZM185.449 232.876V243.028H188.149V244H179.509V243.028H182.029V233.056C182.029 231.856 181.813 230.956 181.381 230.356C180.949 229.732 180.169 229.42 179.041 229.42C177.745 229.42 176.713 229.972 175.945 231.076C175.201 232.18 174.829 233.404 174.829 234.748V243.028H177.349V244H168.709V243.028H171.409V219.736H168.709V218.764H171.409L174.829 218.26V231.508C175.357 230.284 176.113 229.336 177.097 228.664C178.105 227.968 179.269 227.62 180.589 227.62C183.757 227.62 185.377 229.372 185.449 232.876ZM197.611 227.656C199.699 227.656 201.307 228.316 202.435 229.636C203.587 230.932 204.163 232.624 204.163 234.712H193.831C193.807 234.832 193.795 235.036 193.795 235.324V235.972C193.819 237.94 194.203 239.584 194.947 240.904C195.715 242.224 196.999 242.884 198.799 242.884C200.887 242.884 202.387 241.828 203.299 239.716L204.091 240.292C202.867 242.956 200.803 244.288 197.899 244.288C195.475 244.288 193.579 243.52 192.211 241.984C190.843 240.424 190.159 238.444 190.159 236.044C190.159 233.716 190.831 231.736 192.175 230.104C193.543 228.472 195.355 227.656 197.611 227.656ZM193.939 233.74H200.563C200.467 232.3 200.203 231.184 199.771 230.392C199.195 229.192 198.379 228.592 197.323 228.592C195.523 228.592 194.395 230.308 193.939 233.74ZM217.553 227.908V233.38H216.581C216.485 232.012 216.065 230.884 215.321 229.996C214.601 229.084 213.581 228.628 212.261 228.628C211.445 228.628 210.785 228.868 210.281 229.348C209.801 229.804 209.561 230.428 209.561 231.22C209.561 231.82 209.669 232.3 209.885 232.66C210.125 232.996 210.509 233.308 211.037 233.596C211.853 234.028 212.945 234.46 214.313 234.892C215.921 235.348 217.061 235.876 217.733 236.476C218.429 237.172 218.777 238.144 218.777 239.392C218.777 240.88 218.261 242.068 217.229 242.956C216.221 243.844 214.985 244.288 213.521 244.288C211.385 244.288 209.849 243.532 208.913 242.02L208.553 244.18H207.581V238.564H208.553C209.297 241.732 210.905 243.316 213.377 243.316C214.169 243.316 214.829 243.088 215.357 242.632C216.005 242.152 216.329 241.432 216.329 240.472C216.329 239.392 215.717 238.66 214.493 238.276C214.325 238.228 214.085 238.156 213.773 238.06C213.461 237.94 213.161 237.832 212.873 237.736C212.609 237.64 212.357 237.556 212.117 237.484C208.829 236.524 207.185 234.88 207.185 232.552C207.185 231.016 207.641 229.816 208.553 228.952C209.465 228.088 210.701 227.656 212.261 227.656C214.109 227.656 215.453 228.268 216.293 229.492L216.509 227.908H217.553ZM224.187 240.292V228.952H220.767V227.98H224.223L226.671 222.616H227.607V227.98H232.179V228.952H227.607V239.788C227.607 241.732 228.303 242.704 229.695 242.704C230.679 242.704 231.543 242.116 232.287 240.94L233.043 241.552C231.771 243.376 230.223 244.288 228.399 244.288C227.103 244.288 226.071 243.94 225.303 243.244C224.559 242.548 224.187 241.564 224.187 240.292ZM241.556 227.476V231.472C242.516 228.928 244.196 227.656 246.596 227.656C247.532 227.656 248.312 227.932 248.936 228.484C249.56 229.036 249.872 229.78 249.872 230.716C249.872 231.268 249.68 231.748 249.296 232.156C248.936 232.54 248.48 232.732 247.928 232.732C247.424 232.732 247.004 232.576 246.668 232.264C246.332 231.928 246.164 231.508 246.164 231.004C246.164 230.092 246.644 229.408 247.604 228.952C247.292 228.76 246.908 228.664 246.452 228.664C244.94 228.664 243.74 229.408 242.852 230.896C241.988 232.36 241.556 233.92 241.556 235.576V243.028H244.616V244H235.436V243.028H238.136V228.952H235.436V227.98H238.136L241.556 227.476ZM257.026 235.252C258.37 235.252 259.522 235.432 260.482 235.792V231.472C260.482 230.488 260.254 229.768 259.798 229.312C259.366 228.832 258.658 228.592 257.674 228.592C256.498 228.592 255.514 228.904 254.722 229.528C255.034 229.624 255.346 229.828 255.658 230.14C255.922 230.476 256.054 230.908 256.054 231.436C256.054 231.964 255.886 232.396 255.55 232.732C255.214 233.068 254.782 233.236 254.254 233.236C253.726 233.236 253.306 233.056 252.994 232.696C252.658 232.36 252.49 231.916 252.49 231.364C252.49 230.212 253.126 229.312 254.398 228.664C255.694 227.992 256.99 227.656 258.286 227.656C262.03 227.656 263.902 229.048 263.902 231.832V241.264C263.902 242.296 264.286 242.812 265.054 242.812C265.414 242.812 265.75 242.68 266.062 242.416C266.302 242.176 266.518 241.924 266.71 241.66L267.286 242.236C266.35 243.604 265.21 244.288 263.866 244.288C263.17 244.288 262.546 244.144 261.994 243.856C261.442 243.592 260.998 243.1 260.662 242.38C259.174 243.676 257.542 244.324 255.766 244.324C254.398 244.324 253.258 243.928 252.346 243.136C251.458 242.32 251.014 241.24 251.014 239.896C251.014 238.288 251.59 237.112 252.742 236.368C253.918 235.624 255.346 235.252 257.026 235.252ZM254.614 239.464C254.614 240.472 254.866 241.264 255.37 241.84C255.898 242.416 256.654 242.704 257.638 242.704C258.214 242.704 258.73 242.596 259.186 242.38C259.642 242.212 260.074 241.936 260.482 241.552V236.692C260.026 236.524 259.57 236.38 259.114 236.26C258.682 236.188 258.202 236.152 257.674 236.152C256.666 236.152 255.898 236.452 255.37 237.052C254.866 237.628 254.614 238.432 254.614 239.464Z" fill="black"/>
</svg>
