<svg width="588" height="919" viewBox="0 0 588 919" fill="none" xmlns="http://www.w3.org/2000/svg">
<rect x="109.257" y="223.403" width="19.8649" height="286.362" fill="black"/>
<rect x="145.014" y="346.275" width="19.8649" height="183.8" fill="black"/>
<rect x="200.635" y="137.089" width="19.8649" height="333.074" fill="black"/>
<rect x="225.466" y="460.008" width="19.8649" height="361.507" fill="black"/>
<rect x="250.297" y="492.503" width="19.8649" height="218.326" fill="black"/>
<rect x="233.412" y="113.732" width="19.8649" height="307.687" fill="black"/>
<rect x="260.23" y="162.476" width="19.8649" height="307.687" fill="black"/>
<rect x="285.061" y="305.656" width="19.8649" height="294.486" fill="black"/>
<rect x="309.892" y="470.162" width="19.8649" height="294.486" fill="black"/>
<rect x="334.723" y="215.279" width="19.8649" height="294.486" fill="black"/>
<rect x="358.561" y="120.841" width="19.8649" height="294.486" fill="black"/>
<rect x="370.48" y="439.698" width="19.8649" height="221.372" fill="black"/>
<rect x="420.142" y="248.79" width="19.8649" height="281.285" fill="black"/>
<rect x="455.899" y="369.631" width="19.8649" height="217.311" fill="black"/>
<rect x="395.311" y="564.602" width="19.8649" height="217.311" fill="black"/>
<rect x="480.73" y="491.487" width="19.8649" height="273.161" fill="black"/>
<rect x="2" y="2" width="584" height="915" stroke="black" stroke-width="4"/>
<rect x="9" y="21" width="569" height="878" stroke="black" stroke-width="4"/>
<rect x="420.142" y="258.944" width="19.8649" height="7.10829" fill="black"/>
<rect x="420.142" y="249.806" width="19.8649" height="8.12376" fill="black"/>
<rect x="420.142" y="238.636" width="19.8649" height="9.13923" fill="black"/>
<rect x="420.142" y="230.512" width="19.8649" height="7.10829" fill="black"/>
<rect x="420.142" y="221.372" width="19.8649" height="8.12376" fill="black"/>
<rect x="420.142" y="216.295" width="19.8649" height="4.06188" fill="black"/>
<rect x="420.142" y="208.171" width="19.8649" height="5.07735" fill="black"/>
<rect x="420.142" y="202.078" width="19.8649" height="5.07735" fill="black"/>
<rect x="420.142" y="191.924" width="19.8649" height="5.07735" fill="black"/>
<rect x="420.142" y="183.8" width="19.8649" height="5.07735" fill="black"/>
<rect x="420.142" y="173.646" width="19.8649" height="3.04641" fill="black"/>
<rect x="420.142" y="164.506" width="19.8649" height="5.07735" fill="black"/>
<rect x="420.142" y="150.289" width="19.8649" height="4.06188" fill="black"/>
<rect x="420.142" y="141.15" width="19.8649" height="4.06188" fill="black"/>
<rect x="420.142" y="129.98" width="19.8649" height="4.06188" fill="black"/>
<rect x="420.142" y="120.841" width="19.8649" height="4.06188" fill="black"/>
<rect x="420.142" y="109.671" width="19.8649" height="4.06188" fill="black"/>
<rect x="420.142" y="91.3926" width="19.8649" height="4.06188" fill="black"/>
<rect x="455.898" y="380.801" width="19.8649" height="7.10829" fill="black"/>
<rect x="455.898" y="371.661" width="19.8649" height="8.12376" fill="black"/>
<rect x="455.898" y="360.491" width="19.8649" height="9.13923" fill="black"/>
<rect x="455.898" y="352.367" width="19.8649" height="7.10829" fill="black"/>
<rect x="455.898" y="343.229" width="19.8649" height="8.12376" fill="black"/>
<rect x="455.898" y="338.15" width="19.8649" height="4.06188" fill="black"/>
<rect x="455.898" y="330.027" width="19.8649" height="5.07735" fill="black"/>
<rect x="455.898" y="323.935" width="19.8649" height="5.07735" fill="black"/>
<rect x="455.898" y="313.779" width="19.8649" height="5.07735" fill="black"/>
<rect x="455.898" y="305.656" width="19.8649" height="5.07735" fill="black"/>
<rect x="455.898" y="295.501" width="19.8649" height="3.04641" fill="black"/>
<rect x="455.898" y="286.362" width="19.8649" height="5.07735" fill="black"/>
<rect x="455.898" y="272.146" width="19.8649" height="4.06188" fill="black"/>
<rect x="455.898" y="263.006" width="19.8649" height="4.06188" fill="black"/>
<rect x="455.898" y="251.836" width="19.8649" height="4.06188" fill="black"/>
<rect x="455.898" y="242.696" width="19.8649" height="4.06188" fill="black"/>
<rect x="455.898" y="231.526" width="19.8649" height="4.06188" fill="black"/>
<rect x="455.898" y="213.248" width="19.8649" height="4.06188" fill="black"/>
<rect x="480.73" y="518.905" width="19.8649" height="7.10829" fill="black"/>
<rect x="480.73" y="509.766" width="19.8649" height="8.12376" fill="black"/>
<rect x="480.73" y="498.596" width="19.8649" height="9.13923" fill="black"/>
<rect x="480.73" y="490.472" width="19.8649" height="7.10829" fill="black"/>
<rect x="480.73" y="481.333" width="19.8649" height="8.12376" fill="black"/>
<rect x="480.73" y="476.255" width="19.8649" height="4.06188" fill="black"/>
<rect x="480.73" y="468.132" width="19.8649" height="5.07735" fill="black"/>
<rect x="480.73" y="462.039" width="19.8649" height="5.07735" fill="black"/>
<rect x="480.73" y="451.884" width="19.8649" height="5.07735" fill="black"/>
<rect x="480.73" y="443.76" width="19.8649" height="5.07735" fill="black"/>
<rect x="480.73" y="433.605" width="19.8649" height="3.04641" fill="black"/>
<rect x="480.73" y="424.466" width="19.8649" height="5.07735" fill="black"/>
<rect x="480.73" y="410.25" width="19.8649" height="4.06188" fill="black"/>
<rect x="480.73" y="401.11" width="19.8649" height="4.06188" fill="black"/>
<rect x="480.73" y="389.94" width="19.8649" height="4.06188" fill="black"/>
<rect x="480.73" y="380.801" width="19.8649" height="4.06188" fill="black"/>
<rect x="480.73" y="369.631" width="19.8649" height="4.06188" fill="black"/>
<rect x="480.73" y="351.353" width="19.8649" height="4.06188" fill="black"/>
<rect x="109.257" y="214.265" width="19.8649" height="7.10829" fill="black"/>
<rect x="109.257" y="205.125" width="19.8649" height="8.12376" fill="black"/>
<rect x="109.257" y="193.955" width="19.8649" height="9.13923" fill="black"/>
<rect x="109.257" y="185.831" width="19.8649" height="7.10829" fill="black"/>
<rect x="109.257" y="176.692" width="19.8649" height="8.12376" fill="black"/>
<rect x="109.257" y="171.614" width="19.8649" height="4.06188" fill="black"/>
<rect x="109.257" y="163.491" width="19.8649" height="5.07735" fill="black"/>
<rect x="109.257" y="157.398" width="19.8649" height="5.07735" fill="black"/>
<rect x="109.257" y="147.243" width="19.8649" height="5.07735" fill="black"/>
<rect x="109.257" y="139.12" width="19.8649" height="5.07735" fill="black"/>
<rect x="109.257" y="128.965" width="19.8649" height="3.04641" fill="black"/>
<rect x="109.257" y="119.826" width="19.8649" height="5.07735" fill="black"/>
<rect x="109.257" y="105.609" width="19.8649" height="4.06188" fill="black"/>
<rect x="109.257" y="96.4697" width="19.8649" height="4.06188" fill="black"/>
<rect x="109.257" y="85.2998" width="19.8649" height="4.06188" fill="black"/>
<rect x="109.257" y="76.1602" width="19.8649" height="4.06188" fill="black"/>
<rect x="109.257" y="64.9902" width="19.8649" height="4.06188" fill="black"/>
<rect x="109.257" y="46.7119" width="19.8649" height="4.06188" fill="black"/>
<rect x="145.014" y="339.167" width="19.8649" height="7.10829" fill="black"/>
<rect x="145.014" y="330.027" width="19.8649" height="8.12376" fill="black"/>
<rect x="145.014" y="318.857" width="19.8649" height="9.13923" fill="black"/>
<rect x="145.014" y="310.733" width="19.8649" height="7.10829" fill="black"/>
<rect x="145.014" y="301.595" width="19.8649" height="8.12376" fill="black"/>
<rect x="145.014" y="296.518" width="19.8649" height="4.06188" fill="black"/>
<rect x="145.014" y="288.394" width="19.8649" height="5.07735" fill="black"/>
<rect x="145.014" y="282.301" width="19.8649" height="5.07735" fill="black"/>
<rect x="145.014" y="272.146" width="19.8649" height="5.07735" fill="black"/>
<rect x="145.014" y="264.022" width="19.8649" height="5.07735" fill="black"/>
<rect x="145.014" y="253.867" width="19.8649" height="3.04641" fill="black"/>
<rect x="145.014" y="244.729" width="19.8649" height="5.07735" fill="black"/>
<rect x="145.014" y="230.512" width="19.8649" height="4.06188" fill="black"/>
<rect x="145.014" y="221.372" width="19.8649" height="4.06188" fill="black"/>
<rect x="145.014" y="210.202" width="19.8649" height="4.06188" fill="black"/>
<rect x="145.014" y="201.062" width="19.8649" height="4.06188" fill="black"/>
<rect x="145.014" y="189.893" width="19.8649" height="4.06188" fill="black"/>
<rect x="145.013" y="171.614" width="19.8649" height="4.06188" fill="black"/>
<rect x="200.635" y="197.002" width="19.8649" height="7.10829" fill="black"/>
<rect x="200.635" y="187.862" width="19.8649" height="8.12376" fill="black"/>
<rect x="200.635" y="176.692" width="19.8649" height="9.13923" fill="black"/>
<rect x="200.635" y="168.568" width="19.8649" height="7.10829" fill="black"/>
<rect x="200.635" y="159.43" width="19.8649" height="8.12376" fill="black"/>
<rect x="200.635" y="154.352" width="19.8649" height="4.06188" fill="black"/>
<rect x="200.635" y="146.229" width="19.8649" height="5.07735" fill="black"/>
<rect x="200.635" y="140.136" width="19.8649" height="5.07735" fill="black"/>
<rect x="200.635" y="129.98" width="19.8649" height="5.07735" fill="black"/>
<rect x="200.635" y="121.857" width="19.8649" height="5.07735" fill="black"/>
<rect x="200.635" y="111.702" width="19.8649" height="3.04641" fill="black"/>
<rect x="200.635" y="102.563" width="19.8649" height="5.07735" fill="black"/>
<rect x="200.635" y="88.3467" width="19.8649" height="4.06188" fill="black"/>
<rect x="200.635" y="79.207" width="19.8649" height="4.06188" fill="black"/>
<rect x="200.635" y="68.0371" width="19.8649" height="4.06188" fill="black"/>
<rect x="200.635" y="58.8975" width="19.8649" height="4.06188" fill="black"/>
<rect x="200.635" y="47.7275" width="19.8649" height="4.06188" fill="black"/>
<rect x="200.635" y="29.4492" width="19.8649" height="4.06188" fill="black"/>
<rect x="233.412" y="213.249" width="19.8649" height="7.10829" fill="black"/>
<rect x="233.412" y="204.109" width="19.8649" height="8.12376" fill="black"/>
<rect x="233.412" y="192.939" width="19.8649" height="9.13923" fill="black"/>
<rect x="233.412" y="184.815" width="19.8649" height="7.10829" fill="black"/>
<rect x="233.412" y="175.676" width="19.8649" height="8.12376" fill="black"/>
<rect x="233.412" y="170.599" width="19.8649" height="4.06188" fill="black"/>
<rect x="233.412" y="162.476" width="19.8649" height="5.07735" fill="black"/>
<rect x="233.412" y="156.383" width="19.8649" height="5.07735" fill="black"/>
<rect x="233.412" y="146.228" width="19.8649" height="5.07735" fill="black"/>
<rect x="233.412" y="138.104" width="19.8649" height="5.07735" fill="black"/>
<rect x="233.412" y="127.949" width="19.8649" height="3.04641" fill="black"/>
<rect x="233.412" y="118.81" width="19.8649" height="5.07735" fill="black"/>
<rect x="233.412" y="104.594" width="19.8649" height="4.06188" fill="black"/>
<rect x="233.412" y="95.4541" width="19.8649" height="4.06188" fill="black"/>
<rect x="233.412" y="84.2842" width="19.8649" height="4.06188" fill="black"/>
<rect x="233.412" y="75.1445" width="19.8649" height="4.06188" fill="black"/>
<rect x="233.412" y="63.9746" width="19.8649" height="4.06188" fill="black"/>
<rect x="233.412" y="45.6963" width="19.8649" height="4.06188" fill="black"/>
<rect x="260.23" y="243.713" width="19.8649" height="7.10829" fill="black"/>
<rect x="260.23" y="234.573" width="19.8649" height="8.12376" fill="black"/>
<rect x="260.23" y="223.403" width="19.8649" height="9.13923" fill="black"/>
<rect x="260.23" y="215.279" width="19.8649" height="7.10829" fill="black"/>
<rect x="260.23" y="206.141" width="19.8649" height="8.12376" fill="black"/>
<rect x="260.23" y="201.062" width="19.8649" height="4.06188" fill="black"/>
<rect x="260.23" y="192.939" width="19.8649" height="5.07735" fill="black"/>
<rect x="260.23" y="186.847" width="19.8649" height="5.07735" fill="black"/>
<rect x="260.23" y="176.691" width="19.8649" height="5.07735" fill="black"/>
<rect x="260.23" y="168.568" width="19.8649" height="5.07735" fill="black"/>
<rect x="260.23" y="158.413" width="19.8649" height="3.04641" fill="black"/>
<rect x="260.23" y="149.274" width="19.8649" height="5.07735" fill="black"/>
<rect x="260.23" y="135.058" width="19.8649" height="4.06188" fill="black"/>
<rect x="260.23" y="125.918" width="19.8649" height="4.06188" fill="black"/>
<rect x="260.23" y="114.748" width="19.8649" height="4.06188" fill="black"/>
<rect x="260.23" y="105.608" width="19.8649" height="4.06188" fill="black"/>
<rect x="260.23" y="94.4385" width="19.8649" height="4.06188" fill="black"/>
<rect x="260.23" y="76.1602" width="19.8649" height="4.06188" fill="black"/>
<rect x="285.061" y="296.518" width="19.8649" height="7.10829" fill="black"/>
<rect x="285.061" y="287.378" width="19.8649" height="8.12376" fill="black"/>
<rect x="285.061" y="276.208" width="19.8649" height="9.13923" fill="black"/>
<rect x="285.061" y="268.084" width="19.8649" height="7.10829" fill="black"/>
<rect x="285.061" y="258.944" width="19.8649" height="8.12376" fill="black"/>
<rect x="285.061" y="253.867" width="19.8649" height="4.06188" fill="black"/>
<rect x="285.061" y="245.743" width="19.8649" height="5.07735" fill="black"/>
<rect x="285.061" y="239.65" width="19.8649" height="5.07735" fill="black"/>
<rect x="285.061" y="229.496" width="19.8649" height="5.07735" fill="black"/>
<rect x="285.061" y="221.372" width="19.8649" height="5.07735" fill="black"/>
<rect x="285.061" y="211.218" width="19.8649" height="3.04641" fill="black"/>
<rect x="285.061" y="202.078" width="19.8649" height="5.07735" fill="black"/>
<rect x="285.061" y="187.862" width="19.8649" height="4.06188" fill="black"/>
<rect x="285.061" y="178.723" width="19.8649" height="4.06188" fill="black"/>
<rect x="285.061" y="167.553" width="19.8649" height="4.06188" fill="black"/>
<rect x="285.061" y="158.413" width="19.8649" height="4.06188" fill="black"/>
<rect x="285.061" y="147.243" width="19.8649" height="4.06188" fill="black"/>
<rect x="285.061" y="128.965" width="19.8649" height="4.06188" fill="black"/>
<rect x="334.723" y="204.11" width="19.8649" height="7.10829" fill="black"/>
<rect x="334.723" y="194.971" width="19.8649" height="8.12376" fill="black"/>
<rect x="334.723" y="183.801" width="19.8649" height="9.13923" fill="black"/>
<rect x="334.723" y="175.677" width="19.8649" height="7.10829" fill="black"/>
<rect x="334.723" y="166.538" width="19.8649" height="8.12376" fill="black"/>
<rect x="334.723" y="161.46" width="19.8649" height="4.06188" fill="black"/>
<rect x="334.723" y="153.337" width="19.8649" height="5.07735" fill="black"/>
<rect x="334.723" y="147.244" width="19.8649" height="5.07735" fill="black"/>
<rect x="334.723" y="137.089" width="19.8649" height="5.07735" fill="black"/>
<rect x="334.723" y="128.966" width="19.8649" height="5.07735" fill="black"/>
<rect x="334.723" y="118.811" width="19.8649" height="3.04641" fill="black"/>
<rect x="334.723" y="109.672" width="19.8649" height="5.07735" fill="black"/>
<rect x="334.723" y="95.4551" width="19.8649" height="4.06188" fill="black"/>
<rect x="334.723" y="86.3154" width="19.8649" height="4.06188" fill="black"/>
<rect x="334.723" y="75.1455" width="19.8649" height="4.06188" fill="black"/>
<rect x="334.723" y="66.0059" width="19.8649" height="4.06188" fill="black"/>
<rect x="334.723" y="54.8359" width="19.8649" height="4.06188" fill="black"/>
<rect x="334.723" y="36.5576" width="19.8649" height="4.06188" fill="black"/>
<rect x="395.311" y="561.556" width="19.8649" height="7.10829" fill="black"/>
<rect x="395.311" y="552.416" width="19.8649" height="8.12376" fill="black"/>
<rect x="395.311" y="541.246" width="19.8649" height="9.13923" fill="black"/>
<rect x="395.311" y="533.122" width="19.8649" height="7.10829" fill="black"/>
<rect x="395.311" y="523.983" width="19.8649" height="8.12376" fill="black"/>
<rect x="395.311" y="518.905" width="19.8649" height="4.06188" fill="black"/>
<rect x="395.311" y="510.782" width="19.8649" height="5.07735" fill="black"/>
<rect x="395.311" y="504.689" width="19.8649" height="5.07735" fill="black"/>
<rect x="395.311" y="494.534" width="19.8649" height="5.07735" fill="black"/>
<rect x="395.311" y="486.411" width="19.8649" height="5.07735" fill="black"/>
<rect x="395.311" y="476.256" width="19.8649" height="3.04641" fill="black"/>
<rect x="395.311" y="467.117" width="19.8649" height="5.07735" fill="black"/>
<rect x="395.311" y="452.9" width="19.8649" height="4.06188" fill="black"/>
<rect x="395.311" y="443.761" width="19.8649" height="4.06188" fill="black"/>
<rect x="395.311" y="432.591" width="19.8649" height="4.06188" fill="black"/>
<rect x="395.311" y="423.451" width="19.8649" height="4.06188" fill="black"/>
<rect x="395.311" y="412.281" width="19.8649" height="4.06188" fill="black"/>
<rect x="395.311" y="394.003" width="19.8649" height="4.06188" fill="black"/>
<rect x="370.48" y="458.993" width="19.8649" height="7.10829" fill="black"/>
<rect x="370.48" y="449.854" width="19.8649" height="8.12376" fill="black"/>
<rect x="370.48" y="438.684" width="19.8649" height="9.13923" fill="black"/>
<rect x="370.48" y="430.56" width="19.8649" height="7.10829" fill="black"/>
<rect x="370.48" y="421.421" width="19.8649" height="8.12376" fill="black"/>
<rect x="370.48" y="416.343" width="19.8649" height="4.06188" fill="black"/>
<rect x="370.48" y="408.22" width="19.8649" height="5.07735" fill="black"/>
<rect x="370.48" y="402.127" width="19.8649" height="5.07735" fill="black"/>
<rect x="370.48" y="391.972" width="19.8649" height="5.07735" fill="black"/>
<rect x="370.48" y="383.849" width="19.8649" height="5.07735" fill="black"/>
<rect x="370.48" y="373.693" width="19.8649" height="3.04641" fill="black"/>
<rect x="370.48" y="364.555" width="19.8649" height="5.07735" fill="black"/>
<rect x="370.48" y="350.338" width="19.8649" height="4.06188" fill="black"/>
<rect x="370.48" y="341.198" width="19.8649" height="4.06188" fill="black"/>
<rect x="370.48" y="330.028" width="19.8649" height="4.06188" fill="black"/>
<rect x="370.48" y="320.889" width="19.8649" height="4.06188" fill="black"/>
<rect x="370.48" y="309.719" width="19.8649" height="4.06188" fill="black"/>
<rect x="370.48" y="291.44" width="19.8649" height="4.06188" fill="black"/>
<rect x="309.892" y="469.147" width="19.8649" height="7.10829" fill="black"/>
<rect x="309.892" y="460.008" width="19.8649" height="8.12376" fill="black"/>
<rect x="309.892" y="448.838" width="19.8649" height="9.13923" fill="black"/>
<rect x="309.892" y="440.714" width="19.8649" height="7.10829" fill="black"/>
<rect x="309.892" y="431.575" width="19.8649" height="8.12376" fill="black"/>
<rect x="309.892" y="426.497" width="19.8649" height="4.06188" fill="black"/>
<rect x="309.892" y="418.374" width="19.8649" height="5.07735" fill="black"/>
<rect x="309.892" y="412.281" width="19.8649" height="5.07735" fill="black"/>
<rect x="309.892" y="402.126" width="19.8649" height="5.07735" fill="black"/>
<rect x="309.892" y="394.003" width="19.8649" height="5.07735" fill="black"/>
<rect x="309.892" y="383.848" width="19.8649" height="3.04641" fill="black"/>
<rect x="309.892" y="374.709" width="19.8649" height="5.07735" fill="black"/>
<rect x="309.892" y="360.492" width="19.8649" height="4.06188" fill="black"/>
<rect x="309.892" y="351.353" width="19.8649" height="4.06188" fill="black"/>
<rect x="309.892" y="340.183" width="19.8649" height="4.06188" fill="black"/>
<rect x="309.892" y="331.043" width="19.8649" height="4.06188" fill="black"/>
<rect x="309.892" y="319.873" width="19.8649" height="4.06188" fill="black"/>
<rect x="309.892" y="301.595" width="19.8649" height="4.06188" fill="black"/>
<rect x="225.466" y="477.271" width="19.8649" height="7.10829" fill="black"/>
<rect x="225.466" y="468.132" width="19.8649" height="8.12376" fill="black"/>
<rect x="225.466" y="456.962" width="19.8649" height="9.13923" fill="black"/>
<rect x="225.466" y="448.838" width="19.8649" height="7.10829" fill="black"/>
<rect x="225.466" y="439.699" width="19.8649" height="8.12376" fill="black"/>
<rect x="225.466" y="434.621" width="19.8649" height="4.06188" fill="black"/>
<rect x="225.466" y="426.498" width="19.8649" height="5.07735" fill="black"/>
<rect x="225.466" y="420.405" width="19.8649" height="5.07735" fill="black"/>
<rect x="225.466" y="410.25" width="19.8649" height="5.07735" fill="black"/>
<rect x="225.466" y="402.127" width="19.8649" height="5.07735" fill="black"/>
<rect x="225.466" y="391.972" width="19.8649" height="3.04641" fill="black"/>
<rect x="225.466" y="382.833" width="19.8649" height="5.07735" fill="black"/>
<rect x="225.466" y="368.616" width="19.8649" height="4.06188" fill="black"/>
<rect x="225.466" y="359.477" width="19.8649" height="4.06188" fill="black"/>
<rect x="225.466" y="348.307" width="19.8649" height="4.06188" fill="black"/>
<rect x="225.466" y="339.167" width="19.8649" height="4.06188" fill="black"/>
<rect x="225.466" y="327.997" width="19.8649" height="4.06188" fill="black"/>
<rect x="225.466" y="309.719" width="19.8649" height="4.06188" fill="black"/>
<rect x="250.297" y="497.581" width="19.8649" height="7.10829" fill="black"/>
<rect x="250.297" y="488.441" width="19.8649" height="8.12376" fill="black"/>
<rect x="250.297" y="477.271" width="19.8649" height="9.13923" fill="black"/>
<rect x="250.297" y="469.147" width="19.8649" height="7.10829" fill="black"/>
<rect x="250.297" y="460.009" width="19.8649" height="8.12376" fill="black"/>
<rect x="250.297" y="454.931" width="19.8649" height="4.06188" fill="black"/>
<rect x="250.297" y="446.808" width="19.8649" height="5.07735" fill="black"/>
<rect x="250.297" y="440.715" width="19.8649" height="5.07735" fill="black"/>
<rect x="250.297" y="430.56" width="19.8649" height="5.07735" fill="black"/>
<rect x="250.297" y="422.437" width="19.8649" height="5.07735" fill="black"/>
<rect x="250.297" y="412.281" width="19.8649" height="3.04641" fill="black"/>
<rect x="250.297" y="403.143" width="19.8649" height="5.07735" fill="black"/>
<rect x="250.297" y="388.926" width="19.8649" height="4.06188" fill="black"/>
<rect x="250.297" y="379.786" width="19.8649" height="4.06188" fill="black"/>
<rect x="250.297" y="368.616" width="19.8649" height="4.06188" fill="black"/>
<rect x="250.297" y="359.477" width="19.8649" height="4.06188" fill="black"/>
<rect x="250.297" y="348.307" width="19.8649" height="4.06188" fill="black"/>
<rect x="250.297" y="330.028" width="19.8649" height="4.06188" fill="black"/>
<path d="M48.248 572.416H33.992V571.552H36.557V554.353H33.992V553.489H42.632V554.353H40.067V571.552H46.493L47.627 565.963H48.518L48.248 572.416ZM56.8956 560.158C58.7856 560.158 60.3606 560.734 61.6206 561.886C62.8806 563.038 63.5106 564.532 63.5106 566.368C63.5106 568.204 62.8626 569.707 61.5666 570.877C60.2886 572.047 58.7316 572.632 56.8956 572.632C55.0236 572.632 53.4486 572.047 52.1706 570.877C50.9106 569.707 50.2806 568.213 50.2806 566.395C50.2806 564.523 50.9196 563.02 52.1976 561.886C53.4756 560.734 55.0416 560.158 56.8956 560.158ZM56.8686 571.768C57.4446 571.768 57.9486 571.588 58.3806 571.228C58.8126 570.85 59.1276 570.373 59.3256 569.797C59.5416 569.221 59.6946 568.654 59.7846 568.096C59.8926 567.52 59.9466 566.953 59.9466 566.395C59.9466 565.819 59.9016 565.261 59.8116 564.721C59.7396 564.163 59.5956 563.587 59.3796 562.993C59.1816 562.399 58.8666 561.922 58.4346 561.562C58.0206 561.202 57.5076 561.022 56.8956 561.022C56.3016 561.022 55.7886 561.202 55.3566 561.562C54.9426 561.922 54.6276 562.399 54.4116 562.993C54.2136 563.569 54.0696 564.136 53.9796 564.694C53.8896 565.252 53.8446 565.819 53.8446 566.395C53.8446 566.971 53.8806 567.538 53.9526 568.096C54.0426 568.636 54.1866 569.203 54.3846 569.797C54.6006 570.391 54.9156 570.868 55.3296 571.228C55.7616 571.588 56.2746 571.768 56.8686 571.768ZM78.889 564.073V571.552H80.914V572.416H73.624V571.552H75.514V564.343C75.514 562.525 74.857 561.616 73.543 561.616C72.607 561.616 71.887 562.021 71.383 562.831C70.897 563.641 70.654 564.55 70.654 565.558V571.552H72.544V572.416H65.254V571.552H67.279V561.265H65.254V560.401H67.279L70.654 560.023V562.912C71.392 561.076 72.778 560.158 74.812 560.158C75.37 560.158 75.919 560.23 76.459 560.374C77.431 560.698 78.142 561.346 78.592 562.318C78.79 562.858 78.889 563.443 78.889 564.073ZM91.8251 572.713V570.121C91.3931 570.895 90.8261 571.507 90.1241 571.957C89.4401 572.407 88.6751 572.632 87.8291 572.632C86.0831 572.632 84.6971 572.047 83.6711 570.877C82.6451 569.689 82.1321 568.222 82.1321 566.476C82.1321 564.73 82.6721 563.245 83.7521 562.021C84.8321 560.779 86.2181 560.158 87.9101 560.158C89.8181 560.158 91.1231 560.959 91.8251 562.561V554.353H89.8001V553.489H91.8251L95.2001 553.111V571.498H97.2251V572.362H95.2001L91.8251 572.713ZM88.8821 571.498C89.6381 571.498 90.3131 571.12 90.9071 570.364C91.5191 569.59 91.8251 568.807 91.8251 568.015V565.261C91.8251 564.235 91.5731 563.326 91.0691 562.534C90.5651 561.742 89.8361 561.346 88.8821 561.346C88.0541 561.346 87.3791 561.643 86.8571 562.237C86.3531 562.831 86.0201 563.479 85.8581 564.181C85.7141 564.883 85.6421 565.648 85.6421 566.476C85.6421 567.052 85.6871 567.61 85.7771 568.15C85.8851 568.69 86.0561 569.23 86.2901 569.77C86.5241 570.292 86.8571 570.715 87.2891 571.039C87.7391 571.345 88.2701 571.498 88.8821 571.498ZM105.2 560.158C107.09 560.158 108.665 560.734 109.925 561.886C111.185 563.038 111.815 564.532 111.815 566.368C111.815 568.204 111.167 569.707 109.871 570.877C108.593 572.047 107.036 572.632 105.2 572.632C103.328 572.632 101.753 572.047 100.475 570.877C99.2153 569.707 98.5853 568.213 98.5853 566.395C98.5853 564.523 99.2243 563.02 100.502 561.886C101.78 560.734 103.346 560.158 105.2 560.158ZM105.173 571.768C105.749 571.768 106.253 571.588 106.685 571.228C107.117 570.85 107.432 570.373 107.63 569.797C107.846 569.221 107.999 568.654 108.089 568.096C108.197 567.52 108.251 566.953 108.251 566.395C108.251 565.819 108.206 565.261 108.116 564.721C108.044 564.163 107.9 563.587 107.684 562.993C107.486 562.399 107.171 561.922 106.739 561.562C106.325 561.202 105.812 561.022 105.2 561.022C104.606 561.022 104.093 561.202 103.661 561.562C103.247 561.922 102.932 562.399 102.716 562.993C102.518 563.569 102.374 564.136 102.284 564.694C102.194 565.252 102.149 565.819 102.149 566.395C102.149 566.971 102.185 567.538 102.257 568.096C102.347 568.636 102.491 569.203 102.689 569.797C102.905 570.391 103.22 570.868 103.634 571.228C104.066 571.588 104.579 571.768 105.173 571.768ZM127.194 564.073V571.552H129.219V572.416H121.929V571.552H123.819V564.343C123.819 562.525 123.162 561.616 121.848 561.616C120.912 561.616 120.192 562.021 119.688 562.831C119.202 563.641 118.959 564.55 118.959 565.558V571.552H120.849V572.416H113.559V571.552H115.584V561.265H113.559V560.401H115.584L118.959 560.023V562.912C119.697 561.076 121.083 560.158 123.117 560.158C123.675 560.158 124.224 560.23 124.764 560.374C125.736 560.698 126.447 561.346 126.897 562.318C127.095 562.858 127.194 563.443 127.194 564.073ZM42.551 591.965C41.705 591.965 40.877 591.884 40.067 591.722V599.552H42.902V600.416H33.992V599.552H36.557V582.353H33.992V581.489H42.875C45.899 581.489 47.906 582.326 48.896 584C49.22 584.63 49.382 585.377 49.382 586.241C49.382 588.077 48.716 589.49 47.384 590.48C46.052 591.47 44.441 591.965 42.551 591.965ZM42.065 591.101C43.289 591.101 44.216 590.624 44.846 589.67C45.476 588.716 45.791 587.609 45.791 586.349C45.791 583.685 44.513 582.353 41.957 582.353H40.067V590.831C40.589 591.011 41.255 591.101 42.065 591.101ZM64.2288 592.181V599.552H66.2538V600.416H58.9638V599.552H60.8538V592.343C60.8538 591.389 60.7008 590.687 60.3948 590.237C60.0708 589.823 59.5668 589.616 58.8828 589.616C58.4868 589.616 58.1088 589.715 57.7488 589.913C57.1908 590.255 56.7588 590.777 56.4528 591.479C56.1468 592.181 55.9938 592.892 55.9938 593.612V599.552H57.8838V600.416H50.5938V599.552H52.6188V582.353H50.5938V581.489H52.6188L55.9938 581.111V590.885C56.4618 589.931 57.0468 589.238 57.7488 588.806C58.4508 588.356 59.3328 588.131 60.3948 588.131C61.6728 588.131 62.6268 588.491 63.2568 589.211C63.9048 589.913 64.2288 590.903 64.2288 592.181ZM71.1433 586.052C70.5853 586.052 70.1083 585.854 69.7123 585.458C69.3163 585.044 69.1183 584.558 69.1183 584C69.1183 583.442 69.3163 582.983 69.7123 582.623C70.1083 582.263 70.5853 582.083 71.1433 582.083C71.7013 582.083 72.1693 582.263 72.5473 582.623C72.9253 582.983 73.1143 583.442 73.1143 584C73.1143 584.558 72.9163 585.044 72.5203 585.458C72.1423 585.854 71.6833 586.052 71.1433 586.052ZM72.7633 588.023V599.552H74.7883V600.416H67.3633V599.552H69.3883V589.265H67.3633V588.401H69.3883L72.7633 588.023ZM81.2768 581.219V599.552H83.3018V600.416H75.8768V599.552H77.9018V582.353H75.8768V581.489H77.9288L81.2768 581.219ZM98.1634 592.181V599.552H100.188V600.416H92.8984V599.552H94.7884V592.343C94.7884 591.389 94.6354 590.687 94.3294 590.237C94.0054 589.823 93.5014 589.616 92.8174 589.616C92.4214 589.616 92.0434 589.715 91.6834 589.913C91.1254 590.255 90.6934 590.777 90.3874 591.479C90.0814 592.181 89.9284 592.892 89.9284 593.612V599.552H91.8184V600.416H84.5284V599.552H86.5534V582.353H84.5284V581.489H86.5534L89.9284 581.111V590.885C90.3964 589.931 90.9814 589.238 91.6834 588.806C92.3854 588.356 93.2674 588.131 94.3294 588.131C95.6074 588.131 96.5614 588.491 97.1914 589.211C97.8394 589.913 98.1634 590.903 98.1634 592.181ZM106.077 593.855C107.193 593.855 108.102 593.99 108.804 594.26V590.912C108.804 590.21 108.651 589.715 108.345 589.427C108.039 589.139 107.535 588.995 106.833 588.995C106.383 588.995 105.96 589.049 105.564 589.157C105.15 589.301 104.808 589.463 104.538 589.643C104.952 589.715 105.294 589.886 105.564 590.156C105.834 590.426 105.969 590.768 105.969 591.182C105.969 591.686 105.816 592.091 105.51 592.397C105.204 592.703 104.79 592.856 104.268 592.856C103.71 592.856 103.296 592.685 103.026 592.343C102.738 592.037 102.594 591.641 102.594 591.155C102.594 590.453 102.873 589.868 103.431 589.4C104.007 588.914 104.637 588.59 105.321 588.428C106.005 588.248 106.698 588.158 107.4 588.158C108.66 588.158 109.767 588.41 110.721 588.914C111.693 589.4 112.179 590.201 112.179 591.317V598.256C112.179 599.03 112.467 599.417 113.043 599.417C113.313 599.417 113.565 599.318 113.799 599.12C113.997 598.94 114.159 598.751 114.285 598.553L114.717 599.093C114.033 600.119 113.034 600.632 111.72 600.632C111.018 600.632 110.442 600.506 109.992 600.254C109.488 600.002 109.137 599.651 108.939 599.201C107.859 600.173 106.59 600.659 105.132 600.659C104.052 600.659 103.161 600.371 102.459 599.795C101.775 599.219 101.433 598.4 101.433 597.338C101.433 596.132 101.883 595.25 102.783 594.692C103.701 594.134 104.799 593.855 106.077 593.855ZM104.943 597.014C104.943 597.77 105.141 598.337 105.537 598.715C105.915 599.111 106.383 599.309 106.941 599.309C107.391 599.309 107.76 599.219 108.048 599.039C108.408 598.841 108.66 598.67 108.804 598.526V595.07C108.372 594.8 107.85 594.665 107.238 594.665C106.518 594.665 105.951 594.881 105.537 595.313C105.141 595.727 104.943 596.294 104.943 597.014ZM120.804 588.023V590.804C121.47 589.04 122.685 588.158 124.449 588.158C125.187 588.158 125.799 588.392 126.285 588.86C126.789 589.31 127.041 589.895 127.041 590.615C127.041 591.191 126.879 591.677 126.555 592.073C126.249 592.451 125.808 592.64 125.232 592.64C124.728 592.64 124.305 592.496 123.963 592.208C123.621 591.92 123.45 591.524 123.45 591.02C123.45 590.552 123.594 590.165 123.882 589.859C124.188 589.535 124.584 589.337 125.07 589.265C124.836 589.121 124.548 589.049 124.206 589.049C123.414 589.049 122.748 589.337 122.208 589.913C121.668 590.489 121.299 591.137 121.101 591.857C120.903 592.577 120.804 593.324 120.804 594.098V599.552H123.099V600.416H115.404V599.552H117.429V589.265H115.404V588.401H117.429L120.804 588.023ZM149.312 592.64V599.552H151.337V600.416H143.993V599.552H145.883V592.532C145.883 591.956 145.847 591.479 145.775 591.101C145.721 590.723 145.541 590.381 145.235 590.075C144.929 589.751 144.506 589.589 143.966 589.589C143.048 589.589 142.373 590.003 141.941 590.831C141.527 591.659 141.32 592.586 141.32 593.612V599.552H143.21V600.416H136.055V599.552H137.945V592.64C137.945 592.19 137.927 591.821 137.891 591.533C137.873 591.245 137.801 590.939 137.675 590.615C137.567 590.273 137.378 590.021 137.108 589.859C136.838 589.679 136.487 589.589 136.055 589.589C135.155 589.589 134.48 590.012 134.03 590.858C133.598 591.686 133.382 592.604 133.382 593.612V599.552H135.299V600.416H127.982V599.552H130.007V589.265H127.982V588.401H130.034L133.382 588.023V590.831C133.67 589.949 134.174 589.283 134.894 588.833C135.632 588.383 136.478 588.158 137.432 588.158C138.404 588.158 139.232 588.374 139.916 588.806C140.618 589.238 141.068 589.904 141.266 590.804C141.932 589.04 143.282 588.158 145.316 588.158C146.648 588.158 147.647 588.563 148.313 589.373C148.979 590.183 149.312 591.272 149.312 592.64ZM159.174 588.158C161.064 588.158 162.639 588.734 163.899 589.886C165.159 591.038 165.789 592.532 165.789 594.368C165.789 596.204 165.141 597.707 163.845 598.877C162.567 600.047 161.01 600.632 159.174 600.632C157.302 600.632 155.727 600.047 154.449 598.877C153.189 597.707 152.559 596.213 152.559 594.395C152.559 592.523 153.198 591.02 154.476 589.886C155.754 588.734 157.32 588.158 159.174 588.158ZM159.147 599.768C159.723 599.768 160.227 599.588 160.659 599.228C161.091 598.85 161.406 598.373 161.604 597.797C161.82 597.221 161.973 596.654 162.063 596.096C162.171 595.52 162.225 594.953 162.225 594.395C162.225 593.819 162.18 593.261 162.09 592.721C162.018 592.163 161.874 591.587 161.658 590.993C161.46 590.399 161.145 589.922 160.713 589.562C160.299 589.202 159.786 589.022 159.174 589.022C158.58 589.022 158.067 589.202 157.635 589.562C157.221 589.922 156.906 590.399 156.69 590.993C156.492 591.569 156.348 592.136 156.258 592.694C156.168 593.252 156.123 593.819 156.123 594.395C156.123 594.971 156.159 595.538 156.231 596.096C156.321 596.636 156.465 597.203 156.663 597.797C156.879 598.391 157.194 598.868 157.608 599.228C158.04 599.588 158.553 599.768 159.147 599.768ZM47.222 620.073V627.552H49.247V628.416H41.957V627.552H43.847V620.343C43.847 618.525 43.19 617.616 41.876 617.616C40.94 617.616 40.22 618.021 39.716 618.831C39.23 619.641 38.987 620.55 38.987 621.558V627.552H40.877V628.416H33.587V627.552H35.612V617.265H33.587V616.401H35.612L38.987 616.023V618.912C39.725 617.076 41.111 616.158 43.145 616.158C43.703 616.158 44.252 616.23 44.792 616.374C45.764 616.698 46.475 617.346 46.925 618.318C47.123 618.858 47.222 619.443 47.222 620.073ZM54.1101 614.052C53.5521 614.052 53.0751 613.854 52.6791 613.458C52.2831 613.044 52.0851 612.558 52.0851 612C52.0851 611.442 52.2831 610.983 52.6791 610.623C53.0751 610.263 53.5521 610.083 54.1101 610.083C54.6681 610.083 55.1361 610.263 55.5141 610.623C55.8921 610.983 56.0811 611.442 56.0811 612C56.0811 612.558 55.8831 613.044 55.4871 613.458C55.1091 613.854 54.6501 614.052 54.1101 614.052ZM55.7301 616.023V627.552H57.7551V628.416H50.3301V627.552H52.3551V617.265H50.3301V616.401H52.3551L55.7301 616.023ZM69.5086 625.095L70.2106 625.5C69.7606 626.49 69.1036 627.255 68.2396 627.795C67.3756 628.335 66.4126 628.605 65.3506 628.605C63.4966 628.605 61.9936 628.038 60.8416 626.904C59.6896 625.77 59.1136 624.294 59.1136 622.476C59.1136 620.532 59.7076 618.993 60.8956 617.859C62.0836 616.725 63.6406 616.158 65.5666 616.158C66.6106 616.158 67.6276 616.482 68.6176 617.13C69.6256 617.778 70.1296 618.606 70.1296 619.614C70.1296 620.118 69.9676 620.523 69.6436 620.829C69.3376 621.135 68.9326 621.288 68.4286 621.288C67.9426 621.288 67.5376 621.153 67.2136 620.883C66.9076 620.595 66.7546 620.217 66.7546 619.749C66.7546 619.299 66.9076 618.921 67.2136 618.615C67.5196 618.291 67.8976 618.111 68.3476 618.075C67.7896 617.391 66.9796 617.049 65.9176 617.049C65.2876 617.049 64.7476 617.229 64.2976 617.589C63.8476 617.931 63.5056 618.39 63.2716 618.966C63.0556 619.524 62.9026 620.082 62.8126 620.64C62.7226 621.198 62.6776 621.774 62.6776 622.368C62.6776 623.214 62.7766 624.006 62.9746 624.744C63.1906 625.464 63.5866 626.094 64.1626 626.634C64.7386 627.174 65.4586 627.444 66.3226 627.444C67.0246 627.444 67.6636 627.228 68.2396 626.796C68.8156 626.346 69.2386 625.779 69.5086 625.095ZM89.2342 628.632C86.4802 628.632 84.2662 627.723 82.5922 625.905C80.9362 624.087 80.1082 621.81 80.1082 619.074C80.1082 616.284 80.9452 613.953 82.6192 612.081C84.3112 610.209 86.5162 609.273 89.2342 609.273C91.9702 609.273 94.1662 610.209 95.8222 612.081C97.4962 613.953 98.3332 616.257 98.3332 618.993C98.3332 621.603 97.4512 623.862 95.6872 625.77C93.9412 627.678 91.7902 628.632 89.2342 628.632ZM89.2342 610.137C88.4062 610.137 87.6592 610.344 86.9932 610.758C86.3272 611.154 85.7962 611.667 85.4002 612.297C85.0042 612.909 84.6712 613.62 84.4012 614.43C84.1312 615.24 83.9422 616.032 83.8342 616.806C83.7442 617.562 83.6992 618.318 83.6992 619.074C83.6992 620.694 83.9602 622.26 84.4822 623.772C85.0042 625.266 85.8502 626.364 87.0202 627.066C87.6862 627.498 88.4242 627.714 89.2342 627.714C90.2242 627.714 91.0882 627.435 91.8262 626.877C92.5822 626.301 93.1582 625.563 93.5542 624.663C93.9682 623.745 94.2652 622.818 94.4452 621.882C94.6432 620.946 94.7422 620.01 94.7422 619.074C94.7422 618.444 94.7062 617.814 94.6342 617.184C94.5802 616.554 94.4722 615.897 94.3102 615.213C94.1662 614.511 93.9502 613.872 93.6622 613.296C93.3742 612.702 93.0322 612.162 92.6362 611.676C92.2582 611.19 91.7722 610.812 91.1782 610.542C90.6022 610.272 89.9542 610.137 89.2342 610.137ZM105.749 616.023V618.804C106.415 617.04 107.63 616.158 109.394 616.158C110.132 616.158 110.744 616.392 111.23 616.86C111.734 617.31 111.986 617.895 111.986 618.615C111.986 619.191 111.824 619.677 111.5 620.073C111.194 620.451 110.753 620.64 110.177 620.64C109.673 620.64 109.25 620.496 108.908 620.208C108.566 619.92 108.395 619.524 108.395 619.02C108.395 618.552 108.539 618.165 108.827 617.859C109.133 617.535 109.529 617.337 110.015 617.265C109.781 617.121 109.493 617.049 109.151 617.049C108.359 617.049 107.693 617.337 107.153 617.913C106.613 618.489 106.244 619.137 106.046 619.857C105.848 620.577 105.749 621.324 105.749 622.098V627.552H108.044V628.416H100.349V627.552H102.374V617.265H100.349V616.401H102.374L105.749 616.023ZM123.456 625.095L124.158 625.5C123.708 626.49 123.051 627.255 122.187 627.795C121.323 628.335 120.36 628.605 119.298 628.605C117.444 628.605 115.941 628.038 114.789 626.904C113.637 625.77 113.061 624.294 113.061 622.476C113.061 620.532 113.655 618.993 114.843 617.859C116.031 616.725 117.588 616.158 119.514 616.158C120.558 616.158 121.575 616.482 122.565 617.13C123.573 617.778 124.077 618.606 124.077 619.614C124.077 620.118 123.915 620.523 123.591 620.829C123.285 621.135 122.88 621.288 122.376 621.288C121.89 621.288 121.485 621.153 121.161 620.883C120.855 620.595 120.702 620.217 120.702 619.749C120.702 619.299 120.855 618.921 121.161 618.615C121.467 618.291 121.845 618.111 122.295 618.075C121.737 617.391 120.927 617.049 119.865 617.049C119.235 617.049 118.695 617.229 118.245 617.589C117.795 617.931 117.453 618.39 117.219 618.966C117.003 619.524 116.85 620.082 116.76 620.64C116.67 621.198 116.625 621.774 116.625 622.368C116.625 623.214 116.724 624.006 116.922 624.744C117.138 625.464 117.534 626.094 118.11 626.634C118.686 627.174 119.406 627.444 120.27 627.444C120.972 627.444 121.611 627.228 122.187 626.796C122.763 626.346 123.186 625.779 123.456 625.095ZM139.191 620.181V627.552H141.216V628.416H133.926V627.552H135.816V620.343C135.816 619.389 135.663 618.687 135.357 618.237C135.033 617.823 134.529 617.616 133.845 617.616C133.449 617.616 133.071 617.715 132.711 617.913C132.153 618.255 131.721 618.777 131.415 619.479C131.109 620.181 130.956 620.892 130.956 621.612V627.552H132.846V628.416H125.556V627.552H127.581V610.353H125.556V609.489H127.581L130.956 609.111V618.885C131.424 617.931 132.009 617.238 132.711 616.806C133.413 616.356 134.295 616.131 135.357 616.131C136.635 616.131 137.589 616.491 138.219 617.211C138.867 617.913 139.191 618.903 139.191 620.181ZM148.589 616.158C150.281 616.158 151.613 616.653 152.585 617.643C153.557 618.615 154.043 619.929 154.043 621.585H146.024C146.006 621.675 145.997 621.828 145.997 622.044V622.53C145.997 623.898 146.294 625.059 146.888 626.013C147.482 626.949 148.409 627.417 149.669 627.417C150.407 627.417 151.064 627.21 151.64 626.796C152.234 626.364 152.684 625.797 152.99 625.095L153.665 625.581C153.251 626.535 152.603 627.291 151.721 627.849C150.839 628.389 149.867 628.659 148.805 628.659C146.915 628.659 145.385 628.092 144.215 626.958C143.045 625.806 142.46 624.303 142.46 622.449C142.46 620.631 143.036 619.128 144.188 617.94C145.34 616.752 146.807 616.158 148.589 616.158ZM146.105 620.721H150.533C150.407 619.137 150.02 618.021 149.372 617.373C149.084 617.121 148.751 616.995 148.373 616.995C147.239 616.995 146.483 618.237 146.105 620.721ZM164.742 616.401V620.37H163.878C163.788 619.38 163.41 618.588 162.744 617.994C162.096 617.382 161.286 617.076 160.314 617.076C159.792 617.076 159.378 617.211 159.072 617.481C158.766 617.751 158.613 618.138 158.613 618.642C158.613 619.128 158.748 619.506 159.018 619.776C159.342 620.172 160.152 620.586 161.448 621.018C163.284 621.648 164.427 622.188 164.877 622.638C165.093 622.854 165.273 623.151 165.417 623.529C165.525 623.871 165.579 624.303 165.579 624.825C165.579 626.049 165.138 626.994 164.256 627.66C163.374 628.308 162.312 628.632 161.07 628.632C159.45 628.632 158.244 628.083 157.452 626.985L157.182 628.551H156.318V624.204H157.182C157.542 626.076 158.424 627.201 159.828 627.579C160.206 627.705 160.62 627.768 161.07 627.768C161.664 627.768 162.132 627.615 162.474 627.309C162.834 627.003 163.014 626.562 163.014 625.986C163.014 625.248 162.555 624.708 161.637 624.366C161.493 624.294 161.295 624.213 161.043 624.123C160.809 624.015 160.656 623.943 160.584 623.907C160.278 623.799 160.008 623.691 159.774 623.583C159.486 623.493 159.234 623.385 159.018 623.259C159 623.241 158.874 623.187 158.64 623.097C158.424 623.007 158.244 622.926 158.1 622.854C156.714 622.17 156.021 621.108 156.021 619.668C156.021 618.516 156.417 617.652 157.209 617.076C158.001 616.5 158.991 616.212 160.179 616.212C160.863 616.212 161.529 616.329 162.177 616.563C162.825 616.797 163.32 617.148 163.662 617.616L163.878 616.401H164.742ZM169.432 625.5V617.265H166.867V616.401H169.459L171.943 612.378H172.807V616.401H176.236V617.265H172.807V625.122C172.807 625.806 172.942 626.337 173.212 626.715C173.446 627.111 173.833 627.309 174.373 627.309C175.147 627.309 175.795 626.868 176.317 625.986L176.884 626.58C175.912 627.948 174.616 628.632 172.996 628.632C171.916 628.632 171.052 628.371 170.404 627.849C169.756 627.327 169.432 626.544 169.432 625.5ZM183.769 616.023V618.804C184.435 617.04 185.65 616.158 187.414 616.158C188.152 616.158 188.764 616.392 189.25 616.86C189.754 617.31 190.006 617.895 190.006 618.615C190.006 619.191 189.844 619.677 189.52 620.073C189.214 620.451 188.773 620.64 188.197 620.64C187.693 620.64 187.27 620.496 186.928 620.208C186.586 619.92 186.415 619.524 186.415 619.02C186.415 618.552 186.559 618.165 186.847 617.859C187.153 617.535 187.549 617.337 188.035 617.265C187.801 617.121 187.513 617.049 187.171 617.049C186.379 617.049 185.713 617.337 185.173 617.913C184.633 618.489 184.264 619.137 184.066 619.857C183.868 620.577 183.769 621.324 183.769 622.098V627.552H186.064V628.416H178.369V627.552H180.394V617.265H178.369V616.401H180.394L183.769 616.023ZM195.198 621.855C196.314 621.855 197.223 621.99 197.925 622.26V618.912C197.925 618.21 197.772 617.715 197.466 617.427C197.16 617.139 196.656 616.995 195.954 616.995C195.504 616.995 195.081 617.049 194.685 617.157C194.271 617.301 193.929 617.463 193.659 617.643C194.073 617.715 194.415 617.886 194.685 618.156C194.955 618.426 195.09 618.768 195.09 619.182C195.09 619.686 194.937 620.091 194.631 620.397C194.325 620.703 193.911 620.856 193.389 620.856C192.831 620.856 192.417 620.685 192.147 620.343C191.859 620.037 191.715 619.641 191.715 619.155C191.715 618.453 191.994 617.868 192.552 617.4C193.128 616.914 193.758 616.59 194.442 616.428C195.126 616.248 195.819 616.158 196.521 616.158C197.781 616.158 198.888 616.41 199.842 616.914C200.814 617.4 201.3 618.201 201.3 619.317V626.256C201.3 627.03 201.588 627.417 202.164 627.417C202.434 627.417 202.686 627.318 202.92 627.12C203.118 626.94 203.28 626.751 203.406 626.553L203.838 627.093C203.154 628.119 202.155 628.632 200.841 628.632C200.139 628.632 199.563 628.506 199.113 628.254C198.609 628.002 198.258 627.651 198.06 627.201C196.98 628.173 195.711 628.659 194.253 628.659C193.173 628.659 192.282 628.371 191.58 627.795C190.896 627.219 190.554 626.4 190.554 625.338C190.554 624.132 191.004 623.25 191.904 622.692C192.822 622.134 193.92 621.855 195.198 621.855ZM194.064 625.014C194.064 625.77 194.262 626.337 194.658 626.715C195.036 627.111 195.504 627.309 196.062 627.309C196.512 627.309 196.881 627.219 197.169 627.039C197.529 626.841 197.781 626.67 197.925 626.526V623.07C197.493 622.8 196.971 622.665 196.359 622.665C195.639 622.665 195.072 622.881 194.658 623.313C194.262 623.727 194.064 624.294 194.064 625.014Z" fill="black"/>
<path d="M45.494 690.908C45.422 690.566 45.341 690.017 45.251 689.261C45.125 688.181 44.999 687.227 44.873 686.399C44.783 685.895 44.702 685.508 44.63 685.238C44.414 684.626 43.937 684.239 43.199 684.077C42.839 684.005 42.317 683.969 41.633 683.969H40.067V692.393H42.902V693.257H33.992V692.393H36.557V675.194H33.992V674.33H42.524C45.548 674.33 47.564 675.104 48.572 676.652C48.896 677.228 49.058 677.912 49.058 678.704C49.058 680.018 48.572 681.071 47.6 681.863C46.628 682.637 45.431 683.15 44.009 683.402V683.51C45.287 683.6 46.313 683.879 47.087 684.347C47.879 684.815 48.347 685.607 48.491 686.723C48.563 687.371 48.608 687.749 48.626 687.857C48.644 687.983 48.662 688.145 48.68 688.343C48.716 688.541 48.734 688.676 48.734 688.748C48.752 688.838 48.77 688.982 48.788 689.18C48.806 689.36 48.824 689.504 48.842 689.612C48.842 689.702 48.887 690.053 48.977 690.665C49.121 691.817 49.823 692.393 51.083 692.393H51.677V693.257H49.301C48.599 693.257 48.014 693.212 47.546 693.122C47.078 693.014 46.646 692.78 46.25 692.42C45.872 692.06 45.62 691.556 45.494 690.908ZM40.067 683.105H41.822C43.1 683.105 44.036 682.727 44.63 681.971C45.224 681.215 45.521 680.198 45.521 678.92C45.521 678.326 45.467 677.804 45.359 677.354C44.945 675.914 43.748 675.194 41.768 675.194H40.067V683.105ZM59.5059 680.999C61.3959 680.999 62.9709 681.575 64.2309 682.727C65.4909 683.879 66.1209 685.373 66.1209 687.209C66.1209 689.045 65.4729 690.548 64.1769 691.718C62.8989 692.888 61.3419 693.473 59.5059 693.473C57.6339 693.473 56.0589 692.888 54.7809 691.718C53.5209 690.548 52.8909 689.054 52.8909 687.236C52.8909 685.364 53.5299 683.861 54.8079 682.727C56.0859 681.575 57.6519 680.999 59.5059 680.999ZM59.4789 692.609C60.0549 692.609 60.5589 692.429 60.9909 692.069C61.4229 691.691 61.7379 691.214 61.9359 690.638C62.1519 690.062 62.3049 689.495 62.3949 688.937C62.5029 688.361 62.5569 687.794 62.5569 687.236C62.5569 686.66 62.5119 686.102 62.4219 685.562C62.3499 685.004 62.2059 684.428 61.9899 683.834C61.7919 683.24 61.4769 682.763 61.0449 682.403C60.6309 682.043 60.1179 681.863 59.5059 681.863C58.9119 681.863 58.3989 682.043 57.9669 682.403C57.5529 682.763 57.2379 683.24 57.0219 683.834C56.8239 684.41 56.6799 684.977 56.5899 685.535C56.4999 686.093 56.4549 686.66 56.4549 687.236C56.4549 687.812 56.4909 688.379 56.5629 688.937C56.6529 689.477 56.7969 690.044 56.9949 690.638C57.2109 691.232 57.5259 691.709 57.9399 692.069C58.3719 692.429 58.8849 692.609 59.4789 692.609ZM70.064 700.601C69.344 700.601 68.759 700.394 68.309 699.98C67.877 699.566 67.661 699.008 67.661 698.306C67.661 697.82 67.823 697.397 68.147 697.037C68.489 696.695 68.903 696.524 69.389 696.524C69.875 696.524 70.262 696.65 70.55 696.902C70.856 697.172 71.009 697.55 71.009 698.036C71.009 698.396 70.892 698.72 70.658 699.008C70.442 699.296 70.154 699.449 69.794 699.467C69.884 699.575 70.046 699.629 70.28 699.629C70.766 699.629 71.216 699.314 71.63 698.684C72.188 697.874 72.854 696.578 73.628 694.796L73.952 694.04L68.228 682.106H66.203V681.242H73.79V682.106H71.9L75.68 690.152L79.028 682.106H77.138V681.242H81.998V682.106H79.973L74.789 694.445C74.213 695.777 73.844 696.623 73.682 696.983C73.43 697.505 73.223 697.91 73.061 698.198C72.899 698.504 72.656 698.873 72.332 699.305C72.026 699.737 71.684 700.061 71.306 700.277C70.928 700.493 70.514 700.601 70.064 700.601ZM86.4597 686.696C87.5757 686.696 88.4847 686.831 89.1867 687.101V683.753C89.1867 683.051 89.0337 682.556 88.7277 682.268C88.4217 681.98 87.9177 681.836 87.2157 681.836C86.7657 681.836 86.3427 681.89 85.9467 681.998C85.5327 682.142 85.1907 682.304 84.9207 682.484C85.3347 682.556 85.6767 682.727 85.9467 682.997C86.2167 683.267 86.3517 683.609 86.3517 684.023C86.3517 684.527 86.1987 684.932 85.8927 685.238C85.5867 685.544 85.1727 685.697 84.6507 685.697C84.0927 685.697 83.6787 685.526 83.4087 685.184C83.1207 684.878 82.9767 684.482 82.9767 683.996C82.9767 683.294 83.2557 682.709 83.8137 682.241C84.3897 681.755 85.0197 681.431 85.7037 681.269C86.3877 681.089 87.0807 680.999 87.7827 680.999C89.0427 680.999 90.1497 681.251 91.1037 681.755C92.0757 682.241 92.5617 683.042 92.5617 684.158V691.097C92.5617 691.871 92.8497 692.258 93.4257 692.258C93.6957 692.258 93.9477 692.159 94.1817 691.961C94.3797 691.781 94.5417 691.592 94.6677 691.394L95.0997 691.934C94.4157 692.96 93.4167 693.473 92.1027 693.473C91.4007 693.473 90.8247 693.347 90.3747 693.095C89.8707 692.843 89.5197 692.492 89.3217 692.042C88.2417 693.014 86.9727 693.5 85.5147 693.5C84.4347 693.5 83.5437 693.212 82.8417 692.636C82.1577 692.06 81.8157 691.241 81.8157 690.179C81.8157 688.973 82.2657 688.091 83.1657 687.533C84.0837 686.975 85.1817 686.696 86.4597 686.696ZM85.3257 689.855C85.3257 690.611 85.5237 691.178 85.9197 691.556C86.2977 691.952 86.7657 692.15 87.3237 692.15C87.7737 692.15 88.1427 692.06 88.4307 691.88C88.7907 691.682 89.0427 691.511 89.1867 691.367V687.911C88.7547 687.641 88.2327 687.506 87.6207 687.506C86.9007 687.506 86.3337 687.722 85.9197 688.154C85.5237 688.568 85.3257 689.135 85.3257 689.855ZM101.052 674.06V692.393H103.077V693.257H95.6522V692.393H97.6772V675.194H95.6522V674.33H97.7042L101.052 674.06ZM133.351 675.194H130.786V692.393H133.351V693.257H124.711V692.393H127.276V684.077H118.879V692.393H121.444V693.257H112.804V692.393H115.369V675.194H112.804V674.33H121.444V675.194H118.879V683.213H127.276V675.194H124.711V674.33H133.351V675.194ZM139.748 686.696C140.864 686.696 141.773 686.831 142.475 687.101V683.753C142.475 683.051 142.322 682.556 142.016 682.268C141.71 681.98 141.206 681.836 140.504 681.836C140.054 681.836 139.631 681.89 139.235 681.998C138.821 682.142 138.479 682.304 138.209 682.484C138.623 682.556 138.965 682.727 139.235 682.997C139.505 683.267 139.64 683.609 139.64 684.023C139.64 684.527 139.487 684.932 139.181 685.238C138.875 685.544 138.461 685.697 137.939 685.697C137.381 685.697 136.967 685.526 136.697 685.184C136.409 684.878 136.265 684.482 136.265 683.996C136.265 683.294 136.544 682.709 137.102 682.241C137.678 681.755 138.308 681.431 138.992 681.269C139.676 681.089 140.369 680.999 141.071 680.999C142.331 680.999 143.438 681.251 144.392 681.755C145.364 682.241 145.85 683.042 145.85 684.158V691.097C145.85 691.871 146.138 692.258 146.714 692.258C146.984 692.258 147.236 692.159 147.47 691.961C147.668 691.781 147.83 691.592 147.956 691.394L148.388 691.934C147.704 692.96 146.705 693.473 145.391 693.473C144.689 693.473 144.113 693.347 143.663 693.095C143.159 692.843 142.808 692.492 142.61 692.042C141.53 693.014 140.261 693.5 138.803 693.5C137.723 693.5 136.832 693.212 136.13 692.636C135.446 692.06 135.104 691.241 135.104 690.179C135.104 688.973 135.554 688.091 136.454 687.533C137.372 686.975 138.47 686.696 139.748 686.696ZM138.614 689.855C138.614 690.611 138.812 691.178 139.208 691.556C139.586 691.952 140.054 692.15 140.612 692.15C141.062 692.15 141.431 692.06 141.719 691.88C142.079 691.682 142.331 691.511 142.475 691.367V687.911C142.043 687.641 141.521 687.506 140.909 687.506C140.189 687.506 139.622 687.722 139.208 688.154C138.812 688.568 138.614 689.135 138.614 689.855ZM154.34 674.06V692.393H156.365V693.257H148.94V692.393H150.965V675.194H148.94V674.33H150.992L154.34 674.06ZM162.857 674.06V692.393H164.882V693.257H157.457V692.393H159.482V675.194H157.457V674.33H159.509L162.857 674.06Z" fill="black"/>
<path d="M33.587 759.282V758.418H41.012V759.282H38.987V769.569H41.012V770.433H33.587V769.569H35.612V759.282H33.587ZM49.5699 758.499C51.2259 758.499 52.5939 759.012 53.6739 760.038C54.7719 761.046 55.3209 762.36 55.3209 763.98C55.3209 765.78 54.7179 767.346 53.5119 768.678C52.3239 770.01 50.8389 770.676 49.0569 770.676C47.0949 770.676 45.5469 769.992 44.4129 768.624C43.2969 767.256 42.7389 765.582 42.7389 763.602C42.7389 760.704 43.6749 758.274 45.5469 756.312C47.4189 754.35 49.7949 753.099 52.6749 752.559L52.7289 753.423C51.1449 753.639 49.7319 754.422 48.4899 755.772C47.2479 757.104 46.4649 758.589 46.1409 760.227L46.2489 760.254C46.9329 759.084 48.0399 758.499 49.5699 758.499ZM47.5449 769.272C47.9589 769.632 48.4539 769.812 49.0299 769.812C49.6059 769.812 50.1009 769.641 50.5149 769.299C50.9289 768.939 51.2349 768.471 51.4329 767.895C51.6489 767.319 51.7929 766.77 51.8649 766.248C51.9549 765.708 51.9999 765.168 51.9999 764.628C51.9999 764.106 51.9549 763.575 51.8649 763.035C51.7929 762.495 51.6579 761.937 51.4599 761.361C51.2619 760.785 50.9559 760.317 50.5419 759.957C50.1459 759.579 49.6599 759.39 49.0839 759.39C48.5259 759.39 48.0309 759.57 47.5989 759.93C47.1849 760.272 46.8699 760.731 46.6539 761.307C46.4559 761.865 46.3119 762.423 46.2219 762.981C46.1319 763.521 46.0869 764.061 46.0869 764.601C46.0869 765.141 46.1229 765.681 46.1949 766.221C46.2849 766.743 46.4289 767.292 46.6269 767.868C46.8249 768.444 47.1309 768.912 47.5449 769.272ZM57.4324 768.705C57.4324 768.129 57.6124 767.661 57.9724 767.301C58.3324 766.941 58.8004 766.761 59.3764 766.761C59.9164 766.761 60.3844 766.941 60.7804 767.301C61.1404 767.697 61.3204 768.165 61.3204 768.705C61.3204 769.281 61.1314 769.749 60.7534 770.109C60.3934 770.469 59.9344 770.649 59.3764 770.649C58.8004 770.649 58.3414 770.478 57.9994 770.136C57.6214 769.812 57.4324 769.335 57.4324 768.705ZM70.5645 757.878C72.5985 757.878 74.1555 758.445 75.2355 759.579C76.3155 760.713 76.8555 762.279 76.8555 764.277C76.8555 766.149 76.2525 767.679 75.0465 768.867C73.8585 770.055 72.3465 770.649 70.5105 770.649C68.4405 770.649 66.7575 770.091 65.4615 768.975C64.1835 767.841 63.5445 766.275 63.5445 764.277C63.5445 762.261 64.2105 760.695 65.5425 759.579C66.8745 758.445 68.5485 757.878 70.5645 757.878ZM71.4825 769.596C72.8145 769.596 73.8765 769.056 74.6685 767.976C75.4605 766.896 75.8565 765.663 75.8565 764.277C75.8565 762.819 75.4785 761.559 74.7225 760.497C73.9845 759.417 72.9225 758.877 71.5365 758.877C70.0965 758.877 68.9895 759.408 68.2155 760.47C67.4595 761.532 67.0815 762.801 67.0815 764.277C67.0815 765.753 67.4685 767.013 68.2425 768.057C69.0165 769.083 70.0965 769.596 71.4825 769.596ZM78.3321 759.282V758.418H85.7571V759.282H83.7321V769.569H85.7571V770.433H78.3321V769.569H80.3571V759.282H78.3321ZM87.781 768.705C87.781 768.129 87.961 767.661 88.321 767.301C88.681 766.941 89.149 766.761 89.725 766.761C90.265 766.761 90.733 766.941 91.129 767.301C91.489 767.697 91.669 768.165 91.669 768.705C91.669 769.281 91.48 769.749 91.102 770.109C90.742 770.469 90.283 770.649 89.725 770.649C89.149 770.649 88.69 770.478 88.348 770.136C87.97 769.812 87.781 769.335 87.781 768.705ZM103.613 762.198C103.613 763.458 103.073 764.628 101.993 765.708C100.931 766.788 99.7342 767.553 98.4022 768.003H102.857L104.45 764.655H105.314L104.153 770.433H93.8392V769.569C94.9912 769.299 96.1162 768.786 97.2142 768.03C98.3302 767.274 99.1582 766.41 99.6982 765.438C100.13 764.592 100.346 763.692 100.346 762.738C100.346 760.686 99.3832 759.66 97.4572 759.66C96.6292 759.66 95.9542 759.903 95.4322 760.389C94.9282 760.875 94.6762 761.532 94.6762 762.36C94.6762 762.684 94.7212 762.945 94.8112 763.143C94.9732 762.873 95.1532 762.666 95.3512 762.522C95.5672 762.36 95.8552 762.279 96.2152 762.279C96.6652 762.279 97.0162 762.414 97.2682 762.684C97.5382 762.954 97.6732 763.314 97.6732 763.764C97.6732 764.268 97.5202 764.664 97.2142 764.952C96.9262 765.24 96.5392 765.384 96.0532 765.384C95.2792 765.384 94.6942 765.096 94.2982 764.52C93.9202 763.944 93.7312 763.251 93.7312 762.441C93.7312 761.055 94.2082 759.993 95.1622 759.255C96.1342 758.517 97.3222 758.148 98.7262 758.148C99.4822 758.148 100.184 758.247 100.832 758.445C102.686 759.111 103.613 760.362 103.613 762.198ZM114.413 757.878C116.447 757.878 118.004 758.445 119.084 759.579C120.164 760.713 120.704 762.279 120.704 764.277C120.704 766.149 120.101 767.679 118.895 768.867C117.707 770.055 116.195 770.649 114.359 770.649C112.289 770.649 110.606 770.091 109.31 768.975C108.032 767.841 107.393 766.275 107.393 764.277C107.393 762.261 108.059 760.695 109.391 759.579C110.723 758.445 112.397 757.878 114.413 757.878ZM115.331 769.596C116.663 769.596 117.725 769.056 118.517 767.976C119.309 766.896 119.705 765.663 119.705 764.277C119.705 762.819 119.327 761.559 118.571 760.497C117.833 759.417 116.771 758.877 115.385 758.877C113.945 758.877 112.838 759.408 112.064 760.47C111.308 761.532 110.93 762.801 110.93 764.277C110.93 765.753 111.317 767.013 112.091 768.057C112.865 769.083 113.945 769.596 115.331 769.596ZM129.39 757.878C131.424 757.878 132.981 758.445 134.061 759.579C135.141 760.713 135.681 762.279 135.681 764.277C135.681 766.149 135.078 767.679 133.872 768.867C132.684 770.055 131.172 770.649 129.336 770.649C127.266 770.649 125.583 770.091 124.287 768.975C123.009 767.841 122.37 766.275 122.37 764.277C122.37 762.261 123.036 760.695 124.368 759.579C125.7 758.445 127.374 757.878 129.39 757.878ZM130.308 769.596C131.64 769.596 132.702 769.056 133.494 767.976C134.286 766.896 134.682 765.663 134.682 764.277C134.682 762.819 134.304 761.559 133.548 760.497C132.81 759.417 131.748 758.877 130.362 758.877C128.922 758.877 127.815 759.408 127.041 760.47C126.285 761.532 125.907 762.801 125.907 764.277C125.907 765.753 126.294 767.013 127.068 768.057C127.842 769.083 128.922 769.596 130.308 769.596ZM137.265 771.216C137.265 770.658 137.427 770.181 137.751 769.785C138.075 769.371 138.507 769.164 139.047 769.164C139.551 769.164 139.938 769.308 140.208 769.596C140.496 769.866 140.64 770.253 140.64 770.757C140.64 771.189 140.523 771.558 140.289 771.864C140.055 772.17 139.722 772.323 139.29 772.323C138.804 772.323 138.48 772.188 138.318 771.918C138.462 772.548 138.813 773.025 139.371 773.349C139.929 773.673 140.55 773.835 141.234 773.835C141.648 773.835 142.089 773.763 142.557 773.619C142.953 773.475 143.34 773.214 143.718 772.836C144.456 771.99 144.825 770.766 144.825 769.164C144.825 767.958 144.555 766.968 144.015 766.194C143.493 765.402 142.656 765.006 141.504 765.006C140.334 765.006 139.488 765.564 138.966 766.68H138.318V758.04H145.662L147.066 755.286H147.93L146.823 760.875H139.209V765.087C139.929 764.223 141.054 763.791 142.584 763.791C144.204 763.791 145.536 764.277 146.58 765.249C147.642 766.203 148.173 767.472 148.173 769.056C148.173 770.784 147.588 772.197 146.418 773.295C145.248 774.393 143.808 774.942 142.098 774.942C140.802 774.942 139.668 774.618 138.696 773.97C137.742 773.34 137.265 772.422 137.265 771.216Z" fill="black"/>
<path d="M40.526 789.978C42.182 789.978 43.55 790.491 44.63 791.517C45.728 792.525 46.277 793.839 46.277 795.459C46.277 797.259 45.674 798.825 44.468 800.157C43.28 801.489 41.795 802.155 40.013 802.155C38.051 802.155 36.503 801.471 35.369 800.103C34.253 798.735 33.695 797.061 33.695 795.081C33.695 792.183 34.631 789.753 36.503 787.791C38.375 785.829 40.751 784.578 43.631 784.038L43.685 784.902C42.101 785.118 40.688 785.901 39.446 787.251C38.204 788.583 37.421 790.068 37.097 791.706L37.205 791.733C37.889 790.563 38.996 789.978 40.526 789.978ZM38.501 800.751C38.915 801.111 39.41 801.291 39.986 801.291C40.562 801.291 41.057 801.12 41.471 800.778C41.885 800.418 42.191 799.95 42.389 799.374C42.605 798.798 42.749 798.249 42.821 797.727C42.911 797.187 42.956 796.647 42.956 796.107C42.956 795.585 42.911 795.054 42.821 794.514C42.749 793.974 42.614 793.416 42.416 792.84C42.218 792.264 41.912 791.796 41.498 791.436C41.102 791.058 40.616 790.869 40.04 790.869C39.482 790.869 38.987 791.049 38.555 791.409C38.141 791.751 37.826 792.21 37.61 792.786C37.412 793.344 37.268 793.902 37.178 794.46C37.088 795 37.043 795.54 37.043 796.08C37.043 796.62 37.079 797.16 37.151 797.7C37.241 798.222 37.385 798.771 37.583 799.347C37.781 799.923 38.087 800.391 38.501 800.751ZM48.3885 800.184C48.3885 799.608 48.5685 799.14 48.9285 798.78C49.2885 798.42 49.7565 798.24 50.3325 798.24C50.8905 798.24 51.3495 798.42 51.7095 798.78C52.0875 799.14 52.2765 799.608 52.2765 800.184C52.2765 800.796 52.1055 801.273 51.7635 801.615C51.4215 801.957 50.9445 802.128 50.3325 802.128C49.7025 802.128 49.2165 801.957 48.8745 801.615C48.5505 801.273 48.3885 800.796 48.3885 800.184ZM48.4425 791.814C48.4425 791.238 48.6135 790.779 48.9555 790.437C49.3155 790.077 49.7835 789.897 50.3595 789.897C50.9535 789.897 51.4215 790.068 51.7635 790.41C52.1235 790.752 52.3035 791.22 52.3035 791.814C52.3035 792.426 52.1325 792.903 51.7905 793.245C51.4485 793.587 50.9715 793.758 50.3595 793.758C49.7475 793.758 49.2705 793.587 48.9285 793.245C48.6045 792.903 48.4425 792.426 48.4425 791.814ZM61.547 789.357C63.581 789.357 65.138 789.924 66.218 791.058C67.298 792.192 67.838 793.758 67.838 795.756C67.838 797.628 67.235 799.158 66.029 800.346C64.841 801.534 63.329 802.128 61.493 802.128C59.423 802.128 57.74 801.57 56.444 800.454C55.166 799.32 54.527 797.754 54.527 795.756C54.527 793.74 55.193 792.174 56.525 791.058C57.857 789.924 59.531 789.357 61.547 789.357ZM62.465 801.075C63.797 801.075 64.859 800.535 65.651 799.455C66.443 798.375 66.839 797.142 66.839 795.756C66.839 794.298 66.461 793.038 65.705 791.976C64.967 790.896 63.905 790.356 62.519 790.356C61.079 790.356 59.972 790.887 59.198 791.949C58.442 793.011 58.064 794.28 58.064 795.756C58.064 797.232 58.451 798.492 59.225 799.536C59.999 800.562 61.079 801.075 62.465 801.075ZM76.5235 789.357C78.5575 789.357 80.1145 789.924 81.1945 791.058C82.2745 792.192 82.8145 793.758 82.8145 795.756C82.8145 797.628 82.2115 799.158 81.0055 800.346C79.8175 801.534 78.3055 802.128 76.4695 802.128C74.3995 802.128 72.7165 801.57 71.4205 800.454C70.1425 799.32 69.5035 797.754 69.5035 795.756C69.5035 793.74 70.1695 792.174 71.5015 791.058C72.8335 789.924 74.5075 789.357 76.5235 789.357ZM77.4415 801.075C78.7735 801.075 79.8355 800.535 80.6275 799.455C81.4195 798.375 81.8155 797.142 81.8155 795.756C81.8155 794.298 81.4375 793.038 80.6815 791.976C79.9435 790.896 78.8815 790.356 77.4955 790.356C76.0555 790.356 74.9485 790.887 74.1745 791.949C73.4185 793.011 73.0405 794.28 73.0405 795.756C73.0405 797.232 73.4275 798.492 74.2015 799.536C74.9755 800.562 76.0555 801.075 77.4415 801.075ZM93.2551 793.461C92.4091 793.461 91.5811 793.38 90.7711 793.218V801.048H93.6061V801.912H84.6961V801.048H87.2611V783.849H84.6961V782.985H93.5791C96.6031 782.985 98.6101 783.822 99.6001 785.496C99.9241 786.126 100.086 786.873 100.086 787.737C100.086 789.573 99.4201 790.986 98.0881 791.976C96.7561 792.966 95.1451 793.461 93.2551 793.461ZM92.7691 792.597C93.9931 792.597 94.9201 792.12 95.5501 791.166C96.1801 790.212 96.4951 789.105 96.4951 787.845C96.4951 785.181 95.2171 783.849 92.6611 783.849H90.7711V792.327C91.2931 792.507 91.9591 792.597 92.7691 792.597ZM123.924 783.849H121.359V801.048H123.924V801.912H115.311V801.048H117.876V785.361L112.071 802.155H111.18L105.564 786.576V800.67L108.129 801.048V801.912H101.703V801.048L104.592 800.67V783.849H102.027V782.985H107.913L112.908 796.863L117.768 782.985H123.924V783.849Z" fill="black"/>
<path d="M309.433 851.516H296.793V850.236H300.593V824.756H296.793V823.476H309.193C315.726 823.476 318.993 825.556 318.993 829.716C318.993 831.769 318.26 833.369 316.793 834.516C315.326 835.636 313.5 836.289 311.313 836.476V836.636C315.313 837.009 317.94 838.289 319.193 840.476C319.593 841.276 319.793 842.209 319.793 843.276C319.793 844.689 319.486 845.942 318.873 847.036C318.286 848.129 317.486 848.996 316.473 849.636C315.486 850.249 314.393 850.716 313.193 851.036C312.02 851.356 310.766 851.516 309.433 851.516ZM305.793 850.236H308.833C310.726 850.236 312.14 849.596 313.073 848.316C314.006 847.009 314.473 845.369 314.473 843.396C314.473 839.342 312.593 837.316 308.833 837.316H305.793V850.236ZM305.793 835.916H308.833C310.486 835.916 311.7 835.369 312.473 834.276C313.273 833.156 313.673 831.742 313.673 830.036C313.673 829.316 313.593 828.636 313.433 827.996C312.74 825.836 311.126 824.756 308.593 824.756H305.793V835.916ZM344.724 851.516H323.004V850.236H326.804V824.756H323.004V823.476H343.684V831.676H342.404L341.044 824.756H332.004V836.556H337.444L338.284 831.876H339.604V842.476H338.324L337.444 837.836H332.004V850.236H342.084L343.444 842.916H344.724V851.516ZM370.232 851.516H348.512V850.236H352.312V824.756H348.512V823.476H369.192V831.676H367.912L366.552 824.756H357.512V836.556H362.952L363.792 831.876H365.112V842.476H363.832L362.952 837.836H357.512V850.236H367.592L368.952 842.916H370.232V851.516ZM375.1 831.636H373.82V823.476H397.18V831.636H395.9L394.58 824.916H388.1V850.236H391.9V851.516H379.1V850.236H382.9V824.916H376.42L375.1 831.636ZM431.022 824.756H427.222V850.236H431.022V851.516H418.222V850.236H422.022V837.916H409.582V850.236H413.382V851.516H400.582V850.236H404.382V824.756H400.582V823.476H413.382V824.756H409.582V836.636H422.022V824.756H418.222V823.476H431.022V824.756ZM447.54 851.836C443.46 851.836 440.18 850.489 437.7 847.796C435.246 845.102 434.02 841.729 434.02 837.676C434.02 833.542 435.26 830.089 437.74 827.316C440.246 824.542 443.513 823.156 447.54 823.156C451.593 823.156 454.846 824.542 457.3 827.316C459.78 830.089 461.02 833.502 461.02 837.556C461.02 841.422 459.713 844.769 457.1 847.596C454.513 850.422 451.326 851.836 447.54 851.836ZM447.54 824.436C446.313 824.436 445.206 824.742 444.22 825.356C443.233 825.942 442.446 826.702 441.86 827.636C441.273 828.542 440.78 829.596 440.38 830.796C439.98 831.996 439.7 833.169 439.54 834.316C439.406 835.436 439.34 836.556 439.34 837.676C439.34 840.076 439.726 842.396 440.5 844.636C441.273 846.849 442.526 848.476 444.26 849.516C445.246 850.156 446.34 850.476 447.54 850.476C449.006 850.476 450.286 850.062 451.38 849.236C452.5 848.382 453.353 847.289 453.94 845.956C454.553 844.596 454.993 843.222 455.26 841.836C455.553 840.449 455.7 839.062 455.7 837.676C455.7 836.742 455.646 835.809 455.54 834.876C455.46 833.942 455.3 832.969 455.06 831.956C454.846 830.916 454.526 829.969 454.1 829.116C453.673 828.236 453.166 827.436 452.58 826.716C452.02 825.996 451.3 825.436 450.42 825.036C449.566 824.636 448.606 824.436 447.54 824.436ZM481.418 824.756V823.476H490.578V824.756L486.778 825.156L477.738 851.836H476.338L465.418 824.756H461.618V823.476H474.738V824.756H470.938L478.658 844.516L485.218 825.156L481.418 824.756ZM513.513 851.516H491.793V850.236H495.593V824.756H491.793V823.476H512.473V831.676H511.193L509.833 824.756H500.793V836.556H506.233L507.073 831.876H508.393V842.476H507.113L506.233 837.836H500.793V850.236H510.873L512.233 842.916H513.513V851.516ZM526.261 851.516H517.341V850.236L521.101 849.836V824.756H517.301V823.476H526.101L538.381 842.636V825.116L534.581 824.756V823.476H543.581V824.756L539.781 825.116V851.836H538.381L522.501 827.196V849.836L526.261 850.236V851.516Z" fill="black"/>
</svg>
