<svg width="665" height="905" viewBox="0 0 665 905" fill="none" xmlns="http://www.w3.org/2000/svg">
<g clip-path="url(#clip0_114_13)">
<path d="M232.542 711.934C200.347 678.671 186.243 666.13 175.627 661.371C166.989 657.504 166.078 657.424 125.339 657.424C102.519 657.424 83.4847 656.803 83.0292 656.055C81.8356 654.098 111.33 595.052 120.125 581.811C124.192 575.7 131.307 566.437 135.94 561.233L144.358 551.779L139.976 538.904C135.139 524.707 132.453 508.856 132.406 494.389L132.375 484.935L127.836 489.344C123.957 493.1 123.203 495.232 122.669 503.874C121.884 516.4 118.806 520.553 110.262 520.553C101.263 520.553 99.394 523.498 99.394 537.694C99.394 551.89 96.5042 551.668 95.3735 536.66C94.7609 528.559 95.3106 525.296 98.4674 518.309C100.572 513.646 104.294 508.315 106.728 506.469C114.267 500.771 116.089 498.463 118.193 492.033C120.25 485.699 119.387 477.582 116.654 477.582C115.822 477.582 113.419 480.988 111.314 485.142C109.21 489.296 103.823 496.553 99.3311 501.28C89.1228 512.023 86.186 518.755 87.5837 528.209C88.1648 532.108 89.06 536.453 89.5783 537.869C90.4106 540.113 90.175 540.161 87.8821 538.267C86.4215 537.073 85.2279 535.1 85.2279 533.89C85.2279 532.681 84.2542 531.694 83.0606 531.694C81.867 531.694 80.0452 530.66 79.0087 529.402C77.9722 528.145 74.5327 526.872 71.3603 526.569L65.5965 526.044L72.6638 524.262C79.3699 522.575 79.4641 522.479 74.517 522.32C71.6587 522.225 67.9052 522.909 66.1776 523.848C59.6286 527.397 59.7542 524.118 66.3189 520.156L73.2135 515.986L68.6119 514.84C66.0834 514.203 60.9478 512.373 57.21 510.766C49.1532 507.296 48.7135 510.368 56.7074 514.267L61.733 516.718L57.1 521.206C52.4042 525.774 47.0644 525.758 50.8023 521.19C51.8388 519.933 52.3885 518.66 52.0587 518.357C46.7189 513.614 33.1183 503.031 30.6055 501.678C28.7837 500.691 25.4856 499.896 23.2712 499.896C21.0567 499.896 19.2506 499.72 19.2506 499.498C19.2506 499.275 21.0253 495.583 23.1769 491.27C25.3285 486.956 27.1189 481.943 27.1503 480.129C27.1817 478.315 28.1398 475.561 29.3019 474.017C32.1289 470.246 45.2898 463.291 49.5773 463.291C52.577 463.291 52.3571 463.704 47.9282 466.458C42.133 470.039 41.6462 471.009 45.5725 471.137C50.3154 471.28 64.1516 474.001 61.6702 474.288C60.3667 474.447 57.1943 475.545 54.6029 476.739L49.8914 478.903L55.3882 478.299C76.3388 476.023 75.4122 476.405 77.7837 469.163C79.7154 463.243 80.5792 462.415 85.3536 461.97L90.7247 461.46L85.6206 466.824C79.9667 472.776 79.3699 474.431 82.8722 474.431C86.3744 474.431 85.7933 475.911 81.2231 479.556C79.0244 481.307 77.5167 483.567 77.8936 484.553C78.2706 485.54 76.7472 488.341 74.5327 490.744L70.5122 495.121H80.2808C91.4 495.121 98.4988 492.575 103.87 486.67C109.021 481.004 109.916 470.659 105.943 462.925C103.289 457.768 103.179 456.749 105.189 455.062C106.98 453.566 108.157 453.55 110.497 455.047C113.073 456.67 113.513 456.511 113.513 453.948C113.513 452.293 112.461 450.065 111.173 448.967C109.241 447.344 108.267 447.662 105.723 450.765L102.629 454.537L102.582 446.15C102.535 438.097 102.676 437.794 106.273 438.718C109.901 439.641 110.011 439.386 109.806 430.824C109.618 422.627 110.026 421.545 115.397 416.102C122.151 409.258 121.067 407.158 125.15 435.153C126.894 447.057 127.176 453.28 126.093 455.333C123.878 459.535 124.145 461.699 126.878 461.699C128.307 461.699 129.234 460.219 129.234 457.959C129.234 451.911 134.338 448.41 141.342 449.651C144.625 450.224 152.948 451.291 159.859 452.007C167.806 452.834 175.752 454.856 181.5 457.497C186.495 459.805 192.29 461.699 194.394 461.699C199.043 461.699 200.771 464.739 202.2 475.402C203.205 482.898 203.016 483.614 199.813 484.458C197.787 484.999 195.399 484.426 194.08 483.089C192.84 481.832 191.159 480.797 190.358 480.797C189.557 480.797 188.898 479.795 188.898 478.585C188.898 476.5 185.709 474.431 182.49 474.431C181.689 474.431 181.045 476.214 181.045 478.378C181.045 481.211 179.993 482.596 177.276 483.28C169.078 485.365 165.575 483.391 162.984 475.227C161.979 472.092 161.948 472.076 159.733 475.131C158.492 476.834 157.487 480.543 157.487 483.391C157.487 491.524 161.775 493.529 179.176 493.529C190.232 493.529 193.719 494.023 193.232 495.519C192.777 496.903 187.515 497.651 175.847 497.954C154.268 498.543 152.148 497.461 144.499 481.975C141.28 475.466 138.657 469.322 138.657 468.304C138.657 467.285 137.95 466.458 137.086 466.458C133.38 466.458 137.369 507.583 143.415 531.774C147.122 546.591 157 567.249 172.376 592.299C178.815 602.803 183.479 611.015 182.741 610.554C181.5 609.774 155.964 571.944 151.535 564.336C149.807 561.36 148.897 562.013 137.824 573.885C131.291 580.888 123.486 590.389 120.455 595.021C113.45 605.716 90.9603 649.419 91.934 650.405C92.3424 650.819 109.728 651.154 130.584 651.169H168.497L179.333 657.138C186.055 660.83 197.441 669.886 209.299 680.963C223.999 694.682 229.213 698.66 231.835 698.135C242.326 696.003 243.881 695.414 243.834 693.631C243.803 692.549 241.039 684.989 237.678 676.809L231.568 661.944L240.473 662.979C255.252 664.697 275.621 661.307 287.636 655.116C293.368 652.156 299.477 648.607 301.205 647.207C302.933 645.806 298.409 647.62 291.138 651.217C275.386 659.032 262.35 661.323 240.379 660.161C228.537 659.525 223.889 658.586 219.727 655.976C213.68 652.188 202.357 640.108 203.645 638.819C204.1 638.358 207.964 640.57 212.22 643.737C221.501 650.644 232.652 651.854 236.437 646.379C238.573 643.291 238.604 643.291 241.227 646.379C245.844 651.838 255.723 649.546 266.387 640.522C269.119 638.214 272.857 636.766 276.092 636.766C283.317 636.766 288.044 634.713 294.939 628.586C303.671 620.819 308.225 612.384 310.659 599.477C313.282 585.599 313.565 545.859 311.131 532.84C309.466 523.959 309.544 523.498 313.157 520.967C320.726 515.667 333.997 502.108 338.348 495.216C342.148 489.201 342.824 486.495 342.824 477.264C342.824 469.402 342.211 466.155 340.625 465.535C337.452 464.309 326.051 470.612 323.035 475.259C321.496 477.646 318.983 479.222 316.737 479.222C314.68 479.222 313 479.874 313 480.686C313 482.341 294.75 491.954 291.593 491.954C290.416 491.954 289.929 490.935 290.447 489.567C291.138 487.768 290.164 487.179 286.474 487.179C283.788 487.179 281.589 486.463 281.589 485.588C281.589 484.712 283.474 483.996 285.767 483.996C291.593 483.996 302.98 476.866 304.142 472.505C304.676 470.516 305.116 466.903 305.116 464.5C305.131 460.728 304.503 460.123 300.577 460.123C296.855 460.123 296.164 460.681 296.792 463.163C298.048 468.033 292.033 472.856 284.683 472.856C279.359 472.856 278.118 472.219 276.846 468.829C275.37 464.898 275.244 464.866 271.271 467.492C268.868 469.084 267.502 471.216 267.926 472.712C268.318 474.097 268.9 476.182 269.214 477.328C269.748 479.238 262.398 482.978 254.058 485.047C252.315 485.476 249.174 487.132 247.101 488.723C243.41 491.54 243.363 491.874 245.295 500.58C246.457 505.816 249.362 512.341 252.315 516.272C259.052 525.264 270.596 548.819 270.596 553.593C270.596 559.737 267.894 563.19 261.581 565.148C258.33 566.15 253.21 568.283 250.179 569.891C247.148 571.498 241.73 573.694 238.117 574.777C232.024 576.607 231.05 576.432 224.485 572.548C220.606 570.241 216.334 568.347 215.015 568.347C212.895 568.347 209.141 566.198 198.933 559.148C196.342 557.365 196.656 557.206 201.493 557.922C222.805 561.058 222.726 561.074 226.354 556.379C228.223 553.959 229.762 550.697 229.762 549.121C229.762 547.546 230.406 545.843 231.191 545.349C231.977 544.856 232.259 543.105 231.835 541.434C231.333 539.477 232.966 536.262 236.5 532.283C240.913 527.317 241.683 525.471 240.599 522.543C239.452 519.455 238.29 518.994 232.558 519.36L225.852 519.79V508.649C225.852 499.514 226.511 496.569 229.527 492.272C233.689 486.352 233.516 485.906 223.135 475.864C215.094 468.097 215.424 464.787 224.674 460.283C228.773 458.277 235.903 454.123 240.505 451.052C245.766 447.535 252.755 444.638 259.335 443.237C265.099 442.012 275.103 439.259 281.589 437.094C289.74 434.389 296.698 433.211 304.126 433.29C310.031 433.354 315.465 432.797 316.188 432.033C316.926 431.285 316.502 426.367 315.277 421.115C314.036 415.863 313.125 407.269 313.267 402.017C313.439 394.744 312.513 390.24 309.34 383.126C306.67 377.126 305.178 370.998 305.178 366.017C305.178 359.221 305.587 358.25 308.429 358.25C310.235 358.25 314.193 361.067 317.318 364.616C320.412 368.118 323.789 370.982 324.81 370.982C325.831 370.982 327.904 372.367 329.427 374.07C332.568 377.587 344.583 382.139 350.598 382.091C354.116 382.059 353.644 381.439 346.781 377.189C339.164 372.463 331.893 365.253 331.861 362.436C331.861 361.672 332.882 361.911 334.139 362.977C335.395 364.028 337.044 364.521 337.798 364.043C338.552 363.566 342.996 364.218 347.676 365.476C352.357 366.733 356.424 367.783 356.723 367.783C357.021 367.783 355.419 365.603 353.189 362.913C350.959 360.224 349.121 357.279 349.121 356.388C349.121 355.497 347.598 352.6 345.729 349.943C343.86 347.285 341.803 342.526 341.143 339.359C340.484 336.192 339.447 331.99 338.866 330.049C337.814 326.579 337.892 326.547 342.588 328.935C345.226 330.271 349.907 334.823 352.969 339.072C356.032 343.306 360.837 347.874 363.649 349.226C369.679 352.123 383.484 355.815 384.489 354.797C384.882 354.399 380.453 350.913 374.658 347.03C362.675 339.009 350.472 327.009 342.776 315.693C338.206 308.977 336.809 307.958 332.301 308.054C328.909 308.117 326.804 309.072 326.27 310.791C325.815 312.239 324.354 313.847 323.051 314.356C320.946 315.168 320.931 315.693 322.941 318.59C324.197 320.404 324.873 323.221 324.464 324.844C323.962 326.786 325.925 330.224 330.134 334.871C336.18 341.523 338.929 346.346 334.61 342.717C332.348 340.823 324.009 340.95 324.009 342.892C324.009 343.608 324.826 345.757 325.846 347.667C327.464 350.722 326.961 350.579 321.732 346.537L315.779 341.937L309.277 345.136C303.576 347.937 302.367 348.065 299.477 346.107C297.656 344.882 293.07 343.354 289.285 342.685L282.39 341.492L296.525 333.216C305.927 327.709 308.592 324.94 304.519 324.908C298.676 324.876 298.504 324.733 300.985 321.964C304.283 318.271 304.252 317.285 300.828 316.568C298.771 316.139 299.76 314.865 304.754 311.46C309.654 308.133 311.429 305.873 311.429 302.913C311.429 298.314 313.031 297.295 294.687 313.529C286.395 320.866 281.338 324.049 275.449 325.608C271.051 326.786 267.455 327.136 267.455 326.388C267.455 325.64 266.041 325.147 264.314 325.274C262.586 325.401 261.173 326.133 261.173 326.913C261.173 327.693 258.408 327.836 255.032 327.247C250.76 326.515 247.415 326.977 244.023 328.744C240.269 330.717 238.416 330.892 235.934 329.539C233.563 328.25 232.134 328.282 230.5 329.635C228.27 331.513 225.161 329.889 214.057 321.12L210.131 318.017L216.884 318.892C222.569 319.624 223.339 319.417 221.8 317.523C220.716 316.202 217.073 315.279 212.974 315.279C207.163 315.279 206.079 314.802 206.503 312.494C206.849 310.616 208.78 309.534 212.408 309.184C216.209 308.818 217.151 308.261 215.596 307.29C213.9 306.224 214.387 305.539 217.669 304.266C222.208 302.515 223.213 300.144 219.978 298.823C218.894 298.377 219.601 297.964 221.549 297.9C225.569 297.757 225.742 297.231 223.386 292.775C221.847 289.847 221.988 289.735 225.082 291.406C226.935 292.409 229.558 292.823 230.893 292.298C232.715 291.582 230.171 288.032 220.653 277.99C205.828 262.329 204.132 257.682 209.094 246.287C213.146 236.992 225.286 224.547 230.296 224.547C232.354 224.547 237.112 222.08 240.866 219.072C244.619 216.064 248.279 213.979 249.017 214.441C249.755 214.902 247.87 217.178 244.839 219.518C237.505 225.152 237.678 227.38 245.106 222.876C248.341 220.918 256.194 216.43 262.555 212.929C272.103 207.677 273.642 206.292 271.428 205.035C269.009 203.666 269.104 203.316 272.433 201.645C274.459 200.626 276.124 198.366 276.124 196.647C276.124 194.021 275.229 193.592 270.627 194.037C267.596 194.324 262.146 195.883 258.503 197.507L251.875 200.451L257.356 192.382C260.372 187.942 262.586 184.059 262.288 183.756C261.989 183.454 258.346 186.494 254.2 190.52C245.483 198.971 236.06 203.793 228.223 203.809H222.726L231.364 199.051C239.358 194.642 249.692 185.316 248.232 183.82C247.886 183.47 242.138 186.334 235.463 190.186C228.789 194.037 218.596 198.398 212.816 199.862C207.037 201.326 201.038 203.22 199.467 204.064C197.582 205.067 194.913 204.955 191.552 203.73C187.06 202.09 185.505 202.377 177.982 206.228C162.23 214.329 152.21 222.796 140.808 237.677C136.961 242.706 132.94 246.828 131.872 246.828C126.768 246.828 119.811 267.916 119.905 283.115C119.936 288.112 121.24 295.942 122.795 300.526L125.637 308.865L121.837 311.396C116.937 314.659 98.6244 321.645 94.9965 321.645C92.8606 321.645 92.201 322.934 92.201 327.216C92.201 333.168 95.0593 334.728 97.5879 330.16C98.5145 328.489 100.038 327.916 101.765 328.584C103.98 329.444 104.137 330.08 102.551 332.006C101.483 333.311 101.231 334.441 101.985 334.537C102.739 334.632 105.833 334.966 108.848 335.301C111.88 335.635 118.947 336.478 124.554 337.163L134.762 338.42L130.302 341.444C124.349 345.486 111.126 345.152 102.598 340.744C94.9494 336.781 94.6039 338.022 101.389 345.136L106.493 350.484L102.064 348.781C96.1116 346.489 95.5148 346.632 98.0433 349.72C101.216 353.587 109.414 356.643 116.67 356.643C124.569 356.643 141.452 349.083 150.703 341.396C159.639 333.98 159.498 332.07 150.059 333.327L142.599 334.314L146.321 331.401C152.65 326.436 163.958 323.253 179.066 322.186C187.029 321.614 193.169 320.547 192.714 319.799C192.258 319.051 189.856 318.446 187.358 318.446C184.861 318.446 182.427 317.778 181.924 316.95C180.809 315.136 204.603 316.123 206.236 317.969C206.849 318.669 207.775 321.47 208.278 324.208C209.173 329.062 209.032 329.189 202.231 330.144C195.415 331.083 177.496 339.2 175.705 342.144C175.203 342.956 171.151 346.728 166.69 350.5L158.587 357.375L166.643 346.266C171.072 340.155 174.025 334.919 173.208 334.632C172.376 334.346 167.633 337.656 162.654 342.017C152.713 350.706 144.531 355.354 134.354 358.139C130.427 359.205 127.695 360.892 127.695 362.261C127.695 364.919 121.24 366.956 116.67 365.746C114.958 365.285 113.56 365.508 113.56 366.208C113.56 367.752 122.245 370.982 126.36 370.982C130.003 370.982 129.972 374.356 126.234 383.715C123.674 390.113 122.732 390.972 117.298 391.815L111.204 392.754L116.308 393.996C124.13 395.906 123.219 401.285 113.529 410.468C107.011 416.643 105.409 419.269 104.278 425.683C103.038 432.67 100.807 436.139 97.4622 436.203C95.5619 436.235 96.1901 432.495 98.6244 429.248C100.069 427.322 100.383 425.317 99.5196 423.678C98.7815 422.261 97.6664 416.102 97.0539 409.975C96.1116 400.601 94.8395 397.083 89.0443 387.805C85.2593 381.741 82.1497 375.837 82.1497 374.675C82.1497 367.624 75.3494 378.797 73.4648 388.951C72.3654 394.919 73.9045 399.041 80.0295 406.505C84.5526 412.012 84.694 416.85 80.5792 423.916C78.035 428.293 75.9305 429.662 69.46 431.174C59.5186 433.497 53.0167 433.545 48.9177 431.317C44.0962 428.707 43.1382 431.285 47.567 434.93C51.6346 438.272 52.0273 438.272 73.3077 435.248C79.527 434.373 81.4587 433.306 83.5161 429.63C86.9241 423.566 88.9972 423.869 87.8193 430.251C87.301 433.099 86.6257 436.855 86.3273 438.606C86.0289 440.357 84.5369 444.208 83.0292 447.168C80.8462 451.434 80.6891 452.818 82.2911 453.805C83.9244 454.824 83.9087 455.54 82.244 457.577C79.5741 460.824 77.0299 460.744 69.9154 457.131C66.7116 455.508 60.8221 453.375 56.833 452.389C52.8439 451.402 48.4308 450.145 47.0173 449.604C45.3055 448.935 44.4574 449.46 44.4574 451.163C44.4574 452.627 43.1696 453.726 41.4106 453.726C38.7878 453.726 38.4894 454.521 39.3061 459.551C39.9238 463.423 38.5837 465.031 35.2856 464.373C30.7311 463.45 30.0872 463.864 27.1503 469.688C24.7003 474.543 23.0513 476.007 19.9888 476.007C16.1881 476.007 16.1096 475.848 18.4497 472.474C22.0462 467.269 21.4808 462.543 16.9734 460.092C14.8061 458.914 13.0471 457.354 13.0471 456.606C13.0471 455.858 15.5914 448.951 18.701 441.232C23.8208 428.564 25.0144 426.861 31.1866 423.439C36.6362 420.415 38.1125 418.68 38.4894 414.813C38.8664 410.898 39.7616 409.863 43.1068 409.481C46.3734 409.099 47.0802 408.32 46.4362 405.853C45.9965 404.118 46.6718 401.476 47.9753 399.98C49.4516 398.261 50.6766 392.229 51.2734 383.715C52.8596 361.115 57.1943 346.839 69.6327 323.253C79.7468 304.075 82.2911 300.558 94.918 288.319L108.958 274.696L106.226 266.245C104.357 260.483 104.011 257.443 105.158 256.695C106.069 256.091 107.576 253.449 108.503 250.823C109.613 247.661 110.215 248.377 110.309 252.971C110.435 259.56 114.424 269.125 117.047 269.125C119.214 269.125 118.366 258.446 116.041 256.489C114.408 255.12 114.015 252.191 114.565 245.555C115.712 231.82 116.544 228.923 119.025 229.894C120.627 230.515 121.742 228.382 123.14 222.08C125.15 213.008 127.114 210.923 127.993 216.987C128.417 219.963 129.265 219.183 133.019 212.308C137.118 204.796 141.123 201.024 143.007 202.918C143.4 203.316 141.923 206.037 139.725 208.95C135.343 214.775 132.123 226.266 134.008 229.369C135.563 231.931 137.872 227.555 139.364 219.199C139.992 215.634 142.238 211.385 144.672 209.077L148.881 205.098L149.666 211.114C150.106 214.425 151.189 217.369 152.085 217.671C152.98 217.974 166.706 208.886 182.584 197.491C208.812 178.663 211.686 176.992 214.073 179.188C216.444 181.353 218.298 180.875 233.045 174.302C248.012 167.618 249.833 167.157 254.592 168.859C257.812 170.005 262.853 170.292 267.832 169.592L275.888 168.478L284.149 177.82L292.41 187.162L302.32 181.719L312.23 176.276L306.341 182.913C299.54 190.568 298.535 194.356 304.315 190.52C309.183 187.289 311.445 187.257 311.445 190.409C311.445 195.231 303.576 200.674 296.682 200.626C290.667 200.578 290.447 200.419 293.29 198.239C295.237 196.743 295.567 195.899 294.216 195.899C291.531 195.899 281.589 203.507 281.589 205.56C281.589 206.435 283.395 206.642 285.751 206.037C288.672 205.289 289.583 205.512 288.798 206.801C288.185 207.804 288.515 208.632 289.536 208.632C290.557 208.632 288.233 212.388 284.369 216.987C275.229 227.857 272.166 234.096 272.166 241.847C272.166 253.735 275.763 257.3 277.632 247.242C280.725 230.515 291.562 211.815 298.158 211.815C301.786 211.815 301.645 212.149 295.614 217.655C287.981 224.642 285.154 229.799 283.819 239.093L282.83 246.016L292.19 231.693C297.342 223.815 303.828 215.22 306.608 212.594L311.665 207.82L305.65 206.96L299.634 206.101L305.697 203.395C309.026 201.899 312.246 200.992 312.827 201.358C313.408 201.724 317.758 198.51 322.47 194.196C327.181 189.883 329.631 186.812 327.904 187.385C326.176 187.958 322.894 190.154 320.601 192.287C318.308 194.419 315.402 195.931 314.13 195.629C312.104 195.151 312.12 194.101 314.162 187.13C316.235 180.08 316.643 179.586 317.821 182.753C318.559 184.727 319.706 186.318 320.381 186.303C321.056 186.287 326.49 183.056 332.474 179.141C338.442 175.226 343.829 172.011 344.426 172.011C345.022 172.011 343.499 179.3 341.033 188.196C338.568 197.093 336.793 204.637 337.107 204.939C337.405 205.242 349.247 206.642 363.413 208.043C381.003 209.777 390.41 211.417 393.096 213.183C396.959 215.73 396.865 215.793 386.028 216.764C363.931 218.77 351.242 218.356 348.949 215.571C347.205 213.438 344.677 213.136 334.814 213.82C322.376 214.679 317.821 216.271 311.806 221.825C305.838 227.332 307.848 227.634 316.989 222.621C327.605 216.796 339.164 216.303 349.498 221.236L356.173 224.419L343.609 223.544C331.045 222.669 322.407 224.388 322.407 227.762C322.407 230.881 313.816 240.446 311.021 240.446C309.513 240.446 308.272 241.512 308.272 242.817C308.272 244.186 304.016 247.146 298.158 249.836C284.291 256.218 274.412 263.38 268.9 271.083C266.355 274.648 264.455 277.735 264.675 277.958C266.088 279.343 286.929 270.653 290.525 267.184C296.054 261.836 301.959 259.56 310.267 259.56C315.811 259.56 316.439 259.878 314.476 261.693C313.204 262.871 309.34 264.637 305.869 265.624C302.399 266.611 298.158 268.505 296.446 269.81C293.604 271.99 294.389 272.197 305.775 272.245C319.454 272.292 320.522 273.406 308.806 275.396L301.189 276.685L307.581 276.876C315.889 277.115 329.333 281.205 331.814 284.229C333.416 286.17 333.306 286.616 331.217 286.616C329.82 286.616 328.563 287.332 328.438 288.208C327.747 292.839 328.218 293.714 331.814 294.574C333.982 295.083 336.667 297.438 337.782 299.81C338.913 302.165 342.557 307.163 345.886 310.887C349.216 314.611 353.362 319.449 355.089 321.645C356.817 323.842 358.764 325.099 359.408 324.446C360.052 323.794 359.502 322.011 358.168 320.468C356.848 318.924 355.262 314.802 354.665 311.3C354.068 307.799 351.917 301.226 349.891 296.674C347.237 290.722 346.828 288.669 348.43 289.29C350.017 289.91 350.66 288.908 350.66 285.836C350.66 282.765 348.525 279.375 343.593 274.457C336.432 267.295 334.94 264.351 338.489 264.367C342.886 264.367 351.116 271.242 355.702 278.722C362.314 289.513 363.225 287.38 357.241 275.125C348.807 257.857 344.598 253.958 329.301 249.231C321.543 246.828 316.141 244.345 316.486 243.311C316.8 242.34 319.768 240.589 323.067 239.427C328.815 237.406 329.286 237.518 334.233 241.926C337.311 244.664 342.148 246.987 346.2 247.672C355.67 249.263 358.136 250.886 361.261 257.634C364.402 264.382 369.491 266.579 369.491 261.184C369.491 258.367 370.103 257.969 373.025 258.924C378.867 260.817 381.128 260.515 381.678 257.81C382.039 256.027 380.123 254.388 375.506 252.51C371.831 251.014 367.151 248.117 365.141 246.064C362.565 243.454 358.215 241.783 350.566 240.478C344.567 239.459 339.274 237.963 338.787 237.168C336.227 232.982 358.592 238.886 372.852 246.175C384.568 252.16 386.767 252.685 386.767 249.55C386.767 247.083 380.626 242.26 371.407 237.486C367.763 235.608 364.779 233.65 364.779 233.141C364.779 232.632 368.376 232.727 372.773 233.348C379.982 234.351 380.72 234.175 380.218 231.565C379.872 229.719 377.516 228.16 373.716 227.236C367.795 225.82 366.271 221.746 372.004 222.653C376.762 223.417 377.516 223.401 389.955 222.175L401.796 221.014L411.942 228.844C423.846 238.043 429.375 247.369 441.719 279.2C451.283 303.852 457.707 316.775 468.716 333.534C475.312 343.576 478.139 346.521 482.332 347.746C486.007 348.813 488.08 350.627 489.148 353.73C491.488 360.558 499.686 361.561 506.974 355.927C510.916 352.871 513.083 352.107 514.449 353.253C515.502 354.144 521.25 356.118 527.202 357.63L538.038 360.383L533.657 363.916C529.636 367.163 529.401 367.974 530.688 373.545C531.882 378.638 533.971 380.993 543.535 387.932L554.953 396.24L550.163 399.837C546.755 402.383 545.373 404.754 545.373 407.985V412.537L540.017 408.399C532.824 402.845 531.285 398.914 536.861 400.33C539.154 400.919 540.551 400.744 540.064 399.932C539.578 399.136 535.95 398.054 531.992 397.497C528.034 396.94 523.778 395.476 522.553 394.235C521.328 392.993 518.862 392.357 517.072 392.834C514.025 393.646 514.088 393.853 518.219 396.415C520.637 397.911 523.59 400.33 524.768 401.778C525.945 403.227 527.862 404.42 529.024 404.42C532.118 404.42 543.818 416.213 543.818 419.333C543.818 422.452 535.588 438.909 531.599 443.603C530.013 445.466 527.343 447.423 525.663 447.964C523.982 448.505 521.203 451.1 519.475 453.741C517.747 456.367 515.454 458.516 514.371 458.532C513.287 458.532 512.408 460.187 512.408 462.208C512.408 465.423 510.397 466.601 496.059 471.757C478.516 478.076 476.286 478.553 476.286 475.975C476.286 474.94 474.228 474.702 470.805 475.354L465.324 476.405L467.774 469.466C469.124 465.646 470.459 460.665 470.758 458.389C471.056 456.113 473.129 448.378 475.375 441.2C480.134 425.906 480.353 421.975 476.851 414.479C474.276 408.972 474.291 408.892 478.61 405.136C482.003 402.176 482.741 400.457 481.971 397.338C480.872 392.882 472.171 382.139 469.674 382.139C468.653 382.139 468.7 382.903 469.8 384.256C473.663 388.983 475.956 397.243 474.495 401.158L473.035 405.057L469.47 399.089C465.669 392.691 458.351 386.945 454.016 386.929C452.555 386.929 450.859 386.102 450.262 385.099C449.461 383.794 450.812 383.603 455.037 384.399C459.34 385.211 460.612 385.02 459.78 383.667C457.471 379.879 447.985 377.364 436.709 377.555L425.276 377.746L433.521 379.274C441.687 380.786 444.012 382.967 439.347 384.781C438.012 385.29 432.641 384.861 427.411 383.826C422.182 382.792 417.549 382.282 417.14 382.696C416.732 383.11 417.109 384.845 418.004 386.548C419.339 389.094 422.04 389.81 433.411 390.701C440.996 391.29 449.823 392.5 453.042 393.375C461.13 395.587 468.056 401.938 469.972 408.908C471.794 415.545 471.888 433.147 470.177 445.02L469.03 452.978L462.952 440.373C455.932 425.826 456.262 425.508 451.88 451.1C449.399 465.63 447.64 468.654 446.179 460.935C445.802 458.962 444.546 457.927 442.865 458.23C440.447 458.659 440.258 457.561 441.153 447.821C442.049 438.001 441.735 436.092 437.824 428.245C431.024 414.606 424.537 406.346 413.921 397.895C408.518 393.598 402.252 387.232 399.99 383.778C397.729 380.309 394.619 377.078 393.096 376.585C391.572 376.091 388.023 373.481 385.243 370.776C381.285 366.94 380.642 365.555 382.306 364.489C384.05 363.375 383.987 363.104 381.992 363.089C380.642 363.089 377.987 361.608 376.103 359.826L372.663 356.579V359.826C372.663 361.656 371.627 363.073 370.308 363.073C367.512 363.073 367.496 363.232 369.554 368.723C370.763 371.953 371.941 372.781 374.359 372.128C378.553 371.014 380.469 375.614 376.7 377.746C374.736 378.86 374.234 380.468 374.909 383.524C375.679 386.977 375.553 387.248 374.171 384.956C372.648 382.41 367.952 380.977 367.952 383.046C367.952 386.786 380.202 402.144 386.327 406.091C396.033 412.33 400.336 412.266 393.08 405.996C386.971 400.712 386.091 400.521 407.089 408.988C425.087 416.245 427.05 423.264 414.015 433.8C407.592 438.988 400.587 440.978 388.368 441.057L379.731 441.121L377.186 449.253C375.239 455.476 375.019 458.643 376.244 462.67L377.846 467.954L383.468 463.259C386.562 460.681 390.693 458.564 392.656 458.564C395.012 458.564 396.221 457.609 396.221 455.779C396.221 453.407 397.462 453.073 404.623 453.519C412.821 454.044 413.167 453.885 418.758 447.264C422.087 443.317 424.506 438.765 424.522 436.394C424.569 428.07 427.035 427.816 430.38 435.789C438.672 455.492 438.876 463.657 431.558 479.954C428.542 486.67 426.061 492.399 426.061 492.67C426.061 492.941 429.422 494.373 433.521 495.869C437.62 497.349 445.048 500.453 450.011 502.744C458.398 506.628 459.261 507.535 462.293 515.715C464.083 520.553 467.004 533.859 468.794 545.27C470.585 556.681 475.092 582.113 478.799 601.801C482.505 621.472 485.238 637.896 484.861 638.278C484.484 638.66 480.102 639.249 475.139 639.583C470.177 639.917 453.969 641.222 439.143 642.496C424.302 643.769 401.812 644.803 389.169 644.803C367.167 644.803 365.847 644.994 358.811 649.021C332.631 664.061 326.632 668.994 306.309 692.278C297.451 702.416 287.73 713.366 284.715 716.597C277.098 724.745 260.686 737.111 257.513 737.111C257.121 737.111 245.891 725.828 232.558 712.045L232.542 711.934ZM307.409 683.286C315.198 674.326 324.935 665.477 334.688 658.474C359.487 640.681 358.089 641.143 392.279 639.695C444.483 637.498 472.045 633.583 474.134 628.045C476.05 623 457.817 526.267 452.791 514.713C448.629 505.179 446.211 504.479 432.233 508.856L420.344 512.58L393.316 544.012C363.272 578.946 350.519 596.214 338.882 617.732C331.202 631.928 311.617 661.26 301.032 674.406L295.692 681.042L283.128 681.567C273.957 681.949 270.564 681.567 270.564 680.135C270.564 677.509 259.178 671.748 253.98 671.748C249.221 671.748 249.378 672.814 255.723 683L259.9 689.716L278.59 688.841C288.861 688.363 297.279 688.284 297.279 688.666C297.279 689.048 296.132 691.132 294.734 693.297C289.253 701.78 295.928 696.512 307.409 683.286ZM247.792 545.493C254.812 542.898 258.581 536.421 255.11 532.904C252.456 530.214 239.358 537.28 237.426 542.437C234.505 550.219 234.788 550.299 247.792 545.477V545.493ZM44.0176 479.556C44.4417 478.267 43.735 477.948 42.0231 478.617C40.5625 479.19 38.835 478.744 38.1439 477.63C37.2959 476.246 35.6311 477.821 32.8042 482.707C30.5426 486.606 28.7051 490.346 28.7051 491.015C28.7051 492.766 43.2638 481.895 44.0176 479.572V479.556ZM23.9936 453.71C20.9468 451.72 19.2821 451.72 19.2821 453.71C19.2821 454.585 20.8683 455.285 22.8157 455.269C25.674 455.253 25.8939 454.951 23.9936 453.71ZM33.825 445.577C32.8984 441.964 30.5269 441.646 29.2705 444.972C28.0769 448.107 31.8933 453.041 33.4795 450.415C34.092 449.397 34.2491 447.216 33.825 445.561V445.577ZM68.5648 381.693C69.884 377.094 71.1718 372.685 71.4231 371.874C71.6744 371.078 71.0933 370.139 70.1196 369.821C68.0308 369.12 63.2407 380.436 63.2407 386.102C63.2407 392.802 66.0363 390.479 68.5491 381.693H68.5648ZM495.854 377.428C496.341 376.616 492.808 374.786 487.986 373.37C478.485 370.569 477.071 366.956 485.473 366.972C494.52 367.004 489.62 363.98 477.134 361.847C463.47 359.508 459.984 360.112 469.862 363.12C477.841 365.539 478.17 367.752 470.553 367.752C466.732 367.752 465.816 368.866 467.805 371.094C469.454 372.94 470.444 374.914 470.004 375.471C469.58 376.028 470.805 376.728 472.752 376.998C475.485 377.396 476.05 376.919 475.281 374.85C474.417 372.558 475.108 372.638 480.385 375.471C486.855 378.924 494.347 379.863 495.854 377.412V377.428ZM77.3911 363.359C77.3911 361.815 79.8882 356.802 82.935 352.218C87.2696 345.693 87.9135 343.879 85.8876 343.879C81.8199 343.879 71.109 355.672 71.109 360.144C71.109 362.293 71.5802 364.521 72.1613 365.11C74.2186 367.195 77.3911 366.128 77.3911 363.359ZM337.123 185.586C340.813 179.873 340.232 178.854 335.741 183.135C331.736 186.955 330.715 189.502 333.196 189.502C333.966 189.502 335.725 187.735 337.123 185.586ZM220.308 618.432C216.743 608.93 219.036 606.877 235.448 604.936C242.232 604.14 250.744 602.007 254.372 600.225C258 598.442 262.225 597.392 263.795 597.901C265.366 598.411 267.706 599.174 268.994 599.588C270.957 600.225 270.863 600.702 268.444 602.517C264.078 605.779 266.732 608.087 274.852 608.087C279.249 608.087 283.175 609.074 284.84 610.602C287.384 612.941 287.4 613.339 285.013 616.172C282.924 618.639 280.333 619.228 271.381 619.228C265.303 619.228 258.016 618.559 255.189 617.732C250.572 616.395 235.934 618.32 224.627 621.79C222.695 622.379 221.407 621.392 220.308 618.448V618.432ZM193.609 600.161C193.609 592.108 200.394 589.418 219.931 589.721C234.866 589.944 236.28 589.705 239.421 586.315C242.028 583.498 243.3 583.068 244.949 584.453C247.195 586.347 264.204 585.472 279.202 582.702C283.521 581.907 288.468 581.015 290.18 580.745C294.342 580.06 299.666 590.023 296.933 593.365C295.158 595.53 270.8 596.198 223.951 595.387C210.916 595.164 206.644 595.705 200.786 598.331C196.844 600.098 193.609 600.925 193.609 600.177V600.161ZM144.483 300.478C139.788 299.3 138.735 298.393 139.426 296.149C140.023 294.255 138.861 292.155 135.94 289.831C133.144 287.603 132.626 286.68 134.495 287.284C136.961 288.08 137.259 287.603 136.427 284.229C135.814 281.762 136.097 280.234 137.181 280.234C138.139 280.234 137.086 278.038 134.856 275.332C130.349 269.905 129.862 267.486 132.673 264.637C135.657 261.613 136.474 262.266 139.348 269.905C142.772 278.977 153.702 290.133 162.921 293.985C166.832 295.608 170.036 297.486 170.036 298.139C170.036 300.494 161.948 299.269 155.446 295.942C149.195 292.727 148.975 292.712 151.582 295.672C153.09 297.391 154.331 299.205 154.331 299.698C154.331 301.592 150.169 301.926 144.468 300.494L144.483 300.478ZM125.386 276.494C124.255 269.634 126.564 254.722 128.464 256.664C128.794 256.998 128.527 263.332 127.867 270.749L126.674 284.229L125.386 276.51V276.494ZM172.548 275.268C164.225 273.295 156.466 268.202 155.383 264.016C154.896 262.123 155.273 256.934 156.231 252.494L157.974 244.409L159.733 253.162C161.79 263.364 163.094 265.894 166.266 265.894C168.073 265.894 168.23 265.21 166.957 262.823C164.837 258.828 164.806 246.287 166.895 247.592C167.821 248.181 168.465 246.335 168.465 243.088C168.465 239.571 169.345 237.247 170.931 236.642C172.47 236.038 173.051 234.589 172.486 232.775C171.842 230.69 173.271 228.51 177.48 225.104C187.327 217.162 188.034 217.337 181.249 226.027C172.36 237.422 172.533 242.786 181.563 235.592L185.647 232.329L184.704 242.547C183.888 251.348 184.312 253.99 187.751 261.597C191.348 269.539 191.489 270.542 189.133 271.465C186.777 272.388 186.824 272.722 189.573 274.759C192.368 276.844 192.054 277.019 185.647 276.876C181.815 276.78 175.909 276.064 172.533 275.253L172.548 275.268ZM171.622 220.807C171.622 218.992 175.438 216.303 181.83 213.629C182.694 213.263 181.328 215.22 178.783 217.958C173.821 223.321 171.622 224.197 171.622 220.807ZM193.609 219.804C193.609 218.961 195.195 217.417 197.143 216.382C199.488 215.141 199.671 215.65 197.692 217.91C194.363 221.698 193.609 222.048 193.609 219.788V219.804Z" fill="black"/>
</g>
<rect y="212" width="55" height="564" fill="white"/>
<rect x="45" y="2" width="618" height="901" stroke="black" stroke-width="4"/>
<rect x="55" y="14" width="598" height="877" stroke="black" stroke-width="4"/>
<path d="M598.834 96H581.1V94.3258H586.991V54.2076H581.1V52.5334H598.462C608.177 52.5334 613.034 55.7577 613.034 62.2064C613.034 65.1001 612 67.4563 609.933 69.2752C607.866 71.094 605.345 72.2308 602.369 72.6855V72.9336C605.676 73.2229 608.487 74.1944 610.801 75.8479C613.116 77.7907 614.274 80.3123 614.274 83.4127C614.274 86.141 613.488 88.4972 611.918 90.4814C610.388 92.4243 608.487 93.8298 606.213 94.6979C603.939 95.566 601.48 96 598.834 96ZM593.192 94.3258H598.276C601.335 94.3258 603.65 93.3337 605.221 91.3495C606.833 89.3653 607.639 86.8024 607.639 83.6607C607.639 77.0467 604.518 73.7396 598.276 73.7396H593.192V94.3258ZM593.192 72.0655H598.276C601.046 72.0655 603.092 71.1767 604.415 69.3992C605.738 67.6217 606.399 65.2861 606.399 62.3924C606.399 56.9359 603.567 54.2076 597.904 54.2076H593.192V72.0655ZM613.22 190H581.1V188.326H586.991V148.208H581.1V146.533H611.608V159.245H609.933L607.825 148.208H593.192V166.81H602.307L603.609 159.555H605.283V175.676H603.671L602.307 168.484H593.192V188.326H609.437L611.546 176.669H613.22V190ZM613.22 284H581.1V282.326H586.991V242.208H581.1V240.533H611.608V253.245H609.933L607.825 242.208H593.192V260.81H602.307L603.609 253.555H605.283V269.676H603.671L602.307 262.484H593.192V282.326H609.437L611.546 270.669H613.22V284ZM582.837 347.183H581.162V334.533H616.32V347.183H614.646L612.538 336.456H601.811V376.326H607.701V378H589.719V376.326H595.61V336.456H584.883L582.837 347.183ZM625.807 430.208H619.916V470.326H625.807V472H607.825V470.326H613.716V450.67H593.192V470.326H599.082V472H581.1V470.326H586.991V430.208H581.1V428.533H599.082V430.208H593.192V448.996H613.716V430.208H607.825V428.533H625.807V430.208ZM601.749 566.496C595.589 566.496 590.711 564.346 587.115 560.047C583.519 555.748 581.72 550.519 581.72 544.36C581.72 537.952 583.498 532.64 587.053 528.424C590.649 524.166 595.548 522.037 601.749 522.037C608.073 522.037 612.972 524.146 616.444 528.362C619.916 532.578 621.653 537.87 621.653 544.236C621.653 548.039 620.826 551.635 619.172 555.025C617.56 558.373 615.204 561.122 612.104 563.272C609.003 565.421 605.552 566.496 601.749 566.496ZM601.749 523.712C599.31 523.712 597.16 524.394 595.3 525.758C593.481 527.122 592.096 528.899 591.145 531.09C590.195 533.24 589.492 535.451 589.037 537.725C588.582 539.999 588.355 542.272 588.355 544.546C588.355 548.307 589.016 551.925 590.339 555.397C591.703 558.828 593.77 561.412 596.54 563.148C598.111 564.181 599.847 564.698 601.749 564.698C604.766 564.698 607.35 563.499 609.499 561.101C611.649 558.704 613.158 555.872 614.026 552.607C614.687 550.25 615.018 547.563 615.018 544.546C615.018 542.189 614.811 539.895 614.398 537.663C613.984 535.431 613.302 533.219 612.352 531.028C611.442 528.837 610.057 527.081 608.197 525.758C606.378 524.394 604.229 523.712 601.749 523.712ZM610.367 618.208V616.533H624.133V618.208L618.242 618.828L603.919 660.496H602.059L585.751 618.208H579.86V616.533H598.338V618.208H592.448L604.911 651.567L616.258 618.828L610.367 618.208ZM613.22 754H581.1V752.326H586.991V712.208H581.1V710.533H611.608V723.245H609.933L607.825 712.208H593.192V730.81H602.307L603.609 723.555H605.283V739.676H603.671L602.307 732.484H593.192V752.326H609.437L611.546 740.669H613.22V754ZM594.68 848H581.162V846.326L587.053 845.706V806.208H581.162V804.533H593.192L613.468 837.459V806.828L607.577 806.208V804.533H621.157V806.208L615.266 806.828V848.496H613.468L588.851 809.06V845.706L594.68 846.326V848Z" fill="black"/>
<path d="M263.844 795H250.332V794.28H252.864V777.038H250.332V776.319H258.034V777.038H255.502V794.28H262.298L263.417 788.657H264.11L263.844 795ZM271.963 782.901C273.793 782.901 275.25 783.479 276.334 784.633C277.418 785.77 277.96 787.236 277.96 789.031C277.96 790.825 277.4 792.308 276.281 793.481C275.161 794.636 273.722 795.213 271.963 795.213C270.098 795.213 268.632 794.654 267.566 793.534C266.5 792.397 265.967 790.905 265.967 789.057C265.967 787.245 266.518 785.77 267.619 784.633C268.739 783.479 270.187 782.901 271.963 782.901ZM271.937 794.494C272.559 794.494 273.092 794.316 273.536 793.961C273.998 793.588 274.344 793.117 274.575 792.548C274.806 791.962 274.975 791.385 275.081 790.816C275.188 790.23 275.241 789.643 275.241 789.057C275.241 788.453 275.188 787.867 275.081 787.298C274.993 786.73 274.833 786.152 274.602 785.566C274.388 784.98 274.051 784.509 273.589 784.154C273.145 783.798 272.603 783.621 271.963 783.621C271.359 783.621 270.826 783.807 270.364 784.18C269.92 784.536 269.583 785.006 269.352 785.593C269.121 786.161 268.952 786.739 268.845 787.325C268.739 787.911 268.685 788.489 268.685 789.057C268.685 790.656 268.97 791.926 269.538 792.868C270.107 793.952 270.906 794.494 271.937 794.494ZM292.358 786.765V794.28H294.356V795H287.96V794.28H289.826V786.872C289.826 785.077 289.089 784.18 287.614 784.18C286.672 784.18 285.917 784.589 285.349 785.406C284.78 786.206 284.496 787.094 284.496 788.071V794.28H286.361V795H279.966V794.28H281.964V783.86H279.966V783.141H281.964L284.496 782.768V785.673C285.224 783.825 286.61 782.901 288.653 782.901C291.123 782.901 292.358 784.189 292.358 786.765ZM305.118 795.293V792.735C304.692 793.499 304.132 794.103 303.44 794.547C302.764 794.991 302.009 795.213 301.174 795.213C299.504 795.213 298.19 794.627 297.23 793.454C296.289 792.264 295.818 790.825 295.818 789.137C295.818 787.467 296.315 786.01 297.31 784.767C298.323 783.505 299.638 782.874 301.254 782.874C303.084 782.874 304.372 783.665 305.118 785.246V777.038H303.12V776.319H305.118L307.65 775.946V794.227H309.649V794.947H307.65L305.118 795.293ZM301.947 794.094C302.605 794.094 303.191 793.863 303.706 793.401C304.239 792.939 304.639 792.379 304.905 791.722C305.047 791.296 305.118 790.94 305.118 790.656V787.911C305.118 787.449 305.047 786.978 304.905 786.499C304.586 785.575 304.035 784.864 303.253 784.367C302.844 784.154 302.409 784.047 301.947 784.047C301.325 784.047 300.775 784.207 300.295 784.527C299.833 784.847 299.478 785.273 299.229 785.806C298.98 786.321 298.794 786.863 298.669 787.432C298.545 788 298.483 788.569 298.483 789.137C298.483 789.937 298.589 790.692 298.803 791.402C299.016 792.113 299.389 792.744 299.922 793.294C300.473 793.827 301.148 794.094 301.947 794.094ZM317.247 782.901C319.077 782.901 320.534 783.479 321.617 784.633C322.701 785.77 323.243 787.236 323.243 789.031C323.243 790.825 322.683 792.308 321.564 793.481C320.445 794.636 319.006 795.213 317.247 795.213C315.381 795.213 313.916 794.654 312.85 793.534C311.784 792.397 311.251 790.905 311.251 789.057C311.251 787.245 311.801 785.77 312.903 784.633C314.022 783.479 315.47 782.901 317.247 782.901ZM317.22 794.494C317.842 794.494 318.375 794.316 318.819 793.961C319.281 793.588 319.627 793.117 319.858 792.548C320.089 791.962 320.258 791.385 320.365 790.816C320.471 790.23 320.525 789.643 320.525 789.057C320.525 788.453 320.471 787.867 320.365 787.298C320.276 786.73 320.116 786.152 319.885 785.566C319.672 784.98 319.334 784.509 318.872 784.154C318.428 783.798 317.886 783.621 317.247 783.621C316.643 783.621 316.11 783.807 315.648 784.18C315.204 784.536 314.866 785.006 314.635 785.593C314.404 786.161 314.235 786.739 314.129 787.325C314.022 787.911 313.969 788.489 313.969 789.057C313.969 790.656 314.253 791.926 314.822 792.868C315.39 793.952 316.19 794.494 317.22 794.494ZM337.641 786.765V794.28H339.64V795H333.244V794.28H335.109V786.872C335.109 785.077 334.372 784.18 332.897 784.18C331.956 784.18 331.201 784.589 330.632 785.406C330.064 786.206 329.779 787.094 329.779 788.071V794.28H331.645V795H325.249V794.28H327.248V783.86H325.249V783.141H327.248L329.779 782.768V785.673C330.508 783.825 331.893 782.901 333.937 782.901C336.406 782.901 337.641 784.189 337.641 786.765ZM257.608 813.659C257.235 813.659 256.835 813.632 256.409 813.579C256.107 813.561 255.689 813.499 255.156 813.392V821.28H257.954V822H249.959V821.28H252.491V804.038H249.959V803.319H257.928C259.722 803.319 261.197 803.692 262.351 804.438C263.506 805.166 264.084 806.357 264.084 808.009C264.084 809.803 263.453 811.198 262.192 812.193C260.948 813.17 259.42 813.659 257.608 813.659ZM257.288 812.939C258.585 812.939 259.562 812.468 260.219 811.527C260.895 810.585 261.232 809.448 261.232 808.116C261.232 806.73 260.903 805.708 260.246 805.051C259.589 804.376 258.567 804.038 257.181 804.038H255.156V812.619C255.778 812.833 256.489 812.939 257.288 812.939ZM278.304 813.765V821.28H280.303V822H273.907V821.28H275.772V813.899C275.772 813.01 275.612 812.344 275.293 811.9C274.973 811.438 274.395 811.207 273.56 811.207C272.601 811.207 271.837 811.616 271.269 812.433C270.718 813.25 270.442 814.156 270.442 815.151V821.28H272.308V822H265.912V821.28H267.911V804.038H265.912V803.319H267.911L270.442 802.946V812.753C270.833 811.847 271.393 811.145 272.121 810.647C272.868 810.132 273.729 809.874 274.706 809.874C277.052 809.874 278.251 811.171 278.304 813.765ZM285.948 806.943C285.646 807.263 285.281 807.423 284.855 807.423C284.429 807.423 284.056 807.272 283.736 806.97C283.416 806.65 283.256 806.268 283.256 805.824C283.256 805.38 283.407 805.015 283.709 804.731C284.029 804.447 284.411 804.305 284.855 804.305C285.299 804.305 285.663 804.447 285.948 804.731C286.25 805.015 286.401 805.38 286.401 805.824C286.401 806.25 286.25 806.623 285.948 806.943ZM286.188 809.768V821.28H288.186V822H281.657V821.28H283.656V810.86H281.657V810.141H283.656L286.188 809.768ZM294.044 803.052V821.28H296.043V822H289.514V821.28H291.512V804.038H289.514V803.319H291.539L294.044 803.052ZM309.898 813.765V821.28H311.897V822H305.501V821.28H307.367V813.899C307.367 813.01 307.207 812.344 306.887 811.9C306.567 811.438 305.99 811.207 305.155 811.207C304.195 811.207 303.431 811.616 302.863 812.433C302.312 813.25 302.037 814.156 302.037 815.151V821.28H303.902V822H297.506V821.28H299.505V804.038H297.506V803.319H299.505L302.037 802.946V812.753C302.428 811.847 302.987 811.145 303.716 810.647C304.462 810.132 305.324 809.874 306.301 809.874C308.646 809.874 309.845 811.171 309.898 813.765ZM317.835 815.524C318.83 815.524 319.683 815.657 320.393 815.924V812.726C320.393 811.998 320.225 811.465 319.887 811.127C319.567 810.772 319.043 810.594 318.315 810.594C317.444 810.594 316.716 810.825 316.13 811.287C316.361 811.358 316.591 811.509 316.822 811.74C317.018 811.989 317.116 812.308 317.116 812.699C317.116 813.09 316.991 813.41 316.742 813.659C316.494 813.907 316.174 814.032 315.783 814.032C315.392 814.032 315.081 813.899 314.85 813.632C314.602 813.383 314.477 813.055 314.477 812.646C314.477 811.793 314.948 811.127 315.89 810.647C316.849 810.15 317.808 809.901 318.768 809.901C321.539 809.901 322.925 810.932 322.925 812.992V819.975C322.925 820.739 323.209 821.121 323.778 821.121C324.044 821.121 324.293 821.023 324.524 820.827C324.702 820.65 324.862 820.463 325.004 820.268L325.43 820.694C324.737 821.707 323.893 822.213 322.899 822.213C322.383 822.213 321.921 822.107 321.513 821.893C321.104 821.698 320.775 821.334 320.527 820.801C319.425 821.76 318.217 822.24 316.902 822.24C315.89 822.24 315.046 821.947 314.371 821.36C313.713 820.756 313.385 819.957 313.385 818.962C313.385 817.772 313.811 816.901 314.664 816.35C315.534 815.8 316.591 815.524 317.835 815.524ZM316.05 818.642C316.05 819.388 316.236 819.975 316.609 820.401C317 820.827 317.56 821.041 318.288 821.041C318.715 821.041 319.097 820.961 319.434 820.801C319.772 820.676 320.091 820.472 320.393 820.188V816.59C320.056 816.466 319.718 816.359 319.381 816.27C319.061 816.217 318.706 816.19 318.315 816.19C317.569 816.19 317 816.412 316.609 816.857C316.236 817.283 316.05 817.878 316.05 818.642ZM330.898 809.768V812.726C331.609 810.843 332.853 809.901 334.629 809.901C335.322 809.901 335.9 810.105 336.362 810.514C336.823 810.923 337.054 811.473 337.054 812.166C337.054 812.575 336.912 812.93 336.628 813.232C336.362 813.517 336.024 813.659 335.615 813.659C335.242 813.659 334.931 813.543 334.683 813.312C334.434 813.064 334.31 812.753 334.31 812.38C334.31 811.704 334.665 811.198 335.375 810.86C335.145 810.718 334.86 810.647 334.523 810.647C333.403 810.647 332.515 811.198 331.858 812.3C331.218 813.383 330.898 814.538 330.898 815.764V821.28H333.164V822H326.368V821.28H328.367V810.86H326.368V810.141H328.367L330.898 809.768ZM358.008 814.325V821.28H360.007V822H353.558V821.28H355.423V814.458C355.423 813.836 355.379 813.312 355.29 812.886C355.219 812.459 355.014 812.069 354.677 811.713C354.339 811.358 353.868 811.18 353.264 811.18C352.785 811.18 352.367 811.287 352.012 811.5C350.928 812.246 350.386 813.463 350.386 815.151V821.28H352.252V822H345.989V821.28H347.855V814.272C347.855 813.668 347.81 813.161 347.721 812.753C347.632 812.344 347.419 811.98 347.082 811.66C346.762 811.34 346.309 811.18 345.723 811.18C344.799 811.18 344.079 811.598 343.564 812.433C343.067 813.25 342.818 814.156 342.818 815.151V821.28H344.683V822H338.287V821.28H340.286V810.86H338.287V810.141H340.313L342.818 809.768V812.673C343.546 810.825 344.879 809.901 346.815 809.901C348.77 809.901 349.942 810.816 350.333 812.646C351.15 810.816 352.483 809.901 354.33 809.901C356.782 809.901 358.008 811.376 358.008 814.325ZM367.475 809.901C369.305 809.901 370.762 810.479 371.845 811.633C372.929 812.77 373.471 814.236 373.471 816.031C373.471 817.825 372.911 819.308 371.792 820.481C370.673 821.636 369.234 822.213 367.475 822.213C365.609 822.213 364.144 821.654 363.078 820.534C362.012 819.397 361.479 817.905 361.479 816.057C361.479 814.245 362.029 812.77 363.131 811.633C364.25 810.479 365.698 809.901 367.475 809.901ZM367.448 821.494C368.07 821.494 368.603 821.316 369.047 820.961C369.509 820.588 369.856 820.117 370.087 819.548C370.317 818.962 370.486 818.385 370.593 817.816C370.699 817.23 370.753 816.643 370.753 816.057C370.753 815.453 370.699 814.867 370.593 814.298C370.504 813.73 370.344 813.152 370.113 812.566C369.9 811.98 369.562 811.509 369.1 811.154C368.656 810.798 368.114 810.621 367.475 810.621C366.871 810.621 366.338 810.807 365.876 811.18C365.432 811.536 365.094 812.006 364.863 812.593C364.632 813.161 364.463 813.739 364.357 814.325C364.25 814.911 364.197 815.489 364.197 816.057C364.197 817.656 364.481 818.926 365.05 819.868C365.618 820.952 366.418 821.494 367.448 821.494ZM387.869 813.765V821.28H389.868V822H383.472V821.28H385.337V813.872C385.337 812.077 384.6 811.18 383.125 811.18C382.184 811.18 381.429 811.589 380.86 812.406C380.292 813.206 380.007 814.094 380.007 815.071V821.28H381.873V822H375.477V821.28H377.476V810.86H375.477V810.141H377.476L380.007 809.768V812.673C380.736 810.825 382.122 809.901 384.165 809.901C386.634 809.901 387.869 811.189 387.869 813.765ZM395.487 806.943C395.185 807.263 394.82 807.423 394.394 807.423C393.968 807.423 393.595 807.272 393.275 806.97C392.955 806.65 392.795 806.268 392.795 805.824C392.795 805.38 392.946 805.015 393.248 804.731C393.568 804.447 393.95 804.305 394.394 804.305C394.838 804.305 395.202 804.447 395.487 804.731C395.789 805.015 395.94 805.38 395.94 805.824C395.94 806.25 395.789 806.623 395.487 806.943ZM395.726 809.768V821.28H397.725V822H391.196V821.28H393.195V810.86H391.196V810.141H393.195L395.726 809.768ZM409.126 818.935L409.659 819.282C409.179 820.17 408.54 820.881 407.74 821.414C406.941 821.929 406.061 822.187 405.102 822.187C403.361 822.187 401.957 821.6 400.891 820.428C399.843 819.237 399.319 817.78 399.319 816.057C399.319 814.245 399.852 812.77 400.918 811.633C401.984 810.479 403.396 809.901 405.155 809.901C405.99 809.901 406.772 810.07 407.5 810.407C408.229 810.745 408.788 811.242 409.179 811.9C409.41 812.291 409.526 812.664 409.526 813.019C409.526 813.41 409.392 813.748 409.126 814.032C408.877 814.298 408.557 814.432 408.167 814.432C407.794 814.432 407.483 814.316 407.234 814.085C407.003 813.854 406.887 813.552 406.887 813.179C406.887 812.557 407.225 812.051 407.9 811.66C407.349 810.985 406.55 810.647 405.502 810.647C404.844 810.647 404.276 810.825 403.796 811.18C403.316 811.518 402.952 811.971 402.703 812.539C402.472 813.09 402.304 813.659 402.197 814.245C402.091 814.814 402.037 815.409 402.037 816.031C402.037 817.434 402.339 818.651 402.943 819.681C403.547 820.694 404.489 821.201 405.768 821.201C407.154 821.201 408.273 820.445 409.126 818.935ZM259.207 849.213C256.56 849.213 254.463 848.289 252.917 846.442C251.372 844.594 250.599 842.347 250.599 839.699C250.599 836.946 251.363 834.663 252.891 832.85C254.437 831.02 256.542 830.105 259.207 830.105C261.925 830.105 264.03 831.012 265.523 832.824C267.015 834.636 267.761 836.91 267.761 839.646C267.761 841.281 267.406 842.826 266.695 844.283C266.002 845.722 264.99 846.904 263.657 847.827C262.325 848.751 260.841 849.213 259.207 849.213ZM259.207 830.825C258.159 830.825 257.235 831.118 256.435 831.704C255.653 832.291 255.058 833.055 254.65 833.996C254.241 834.92 253.939 835.871 253.744 836.848C253.548 837.825 253.45 838.802 253.45 839.779C253.45 841.396 253.735 842.951 254.303 844.443C254.89 845.918 255.778 847.028 256.968 847.774C257.643 848.218 258.39 848.44 259.207 848.44C260.504 848.44 261.614 847.925 262.538 846.895C263.462 845.864 264.11 844.647 264.483 843.244C264.768 842.231 264.91 841.076 264.91 839.779C264.91 838.767 264.821 837.781 264.643 836.821C264.466 835.862 264.172 834.911 263.764 833.97C263.373 833.028 262.778 832.273 261.978 831.704C261.197 831.118 260.273 830.825 259.207 830.825ZM274.32 836.768V839.726C275.031 837.843 276.274 836.901 278.051 836.901C278.744 836.901 279.321 837.105 279.783 837.514C280.245 837.923 280.476 838.473 280.476 839.166C280.476 839.575 280.334 839.93 280.05 840.232C279.783 840.517 279.446 840.659 279.037 840.659C278.664 840.659 278.353 840.543 278.104 840.312C277.856 840.064 277.731 839.753 277.731 839.38C277.731 838.704 278.087 838.198 278.797 837.86C278.566 837.718 278.282 837.647 277.945 837.647C276.825 837.647 275.937 838.198 275.28 839.3C274.64 840.383 274.32 841.538 274.32 842.764V848.28H276.585V849H269.79V848.28H271.788V837.86H269.79V837.141H271.788L274.32 836.768ZM291.649 845.935L292.182 846.282C291.703 847.17 291.063 847.881 290.264 848.414C289.464 848.929 288.585 849.187 287.625 849.187C285.884 849.187 284.481 848.6 283.415 847.428C282.367 846.237 281.842 844.78 281.842 843.057C281.842 841.245 282.375 839.77 283.441 838.633C284.507 837.479 285.92 836.901 287.679 836.901C288.514 836.901 289.295 837.07 290.024 837.407C290.752 837.745 291.312 838.242 291.703 838.9C291.934 839.291 292.049 839.664 292.049 840.019C292.049 840.41 291.916 840.748 291.649 841.032C291.401 841.298 291.081 841.432 290.69 841.432C290.317 841.432 290.006 841.316 289.757 841.085C289.526 840.854 289.411 840.552 289.411 840.179C289.411 839.557 289.748 839.051 290.424 838.66C289.873 837.985 289.073 837.647 288.025 837.647C287.368 837.647 286.799 837.825 286.32 838.18C285.84 838.518 285.476 838.971 285.227 839.539C284.996 840.09 284.827 840.659 284.721 841.245C284.614 841.814 284.561 842.409 284.561 843.031C284.561 844.434 284.863 845.651 285.467 846.681C286.071 847.694 287.012 848.201 288.292 848.201C289.677 848.201 290.797 847.445 291.649 845.935ZM306.333 840.765V848.28H308.332V849H301.936V848.28H303.801V840.899C303.801 840.01 303.641 839.344 303.322 838.9C303.002 838.438 302.424 838.207 301.589 838.207C300.63 838.207 299.866 838.616 299.297 839.433C298.747 840.25 298.471 841.156 298.471 842.151V848.28H300.337V849H293.941V848.28H295.94V831.038H293.941V830.319H295.94L298.471 829.946V839.753C298.862 838.847 299.422 838.145 300.15 837.647C300.896 837.132 301.758 836.874 302.735 836.874C305.08 836.874 306.28 838.171 306.333 840.765ZM315.336 836.901C316.881 836.901 318.072 837.39 318.907 838.367C319.759 839.326 320.186 840.579 320.186 842.124H312.537C312.52 842.213 312.511 842.364 312.511 842.577V843.057C312.529 844.514 312.813 845.731 313.364 846.708C313.932 847.685 314.883 848.174 316.215 848.174C317.761 848.174 318.871 847.392 319.546 845.829L320.133 846.255C319.227 848.227 317.699 849.213 315.549 849.213C313.754 849.213 312.351 848.645 311.338 847.508C310.326 846.353 309.819 844.887 309.819 843.11C309.819 841.387 310.317 839.921 311.312 838.713C312.324 837.505 313.666 836.901 315.336 836.901ZM312.617 841.405H317.521C317.45 840.339 317.254 839.513 316.935 838.926C316.508 838.038 315.904 837.594 315.122 837.594C313.79 837.594 312.955 838.864 312.617 841.405ZM330.098 837.088V841.138H329.379C329.308 840.126 328.997 839.291 328.446 838.633C327.913 837.958 327.158 837.621 326.181 837.621C325.577 837.621 325.088 837.798 324.715 838.154C324.36 838.491 324.182 838.953 324.182 839.539C324.182 839.984 324.262 840.339 324.422 840.605C324.6 840.854 324.884 841.085 325.275 841.298C325.879 841.618 326.687 841.938 327.7 842.258C328.89 842.595 329.734 842.986 330.232 843.43C330.747 843.945 331.005 844.665 331.005 845.589C331.005 846.69 330.623 847.57 329.859 848.227C329.112 848.885 328.197 849.213 327.114 849.213C325.533 849.213 324.395 848.654 323.703 847.534L323.436 849.133H322.717V844.976H323.436C323.987 847.321 325.177 848.494 327.007 848.494C327.593 848.494 328.082 848.325 328.473 847.987C328.953 847.632 329.192 847.099 329.192 846.388C329.192 845.589 328.739 845.047 327.833 844.763C327.709 844.727 327.531 844.674 327.3 844.603C327.069 844.514 326.847 844.434 326.634 844.363C326.439 844.292 326.252 844.23 326.074 844.176C323.64 843.466 322.423 842.249 322.423 840.525C322.423 839.388 322.761 838.5 323.436 837.86C324.111 837.221 325.026 836.901 326.181 836.901C327.549 836.901 328.544 837.354 329.166 838.26L329.326 837.088H330.098ZM335.009 846.255V837.86H332.478V837.141H335.036L336.848 833.17H337.541V837.141H340.925V837.86H337.541V845.882C337.541 847.321 338.056 848.041 339.087 848.041C339.815 848.041 340.455 847.605 341.005 846.735L341.565 847.188C340.623 848.538 339.478 849.213 338.127 849.213C337.168 849.213 336.404 848.956 335.835 848.44C335.285 847.925 335.009 847.197 335.009 846.255ZM347.867 836.768V839.726C348.577 837.843 349.821 836.901 351.598 836.901C352.29 836.901 352.868 837.105 353.33 837.514C353.792 837.923 354.023 838.473 354.023 839.166C354.023 839.575 353.881 839.93 353.596 840.232C353.33 840.517 352.992 840.659 352.584 840.659C352.211 840.659 351.9 840.543 351.651 840.312C351.402 840.064 351.278 839.753 351.278 839.38C351.278 838.704 351.633 838.198 352.344 837.86C352.113 837.718 351.829 837.647 351.491 837.647C350.372 837.647 349.483 838.198 348.826 839.3C348.186 840.383 347.867 841.538 347.867 842.764V848.28H350.132V849H343.336V848.28H345.335V837.86H343.336V837.141H345.335L347.867 836.768ZM359.319 842.524C360.314 842.524 361.167 842.657 361.877 842.924V839.726C361.877 838.998 361.708 838.465 361.371 838.127C361.051 837.772 360.527 837.594 359.799 837.594C358.928 837.594 358.2 837.825 357.613 838.287C357.844 838.358 358.075 838.509 358.306 838.74C358.502 838.989 358.599 839.308 358.599 839.699C358.599 840.09 358.475 840.41 358.226 840.659C357.977 840.907 357.658 841.032 357.267 841.032C356.876 841.032 356.565 840.899 356.334 840.632C356.085 840.383 355.961 840.055 355.961 839.646C355.961 838.793 356.432 838.127 357.373 837.647C358.333 837.15 359.292 836.901 360.252 836.901C363.023 836.901 364.409 837.932 364.409 839.992V846.975C364.409 847.739 364.693 848.121 365.262 848.121C365.528 848.121 365.777 848.023 366.008 847.827C366.186 847.65 366.345 847.463 366.488 847.268L366.914 847.694C366.221 848.707 365.377 849.213 364.382 849.213C363.867 849.213 363.405 849.107 362.996 848.893C362.588 848.698 362.259 848.334 362.01 847.801C360.909 848.76 359.701 849.24 358.386 849.24C357.373 849.24 356.53 848.947 355.854 848.36C355.197 847.756 354.868 846.957 354.868 845.962C354.868 844.772 355.295 843.901 356.148 843.35C357.018 842.8 358.075 842.524 359.319 842.524ZM357.533 845.642C357.533 846.388 357.72 846.975 358.093 847.401C358.484 847.827 359.043 848.041 359.772 848.041C360.198 848.041 360.58 847.961 360.918 847.801C361.255 847.676 361.575 847.472 361.877 847.188V843.59C361.54 843.466 361.202 843.359 360.865 843.27C360.545 843.217 360.189 843.19 359.799 843.19C359.052 843.19 358.484 843.412 358.093 843.857C357.72 844.283 357.533 844.878 357.533 845.642Z" fill="black"/>
<path d="M87.12 782.624V781.76H94.96V782.624H92.56V795.136H94.96V796H87.12V795.136H89.52V782.624H87.12ZM104.862 781.856C106.654 781.856 108.147 782.453 109.342 783.648C110.558 784.992 111.166 786.677 111.166 788.704C111.166 790.752 110.526 792.533 109.246 794.048C107.966 795.541 106.334 796.288 104.35 796.288C102.003 796.288 100.254 795.488 99.1018 793.888C97.9498 792.288 97.3738 790.293 97.3738 787.904C97.3738 784.448 98.3978 781.557 100.446 779.232C102.515 776.907 105.246 775.435 108.638 774.816L108.702 775.68C106.803 775.936 105.096 776.885 103.582 778.528C102.067 780.149 101.118 781.941 100.734 783.904L100.862 783.936C101.267 783.253 101.822 782.741 102.526 782.4C103.251 782.037 104.03 781.856 104.862 781.856ZM104.318 795.424C105.064 795.424 105.694 795.211 106.206 794.784C106.739 794.357 107.134 793.792 107.39 793.088C107.646 792.363 107.816 791.669 107.902 791.008C108.008 790.325 108.062 789.632 108.062 788.928C108.062 784.811 106.835 782.752 104.382 782.752C103.635 782.752 102.984 782.965 102.43 783.392C101.896 783.819 101.502 784.384 101.246 785.088C100.99 785.792 100.808 786.485 100.702 787.168C100.595 787.829 100.542 788.523 100.542 789.248C100.542 790.421 100.723 791.584 101.086 792.736C101.448 793.867 102.056 794.635 102.91 795.04C103.358 795.296 103.827 795.424 104.318 795.424ZM114.549 795.744C114.208 795.381 114.038 794.923 114.038 794.368C114.038 793.813 114.208 793.365 114.549 793.024C114.912 792.661 115.371 792.48 115.926 792.48C116.502 792.48 116.96 792.651 117.302 792.992C117.643 793.333 117.814 793.792 117.814 794.368C117.814 794.923 117.632 795.381 117.27 795.744C116.928 796.085 116.48 796.256 115.926 796.256C115.371 796.256 114.912 796.085 114.549 795.744ZM128.622 781.12C130.969 781.12 132.761 781.803 133.998 783.168C135.257 784.533 135.886 786.379 135.886 788.704C135.886 790.901 135.204 792.715 133.838 794.144C132.494 795.552 130.745 796.256 128.59 796.256C126.244 796.256 124.334 795.573 122.862 794.208C121.412 792.821 120.686 790.987 120.686 788.704C120.686 786.443 121.444 784.619 122.958 783.232C124.494 781.824 126.382 781.12 128.622 781.12ZM129.646 795.168C131.268 795.168 132.548 794.517 133.486 793.216C134.425 791.893 134.894 790.389 134.894 788.704C134.894 785.589 133.753 783.52 131.47 782.496C130.788 782.24 130.105 782.112 129.422 782.112C127.63 782.112 126.265 782.752 125.326 784.032C124.409 785.312 123.95 786.869 123.95 788.704C123.95 790.517 124.462 792.053 125.486 793.312C126.51 794.549 127.897 795.168 129.646 795.168ZM137.964 782.624V781.76H145.804V782.624H143.404V795.136H145.804V796H137.964V795.136H140.364V782.624H137.964ZM149.049 795.744C148.708 795.381 148.538 794.923 148.538 794.368C148.538 793.813 148.708 793.365 149.049 793.024C149.412 792.661 149.871 792.48 150.426 792.48C151.002 792.48 151.46 792.651 151.802 792.992C152.143 793.333 152.314 793.792 152.314 794.368C152.314 794.923 152.132 795.381 151.77 795.744C151.428 796.085 150.98 796.256 150.426 796.256C149.871 796.256 149.412 796.085 149.049 795.744ZM166.162 786.304C166.162 787.733 165.533 789.152 164.274 790.56C163.037 791.968 161.682 792.928 160.21 793.44H165.234L166.962 789.632H167.826L166.962 796H155.186V795.232C157.213 794.805 159.016 793.824 160.594 792.288C162.194 790.752 162.994 789.003 162.994 787.04C162.994 785.867 162.706 784.928 162.13 784.224C161.576 783.499 160.722 783.136 159.57 783.136C158.589 783.136 157.789 783.424 157.17 784C156.573 784.576 156.274 785.344 156.274 786.304C156.274 786.752 156.317 787.093 156.402 787.328C156.701 786.88 157.117 786.656 157.65 786.656C158.12 786.656 158.504 786.805 158.802 787.104C159.058 787.403 159.186 787.765 159.186 788.192C159.186 788.597 159.037 788.949 158.738 789.248C158.44 789.547 158.077 789.696 157.65 789.696C157.288 789.696 156.957 789.6 156.658 789.408C155.762 788.917 155.314 787.925 155.314 786.432C155.314 784.896 155.848 783.68 156.914 782.784C158.002 781.888 159.314 781.44 160.85 781.44C162.429 781.44 163.709 781.877 164.69 782.752C165.672 783.605 166.162 784.789 166.162 786.304ZM178.529 781.12C180.875 781.12 182.667 781.803 183.905 783.168C185.163 784.533 185.793 786.379 185.793 788.704C185.793 790.901 185.11 792.715 183.745 794.144C182.401 795.552 180.651 796.256 178.497 796.256C176.15 796.256 174.241 795.573 172.769 794.208C171.318 792.821 170.593 790.987 170.593 788.704C170.593 786.443 171.35 784.619 172.865 783.232C174.401 781.824 176.289 781.12 178.529 781.12ZM179.553 795.168C181.174 795.168 182.454 794.517 183.393 793.216C184.331 791.893 184.801 790.389 184.801 788.704C184.801 785.589 183.659 783.52 181.377 782.496C180.694 782.24 180.011 782.112 179.329 782.112C177.537 782.112 176.171 782.752 175.233 784.032C174.315 785.312 173.857 786.869 173.857 788.704C173.857 790.517 174.369 792.053 175.393 793.312C176.417 794.549 177.803 795.168 179.553 795.168ZM195.966 781.12C198.313 781.12 200.105 781.803 201.342 783.168C202.601 784.533 203.23 786.379 203.23 788.704C203.23 790.901 202.547 792.715 201.182 794.144C199.838 795.552 198.089 796.256 195.934 796.256C193.587 796.256 191.678 795.573 190.206 794.208C188.755 792.821 188.03 790.987 188.03 788.704C188.03 786.443 188.787 784.619 190.302 783.232C191.838 781.824 193.726 781.12 195.966 781.12ZM196.99 795.168C198.611 795.168 199.891 794.517 200.83 793.216C201.769 791.893 202.238 790.389 202.238 788.704C202.238 785.589 201.097 783.52 198.814 782.496C198.131 782.24 197.449 782.112 196.766 782.112C194.974 782.112 193.609 782.752 192.67 784.032C191.753 785.312 191.294 786.869 191.294 788.704C191.294 790.517 191.806 792.053 192.83 793.312C193.854 794.549 195.241 795.168 196.99 795.168ZM205.404 797.408C205.404 796.917 205.564 796.48 205.884 796.096C206.225 795.733 206.641 795.552 207.132 795.552C207.622 795.552 207.996 795.691 208.252 795.968C208.486 796.267 208.604 796.619 208.604 797.024C208.604 797.472 208.465 797.856 208.188 798.176C207.91 798.496 207.548 798.656 207.1 798.656C206.972 798.656 206.844 798.635 206.716 798.592C207.42 799.808 208.593 800.416 210.236 800.416C211.217 800.416 212.028 800.096 212.668 799.456C213.329 798.837 213.766 798.112 213.98 797.28C214.214 796.469 214.332 795.584 214.332 794.624C214.332 793.216 214.001 791.989 213.34 790.944C212.678 789.877 211.686 789.344 210.364 789.344C208.721 789.344 207.718 790.08 207.356 791.552H206.748V781.312H214.556L215.9 778.048H216.764L215.932 783.872H207.644V789.6C208.497 788.747 209.681 788.32 211.196 788.32C213.18 788.32 214.737 788.821 215.868 789.824C217.02 790.827 217.596 792.299 217.596 794.24C217.596 796.395 216.924 798.112 215.58 799.392C214.257 800.693 212.529 801.344 210.396 801.344C209.116 801.344 207.964 800.992 206.94 800.288C205.916 799.584 205.404 798.624 205.404 797.408Z" fill="black"/>
<path d="M94.768 824.856C96.56 824.856 98.0533 825.453 99.248 826.648C100.464 827.992 101.072 829.677 101.072 831.704C101.072 833.752 100.432 835.533 99.152 837.048C97.872 838.541 96.24 839.288 94.256 839.288C91.9093 839.288 90.16 838.488 89.008 836.888C87.856 835.288 87.28 833.293 87.28 830.904C87.28 827.448 88.304 824.557 90.352 822.232C92.4213 819.907 95.152 818.435 98.544 817.816L98.608 818.68C96.7093 818.936 95.0027 819.885 93.488 821.528C91.9733 823.149 91.024 824.941 90.64 826.904L90.768 826.936C91.1733 826.253 91.728 825.741 92.432 825.4C93.1573 825.037 93.936 824.856 94.768 824.856ZM94.224 838.424C94.9707 838.424 95.6 838.211 96.112 837.784C96.6453 837.357 97.04 836.792 97.296 836.088C97.552 835.363 97.7227 834.669 97.808 834.008C97.9147 833.325 97.968 832.632 97.968 831.928C97.968 827.811 96.7413 825.752 94.288 825.752C93.5413 825.752 92.8907 825.965 92.336 826.392C91.8027 826.819 91.408 827.384 91.152 828.088C90.896 828.792 90.7147 829.485 90.608 830.168C90.5013 830.829 90.448 831.523 90.448 832.248C90.448 833.421 90.6293 834.584 90.992 835.736C91.3547 836.867 91.9627 837.635 92.816 838.04C93.264 838.296 93.7333 838.424 94.224 838.424ZM103.944 837.368C103.944 836.813 104.114 836.365 104.456 836.024C104.818 835.661 105.277 835.48 105.832 835.48C106.408 835.48 106.866 835.651 107.208 835.992C107.549 836.333 107.72 836.792 107.72 837.368C107.72 837.965 107.549 838.435 107.208 838.776C106.888 839.096 106.429 839.256 105.832 839.256C105.234 839.256 104.776 839.085 104.456 838.744C104.114 838.424 103.944 837.965 103.944 837.368ZM103.944 826.648C103.944 826.093 104.114 825.645 104.456 825.304C104.818 824.941 105.277 824.76 105.832 824.76C106.408 824.76 106.866 824.931 107.208 825.272C107.549 825.613 107.72 826.072 107.72 826.648C107.72 827.245 107.549 827.715 107.208 828.056C106.888 828.376 106.429 828.536 105.832 828.536C105.234 828.536 104.776 828.365 104.456 828.024C104.114 827.704 103.944 827.245 103.944 826.648ZM118.529 824.12C120.875 824.12 122.667 824.803 123.905 826.168C125.163 827.533 125.793 829.379 125.793 831.704C125.793 833.901 125.11 835.715 123.745 837.144C122.401 838.552 120.651 839.256 118.497 839.256C116.15 839.256 114.241 838.573 112.769 837.208C111.318 835.821 110.593 833.987 110.593 831.704C110.593 829.443 111.35 827.619 112.865 826.232C114.401 824.824 116.289 824.12 118.529 824.12ZM119.553 838.168C121.174 838.168 122.454 837.517 123.393 836.216C124.331 834.893 124.801 833.389 124.801 831.704C124.801 828.589 123.659 826.52 121.377 825.496C120.694 825.24 120.011 825.112 119.329 825.112C117.537 825.112 116.171 825.752 115.233 827.032C114.315 828.312 113.857 829.869 113.857 831.704C113.857 833.517 114.369 835.053 115.393 836.312C116.417 837.549 117.803 838.168 119.553 838.168ZM135.966 824.12C138.313 824.12 140.105 824.803 141.342 826.168C142.601 827.533 143.23 829.379 143.23 831.704C143.23 833.901 142.547 835.715 141.182 837.144C139.838 838.552 138.089 839.256 135.934 839.256C133.587 839.256 131.678 838.573 130.206 837.208C128.755 835.821 128.03 833.987 128.03 831.704C128.03 829.443 128.787 827.619 130.302 826.232C131.838 824.824 133.726 824.12 135.966 824.12ZM136.99 838.168C138.611 838.168 139.891 837.517 140.83 836.216C141.769 834.893 142.238 833.389 142.238 831.704C142.238 828.589 141.097 826.52 138.814 825.496C138.131 825.24 137.449 825.112 136.766 825.112C134.974 825.112 133.609 825.752 132.67 827.032C131.753 828.312 131.294 829.869 131.294 831.704C131.294 833.517 131.806 835.053 132.83 836.312C133.854 837.549 135.241 838.168 136.99 838.168ZM154.524 828.984C154.076 828.984 153.596 828.952 153.084 828.888C152.721 828.867 152.22 828.792 151.58 828.664V838.136H154.94V839H145.34V838.136H148.38V817.432H145.34V816.568H154.908C157.062 816.568 158.833 817.016 160.22 817.912C161.606 818.787 162.3 820.216 162.3 822.2C162.3 824.355 161.542 826.029 160.028 827.224C158.534 828.397 156.7 828.984 154.524 828.984ZM154.14 828.12C155.697 828.12 156.87 827.555 157.66 826.424C158.47 825.293 158.876 823.928 158.876 822.328C158.876 820.664 158.481 819.437 157.692 818.648C156.902 817.837 155.676 817.432 154.012 817.432H151.58V827.736C152.326 827.992 153.18 828.12 154.14 828.12ZM190.287 817.432H187.247V838.136H190.287V839H181.007V838.136H184.047V819.192L176.879 839.288H176.015L169.295 819.224V837.688L172.335 838.136V839H164.943V838.136L168.367 837.688V817.432H165.327V816.568H171.887L177.679 834.296L183.983 816.568H190.287V817.432Z" fill="black"/>
<path d="M128.68 77.56C128.92 78.28 129.04 79.1333 129.04 80.12C129.04 82.5733 128.147 84.56 126.36 86.08C124.573 87.5733 122.453 88.32 120 88.32C116.693 88.32 114.213 87.1467 112.56 84.8L112.2 88.36H110.76V78.4H112.08C112.267 80.88 112.96 82.9467 114.16 84.6C115.36 86.2267 117.12 87.04 119.44 87.04C120.987 87.04 122.213 86.5867 123.12 85.68C124.053 84.7733 124.52 83.5333 124.52 81.96C124.52 80.92 124.307 80.08 123.88 79.44C123.48 78.8 122.8 78.2267 121.84 77.72C121.653 77.6133 121.4 77.48 121.08 77.32C120.76 77.1333 120.533 77 120.4 76.92C119.973 76.7067 119.027 76.2267 117.56 75.48C114.867 74.2533 113.053 73.1067 112.12 72.04C110.84 70.76 110.2 69.1333 110.2 67.16C110.2 64.92 110.973 63.1067 112.52 61.72C114.067 60.3333 115.96 59.64 118.2 59.64C119.613 59.64 120.947 59.92 122.2 60.48C123.453 61.0133 124.427 61.8133 125.12 62.88L125.48 59.32H126.92V69.28H125.6C125.6 67.0133 125 65.0533 123.8 63.4C122.627 61.7467 120.973 60.92 118.84 60.92C117.56 60.92 116.533 61.32 115.76 62.12C114.987 62.8933 114.6 63.92 114.6 65.2C114.6 66.5867 115.053 67.7067 115.96 68.56C116.867 69.3867 118.093 70.16 119.64 70.88C120.173 71.2 120.627 71.44 121 71.6L122.28 72.24C123.88 72.96 125.213 73.72 126.28 74.52C127.373 75.32 128.173 76.3333 128.68 77.56ZM176.521 61.28V59.96H185.601V61.28L181.921 61.68L174.721 73.96V86.72H178.521V88H165.721V86.72H169.521V75.08L161.001 61.24H157.201V59.96H170.721V61.24H166.921L173.881 72.52L180.321 61.68L176.521 61.28ZM246.536 61.24H242.736V86.72H246.536V88H233.776V86.72H237.576V63.48L228.976 88.36H227.656L219.336 65.28V86.16L223.136 86.72V88H213.616V86.72L217.896 86.16V61.24H214.096V59.96H222.816L230.216 80.52L237.416 59.96H246.536V61.24ZM288.633 75.48C287.38 75.48 286.153 75.36 284.953 75.12V86.72H289.153V88H275.953V86.72H279.753V61.24H275.953V59.96H289.113C293.593 59.96 296.566 61.2 298.033 63.68C298.513 64.6133 298.753 65.72 298.753 67C298.753 69.72 297.766 71.8133 295.793 73.28C293.82 74.7467 291.433 75.48 288.633 75.48ZM287.913 74.2C289.726 74.2 291.1 73.4933 292.033 72.08C292.966 70.6667 293.433 69.0267 293.433 67.16C293.433 63.2133 291.54 61.24 287.753 61.24H284.953V73.8C285.726 74.0667 286.713 74.2 287.913 74.2ZM357.988 61.24H354.188V86.72H357.988V88H345.188V86.72H348.988V74.4H336.548V86.72H340.348V88H327.548V86.72H331.348V61.24H327.548V59.96H340.348V61.24H336.548V73.12H348.988V61.24H345.188V59.96H357.988V61.24ZM400.906 88.32C396.826 88.32 393.546 86.9733 391.066 84.28C388.613 81.5867 387.386 78.2133 387.386 74.16C387.386 70.0267 388.626 66.5733 391.106 63.8C393.613 61.0267 396.879 59.64 400.906 59.64C404.959 59.64 408.213 61.0267 410.666 63.8C413.146 66.5733 414.386 69.9867 414.386 74.04C414.386 77.9067 413.079 81.2533 410.466 84.08C407.879 86.9067 404.693 88.32 400.906 88.32ZM400.906 60.92C399.679 60.92 398.573 61.2267 397.586 61.84C396.599 62.4267 395.813 63.1867 395.226 64.12C394.639 65.0267 394.146 66.08 393.746 67.28C393.346 68.48 393.066 69.6533 392.906 70.8C392.773 71.92 392.706 73.04 392.706 74.16C392.706 76.56 393.093 78.88 393.866 81.12C394.639 83.3333 395.893 84.96 397.626 86C398.613 86.64 399.706 86.96 400.906 86.96C402.373 86.96 403.653 86.5467 404.746 85.72C405.866 84.8667 406.719 83.7733 407.306 82.44C407.919 81.08 408.359 79.7067 408.626 78.32C408.919 76.9333 409.066 75.5467 409.066 74.16C409.066 73.2267 409.013 72.2933 408.906 71.36C408.826 70.4267 408.666 69.4533 408.426 68.44C408.213 67.4 407.893 66.4533 407.466 65.6C407.039 64.72 406.533 63.92 405.946 63.2C405.386 62.48 404.666 61.92 403.786 61.52C402.933 61.12 401.973 60.92 400.906 60.92ZM453.332 88H444.412V86.72L448.172 86.32V61.24H444.372V59.96H453.172L465.452 79.12V61.6L461.652 61.24V59.96H470.652V61.24L466.852 61.6V88.32H465.452L449.572 63.68V86.32L453.332 86.72V88ZM518.124 61.28V59.96H527.204V61.28L523.524 61.68L516.324 73.96V86.72H520.124V88H507.324V86.72H511.124V75.08L502.604 61.24H498.804V59.96H512.324V61.24H508.524L515.484 72.52L521.924 61.68L518.124 61.28Z" fill="black"/>
<path d="M332.36 139.16C332.36 138.333 332.6 137.627 333.08 137.04C333.56 136.427 334.2 136.12 335 136.12C335.747 136.12 336.32 136.333 336.72 136.76C337.147 137.16 337.36 137.733 337.36 138.48C337.36 139.12 337.187 139.667 336.84 140.12C336.493 140.573 336 140.8 335.36 140.8C334.64 140.8 334.16 140.6 333.92 140.2C334.133 141.133 334.653 141.84 335.48 142.32C336.307 142.8 337.227 143.04 338.24 143.04C338.853 143.04 339.507 142.933 340.2 142.72C340.787 142.507 341.36 142.12 341.92 141.56C343.013 140.307 343.56 138.493 343.56 136.12C343.56 134.333 343.16 132.867 342.36 131.72C341.587 130.547 340.347 129.96 338.64 129.96C336.907 129.96 335.653 130.787 334.88 132.44H333.92V119.64H344.8L346.88 115.56H348.16L346.52 123.84H335.24V130.08C336.307 128.8 337.973 128.16 340.24 128.16C342.64 128.16 344.613 128.88 346.16 130.32C347.733 131.733 348.52 133.613 348.52 135.96C348.52 138.52 347.653 140.613 345.92 142.24C344.187 143.867 342.053 144.68 339.52 144.68C337.6 144.68 335.92 144.2 334.48 143.24C333.067 142.307 332.36 140.947 332.36 139.16Z" fill="black"/>
<path d="M279.506 117.127H275H274.75V117.377V118.111V118.361H275H279.483V144.639H275H274.75V144.889V145.623V145.873H275H286.128H286.378V145.623V144.889V144.639H286.128H280.929V119L301.558 146.151L301.633 146.25H301.757H303.004H303.254V146V118.361H307.875H308.125V118.111V117.377V117.127H307.875H296.747H296.497V117.377V118.111V118.361H296.747H301.83V139.052L285.52 117.227L285.445 117.127H285.32H280.929H280.679H280.01H279.506ZM308.505 120.155L308.505 120.155C307.823 121.264 307.486 122.594 307.486 124.137C307.486 125.68 307.823 127.017 308.504 128.137C309.183 129.252 310.13 130.104 311.332 130.689C312.534 131.274 313.933 131.562 315.517 131.562C317.101 131.562 318.506 131.274 319.723 130.69C320.942 130.105 321.896 129.253 322.575 128.137C323.257 127.017 323.593 125.68 323.593 124.137C323.593 122.594 323.257 121.262 322.575 120.155C321.895 119.052 320.941 118.207 319.723 117.622L319.615 117.847L319.723 117.622C318.506 117.038 317.101 116.75 315.517 116.75C313.933 116.75 312.534 117.038 311.332 117.623C310.13 118.207 309.184 119.053 308.505 120.155ZM309.749 134.118V134.368H309.999H321.08H321.33V134.118V133.402V133.152H321.08H309.999H309.749V133.402V134.118ZM311.911 124.137C311.911 122.008 312.214 120.397 312.795 119.281C313.08 118.732 313.447 118.332 313.892 118.067C314.337 117.802 314.876 117.664 315.517 117.664C316.165 117.664 316.709 117.802 317.159 118.067C317.607 118.332 317.976 118.733 318.261 119.281C318.842 120.397 319.145 122.008 319.145 124.137C319.145 126.279 318.842 127.9 318.261 129.022C317.976 129.573 317.607 129.976 317.158 130.242C316.709 130.509 316.165 130.647 315.517 130.647C314.876 130.647 314.338 130.509 313.893 130.242C313.448 129.976 313.081 129.574 312.795 129.022C312.214 127.9 311.911 126.279 311.911 124.137Z" fill="black" stroke="black" stroke-width="0.5"/>
<defs>
<clipPath id="clip0_114_13">
<rect width="542" height="569" fill="white" transform="translate(13 168)"/>
</clipPath>
</defs>
</svg>
