<svg width="622" height="626" viewBox="0 0 622 626" fill="none" xmlns="http://www.w3.org/2000/svg">
<rect x="2" y="2" width="618" height="622" stroke="black" stroke-width="4"/>
<rect x="18" y="15" width="586" height="591" stroke="black" stroke-width="4"/>
<g clip-path="url(#clip0_194_59)">
<rect x="568.247" y="102.711" width="18.8962" height="488.151" transform="rotate(25.9866 568.247 102.711)" fill="black"/>
<rect x="509.224" y="115.984" width="28.3443" height="488.151" transform="rotate(25.9866 509.224 115.984)" fill="black"/>
<rect x="440.328" y="127.946" width="37.7923" height="488.151" transform="rotate(25.9866 440.328 127.946)" fill="black"/>
<rect x="662.338" y="75" width="6.29872" height="456.658" transform="rotate(25.9866 662.338 75)" fill="black"/>
<rect x="622.988" y="83.8486" width="9.44809" height="488.151" transform="rotate(25.9866 622.988 83.8486)" fill="black"/>
<rect x="347.617" y="152.827" width="50.3898" height="491.301" transform="rotate(25.9866 347.617 152.827)" fill="black"/>
<rect x="246.414" y="173.568" width="59.8379" height="503.898" transform="rotate(25.9866 246.414 173.568)" fill="black"/>
<rect x="136.789" y="197.212" width="66.1366" height="503.898" transform="rotate(25.9866 136.789 197.212)" fill="black"/>
<path d="M65.104 75H44.88V72.952H50.96V32.184H44.88V30.136H64.72C75.1733 30.136 80.4 33.464 80.4 40.12C80.4 43.4053 79.2267 45.9653 76.88 47.8C74.5333 49.592 71.6107 50.6373 68.112 50.936V51.192C74.512 51.7893 78.7147 53.8373 80.72 57.336C81.36 58.616 81.68 60.1093 81.68 61.816C81.68 64.0773 81.1893 66.0827 80.208 67.832C79.2693 69.5813 77.9893 70.968 76.368 71.992C74.7893 72.9733 73.04 73.72 71.12 74.232C69.2427 74.744 67.2373 75 65.104 75ZM59.28 72.952H64.144C67.1733 72.952 69.4347 71.928 70.928 69.88C72.4213 67.7893 73.168 65.1653 73.168 62.008C73.168 55.5227 70.16 52.28 64.144 52.28H59.28V72.952ZM59.28 50.04H64.144C66.7893 50.04 68.7307 49.1653 69.968 47.416C71.248 45.624 71.888 43.3627 71.888 40.632C71.888 39.48 71.76 38.392 71.504 37.368C70.3947 33.912 67.8133 32.184 63.76 32.184H59.28V50.04ZM139.169 75H104.417V72.952H110.497V32.184H104.417V30.136H137.506V43.256H135.458L133.281 32.184H118.817V51.064H127.521L128.865 43.576H130.977V60.536H128.93L127.521 53.112H118.817V72.952H134.945L137.122 61.24H139.169V75ZM197.582 75H162.83V72.952H168.91V32.184H162.83V30.136H195.918V43.256H193.87L191.694 32.184H177.23V51.064H185.934L187.278 43.576H189.39V60.536H187.342L185.934 53.112H177.23V72.952H193.358L195.534 61.24H197.582V75ZM222.971 43.192H220.923V30.136H258.299V43.192H256.251L254.139 32.44H243.771V72.952H249.851V75H229.371V72.952H235.451V32.44H225.083L222.971 43.192ZM330.046 32.184H323.966V72.952H330.046V75H309.566V72.952H315.646V53.24H295.742V72.952H301.822V75H281.342V72.952H287.422V32.184H281.342V30.136H301.822V32.184H295.742V51.192H315.646V32.184H309.566V30.136H330.046V32.184ZM374.075 75.512C367.547 75.512 362.299 73.3573 358.331 69.048C354.405 64.7387 352.443 59.3413 352.443 52.856C352.443 46.2427 354.427 40.7173 358.395 36.28C362.405 31.8427 367.632 29.624 374.075 29.624C380.56 29.624 385.765 31.8427 389.691 36.28C393.659 40.7173 395.643 46.1787 395.643 52.664C395.643 58.8507 393.552 64.2053 389.371 68.728C385.232 73.2507 380.133 75.512 374.075 75.512ZM374.075 31.672C372.112 31.672 370.341 32.1627 368.763 33.144C367.184 34.0827 365.925 35.2987 364.987 36.792C364.048 38.2427 363.259 39.928 362.619 41.848C361.979 43.768 361.531 45.6453 361.275 47.48C361.061 49.272 360.955 51.064 360.955 52.856C360.955 56.696 361.573 60.408 362.811 63.992C364.048 67.5333 366.053 70.136 368.827 71.8C370.405 72.824 372.155 73.336 374.075 73.336C376.421 73.336 378.469 72.6747 380.219 71.352C382.011 69.9867 383.376 68.2373 384.315 66.104C385.296 63.928 386 61.7307 386.427 59.512C386.896 57.2933 387.131 55.0747 387.131 52.856C387.131 51.3627 387.045 49.8693 386.875 48.376C386.747 46.8827 386.491 45.3253 386.107 43.704C385.765 42.04 385.253 40.5253 384.571 39.16C383.888 37.752 383.077 36.472 382.139 35.32C381.243 34.168 380.091 33.272 378.683 32.632C377.317 31.992 375.781 31.672 374.075 31.672ZM445.88 32.184V30.136H460.536V32.184L454.456 32.824L439.992 75.512H437.752L420.28 32.184H414.2V30.136H435.192V32.184H429.112L441.464 63.8L451.96 32.824L445.88 32.184ZM514.832 75H480.08V72.952H486.16V32.184H480.08V30.136H513.168V43.256H511.12L508.944 32.184H494.48V51.064H503.184L504.528 43.576H506.64V60.536H504.592L503.184 53.112H494.48V72.952H510.608L512.784 61.24H514.832V75ZM552.828 75H538.556V72.952L544.572 72.312V32.184H538.492V30.136H552.572L572.22 60.792V32.76L566.14 32.184V30.136H580.54V32.184L574.46 32.76V75.512H572.22L546.812 36.088V72.312L552.828 72.952V75Z" fill="black"/>
<path d="M66.336 118H49.44V116.976H52.48V96.592H49.44V95.568H59.68V96.592H56.64V116.976H64.256L65.6 110.352H66.656L66.336 118ZM76.585 103.472C78.825 103.472 80.6917 104.155 82.185 105.52C83.6783 106.885 84.425 108.656 84.425 110.832C84.425 113.008 83.657 114.789 82.121 116.176C80.6063 117.563 78.761 118.256 76.585 118.256C74.3663 118.256 72.4997 117.563 70.985 116.176C69.4917 114.789 68.745 113.019 68.745 110.864C68.745 108.645 69.5023 106.864 71.017 105.52C72.5317 104.155 74.3877 103.472 76.585 103.472ZM76.553 117.232C77.2357 117.232 77.833 117.019 78.345 116.592C78.857 116.144 79.2303 115.579 79.465 114.896C79.721 114.213 79.9023 113.541 80.009 112.88C80.137 112.197 80.201 111.525 80.201 110.864C80.201 110.181 80.1477 109.52 80.041 108.88C79.9557 108.219 79.785 107.536 79.529 106.832C79.2943 106.128 78.921 105.563 78.409 105.136C77.9183 104.709 77.3103 104.496 76.585 104.496C75.881 104.496 75.273 104.709 74.761 105.136C74.2703 105.563 73.897 106.128 73.641 106.832C73.4063 107.515 73.2357 108.187 73.129 108.848C73.0223 109.509 72.969 110.181 72.969 110.864C72.969 111.547 73.0117 112.219 73.097 112.88C73.2037 113.52 73.3743 114.192 73.609 114.896C73.865 115.6 74.2383 116.165 74.729 116.592C75.241 117.019 75.849 117.232 76.553 117.232ZM102.651 108.112V116.976H105.051V118H96.4113V116.976H98.6513V108.432C98.6513 106.277 97.8726 105.2 96.3153 105.2C95.2059 105.2 94.3526 105.68 93.7552 106.64C93.1793 107.6 92.8913 108.677 92.8913 109.872V116.976H95.1313V118H86.4913V116.976H88.8913V104.784H86.4913V103.76H88.8913L92.8913 103.312V106.736C93.7659 104.56 95.4086 103.472 97.8193 103.472C98.4806 103.472 99.1313 103.557 99.7713 103.728C100.923 104.112 101.766 104.88 102.299 106.032C102.534 106.672 102.651 107.365 102.651 108.112ZM117.983 118.352V115.28C117.471 116.197 116.799 116.923 115.967 117.456C115.156 117.989 114.25 118.256 113.247 118.256C111.178 118.256 109.535 117.563 108.319 116.176C107.103 114.768 106.495 113.029 106.495 110.96C106.495 108.891 107.135 107.131 108.415 105.68C109.695 104.208 111.338 103.472 113.343 103.472C115.604 103.472 117.151 104.421 117.983 106.32V96.592H115.583V95.568H117.983L121.983 95.12V116.912H124.383V117.936H121.983L117.983 118.352ZM114.495 116.912C115.391 116.912 116.191 116.464 116.895 115.568C117.62 114.651 117.983 113.723 117.983 112.784V109.52C117.983 108.304 117.684 107.227 117.087 106.288C116.49 105.349 115.626 104.88 114.495 104.88C113.514 104.88 112.714 105.232 112.095 105.936C111.498 106.64 111.103 107.408 110.911 108.24C110.74 109.072 110.655 109.979 110.655 110.96C110.655 111.643 110.708 112.304 110.815 112.944C110.943 113.584 111.146 114.224 111.423 114.864C111.7 115.483 112.095 115.984 112.607 116.368C113.14 116.731 113.77 116.912 114.495 116.912ZM133.835 103.472C136.075 103.472 137.942 104.155 139.435 105.52C140.928 106.885 141.675 108.656 141.675 110.832C141.675 113.008 140.907 114.789 139.371 116.176C137.856 117.563 136.011 118.256 133.835 118.256C131.616 118.256 129.75 117.563 128.235 116.176C126.742 114.789 125.995 113.019 125.995 110.864C125.995 108.645 126.752 106.864 128.267 105.52C129.782 104.155 131.638 103.472 133.835 103.472ZM133.803 117.232C134.486 117.232 135.083 117.019 135.595 116.592C136.107 116.144 136.48 115.579 136.715 114.896C136.971 114.213 137.152 113.541 137.259 112.88C137.387 112.197 137.451 111.525 137.451 110.864C137.451 110.181 137.398 109.52 137.291 108.88C137.206 108.219 137.035 107.536 136.779 106.832C136.544 106.128 136.171 105.563 135.659 105.136C135.168 104.709 134.56 104.496 133.835 104.496C133.131 104.496 132.523 104.709 132.011 105.136C131.52 105.563 131.147 106.128 130.891 106.832C130.656 107.515 130.486 108.187 130.379 108.848C130.272 109.509 130.219 110.181 130.219 110.864C130.219 111.547 130.262 112.219 130.347 112.88C130.454 113.52 130.624 114.192 130.859 114.896C131.115 115.6 131.488 116.165 131.979 116.592C132.491 117.019 133.099 117.232 133.803 117.232ZM159.901 108.112V116.976H162.301V118H153.661V116.976H155.901V108.432C155.901 106.277 155.123 105.2 153.565 105.2C152.456 105.2 151.603 105.68 151.005 106.64C150.429 107.6 150.141 108.677 150.141 109.872V116.976H152.381V118H143.741V116.976H146.141V104.784H143.741V103.76H146.141L150.141 103.312V106.736C151.016 104.56 152.659 103.472 155.069 103.472C155.731 103.472 156.381 103.557 157.021 103.728C158.173 104.112 159.016 104.88 159.549 106.032C159.784 106.672 159.901 107.365 159.901 108.112ZM60.256 151.256C56.992 151.256 54.368 150.179 52.384 148.024C50.4213 145.869 49.44 143.171 49.44 139.928C49.44 136.621 50.432 133.859 52.416 131.64C54.4213 129.421 57.0347 128.312 60.256 128.312C63.4987 128.312 66.1013 129.421 68.064 131.64C70.048 133.859 71.04 136.589 71.04 139.832C71.04 142.925 69.9947 145.603 67.904 147.864C65.8347 150.125 63.2853 151.256 60.256 151.256ZM60.256 129.336C59.2747 129.336 58.3893 129.581 57.6 130.072C56.8107 130.541 56.1813 131.149 55.712 131.896C55.2427 132.621 54.848 133.464 54.528 134.424C54.208 135.384 53.984 136.323 53.856 137.24C53.7493 138.136 53.696 139.032 53.696 139.928C53.696 141.848 54.0053 143.704 54.624 145.496C55.2427 147.267 56.2453 148.568 57.632 149.4C58.4213 149.912 59.296 150.168 60.256 150.168C61.4293 150.168 62.4533 149.837 63.328 149.176C64.224 148.493 64.9067 147.619 65.376 146.552C65.8667 145.464 66.2187 144.365 66.432 143.256C66.6667 142.147 66.784 141.037 66.784 139.928C66.784 139.181 66.7413 138.435 66.656 137.688C66.592 136.941 66.464 136.163 66.272 135.352C66.1013 134.52 65.8453 133.763 65.504 133.08C65.1627 132.376 64.7573 131.736 64.288 131.16C63.84 130.584 63.264 130.136 62.56 129.816C61.8773 129.496 61.1093 129.336 60.256 129.336ZM79.8288 136.312V139.608C80.6181 137.517 82.0581 136.472 84.1488 136.472C85.0234 136.472 85.7488 136.749 86.3248 137.304C86.9221 137.837 87.2208 138.531 87.2208 139.384C87.2208 140.067 87.0288 140.643 86.6448 141.112C86.2821 141.56 85.7594 141.784 85.0768 141.784C84.4794 141.784 83.9781 141.613 83.5728 141.272C83.1674 140.931 82.9648 140.461 82.9648 139.864C82.9648 139.309 83.1354 138.851 83.4768 138.488C83.8394 138.104 84.3088 137.869 84.8848 137.784C84.6074 137.613 84.2661 137.528 83.8608 137.528C82.9221 137.528 82.1328 137.869 81.4928 138.552C80.8528 139.235 80.4154 140.003 80.1808 140.856C79.9461 141.709 79.8288 142.595 79.8288 143.512V149.976H82.5488V151H73.4288V149.976H75.8288V137.784H73.4288V136.76H75.8288L79.8288 136.312ZM100.815 147.064L101.647 147.544C101.114 148.717 100.335 149.624 99.311 150.264C98.287 150.904 97.1457 151.224 95.887 151.224C93.6897 151.224 91.9083 150.552 90.543 149.208C89.1777 147.864 88.495 146.115 88.495 143.96C88.495 141.656 89.199 139.832 90.607 138.488C92.015 137.144 93.8603 136.472 96.143 136.472C97.3803 136.472 98.5857 136.856 99.759 137.624C100.954 138.392 101.551 139.373 101.551 140.568C101.551 141.165 101.359 141.645 100.975 142.008C100.612 142.371 100.132 142.552 99.535 142.552C98.959 142.552 98.479 142.392 98.095 142.072C97.7323 141.731 97.551 141.283 97.551 140.728C97.551 140.195 97.7323 139.747 98.095 139.384C98.4577 139 98.9057 138.787 99.439 138.744C98.7777 137.933 97.8177 137.528 96.559 137.528C95.8123 137.528 95.1723 137.741 94.639 138.168C94.1057 138.573 93.7003 139.117 93.423 139.8C93.167 140.461 92.9857 141.123 92.879 141.784C92.7723 142.445 92.719 143.128 92.719 143.832C92.719 144.835 92.8363 145.773 93.071 146.648C93.327 147.501 93.7963 148.248 94.479 148.888C95.1617 149.528 96.015 149.848 97.039 149.848C97.871 149.848 98.6283 149.592 99.311 149.08C99.9937 148.547 100.495 147.875 100.815 147.064ZM119.464 141.24V149.976H121.864V151H113.224V149.976H115.464V141.432C115.464 140.301 115.282 139.469 114.92 138.936C114.536 138.445 113.938 138.2 113.128 138.2C112.658 138.2 112.21 138.317 111.784 138.552C111.122 138.957 110.61 139.576 110.248 140.408C109.885 141.24 109.704 142.083 109.704 142.936V149.976H111.944V151H103.304V149.976H105.704V129.592H103.304V128.568H105.704L109.704 128.12V139.704C110.258 138.573 110.952 137.752 111.784 137.24C112.616 136.707 113.661 136.44 114.92 136.44C116.434 136.44 117.565 136.867 118.312 137.72C119.08 138.552 119.464 139.725 119.464 141.24ZM130.603 136.472C132.608 136.472 134.187 137.059 135.339 138.232C136.491 139.384 137.067 140.941 137.067 142.904H127.563C127.541 143.011 127.531 143.192 127.531 143.448V144.024C127.531 145.645 127.883 147.021 128.587 148.152C129.291 149.261 130.389 149.816 131.883 149.816C132.757 149.816 133.536 149.571 134.219 149.08C134.923 148.568 135.456 147.896 135.819 147.064L136.619 147.64C136.128 148.771 135.36 149.667 134.315 150.328C133.269 150.968 132.117 151.288 130.859 151.288C128.619 151.288 126.805 150.616 125.419 149.272C124.032 147.907 123.339 146.125 123.339 143.928C123.339 141.773 124.021 139.992 125.387 138.584C126.752 137.176 128.491 136.472 130.603 136.472ZM127.659 141.88H132.907C132.757 140.003 132.299 138.68 131.531 137.912C131.189 137.613 130.795 137.464 130.347 137.464C129.003 137.464 128.107 138.936 127.659 141.88ZM149.747 136.76V141.464H148.723C148.616 140.291 148.168 139.352 147.379 138.648C146.611 137.923 145.651 137.56 144.499 137.56C143.88 137.56 143.39 137.72 143.027 138.04C142.664 138.36 142.483 138.819 142.483 139.416C142.483 139.992 142.643 140.44 142.963 140.76C143.347 141.229 144.307 141.72 145.843 142.232C148.019 142.979 149.374 143.619 149.907 144.152C150.163 144.408 150.376 144.76 150.547 145.208C150.675 145.613 150.739 146.125 150.739 146.744C150.739 148.195 150.216 149.315 149.171 150.104C148.126 150.872 146.867 151.256 145.395 151.256C143.475 151.256 142.046 150.605 141.107 149.304L140.787 151.16H139.763V146.008H140.787C141.214 148.227 142.259 149.56 143.923 150.008C144.371 150.157 144.862 150.232 145.395 150.232C146.099 150.232 146.654 150.051 147.059 149.688C147.486 149.325 147.699 148.803 147.699 148.12C147.699 147.245 147.155 146.605 146.067 146.2C145.896 146.115 145.662 146.019 145.363 145.912C145.086 145.784 144.904 145.699 144.819 145.656C144.456 145.528 144.136 145.4 143.859 145.272C143.518 145.165 143.219 145.037 142.963 144.888C142.942 144.867 142.792 144.803 142.515 144.696C142.259 144.589 142.046 144.493 141.875 144.408C140.232 143.597 139.411 142.339 139.411 140.632C139.411 139.267 139.88 138.243 140.819 137.56C141.758 136.877 142.931 136.536 144.339 136.536C145.15 136.536 145.939 136.675 146.707 136.952C147.475 137.229 148.062 137.645 148.467 138.2L148.723 136.76H149.747ZM155.305 147.544V137.784H152.265V136.76H155.337L158.281 131.992H159.305V136.76H163.369V137.784H159.305V147.096C159.305 147.907 159.465 148.536 159.785 148.984C160.062 149.453 160.521 149.688 161.161 149.688C162.078 149.688 162.846 149.165 163.465 148.12L164.137 148.824C162.985 150.445 161.449 151.256 159.529 151.256C158.249 151.256 157.225 150.947 156.457 150.328C155.689 149.709 155.305 148.781 155.305 147.544ZM172.298 136.312V139.608C173.087 137.517 174.527 136.472 176.618 136.472C177.492 136.472 178.218 136.749 178.794 137.304C179.391 137.837 179.69 138.531 179.69 139.384C179.69 140.067 179.498 140.643 179.114 141.112C178.751 141.56 178.228 141.784 177.546 141.784C176.948 141.784 176.447 141.613 176.042 141.272C175.636 140.931 175.434 140.461 175.434 139.864C175.434 139.309 175.604 138.851 175.946 138.488C176.308 138.104 176.778 137.869 177.354 137.784C177.076 137.613 176.735 137.528 176.33 137.528C175.391 137.528 174.602 137.869 173.962 138.552C173.322 139.235 172.884 140.003 172.65 140.856C172.415 141.709 172.298 142.595 172.298 143.512V149.976H175.018V151H165.898V149.976H168.298V137.784H165.898V136.76H168.298L172.298 136.312ZM185.843 143.224C187.165 143.224 188.243 143.384 189.075 143.704V139.736C189.075 138.904 188.893 138.317 188.531 137.976C188.168 137.635 187.571 137.464 186.739 137.464C186.205 137.464 185.704 137.528 185.235 137.656C184.744 137.827 184.339 138.019 184.019 138.232C184.509 138.317 184.915 138.52 185.235 138.84C185.555 139.16 185.715 139.565 185.715 140.056C185.715 140.653 185.533 141.133 185.171 141.496C184.808 141.859 184.317 142.04 183.699 142.04C183.037 142.04 182.547 141.837 182.227 141.432C181.885 141.069 181.715 140.6 181.715 140.024C181.715 139.192 182.045 138.499 182.707 137.944C183.389 137.368 184.136 136.984 184.947 136.792C185.757 136.579 186.579 136.472 187.411 136.472C188.904 136.472 190.216 136.771 191.347 137.368C192.499 137.944 193.075 138.893 193.075 140.216V148.44C193.075 149.357 193.416 149.816 194.099 149.816C194.419 149.816 194.717 149.699 194.995 149.464C195.229 149.251 195.421 149.027 195.571 148.792L196.083 149.432C195.272 150.648 194.088 151.256 192.531 151.256C191.699 151.256 191.016 151.107 190.483 150.808C189.885 150.509 189.469 150.093 189.235 149.56C187.955 150.712 186.451 151.288 184.723 151.288C183.443 151.288 182.387 150.947 181.555 150.264C180.744 149.581 180.339 148.611 180.339 147.352C180.339 145.923 180.872 144.877 181.939 144.216C183.027 143.555 184.328 143.224 185.843 143.224ZM184.499 146.968C184.499 147.864 184.733 148.536 185.203 148.984C185.651 149.453 186.205 149.688 186.867 149.688C187.4 149.688 187.837 149.581 188.179 149.368C188.605 149.133 188.904 148.931 189.075 148.76V144.664C188.563 144.344 187.944 144.184 187.219 144.184C186.365 144.184 185.693 144.44 185.203 144.952C184.733 145.443 184.499 146.115 184.499 146.968Z" fill="black"/>
<path d="M521.96 536.784V535.76H530.76V536.784H528.36V548.976H530.76V550H521.96V548.976H524.36V536.784H521.96ZM540.903 535.856C542.865 535.856 544.487 536.464 545.767 537.68C547.068 538.875 547.719 540.432 547.719 542.352C547.719 544.485 547.004 546.341 545.575 547.92C544.167 549.499 542.407 550.288 540.295 550.288C537.969 550.288 536.135 549.477 534.791 547.856C533.468 546.235 532.807 544.251 532.807 541.904C532.807 538.469 533.916 535.589 536.135 533.264C538.353 530.939 541.169 529.456 544.583 528.816L544.647 529.84C542.769 530.096 541.095 531.024 539.623 532.624C538.151 534.203 537.223 535.963 536.839 537.904L536.967 537.936C537.777 536.549 539.089 535.856 540.903 535.856ZM538.503 548.624C538.993 549.051 539.58 549.264 540.263 549.264C540.945 549.264 541.532 549.061 542.023 548.656C542.513 548.229 542.876 547.675 543.111 546.992C543.367 546.309 543.537 545.659 543.623 545.04C543.729 544.4 543.783 543.76 543.783 543.12C543.783 542.501 543.729 541.872 543.623 541.232C543.537 540.592 543.377 539.931 543.143 539.248C542.908 538.565 542.545 538.011 542.055 537.584C541.585 537.136 541.009 536.912 540.327 536.912C539.665 536.912 539.079 537.125 538.567 537.552C538.076 537.957 537.703 538.501 537.447 539.184C537.212 539.845 537.041 540.507 536.935 541.168C536.828 541.808 536.775 542.448 536.775 543.088C536.775 543.728 536.817 544.368 536.903 545.008C537.009 545.627 537.18 546.277 537.415 546.96C537.649 547.643 538.012 548.197 538.503 548.624ZM550.221 547.952C550.221 547.269 550.435 546.715 550.861 546.288C551.288 545.861 551.843 545.648 552.525 545.648C553.165 545.648 553.72 545.861 554.189 546.288C554.616 546.757 554.829 547.312 554.829 547.952C554.829 548.635 554.605 549.189 554.157 549.616C553.731 550.043 553.187 550.256 552.525 550.256C551.843 550.256 551.299 550.053 550.893 549.648C550.445 549.264 550.221 548.699 550.221 547.952ZM565.785 535.12C568.196 535.12 570.041 535.792 571.321 537.136C572.601 538.48 573.241 540.336 573.241 542.704C573.241 544.923 572.527 546.736 571.097 548.144C569.689 549.552 567.897 550.256 565.721 550.256C563.268 550.256 561.273 549.595 559.737 548.272C558.223 546.928 557.465 545.072 557.465 542.704C557.465 540.315 558.255 538.459 559.833 537.136C561.412 535.792 563.396 535.12 565.785 535.12ZM566.873 549.008C568.452 549.008 569.711 548.368 570.649 547.088C571.588 545.808 572.057 544.347 572.057 542.704C572.057 540.976 571.609 539.483 570.713 538.224C569.839 536.944 568.58 536.304 566.937 536.304C565.231 536.304 563.919 536.933 563.001 538.192C562.105 539.451 561.657 540.955 561.657 542.704C561.657 544.453 562.116 545.947 563.033 547.184C563.951 548.4 565.231 549.008 566.873 549.008ZM574.991 536.784V535.76H583.791V536.784H581.391V548.976H583.791V550H574.991V548.976H577.391V536.784H574.991ZM530.184 568.856C532.147 568.856 533.768 569.464 535.048 570.68C536.349 571.875 537 573.432 537 575.352C537 577.485 536.285 579.341 534.856 580.92C533.448 582.499 531.688 583.288 529.576 583.288C527.251 583.288 525.416 582.477 524.072 580.856C522.749 579.235 522.088 577.251 522.088 574.904C522.088 571.469 523.197 568.589 525.416 566.264C527.635 563.939 530.451 562.456 533.864 561.816L533.928 562.84C532.051 563.096 530.376 564.024 528.904 565.624C527.432 567.203 526.504 568.963 526.12 570.904L526.248 570.936C527.059 569.549 528.371 568.856 530.184 568.856ZM527.784 581.624C528.275 582.051 528.861 582.264 529.544 582.264C530.227 582.264 530.813 582.061 531.304 581.656C531.795 581.229 532.157 580.675 532.392 579.992C532.648 579.309 532.819 578.659 532.904 578.04C533.011 577.4 533.064 576.76 533.064 576.12C533.064 575.501 533.011 574.872 532.904 574.232C532.819 573.592 532.659 572.931 532.424 572.248C532.189 571.565 531.827 571.011 531.336 570.584C530.867 570.136 530.291 569.912 529.608 569.912C528.947 569.912 528.36 570.125 527.848 570.552C527.357 570.957 526.984 571.501 526.728 572.184C526.493 572.845 526.323 573.507 526.216 574.168C526.109 574.808 526.056 575.448 526.056 576.088C526.056 576.728 526.099 577.368 526.184 578.008C526.291 578.627 526.461 579.277 526.696 579.96C526.931 580.643 527.293 581.197 527.784 581.624ZM539.503 580.952C539.503 580.269 539.716 579.715 540.143 579.288C540.569 578.861 541.124 578.648 541.807 578.648C542.468 578.648 543.012 578.861 543.439 579.288C543.887 579.715 544.111 580.269 544.111 580.952C544.111 581.677 543.908 582.243 543.503 582.648C543.097 583.053 542.532 583.256 541.807 583.256C541.06 583.256 540.484 583.053 540.079 582.648C539.695 582.243 539.503 581.677 539.503 580.952ZM539.567 571.032C539.567 570.349 539.769 569.805 540.174 569.4C540.601 568.973 541.156 568.76 541.839 568.76C542.543 568.76 543.097 568.963 543.503 569.368C543.929 569.773 544.143 570.328 544.143 571.032C544.143 571.757 543.94 572.323 543.535 572.728C543.129 573.133 542.564 573.336 541.839 573.336C541.113 573.336 540.548 573.133 540.143 572.728C539.759 572.323 539.567 571.757 539.567 571.032ZM555.098 568.12C557.508 568.12 559.354 568.792 560.634 570.136C561.914 571.48 562.554 573.336 562.554 575.704C562.554 577.923 561.839 579.736 560.41 581.144C559.002 582.552 557.21 583.256 555.034 583.256C552.58 583.256 550.586 582.595 549.05 581.272C547.535 579.928 546.778 578.072 546.778 575.704C546.778 573.315 547.567 571.459 549.146 570.136C550.724 568.792 552.708 568.12 555.098 568.12ZM556.186 582.008C557.764 582.008 559.023 581.368 559.962 580.088C560.9 578.808 561.37 577.347 561.37 575.704C561.37 573.976 560.922 572.483 560.026 571.224C559.151 569.944 557.892 569.304 556.25 569.304C554.543 569.304 553.231 569.933 552.314 571.192C551.418 572.451 550.97 573.955 550.97 575.704C550.97 577.453 551.428 578.947 552.346 580.184C553.263 581.4 554.543 582.008 556.186 582.008ZM572.848 568.12C575.258 568.12 577.104 568.792 578.384 570.136C579.664 571.48 580.304 573.336 580.304 575.704C580.304 577.923 579.589 579.736 578.16 581.144C576.752 582.552 574.96 583.256 572.784 583.256C570.33 583.256 568.336 582.595 566.8 581.272C565.285 579.928 564.528 578.072 564.528 575.704C564.528 573.315 565.317 571.459 566.896 570.136C568.474 568.792 570.458 568.12 572.848 568.12ZM573.936 582.008C575.514 582.008 576.773 581.368 577.712 580.088C578.65 578.808 579.12 577.347 579.12 575.704C579.12 573.976 578.672 572.483 577.776 571.224C576.901 569.944 575.642 569.304 574 569.304C572.293 569.304 570.981 569.933 570.064 571.192C569.168 572.451 568.72 573.955 568.72 575.704C568.72 577.453 569.178 578.947 570.096 580.184C571.013 581.4 572.293 582.008 573.936 582.008Z" fill="black"/>
</g>
<defs>
<clipPath id="clip0_194_59">
<rect width="586" height="593" fill="white" transform="translate(20 13)"/>
</clipPath>
</defs>
</svg>
