<svg width="622" height="943" viewBox="0 0 622 943" fill="none" xmlns="http://www.w3.org/2000/svg">
<rect x="9.86851" y="14.2721" width="602.22" height="913.419" fill="black" stroke="black" stroke-width="2.12423"/>
<rect x="2.25666" y="2.25666" width="617.487" height="937.778" stroke="black" stroke-width="4.51331"/>
<path d="M65.1049 795.061H39.8411V792.502H47.4362V741.575H39.8411V739.017H64.6252C77.6834 739.017 84.2126 743.174 84.2126 751.489C84.2126 755.593 82.7468 758.791 79.8154 761.082C76.8839 763.321 73.233 764.627 68.8624 765V765.32C76.8573 766.066 82.1072 768.624 84.6123 772.995C85.4118 774.594 85.8115 776.459 85.8115 778.591C85.8115 781.416 85.1986 783.921 83.9727 786.106C82.8001 788.292 81.2012 790.024 79.1758 791.303C77.2037 792.529 75.0185 793.462 72.62 794.101C70.2749 794.741 67.7698 795.061 65.1049 795.061ZM57.8295 792.502H63.9056C67.6899 792.502 70.5147 791.223 72.3802 788.665C74.2456 786.053 75.1784 782.775 75.1784 778.831C75.1784 770.73 71.4208 766.679 63.9056 766.679H57.8295V792.502ZM57.8295 763.881H63.9056C67.2102 763.881 69.6353 762.788 71.1809 760.603C72.7799 758.364 73.5794 755.539 73.5794 752.128C73.5794 750.689 73.4195 749.33 73.0997 748.051C71.7139 743.734 68.4893 741.575 63.4259 741.575H57.8295V763.881ZM141.238 795.061H97.8257V792.502H105.421V741.575H97.8257V739.017H139.159V755.406H136.601L133.882 741.575H115.814V765.16H126.687L128.366 755.806H131.004V776.992H128.446L126.687 767.718H115.814V792.502H135.961L138.679 777.872H141.238V795.061ZM197.817 795.061H154.405V792.502H162V741.575H154.405V739.017H195.738V755.406H193.18L190.462 741.575H172.393V765.16H183.266L184.945 755.806H187.584V776.992H185.025L183.266 767.718H172.393V792.502H192.54L195.259 777.872H197.817V795.061ZM213.143 755.326H210.584V739.017H257.274V755.326H254.716L252.078 741.895H239.126V792.502H246.721V795.061H221.138V792.502H228.733V741.895H215.781L213.143 755.326ZM330.512 741.575H322.917V792.502H330.512V795.061H304.929V792.502H312.524V767.878H287.66V792.502H295.255V795.061H269.671V792.502H277.267V741.575H269.671V739.017H295.255V741.575H287.66V765.32H312.524V741.575H304.929V739.017H330.512V741.575ZM369.122 795.7C360.968 795.7 354.412 793.009 349.455 787.625C344.552 782.242 342.1 775.5 342.1 767.398C342.1 759.137 344.578 752.235 349.535 746.692C354.545 741.149 361.074 738.377 369.122 738.377C377.224 738.377 383.726 741.149 388.63 746.692C393.587 752.235 396.065 759.057 396.065 767.158C396.065 774.887 393.453 781.576 388.23 787.226C383.06 792.875 376.691 795.7 369.122 795.7ZM369.122 740.935C366.671 740.935 364.459 741.548 362.487 742.774C360.515 743.947 358.942 745.466 357.77 747.331C356.597 749.143 355.611 751.249 354.812 753.647C354.012 756.046 353.453 758.391 353.133 760.683C352.866 762.921 352.733 765.16 352.733 767.398C352.733 772.195 353.506 776.832 355.052 781.309C356.597 785.733 359.102 788.984 362.567 791.063C364.539 792.342 366.724 792.982 369.122 792.982C372.054 792.982 374.612 792.156 376.798 790.503C379.036 788.798 380.742 786.613 381.914 783.948C383.14 781.229 384.02 778.485 384.553 775.713C385.139 772.941 385.432 770.17 385.432 767.398C385.432 765.533 385.325 763.667 385.112 761.802C384.952 759.936 384.633 757.991 384.153 755.966C383.726 753.887 383.087 751.995 382.234 750.289C381.381 748.53 380.369 746.931 379.196 745.492C378.077 744.053 376.638 742.934 374.879 742.135C373.173 741.335 371.254 740.935 369.122 740.935ZM442.432 741.575V739.017H460.74V741.575L453.145 742.374L435.077 795.7H432.279L410.453 741.575H402.858V739.017H429.081V741.575H421.486L436.916 781.07L450.027 742.374L442.432 741.575ZM512.177 795.061H468.765V792.502H476.36V741.575H468.765V739.017H510.099V755.406H507.54L504.822 741.575H486.754V765.16H497.627L499.306 755.806H501.944V776.992H499.386L497.627 767.718H486.754V792.502H506.901L509.619 777.872H512.177V795.061ZM543.253 795.061H525.424V792.502L532.94 791.703V741.575H525.345V739.017H542.933L567.477 777.312V742.294L559.882 741.575V739.017H577.871V741.575L570.276 742.294V795.7H567.477L535.738 746.452V791.703L543.253 792.502V795.061Z" fill="white"/>
<path d="M36.1634 48.248H22.6521V47.5285H25.1838V30.2863H22.6521V29.5667H30.3538V30.2863H27.8221V47.5285H34.6177L35.737 41.9055H36.4299L36.1634 48.248ZM44.2829 36.1492C46.1129 36.1492 47.5697 36.7266 48.6535 37.8814C49.7372 39.0184 50.2791 40.4842 50.2791 42.2786C50.2791 44.073 49.7194 45.5564 48.6002 46.729C47.4809 47.8838 46.0418 48.4612 44.2829 48.4612C42.4175 48.4612 40.9517 47.9016 39.8858 46.7823C38.8198 45.6453 38.2868 44.1529 38.2868 42.3052C38.2868 40.493 38.8376 39.0184 39.9391 37.8814C41.0583 36.7266 42.5063 36.1492 44.2829 36.1492ZM44.2563 47.7417C44.8781 47.7417 45.4111 47.564 45.8553 47.2087C46.3172 46.8356 46.6636 46.3648 46.8946 45.7963C47.1256 45.21 47.2943 44.6326 47.4009 44.0641C47.5075 43.4778 47.5608 42.8915 47.5608 42.3052C47.5608 41.7011 47.5075 41.1149 47.4009 40.5463C47.3121 39.9778 47.1522 39.4004 46.9212 38.8141C46.708 38.2278 46.3705 37.757 45.9086 37.4017C45.4644 37.0464 44.9225 36.8687 44.2829 36.8687C43.6789 36.8687 43.1459 37.0552 42.684 37.4283C42.2398 37.7837 41.9022 38.2545 41.6713 38.8408C41.4403 39.4093 41.2715 39.9867 41.1649 40.573C41.0583 41.1593 41.005 41.7367 41.005 42.3052C41.005 43.9042 41.2893 45.1745 41.8578 46.1161C42.4264 47.1998 43.2258 47.7417 44.2563 47.7417ZM64.6771 40.0133V47.5285H66.6758V48.248H60.2799V47.5285H62.1454V40.1199C62.1454 38.3255 61.4081 37.4283 59.9335 37.4283C58.9919 37.4283 58.2368 37.837 57.6683 38.6542C57.0998 39.4537 56.8155 40.342 56.8155 41.3192V47.5285H58.681V48.248H52.2851V47.5285H54.2838V37.1085H52.2851V36.389H54.2838L56.8155 36.0159V38.9207C57.5439 37.073 58.9297 36.1492 60.9728 36.1492C63.4424 36.1492 64.6771 37.4372 64.6771 40.0133ZM77.4381 48.5412V45.9828C77.0117 46.7468 76.452 47.3508 75.7592 47.795C75.084 48.2392 74.329 48.4612 73.4939 48.4612C71.8239 48.4612 70.5092 47.875 69.5498 46.7024C68.6082 45.512 68.1374 44.073 68.1374 42.3852C68.1374 40.7151 68.6348 39.2583 69.6298 38.0146C70.6424 36.7532 71.9572 36.1225 73.5739 36.1225C75.4038 36.1225 76.6919 36.9131 77.4381 38.4943V30.2863H75.4394V29.5667H77.4381L79.9698 29.1936V47.4752H81.9685V48.1947H79.9698L77.4381 48.5412ZM74.2668 47.342C74.9241 47.342 75.5104 47.111 76.0256 46.6491C76.5586 46.1871 76.9584 45.6275 77.2249 44.9702C77.367 44.5438 77.4381 44.1884 77.4381 43.9042V41.1593C77.4381 40.6973 77.367 40.2265 77.2249 39.7468C76.9051 38.823 76.3543 38.1123 75.5726 37.6149C75.164 37.4017 74.7287 37.2951 74.2668 37.2951C73.645 37.2951 73.0942 37.455 72.6145 37.7748C72.1526 38.0946 71.7973 38.521 71.5485 39.054C71.2998 39.5692 71.1133 40.1111 70.9889 40.6796C70.8645 41.2481 70.8023 41.8166 70.8023 42.3852C70.8023 43.1846 70.9089 43.9397 71.1221 44.6504C71.3353 45.361 71.7084 45.9917 72.2414 46.5425C72.7922 47.0755 73.4673 47.342 74.2668 47.342ZM89.5663 36.1492C91.3963 36.1492 92.8531 36.7266 93.9368 37.8814C95.0206 39.0184 95.5625 40.4842 95.5625 42.2786C95.5625 44.073 95.0028 45.5564 93.8835 46.729C92.7643 47.8838 91.3252 48.4612 89.5663 48.4612C87.7009 48.4612 86.2351 47.9016 85.1691 46.7823C84.1032 45.6453 83.5702 44.1529 83.5702 42.3052C83.5702 40.493 84.1209 39.0184 85.2224 37.8814C86.3417 36.7266 87.7897 36.1492 89.5663 36.1492ZM89.5397 47.7417C90.1615 47.7417 90.6945 47.564 91.1386 47.2087C91.6006 46.8356 91.947 46.3648 92.178 45.7963C92.4089 45.21 92.5777 44.6326 92.6843 44.0641C92.7909 43.4778 92.8442 42.8915 92.8442 42.3052C92.8442 41.7011 92.7909 41.1149 92.6843 40.5463C92.5955 39.9778 92.4356 39.4004 92.2046 38.8141C91.9914 38.2278 91.6539 37.757 91.1919 37.4017C90.7478 37.0464 90.2059 36.8687 89.5663 36.8687C88.9623 36.8687 88.4293 37.0552 87.9673 37.4283C87.5232 37.7837 87.1856 38.2545 86.9547 38.8408C86.7237 39.4093 86.5549 39.9867 86.4483 40.573C86.3417 41.1593 86.2884 41.7367 86.2884 42.3052C86.2884 43.9042 86.5727 45.1745 87.1412 46.1161C87.7097 47.1998 88.5092 47.7417 89.5397 47.7417ZM109.96 40.0133V47.5285H111.959V48.248H105.563V47.5285H107.429V40.1199C107.429 38.3255 106.691 37.4283 105.217 37.4283C104.275 37.4283 103.52 37.837 102.952 38.6542C102.383 39.4537 102.099 40.342 102.099 41.3192V47.5285H103.964V48.248H97.5685V47.5285H99.5672V37.1085H97.5685V36.389H99.5672L102.099 36.0159V38.9207C102.827 37.073 104.213 36.1492 106.256 36.1492C108.726 36.1492 109.96 37.4372 109.96 40.0133ZM29.9274 66.9067C29.5543 66.9067 29.1545 66.8801 28.7281 66.8268C28.4261 66.809 28.0086 66.7468 27.4756 66.6402V74.5285H30.2738V75.248H22.279V74.5285H24.8107V57.2863H22.279V56.5667H30.2472C32.0416 56.5667 33.5162 56.9398 34.671 57.686C35.8258 58.4144 36.4032 59.6048 36.4032 61.257C36.4032 63.0514 35.7725 64.4461 34.5111 65.441C33.2675 66.4182 31.7395 66.9067 29.9274 66.9067ZM29.6076 66.1872C30.9045 66.1872 31.8817 65.7164 32.539 64.7748C33.2142 63.8332 33.5517 62.6961 33.5517 61.3636C33.5517 59.9779 33.223 58.9563 32.5657 58.2989C31.9083 57.6238 30.8868 57.2863 29.501 57.2863H27.4756V65.8674C28.0974 66.0806 28.8081 66.1872 29.6076 66.1872ZM50.6237 67.0133V74.5285H52.6224V75.248H46.2265V74.5285H48.0919V67.1466C48.0919 66.2583 47.932 65.592 47.6123 65.1479C47.2925 64.6859 46.7151 64.455 45.88 64.455C44.9207 64.455 44.1567 64.8636 43.5882 65.6809C43.0374 66.4981 42.762 67.4042 42.762 68.3991V74.5285H44.6275V75.248H38.2316V74.5285H40.2303V57.2863H38.2316V56.5667H40.2303L42.762 56.1936V66.0007C43.1529 65.0946 43.7125 64.3928 44.441 63.8953C45.1871 63.3801 46.0488 63.1225 47.026 63.1225C49.3711 63.1225 50.5704 64.4195 50.6237 67.0133ZM58.2673 60.1911C57.9652 60.5109 57.601 60.6708 57.1746 60.6708C56.7483 60.6708 56.3752 60.5197 56.0554 60.2177C55.7356 59.8979 55.5757 59.5159 55.5757 59.0718C55.5757 58.6276 55.7267 58.2634 56.0287 57.9792C56.3485 57.6949 56.7305 57.5528 57.1746 57.5528C57.6188 57.5528 57.983 57.6949 58.2673 57.9792C58.5693 58.2634 58.7203 58.6276 58.7203 59.0718C58.7203 59.4982 58.5693 59.8713 58.2673 60.1911ZM58.5071 63.0159V74.5285H60.5058V75.248H53.9767V74.5285H55.9754V64.1085H53.9767V63.389H55.9754L58.5071 63.0159ZM66.3635 56.3002V74.5285H68.3622V75.248H61.8331V74.5285H63.8318V57.2863H61.8331V56.5667H63.8585L66.3635 56.3002ZM82.2179 67.0133V74.5285H84.2166V75.248H77.8207V74.5285H79.6862V67.1466C79.6862 66.2583 79.5263 65.592 79.2065 65.1479C78.8867 64.6859 78.3093 64.455 77.4743 64.455C76.5149 64.455 75.751 64.8636 75.1824 65.6809C74.6317 66.4981 74.3563 67.4042 74.3563 68.3991V74.5285H76.2218V75.248H69.8259V74.5285H71.8246V57.2863H69.8259V56.5667H71.8246L74.3563 56.1936V66.0007C74.7472 65.0946 75.3068 64.3928 76.0352 63.8953C76.7814 63.3801 77.6431 63.1225 78.6202 63.1225C80.9654 63.1225 82.1646 64.4195 82.2179 67.0133ZM90.1547 68.7722C91.1496 68.7722 92.0024 68.9055 92.713 69.172V65.974C92.713 65.2456 92.5443 64.7126 92.2067 64.375C91.8869 64.0197 91.3628 63.842 90.6344 63.842C89.7638 63.842 89.0354 64.073 88.4491 64.5349C88.6801 64.606 88.911 64.757 89.142 64.988C89.3374 65.2367 89.4352 65.5565 89.4352 65.9474C89.4352 66.3382 89.3108 66.658 89.0621 66.9067C88.8133 67.1555 88.4935 67.2798 88.1027 67.2798C87.7118 67.2798 87.4009 67.1466 87.1699 66.8801C86.9212 66.6314 86.7968 66.3027 86.7968 65.8941C86.7968 65.0413 87.2677 64.375 88.2093 63.8953C89.1687 63.3979 90.128 63.1492 91.0874 63.1492C93.859 63.1492 95.2448 64.1796 95.2448 66.2405V73.2227C95.2448 73.9866 95.529 74.3686 96.0975 74.3686C96.364 74.3686 96.6128 74.2709 96.8437 74.0755C97.0214 73.8978 97.1813 73.7113 97.3234 73.5158L97.7498 73.9422C97.0569 74.9549 96.213 75.4612 95.2181 75.4612C94.7029 75.4612 94.241 75.3546 93.8323 75.1414C93.4237 74.946 93.095 74.5818 92.8463 74.0488C91.7448 75.0082 90.5367 75.4879 89.222 75.4879C88.2093 75.4879 87.3654 75.1947 86.6903 74.6085C86.0329 74.0044 85.7042 73.2049 85.7042 72.21C85.7042 71.0197 86.1306 70.1491 86.9834 69.5983C87.8539 69.0476 88.911 68.7722 90.1547 68.7722ZM88.3692 71.8902C88.3692 72.6364 88.5557 73.2227 88.9288 73.6491C89.3197 74.0755 89.8793 74.2887 90.6077 74.2887C91.0341 74.2887 91.4161 74.2087 91.7537 74.0488C92.0912 73.9245 92.411 73.7201 92.713 73.4359V69.8382C92.3755 69.7138 92.0379 69.6072 91.7004 69.5184C91.3806 69.4651 91.0252 69.4384 90.6344 69.4384C89.8882 69.4384 89.3197 69.6605 88.9288 70.1047C88.5557 70.5311 88.3692 71.1263 88.3692 71.8902ZM103.218 63.0159V65.974C103.929 64.0908 105.172 63.1492 106.949 63.1492C107.642 63.1492 108.219 63.3535 108.681 63.7621C109.143 64.1707 109.374 64.7215 109.374 65.4144C109.374 65.823 109.232 66.1783 108.948 66.4804C108.681 66.7646 108.344 66.9067 107.935 66.9067C107.562 66.9067 107.251 66.7913 107.002 66.5603C106.753 66.3116 106.629 66.0007 106.629 65.6276C106.629 64.9524 106.984 64.4461 107.695 64.1085C107.464 63.9664 107.18 63.8953 106.842 63.8953C105.723 63.8953 104.835 64.4461 104.177 65.5476C103.538 66.6314 103.218 67.7862 103.218 69.0121V74.5285H105.483V75.248H98.6875V74.5285H100.686V64.1085H98.6875V63.389H100.686L103.218 63.0159ZM130.328 67.573V74.5285H132.326V75.248H125.877V74.5285H127.743V67.7062C127.743 67.0844 127.698 66.5603 127.609 66.1339C127.538 65.7075 127.334 65.3167 126.996 64.9613C126.659 64.606 126.188 64.4283 125.584 64.4283C125.104 64.4283 124.687 64.5349 124.331 64.7481C123.248 65.4943 122.706 66.7113 122.706 68.3991V74.5285H124.571V75.248H118.309V74.5285H120.174V67.5197C120.174 66.9156 120.13 66.4093 120.041 66.0007C119.952 65.592 119.739 65.2278 119.401 64.908C119.082 64.5882 118.628 64.4283 118.042 64.4283C117.118 64.4283 116.399 64.8458 115.884 65.6809C115.386 66.4981 115.137 67.4042 115.137 68.3991V74.5285H117.003V75.248H110.607V74.5285H112.606V64.1085H110.607V63.389H112.632L115.137 63.0159V65.9207C115.866 64.073 117.198 63.1492 119.135 63.1492C121.089 63.1492 122.262 64.0641 122.653 65.8941C123.47 64.0641 124.802 63.1492 126.65 63.1492C129.102 63.1492 130.328 64.6238 130.328 67.573ZM139.794 63.1492C141.624 63.1492 143.081 63.7266 144.165 64.8814C145.249 66.0184 145.791 67.4842 145.791 69.2786C145.791 71.073 145.231 72.5564 144.112 73.729C142.992 74.8838 141.553 75.4612 139.794 75.4612C137.929 75.4612 136.463 74.9016 135.397 73.7823C134.331 72.6453 133.798 71.1529 133.798 69.3052C133.798 67.493 134.349 66.0184 135.451 64.8814C136.57 63.7266 138.018 63.1492 139.794 63.1492ZM139.768 74.7417C140.39 74.7417 140.923 74.564 141.367 74.2087C141.829 73.8356 142.175 73.3648 142.406 72.7963C142.637 72.21 142.806 71.6326 142.912 71.0641C143.019 70.4778 143.072 69.8915 143.072 69.3052C143.072 68.7011 143.019 68.1149 142.912 67.5463C142.824 66.9778 142.664 66.4004 142.433 65.8141C142.22 65.2278 141.882 64.757 141.42 64.4017C140.976 64.0464 140.434 63.8687 139.794 63.8687C139.19 63.8687 138.657 64.0552 138.195 64.4283C137.751 64.7837 137.414 65.2545 137.183 65.8408C136.952 66.4093 136.783 66.9867 136.676 67.573C136.57 68.1593 136.517 68.7367 136.517 69.3052C136.517 70.9042 136.801 72.1745 137.369 73.1161C137.938 74.1998 138.737 74.7417 139.768 74.7417ZM160.189 67.0133V74.5285H162.187V75.248H155.791V74.5285H157.657V67.1199C157.657 65.3255 156.92 64.4283 155.445 64.4283C154.503 64.4283 153.748 64.837 153.18 65.6542C152.611 66.4537 152.327 67.342 152.327 68.3192V74.5285H154.192V75.248H147.797V74.5285H149.795V64.1085H147.797V63.389H149.795L152.327 63.0159V65.9207C153.055 64.073 154.441 63.1492 156.484 63.1492C158.954 63.1492 160.189 64.4372 160.189 67.0133ZM167.806 60.1911C167.504 60.5109 167.14 60.6708 166.714 60.6708C166.287 60.6708 165.914 60.5197 165.594 60.2177C165.275 59.8979 165.115 59.5159 165.115 59.0718C165.115 58.6276 165.266 58.2634 165.568 57.9792C165.887 57.6949 166.269 57.5528 166.714 57.5528C167.158 57.5528 167.522 57.6949 167.806 57.9792C168.108 58.2634 168.259 58.6276 168.259 59.0718C168.259 59.4982 168.108 59.8713 167.806 60.1911ZM168.046 63.0159V74.5285H170.045V75.248H163.516V74.5285H165.514V64.1085H163.516V63.389H165.514L168.046 63.0159ZM181.446 72.1834L181.979 72.5298C181.499 73.4181 180.859 74.1288 180.06 74.6618C179.26 75.177 178.381 75.4346 177.421 75.4346C175.68 75.4346 174.277 74.8483 173.211 73.6757C172.163 72.4854 171.639 71.0285 171.639 69.3052C171.639 67.493 172.172 66.0184 173.238 64.8814C174.303 63.7266 175.716 63.1492 177.475 63.1492C178.31 63.1492 179.092 63.3179 179.82 63.6555C180.548 63.9931 181.108 64.4905 181.499 65.1479C181.73 65.5387 181.845 65.9118 181.845 66.2672C181.845 66.658 181.712 66.9956 181.446 67.2798C181.197 67.5463 180.877 67.6796 180.486 67.6796C180.113 67.6796 179.802 67.5641 179.553 67.3331C179.322 67.1022 179.207 66.8001 179.207 66.4271C179.207 65.8052 179.545 65.2989 180.22 64.908C179.669 64.2329 178.869 63.8953 177.821 63.8953C177.164 63.8953 176.595 64.073 176.116 64.4283C175.636 64.7659 175.272 65.2189 175.023 65.7875C174.792 66.3382 174.623 66.9067 174.517 67.493C174.41 68.0616 174.357 68.6567 174.357 69.2786C174.357 70.6821 174.659 71.8991 175.263 72.9295C175.867 73.9422 176.809 74.4486 178.088 74.4486C179.473 74.4486 180.593 73.6935 181.446 72.1834ZM31.5263 102.461C28.8792 102.461 26.7827 101.537 25.2371 99.6897C23.6914 97.842 22.9186 95.5945 22.9186 92.9474C22.9186 90.1936 23.6825 87.9106 25.2104 86.0984C26.7561 84.2685 28.8614 83.3535 31.5263 83.3535C34.2446 83.3535 36.3499 84.2596 37.8423 86.0718C39.3347 87.884 40.0808 90.158 40.0808 92.8941C40.0808 94.5286 39.7255 96.0742 39.0149 97.5311C38.322 98.9702 37.3093 100.152 35.9768 101.075C34.6443 101.999 33.1609 102.461 31.5263 102.461ZM31.5263 84.0731C30.4781 84.0731 29.5543 84.3662 28.7548 84.9525C27.9731 85.5388 27.3779 86.3027 26.9693 87.2444C26.5607 88.1682 26.2586 89.1187 26.0632 90.0959C25.8678 91.073 25.7701 92.0502 25.7701 93.0273C25.7701 94.644 26.0543 96.1986 26.6228 97.691C27.2091 99.1656 28.0974 100.276 29.2878 101.022C29.9629 101.466 30.7091 101.688 31.5263 101.688C32.8233 101.688 33.9337 101.173 34.8575 100.143C35.7814 99.1123 36.4299 97.8953 36.803 96.4917C37.0872 95.4791 37.2293 94.3243 37.2293 93.0273C37.2293 92.0146 37.1405 91.0286 36.9629 90.0692C36.7852 89.1098 36.492 88.1593 36.0834 87.2177C35.6926 86.2761 35.0974 85.521 34.2979 84.9525C33.5162 84.3662 32.5923 84.0731 31.5263 84.0731ZM46.6398 90.0159V92.974C47.3504 91.0908 48.5941 90.1492 50.3707 90.1492C51.0636 90.1492 51.641 90.3535 52.1029 90.7621C52.5648 91.1707 52.7958 91.7215 52.7958 92.4144C52.7958 92.823 52.6537 93.1783 52.3694 93.4804C52.1029 93.7646 51.7653 93.9067 51.3567 93.9067C50.9836 93.9067 50.6727 93.7913 50.424 93.5603C50.1753 93.3116 50.0509 93.0007 50.0509 92.6276C50.0509 91.9524 50.4062 91.4461 51.1169 91.1085C50.8859 90.9664 50.6017 90.8953 50.2641 90.8953C49.1448 90.8953 48.2565 91.4461 47.5991 92.5476C46.9595 93.6314 46.6398 94.7862 46.6398 96.0121V101.529H48.905V102.248H42.1093V101.529H44.108V91.1085H42.1093V90.389H44.108L46.6398 90.0159ZM63.969 99.1834L64.502 99.5298C64.0223 100.418 63.3827 101.129 62.5833 101.662C61.7838 102.177 60.9043 102.435 59.9449 102.435C58.2038 102.435 56.8003 101.848 55.7343 100.676C54.6861 99.4854 54.162 98.0285 54.162 96.3052C54.162 94.493 54.695 93.0184 55.761 91.8814C56.827 90.7266 58.2394 90.1492 59.9982 90.1492C60.8333 90.1492 61.615 90.3179 62.3434 90.6555C63.0718 90.9931 63.6315 91.4905 64.0223 92.1479C64.2533 92.5387 64.3688 92.9118 64.3688 93.2672C64.3688 93.658 64.2355 93.9956 63.969 94.2798C63.7203 94.5463 63.4005 94.6796 63.0096 94.6796C62.6366 94.6796 62.3256 94.5641 62.0769 94.3331C61.8459 94.1022 61.7305 93.8001 61.7305 93.4271C61.7305 92.8052 62.068 92.2989 62.7431 91.908C62.1924 91.2329 61.3929 90.8953 60.3447 90.8953C59.6873 90.8953 59.1188 91.073 58.6391 91.4283C58.1594 91.7659 57.7952 92.2189 57.5465 92.7875C57.3155 93.3382 57.1467 93.9067 57.0402 94.493C56.9336 95.0616 56.8803 95.6567 56.8803 96.2786C56.8803 97.6821 57.1823 98.8991 57.7863 99.9295C58.3904 100.942 59.332 101.449 60.6112 101.449C61.997 101.449 63.1162 100.693 63.969 99.1834ZM78.6525 94.0133V101.529H80.6512V102.248H74.2553V101.529H76.1208V94.1466C76.1208 93.2583 75.9609 92.592 75.6411 92.1479C75.3213 91.6859 74.7439 91.455 73.9089 91.455C72.9495 91.455 72.1855 91.8636 71.617 92.6809C71.0663 93.4981 70.7909 94.4042 70.7909 95.3991V101.529H72.6564V102.248H66.2605V101.529H68.2592V84.2863H66.2605V83.5667H68.2592L70.7909 83.1936V93.0007C71.1817 92.0946 71.7414 91.3928 72.4698 90.8953C73.216 90.3801 74.0777 90.1225 75.0548 90.1225C77.4 90.1225 78.5992 91.4195 78.6525 94.0133ZM87.6553 90.1492C89.2009 90.1492 90.3913 90.6377 91.2263 91.6149C92.0791 92.5743 92.5055 93.8268 92.5055 95.3725H84.8571C84.8393 95.4613 84.8304 95.6123 84.8304 95.8255V96.3052C84.8482 97.762 85.1324 98.979 85.6832 99.9562C86.2517 100.933 87.2022 101.422 88.5347 101.422C90.0804 101.422 91.1908 100.64 91.8659 99.0768L92.4522 99.5031C91.5461 101.475 90.0182 102.461 87.8684 102.461C86.074 102.461 84.6705 101.893 83.6578 100.756C82.6451 99.6009 82.1388 98.1351 82.1388 96.3585C82.1388 94.6352 82.6363 93.1694 83.6312 91.9613C84.6439 90.7532 85.9852 90.1492 87.6553 90.1492ZM84.937 94.6529H89.8405C89.7694 93.5869 89.574 92.7608 89.2542 92.1745C88.8278 91.2862 88.2238 90.842 87.4421 90.842C86.1096 90.842 85.2746 92.1123 84.937 94.6529ZM102.418 90.3357V94.3864H101.699C101.627 93.3738 101.317 92.5387 100.766 91.8814C100.233 91.2063 99.4777 90.8687 98.5006 90.8687C97.8965 90.8687 97.4079 91.0464 97.0348 91.4017C96.6795 91.7392 96.5019 92.2012 96.5019 92.7875C96.5019 93.2316 96.5818 93.5869 96.7417 93.8534C96.9194 94.1022 97.2036 94.3331 97.5945 94.5463C98.1985 94.8661 99.0069 95.1859 100.02 95.5057C101.21 95.8433 102.054 96.2341 102.551 96.6783C103.067 97.1935 103.324 97.9131 103.324 98.8369C103.324 99.9384 102.942 100.818 102.178 101.475C101.432 102.133 100.517 102.461 99.4333 102.461C97.8521 102.461 96.715 101.902 96.0222 100.782L95.7557 102.381H95.0361V98.224H95.7557C96.3064 100.569 97.4968 101.742 99.3267 101.742C99.913 101.742 100.402 101.573 100.792 101.235C101.272 100.88 101.512 100.347 101.512 99.6364C101.512 98.8369 101.059 98.295 100.153 98.0108C100.028 97.9752 99.8508 97.9219 99.6198 97.8509C99.3889 97.762 99.1668 97.6821 98.9536 97.611C98.7582 97.54 98.5716 97.4778 98.394 97.4245C95.96 96.7138 94.743 95.4968 94.743 93.7735C94.743 92.6364 95.0805 91.7481 95.7557 91.1085C96.4308 90.469 97.3458 90.1492 98.5006 90.1492C99.8686 90.1492 100.863 90.6022 101.485 91.5083L101.645 90.3357H102.418ZM107.329 99.5031V91.1085H104.797V90.389H107.355L109.168 86.4182H109.861V90.389H113.245V91.1085H109.861V99.1301C109.861 100.569 110.376 101.289 111.406 101.289C112.135 101.289 112.774 100.853 113.325 99.9828L113.885 100.436C112.943 101.786 111.797 102.461 110.447 102.461C109.487 102.461 108.724 102.204 108.155 101.688C107.604 101.173 107.329 100.445 107.329 99.5031ZM120.186 90.0159V92.974C120.897 91.0908 122.141 90.1492 123.917 90.1492C124.61 90.1492 125.187 90.3535 125.649 90.7621C126.111 91.1707 126.342 91.7215 126.342 92.4144C126.342 92.823 126.2 93.1783 125.916 93.4804C125.649 93.7646 125.312 93.9067 124.903 93.9067C124.53 93.9067 124.219 93.7913 123.97 93.5603C123.722 93.3116 123.597 93.0007 123.597 92.6276C123.597 91.9524 123.953 91.4461 124.663 91.1085C124.432 90.9664 124.148 90.8953 123.811 90.8953C122.691 90.8953 121.803 91.4461 121.146 92.5476C120.506 93.6314 120.186 94.7862 120.186 96.0121V101.529H122.451V102.248H115.656V101.529H117.655V91.1085H115.656V90.389H117.655L120.186 90.0159ZM131.638 95.7722C132.633 95.7722 133.486 95.9055 134.197 96.172V92.974C134.197 92.2456 134.028 91.7126 133.69 91.375C133.371 91.0197 132.847 90.842 132.118 90.842C131.248 90.842 130.519 91.073 129.933 91.5349C130.164 91.606 130.395 91.757 130.626 91.988C130.821 92.2367 130.919 92.5565 130.919 92.9474C130.919 93.3382 130.795 93.658 130.546 93.9067C130.297 94.1555 129.977 94.2798 129.586 94.2798C129.196 94.2798 128.885 94.1466 128.654 93.8801C128.405 93.6314 128.281 93.3027 128.281 92.8941C128.281 92.0413 128.751 91.375 129.693 90.8953C130.652 90.3979 131.612 90.1492 132.571 90.1492C135.343 90.1492 136.728 91.1796 136.728 93.2405V100.223C136.728 100.987 137.013 101.369 137.581 101.369C137.848 101.369 138.096 101.271 138.327 101.075C138.505 100.898 138.665 100.711 138.807 100.516L139.234 100.942C138.541 101.955 137.697 102.461 136.702 102.461C136.187 102.461 135.725 102.355 135.316 102.141C134.907 101.946 134.579 101.582 134.33 101.049C133.229 102.008 132.02 102.488 130.706 102.488C129.693 102.488 128.849 102.195 128.174 101.608C127.517 101.004 127.188 100.205 127.188 99.21C127.188 98.0197 127.614 97.1491 128.467 96.5983C129.338 96.0476 130.395 95.7722 131.638 95.7722ZM129.853 98.8902C129.853 99.6364 130.039 100.223 130.413 100.649C130.803 101.075 131.363 101.289 132.091 101.289C132.518 101.289 132.9 101.209 133.237 101.049C133.575 100.924 133.895 100.72 134.197 100.436V96.8382C133.859 96.7138 133.522 96.6072 133.184 96.5184C132.864 96.4651 132.509 96.4384 132.118 96.4384C131.372 96.4384 130.803 96.6605 130.413 97.1047C130.039 97.5311 129.853 98.1263 129.853 98.8902Z" fill="white"/>
<path d="M36.5616 832.21V831.142H46.2507V832.21H43.2846V847.672H46.2507V848.74H36.5616V847.672H39.5277V832.21H36.5616ZM58.4877 831.26C60.7024 831.26 62.5479 831.999 64.0243 833.475C65.5271 835.136 66.2785 837.219 66.2785 839.723C66.2785 842.255 65.4876 844.456 63.9057 846.328C62.3238 848.173 60.3069 849.096 57.855 849.096C54.9548 849.096 52.7929 848.107 51.3692 846.13C49.9455 844.153 49.2337 841.688 49.2337 838.735C49.2337 834.464 50.4992 830.891 53.0302 828.018C55.5876 825.144 58.9623 823.325 63.1543 822.56L63.2334 823.628C60.8869 823.944 58.7777 825.117 56.9058 827.148C55.0339 829.151 53.8607 831.366 53.3861 833.791L53.5443 833.831C54.0453 832.987 54.7307 832.355 55.6008 831.933C56.4972 831.485 57.4595 831.26 58.4877 831.26ZM57.8154 848.028C58.7382 848.028 59.5159 847.765 60.1487 847.237C60.8078 846.71 61.2956 846.011 61.6119 845.141C61.9283 844.245 62.1392 843.388 62.2447 842.571C62.3765 841.727 62.4424 840.87 62.4424 840C62.4424 834.912 60.9265 832.368 57.8945 832.368C56.9717 832.368 56.1676 832.631 55.4821 833.159C54.823 833.686 54.3353 834.385 54.0189 835.255C53.7025 836.125 53.4784 836.982 53.3466 837.825C53.2148 838.643 53.1489 839.499 53.1489 840.396C53.1489 841.846 53.373 843.283 53.8212 844.706C54.2694 846.104 55.0208 847.053 56.0753 847.554C56.629 847.87 57.209 848.028 57.8154 848.028ZM70.4603 848.424C70.0385 847.976 69.8275 847.409 69.8275 846.723C69.8275 846.038 70.0385 845.484 70.4603 845.062C70.9085 844.614 71.4753 844.39 72.1608 844.39C72.8727 844.39 73.4395 844.601 73.8613 845.023C74.2832 845.445 74.4941 846.011 74.4941 846.723C74.4941 847.409 74.27 847.976 73.8218 848.424C73.4 848.846 72.8463 849.057 72.1608 849.057C71.4753 849.057 70.9085 848.846 70.4603 848.424ZM87.852 830.351C90.7522 830.351 92.9668 831.195 94.496 832.882C96.0515 834.569 96.8292 836.85 96.8292 839.723C96.8292 842.439 95.9856 844.68 94.2982 846.447C92.6372 848.187 90.4753 849.057 87.8125 849.057C84.9124 849.057 82.5527 848.213 80.7336 846.526C78.9408 844.812 78.0444 842.545 78.0444 839.723C78.0444 836.929 78.9803 834.675 80.8522 832.961C82.7505 831.221 85.0838 830.351 87.852 830.351ZM89.1176 847.712C91.1213 847.712 92.7032 846.908 93.8632 845.3C95.0233 843.665 95.6033 841.806 95.6033 839.723C95.6033 835.874 94.1928 833.317 91.3717 832.051C90.5281 831.735 89.6844 831.577 88.8407 831.577C86.6261 831.577 84.9387 832.368 83.7787 833.95C82.645 835.532 82.0782 837.456 82.0782 839.723C82.0782 841.964 82.7109 843.863 83.9764 845.418C85.2419 846.947 86.9556 847.712 89.1176 847.712ZM99.3967 832.21V831.142H109.086V832.21H106.12V847.672H109.086V848.74H99.3967V847.672H102.363V832.21H99.3967ZM113.097 848.424C112.675 847.976 112.464 847.409 112.464 846.723C112.464 846.038 112.675 845.484 113.097 845.062C113.545 844.614 114.112 844.39 114.798 844.39C115.509 844.39 116.076 844.601 116.498 845.023C116.92 845.445 117.131 846.011 117.131 846.723C117.131 847.409 116.907 847.976 116.458 848.424C116.037 848.846 115.483 849.057 114.798 849.057C114.112 849.057 113.545 848.846 113.097 848.424ZM134.246 836.757C134.246 838.524 133.468 840.277 131.912 842.017C130.383 843.757 128.709 844.944 126.89 845.576H133.099L135.234 840.87H136.302L135.234 848.74H120.681V847.791C123.186 847.264 125.414 846.051 127.365 844.153C129.342 842.255 130.331 840.093 130.331 837.667C130.331 836.217 129.975 835.057 129.263 834.187C128.577 833.291 127.523 832.842 126.099 832.842C124.886 832.842 123.898 833.198 123.133 833.91C122.395 834.622 122.026 835.571 122.026 836.757C122.026 837.311 122.078 837.733 122.184 838.023C122.553 837.469 123.067 837.192 123.726 837.192C124.306 837.192 124.781 837.377 125.15 837.746C125.466 838.115 125.624 838.563 125.624 839.091C125.624 839.592 125.44 840.027 125.071 840.396C124.702 840.765 124.254 840.949 123.726 840.949C123.278 840.949 122.869 840.831 122.5 840.594C121.393 839.987 120.839 838.761 120.839 836.916C120.839 835.017 121.498 833.515 122.817 832.407C124.161 831.3 125.783 830.746 127.681 830.746C129.632 830.746 131.214 831.287 132.427 832.368C133.639 833.422 134.246 834.886 134.246 836.757ZM149.529 830.351C152.429 830.351 154.643 831.195 156.172 832.882C157.728 834.569 158.506 836.85 158.506 839.723C158.506 842.439 157.662 844.68 155.975 846.447C154.314 848.187 152.152 849.057 149.489 849.057C146.589 849.057 144.229 848.213 142.41 846.526C140.617 844.812 139.721 842.545 139.721 839.723C139.721 836.929 140.657 834.675 142.529 832.961C144.427 831.221 146.76 830.351 149.529 830.351ZM150.794 847.712C152.798 847.712 154.38 846.908 155.54 845.3C156.7 843.665 157.28 841.806 157.28 839.723C157.28 835.874 155.869 833.317 153.048 832.051C152.205 831.735 151.361 831.577 150.517 831.577C148.303 831.577 146.615 832.368 145.455 833.95C144.321 835.532 143.755 837.456 143.755 839.723C143.755 841.964 144.387 843.863 145.653 845.418C146.918 846.947 148.632 847.712 150.794 847.712ZM171.079 830.351C173.979 830.351 176.193 831.195 177.722 832.882C179.278 834.569 180.056 836.85 180.056 839.723C180.056 842.439 179.212 844.68 177.525 846.447C175.864 848.187 173.702 849.057 171.039 849.057C168.139 849.057 165.779 848.213 163.96 846.526C162.167 844.812 161.271 842.545 161.271 839.723C161.271 836.929 162.207 834.675 164.079 832.961C165.977 831.221 168.31 830.351 171.079 830.351ZM172.344 847.712C174.348 847.712 175.93 846.908 177.09 845.3C178.25 843.665 178.83 841.806 178.83 839.723C178.83 835.874 177.419 833.317 174.598 832.051C173.755 831.735 172.911 831.577 172.067 831.577C169.853 831.577 168.165 832.368 167.005 833.95C165.872 835.532 165.305 837.456 165.305 839.723C165.305 841.964 165.937 843.863 167.203 845.418C168.468 846.947 170.182 847.712 172.344 847.712ZM182.742 850.48C182.742 849.874 182.94 849.333 183.335 848.859C183.757 848.411 184.271 848.187 184.877 848.187C185.484 848.187 185.945 848.358 186.262 848.701C186.552 849.07 186.697 849.505 186.697 850.006C186.697 850.559 186.525 851.034 186.182 851.429C185.84 851.825 185.392 852.023 184.838 852.023C184.68 852.023 184.522 851.996 184.363 851.944C185.233 853.446 186.683 854.198 188.714 854.198C189.926 854.198 190.928 853.802 191.719 853.011C192.536 852.247 193.077 851.35 193.341 850.322C193.631 849.32 193.776 848.226 193.776 847.04C193.776 845.3 193.367 843.784 192.55 842.492C191.732 841.174 190.506 840.514 188.872 840.514C186.842 840.514 185.602 841.424 185.154 843.243H184.403V830.588H194.052L195.713 826.554H196.781L195.753 833.752H185.51V840.831C186.565 839.776 188.028 839.249 189.9 839.249C192.352 839.249 194.276 839.869 195.674 841.108C197.097 842.347 197.809 844.166 197.809 846.565C197.809 849.228 196.979 851.35 195.318 852.932C193.683 854.54 191.548 855.345 188.911 855.345C187.329 855.345 185.906 854.91 184.64 854.04C183.375 853.17 182.742 851.983 182.742 850.48Z" fill="white"/>
<path d="M266.819 846.445C266.737 846.054 266.644 845.425 266.541 844.56C266.397 843.323 266.253 842.231 266.108 841.283C265.902 840.067 265.511 839.304 264.934 838.995C264.357 838.665 263.409 838.501 262.09 838.501H259.678V848.3H262.924V849.135H253.65V848.3H256.587V828.299H253.65V827.464H262.399C267.386 827.464 269.88 829.093 269.88 832.349C269.88 833.833 269.313 835.1 268.179 836.151C267.046 837.182 265.717 837.8 264.192 838.006V838.13C267.242 838.15 268.921 839.16 269.231 841.159C269.457 842.664 269.591 843.601 269.632 843.972C269.735 844.92 269.869 845.806 270.034 846.631C270.282 847.744 271.044 848.3 272.322 848.3H272.909V849.135H270.807C269.674 849.135 268.777 848.949 268.118 848.578C267.479 848.187 267.046 847.476 266.819 846.445ZM259.678 837.666H262.09C263.553 837.666 264.676 837.212 265.459 836.306C266.242 835.378 266.634 834.183 266.634 832.72C266.634 831.174 266.253 830.051 265.49 829.35C264.748 828.649 263.594 828.299 262.028 828.299H259.678V837.666ZM281.731 835.1C283.853 835.1 285.543 835.77 286.8 837.109C288.058 838.428 288.686 840.129 288.686 842.21C288.686 844.292 288.037 846.013 286.739 847.373C285.44 848.712 283.771 849.382 281.731 849.382C279.567 849.382 277.867 848.733 276.63 847.435C275.393 846.116 274.775 844.384 274.775 842.241C274.775 840.139 275.414 838.428 276.692 837.109C277.99 835.77 279.67 835.1 281.731 835.1ZM281.7 848.547C282.421 848.547 283.039 848.341 283.555 847.929C284.09 847.496 284.492 846.95 284.76 846.291C285.028 845.611 285.224 844.941 285.348 844.281C285.471 843.601 285.533 842.921 285.533 842.241C285.533 841.54 285.471 840.86 285.348 840.201C285.245 839.541 285.059 838.871 284.791 838.191C284.544 837.511 284.152 836.965 283.616 836.553C283.101 836.141 282.473 835.935 281.731 835.935C281.03 835.935 280.412 836.151 279.876 836.584C279.361 836.996 278.969 837.542 278.701 838.222C278.433 838.882 278.237 839.552 278.114 840.232C277.99 840.912 277.928 841.582 277.928 842.241C277.928 844.096 278.258 845.569 278.918 846.662C279.577 847.919 280.504 848.547 281.7 848.547ZM292.913 857.543C292.192 857.543 291.605 857.337 291.151 856.925C290.698 856.533 290.471 855.987 290.471 855.287C290.471 854.709 290.636 854.256 290.966 853.926C291.275 853.555 291.667 853.37 292.141 853.37C292.594 853.37 292.965 853.504 293.253 853.772C293.542 854.04 293.686 854.39 293.686 854.823C293.686 855.606 293.356 856.132 292.697 856.399C292.8 856.523 292.986 856.585 293.253 856.585C294.449 856.585 295.737 854.751 297.118 851.082L297.705 849.598L291.337 836.213H289.018V835.378H296.901V836.213H294.49L299.158 846.291L303.424 836.213H301.26V835.378H306.701V836.213H304.382L298.323 850.495C297.664 852.02 297.241 852.989 297.056 853.401C296.767 853.998 296.53 854.462 296.345 854.792C296.159 855.142 295.881 855.565 295.51 856.059C295.16 856.554 294.768 856.925 294.335 857.172C293.903 857.42 293.429 857.543 292.913 857.543ZM311.847 841.623C313.002 841.623 313.991 841.777 314.815 842.086V838.377C314.815 837.532 314.619 836.914 314.228 836.522C313.857 836.11 313.249 835.904 312.404 835.904C311.394 835.904 310.549 836.172 309.869 836.708C310.137 836.79 310.405 836.965 310.673 837.233C310.899 837.522 311.013 837.893 311.013 838.346C311.013 838.799 310.868 839.17 310.58 839.459C310.291 839.747 309.92 839.892 309.467 839.892C309.014 839.892 308.653 839.737 308.385 839.428C308.097 839.139 307.952 838.758 307.952 838.284C307.952 837.295 308.498 836.522 309.591 835.966C310.704 835.389 311.816 835.1 312.929 835.1C316.144 835.1 317.752 836.295 317.752 838.686V846.785C317.752 847.672 318.082 848.115 318.741 848.115C319.05 848.115 319.339 848.001 319.607 847.775C319.813 847.568 319.998 847.352 320.163 847.125L320.658 847.62C319.854 848.795 318.875 849.382 317.721 849.382C317.123 849.382 316.587 849.258 316.113 849.011C315.639 848.784 315.258 848.362 314.97 847.744C313.692 848.857 312.29 849.413 310.765 849.413C309.591 849.413 308.612 849.073 307.829 848.393C307.066 847.692 306.685 846.765 306.685 845.611C306.685 844.23 307.179 843.22 308.169 842.581C309.179 841.942 310.405 841.623 311.847 841.623ZM309.776 845.24C309.776 846.105 309.993 846.785 310.425 847.28C310.879 847.775 311.528 848.022 312.373 848.022C312.868 848.022 313.311 847.929 313.702 847.744C314.094 847.599 314.465 847.362 314.815 847.033V842.859C314.424 842.715 314.032 842.591 313.64 842.488C313.269 842.427 312.857 842.396 312.404 842.396C311.538 842.396 310.879 842.653 310.425 843.168C309.993 843.663 309.776 844.353 309.776 845.24ZM326.846 827.155V848.3H329.165V849.135H321.591V848.3H323.909V828.299H321.591V827.464H323.94L326.846 827.155ZM360.739 828.299H357.803V848.3H360.739V849.135H351.775V848.3H354.711V838.501H344.479V848.3H347.416V849.135H338.451V848.3H341.388V828.299H338.451V827.464H347.416V828.299H344.479V837.666H354.711V828.299H351.775V827.464H360.739V828.299ZM368.21 841.623C369.364 841.623 370.353 841.777 371.178 842.086V838.377C371.178 837.532 370.982 836.914 370.59 836.522C370.219 836.11 369.612 835.904 368.767 835.904C367.757 835.904 366.912 836.172 366.232 836.708C366.5 836.79 366.767 836.965 367.035 837.233C367.262 837.522 367.375 837.893 367.375 838.346C367.375 838.799 367.231 839.17 366.943 839.459C366.654 839.747 366.283 839.892 365.83 839.892C365.376 839.892 365.016 839.737 364.748 839.428C364.459 839.139 364.315 838.758 364.315 838.284C364.315 837.295 364.861 836.522 365.953 835.966C367.066 835.389 368.179 835.1 369.292 835.1C372.507 835.1 374.115 836.295 374.115 838.686V846.785C374.115 847.672 374.444 848.115 375.104 848.115C375.413 848.115 375.701 848.001 375.969 847.775C376.175 847.568 376.361 847.352 376.526 847.125L377.02 847.62C376.217 848.795 375.238 849.382 374.084 849.382C373.486 849.382 372.95 849.258 372.476 849.011C372.002 848.784 371.621 848.362 371.332 847.744C370.055 848.857 368.653 849.413 367.128 849.413C365.953 849.413 364.975 849.073 364.191 848.393C363.429 847.692 363.048 846.765 363.048 845.611C363.048 844.23 363.542 843.22 364.531 842.581C365.541 841.942 366.767 841.623 368.21 841.623ZM366.139 845.24C366.139 846.105 366.355 846.785 366.788 847.28C367.241 847.775 367.891 848.022 368.736 848.022C369.23 848.022 369.673 847.929 370.065 847.744C370.456 847.599 370.827 847.362 371.178 847.033V842.859C370.786 842.715 370.395 842.591 370.003 842.488C369.632 842.427 369.22 842.396 368.767 842.396C367.901 842.396 367.241 842.653 366.788 843.168C366.355 843.663 366.139 844.353 366.139 845.24ZM383.209 827.155V848.3H385.527V849.135H377.954V848.3H380.272V828.299H377.954V827.464H380.303L383.209 827.155ZM392.326 827.155V848.3H394.644V849.135H387.071V848.3H389.389V828.299H387.071V827.464H389.42L392.326 827.155Z" fill="white"/>
<path d="M460.147 829.661C462.362 829.661 464.207 830.399 465.684 831.875C467.186 833.536 467.938 835.619 467.938 838.124C467.938 840.655 467.147 842.856 465.565 844.728C463.983 846.574 461.966 847.497 459.514 847.497C456.614 847.497 454.452 846.508 453.028 844.531C451.605 842.553 450.893 840.088 450.893 837.135C450.893 832.864 452.158 829.292 454.689 826.418C457.247 823.544 460.622 821.725 464.813 820.96L464.893 822.028C462.546 822.345 460.437 823.518 458.565 825.548C456.693 827.552 455.52 829.766 455.045 832.192L455.204 832.231C455.704 831.388 456.39 830.755 457.26 830.333C458.156 829.885 459.119 829.661 460.147 829.661ZM459.475 846.429C460.397 846.429 461.175 846.165 461.808 845.638C462.467 845.111 462.955 844.412 463.271 843.542C463.588 842.645 463.798 841.789 463.904 840.971C464.036 840.128 464.102 839.271 464.102 838.401C464.102 833.312 462.586 830.768 459.554 830.768C458.631 830.768 457.827 831.032 457.141 831.559C456.482 832.086 455.994 832.785 455.678 833.655C455.362 834.525 455.138 835.382 455.006 836.226C454.874 837.043 454.808 837.9 454.808 838.796C454.808 840.246 455.032 841.683 455.48 843.107C455.929 844.504 456.68 845.453 457.735 845.954C458.288 846.271 458.868 846.429 459.475 846.429ZM471.487 845.124C471.487 844.438 471.698 843.885 472.12 843.463C472.568 843.015 473.135 842.79 473.82 842.79C474.532 842.79 475.099 843.001 475.521 843.423C475.942 843.845 476.153 844.412 476.153 845.124C476.153 845.862 475.942 846.442 475.521 846.864C475.125 847.259 474.558 847.457 473.82 847.457C473.082 847.457 472.515 847.246 472.12 846.824C471.698 846.429 471.487 845.862 471.487 845.124ZM471.487 831.875C471.487 831.19 471.698 830.636 472.12 830.214C472.568 829.766 473.135 829.542 473.82 829.542C474.532 829.542 475.099 829.753 475.521 830.175C475.942 830.597 476.153 831.164 476.153 831.875C476.153 832.614 475.942 833.194 475.521 833.616C475.125 834.011 474.558 834.209 473.82 834.209C473.082 834.209 472.515 833.998 472.12 833.576C471.698 833.181 471.487 832.614 471.487 831.875ZM489.511 828.751C492.411 828.751 494.626 829.595 496.155 831.282C497.711 832.97 498.488 835.25 498.488 838.124C498.488 840.839 497.645 843.08 495.957 844.847C494.296 846.587 492.135 847.457 489.472 847.457C486.572 847.457 484.212 846.613 482.393 844.926C480.6 843.212 479.704 840.945 479.704 838.124C479.704 835.329 480.64 833.075 482.511 831.361C484.41 829.621 486.743 828.751 489.511 828.751ZM490.777 846.112C492.78 846.112 494.362 845.308 495.522 843.7C496.682 842.065 497.262 840.207 497.262 838.124C497.262 834.275 495.852 831.717 493.031 830.452C492.187 830.135 491.344 829.977 490.5 829.977C488.285 829.977 486.598 830.768 485.438 832.35C484.304 833.932 483.737 835.857 483.737 838.124C483.737 840.365 484.37 842.263 485.636 843.819C486.901 845.348 488.615 846.112 490.777 846.112ZM511.061 828.751C513.961 828.751 516.176 829.595 517.705 831.282C519.261 832.97 520.039 835.25 520.039 838.124C520.039 840.839 519.195 843.08 517.508 844.847C515.847 846.587 513.685 847.457 511.022 847.457C508.122 847.457 505.762 846.613 503.943 844.926C502.15 843.212 501.254 840.945 501.254 838.124C501.254 835.329 502.19 833.075 504.062 831.361C505.96 829.621 508.293 828.751 511.061 828.751ZM512.327 846.112C514.331 846.112 515.912 845.308 517.072 843.7C518.233 842.065 518.813 840.207 518.813 838.124C518.813 834.275 517.402 831.717 514.581 830.452C513.737 830.135 512.894 829.977 512.05 829.977C509.835 829.977 508.148 830.768 506.988 832.35C505.854 833.932 505.287 835.857 505.287 838.124C505.287 840.365 505.92 842.263 507.186 843.819C508.451 845.348 510.165 846.112 512.327 846.112ZM533.996 834.762C533.442 834.762 532.849 834.723 532.216 834.644C531.768 834.617 531.148 834.525 530.357 834.367V846.073H534.51V847.141H522.646V846.073H526.403V820.486H522.646V819.418H534.47C537.133 819.418 539.321 819.972 541.035 821.079C542.749 822.16 543.606 823.926 543.606 826.378C543.606 829.041 542.67 831.111 540.798 832.587C538.952 834.037 536.685 834.762 533.996 834.762ZM533.521 833.695C535.446 833.695 536.896 832.996 537.871 831.599C538.873 830.201 539.374 828.514 539.374 826.537C539.374 824.48 538.886 822.964 537.911 821.989C536.935 820.987 535.419 820.486 533.363 820.486H530.357V833.22C531.28 833.536 532.335 833.695 533.521 833.695ZM578.194 820.486H574.437V846.073H578.194V847.141H566.725V846.073H570.482V822.661L561.624 847.497H560.556L552.251 822.701V845.519L556.008 846.073V847.141H546.872V846.073L551.104 845.519V820.486H547.347V819.418H555.454L562.612 841.327L570.403 819.418H578.194V820.486Z" fill="white"/>
<rect x="59.1621" y="200.404" width="78.8826" height="474.362" rx="15.9897" fill="url(#paint0_linear_100_3)"/>
<rect x="230.785" y="200.404" width="78.8826" height="474.362" rx="15.9897" fill="url(#paint1_linear_100_3)"/>
<rect x="402.408" y="200.404" width="78.8826" height="474.362" rx="15.9897" fill="url(#paint2_linear_100_3)"/>
<rect x="144.973" y="200.404" width="78.8826" height="474.362" rx="15.9897" fill="url(#paint3_linear_100_3)"/>
<rect x="316.596" y="200.404" width="78.8826" height="474.362" rx="15.9897" fill="url(#paint4_linear_100_3)"/>
<rect x="488.219" y="200.404" width="78.8826" height="474.362" rx="15.9897" fill="url(#paint5_linear_100_3)"/>
<rect x="459.971" y="144.44" width="56.497" height="365.099" rx="15.9897" fill="black"/>
<rect x="367.23" y="144.44" width="56.497" height="365.099" rx="15.9897" fill="black"/>
<rect x="281.419" y="144.44" width="56.497" height="365.099" rx="15.9897" fill="black"/>
<rect x="195.607" y="144.44" width="56.497" height="365.099" rx="15.9897" fill="black"/>
<rect x="98.6033" y="144.44" width="56.497" height="365.099" rx="15.9897" fill="black"/>
<defs>
<linearGradient id="paint0_linear_100_3" x1="98.6034" y1="200.404" x2="98.6034" y2="674.766" gradientUnits="userSpaceOnUse">
<stop stop-color="white"/>
<stop offset="1" stop-color="white" stop-opacity="0"/>
</linearGradient>
<linearGradient id="paint1_linear_100_3" x1="270.226" y1="200.404" x2="270.226" y2="674.766" gradientUnits="userSpaceOnUse">
<stop stop-color="white"/>
<stop offset="1" stop-color="white" stop-opacity="0"/>
</linearGradient>
<linearGradient id="paint2_linear_100_3" x1="441.849" y1="200.404" x2="441.849" y2="674.766" gradientUnits="userSpaceOnUse">
<stop stop-color="white"/>
<stop offset="1" stop-color="white" stop-opacity="0"/>
</linearGradient>
<linearGradient id="paint3_linear_100_3" x1="184.415" y1="200.404" x2="184.415" y2="674.766" gradientUnits="userSpaceOnUse">
<stop stop-color="white"/>
<stop offset="1" stop-color="white" stop-opacity="0"/>
</linearGradient>
<linearGradient id="paint4_linear_100_3" x1="356.038" y1="200.404" x2="356.038" y2="674.766" gradientUnits="userSpaceOnUse">
<stop stop-color="white"/>
<stop offset="1" stop-color="white" stop-opacity="0"/>
</linearGradient>
<linearGradient id="paint5_linear_100_3" x1="527.661" y1="200.404" x2="527.661" y2="674.766" gradientUnits="userSpaceOnUse">
<stop stop-color="white"/>
<stop offset="1" stop-color="white" stop-opacity="0"/>
</linearGradient>
</defs>
</svg>
