<svg width="1277" height="840" viewBox="0 0 1277 840" fill="none" xmlns="http://www.w3.org/2000/svg">
<rect x="2" y="2" width="1273" height="836" stroke="black" stroke-width="4"/>
<g clip-path="url(#clip0_194_40)">
<rect width="1238" height="800" transform="translate(20 20)" fill="black"/>
<rect width="105.158" height="380.648" transform="matrix(-0.817059 -0.576553 0.557607 -0.830105 39.9202 244.606)" fill="url(#paint0_linear_194_40)"/>
<rect width="105.158" height="380.648" transform="matrix(-0.817059 -0.576553 0.557607 -0.830105 153.163 325.723)" fill="url(#paint1_linear_194_40)"/>
<rect width="105.158" height="380.648" transform="matrix(-0.817059 -0.576553 0.557607 -0.830105 270.934 421.322)" fill="url(#paint2_linear_194_40)"/>
<rect width="105.158" height="380.648" transform="matrix(-0.817059 -0.576553 0.557607 -0.830105 389.647 533.338)" fill="url(#paint3_linear_194_40)"/>
<rect width="105.158" height="380.648" transform="matrix(-0.817059 -0.576553 0.557607 -0.830105 485.748 621.213)" fill="url(#paint4_linear_194_40)"/>
<rect width="61.761" height="333.952" transform="matrix(-0.817059 -0.576553 0.557607 -0.830105 102.631 482.109)" fill="white"/>
<rect width="61.761" height="333.952" transform="matrix(-0.817059 -0.576553 0.557607 -0.830105 221.344 594.125)" fill="white"/>
<rect width="61.761" height="333.952" transform="matrix(-0.817059 -0.576553 0.557607 -0.830105 317.445 682)" fill="white"/>
<rect width="62.2142" height="323.513" transform="matrix(-0.817059 -0.576553 0.557607 -0.830105 5.01538 396.355)" fill="white"/>
<path d="M580.93 174H539.85V169.84H552.2V87.03H539.85V82.87H580.15C601.383 82.87 612 89.63 612 103.15C612 109.823 609.617 115.023 604.85 118.75C600.083 122.39 594.147 124.513 587.04 125.12V125.64C600.04 126.853 608.577 131.013 612.65 138.12C613.95 140.72 614.6 143.753 614.6 147.22C614.6 151.813 613.603 155.887 611.61 159.44C609.703 162.993 607.103 165.81 603.81 167.89C600.603 169.883 597.05 171.4 593.15 172.44C589.337 173.48 585.263 174 580.93 174ZM569.1 169.84H578.98C585.133 169.84 589.727 167.76 592.76 163.6C595.793 159.353 597.31 154.023 597.31 147.61C597.31 134.437 591.2 127.85 578.98 127.85H569.1V169.84ZM569.1 123.3H578.98C584.353 123.3 588.297 121.523 590.81 117.97C593.41 114.33 594.71 109.737 594.71 104.19C594.71 101.85 594.45 99.64 593.93 97.56C591.677 90.54 586.433 87.03 578.2 87.03H569.1V123.3ZM653.246 114.98C661.392 114.98 667.806 117.363 672.486 122.13C677.166 126.81 679.506 133.137 679.506 141.11H640.896C640.809 141.543 640.766 142.28 640.766 143.32V145.66C640.766 152.247 642.196 157.837 645.056 162.43C647.916 166.937 652.379 169.19 658.446 169.19C661.999 169.19 665.162 168.193 667.936 166.2C670.796 164.12 672.962 161.39 674.436 158.01L677.686 160.35C675.692 164.943 672.572 168.583 668.326 171.27C664.079 173.87 659.399 175.17 654.286 175.17C645.186 175.17 637.819 172.44 632.186 166.98C626.552 161.433 623.736 154.197 623.736 145.27C623.736 136.517 626.509 129.28 632.056 123.56C637.602 117.84 644.666 114.98 653.246 114.98ZM641.286 136.95H662.606C661.999 129.323 660.136 123.95 657.016 120.83C655.629 119.617 654.026 119.01 652.206 119.01C646.746 119.01 643.106 124.99 641.286 136.95ZM716.849 114.98C724.996 114.98 731.409 117.363 736.089 122.13C740.769 126.81 743.109 133.137 743.109 141.11H704.499C704.412 141.543 704.369 142.28 704.369 143.32V145.66C704.369 152.247 705.799 157.837 708.659 162.43C711.519 166.937 715.982 169.19 722.049 169.19C725.602 169.19 728.766 168.193 731.539 166.2C734.399 164.12 736.566 161.39 738.039 158.01L741.289 160.35C739.296 164.943 736.176 168.583 731.929 171.27C727.682 173.87 723.002 175.17 717.889 175.17C708.789 175.17 701.422 172.44 695.789 166.98C690.156 161.433 687.339 154.197 687.339 145.27C687.339 136.517 690.112 129.28 695.659 123.56C701.206 117.84 708.269 114.98 716.849 114.98ZM704.889 136.95H726.209C725.602 129.323 723.739 123.95 720.619 120.83C719.232 119.617 717.629 119.01 715.809 119.01C710.349 119.01 706.709 124.99 704.889 136.95ZM761.343 159.96V120.31H748.993V116.15H761.473L773.433 96.78H777.593V116.15H794.103V120.31H777.593V158.14C777.593 161.433 778.243 163.99 779.543 165.81C780.669 167.717 782.533 168.67 785.133 168.67C788.859 168.67 791.979 166.547 794.493 162.3L797.223 165.16C792.543 171.747 786.303 175.04 778.503 175.04C773.303 175.04 769.143 173.783 766.023 171.27C762.903 168.757 761.343 164.987 761.343 159.96ZM870.025 134.35V169.84H879.775V174H844.675V169.84H853.775V135.13C853.775 130.537 853.038 127.157 851.565 124.99C850.005 122.997 847.578 122 844.285 122C842.378 122 840.558 122.477 838.825 123.43C836.138 125.077 834.058 127.59 832.585 130.97C831.111 134.35 830.375 137.773 830.375 141.24V169.84H839.475V174H804.375V169.84H814.125V87.03H804.375V82.87H814.125L830.375 81.05V128.11C832.628 123.517 835.445 120.18 838.825 118.1C842.205 115.933 846.451 114.85 851.565 114.85C857.718 114.85 862.311 116.583 865.345 120.05C868.465 123.43 870.025 128.197 870.025 134.35ZM917.617 114.98C926.717 114.98 934.3 117.753 940.367 123.3C946.433 128.847 949.467 136.04 949.467 144.88C949.467 153.72 946.347 160.957 940.107 166.59C933.953 172.223 926.457 175.04 917.617 175.04C908.603 175.04 901.02 172.223 894.867 166.59C888.8 160.957 885.767 153.763 885.767 145.01C885.767 135.997 888.843 128.76 894.997 123.3C901.15 117.753 908.69 114.98 917.617 114.98ZM917.487 170.88C920.26 170.88 922.687 170.013 924.767 168.28C926.847 166.46 928.363 164.163 929.317 161.39C930.357 158.617 931.093 155.887 931.527 153.2C932.047 150.427 932.307 147.697 932.307 145.01C932.307 142.237 932.09 139.55 931.657 136.95C931.31 134.263 930.617 131.49 929.577 128.63C928.623 125.77 927.107 123.473 925.027 121.74C923.033 120.007 920.563 119.14 917.617 119.14C914.757 119.14 912.287 120.007 910.207 121.74C908.213 123.473 906.697 125.77 905.657 128.63C904.703 131.403 904.01 134.133 903.577 136.82C903.143 139.507 902.927 142.237 902.927 145.01C902.927 147.783 903.1 150.513 903.447 153.2C903.88 155.8 904.573 158.53 905.527 161.39C906.567 164.25 908.083 166.547 910.077 168.28C912.157 170.013 914.627 170.88 917.487 170.88ZM986.652 175.04L959.612 120.31H949.862V116.15H986.912V120.31H977.162L993.932 155.67L1009.53 120.31H999.782V116.15H1024.74V120.31H1014.99L990.812 175.04H986.652ZM1053.27 114.98C1061.42 114.98 1067.83 117.363 1072.51 122.13C1077.19 126.81 1079.53 133.137 1079.53 141.11H1040.92C1040.84 141.543 1040.79 142.28 1040.79 143.32V145.66C1040.79 152.247 1042.22 157.837 1045.08 162.43C1047.94 166.937 1052.41 169.19 1058.47 169.19C1062.03 169.19 1065.19 168.193 1067.96 166.2C1070.82 164.12 1072.99 161.39 1074.46 158.01L1077.71 160.35C1075.72 164.943 1072.6 168.583 1068.35 171.27C1064.11 173.87 1059.43 175.17 1054.31 175.17C1045.21 175.17 1037.85 172.44 1032.21 166.98C1026.58 161.433 1023.76 154.197 1023.76 145.27C1023.76 136.517 1026.54 129.28 1032.08 123.56C1037.63 117.84 1044.69 114.98 1053.27 114.98ZM1041.31 136.95H1062.63C1062.03 129.323 1060.16 123.95 1057.04 120.83C1055.66 119.617 1054.05 119.01 1052.23 119.01C1046.77 119.01 1043.13 124.99 1041.31 136.95ZM1152.37 133.83V169.84H1162.12V174H1127.02V169.84H1136.12V135.13C1136.12 126.377 1132.96 122 1126.63 122C1122.12 122 1118.66 123.95 1116.23 127.85C1113.89 131.75 1112.72 136.127 1112.72 140.98V169.84H1121.82V174H1086.72V169.84H1096.47V120.31H1086.72V116.15H1096.47L1112.72 114.33V128.24C1116.27 119.4 1122.95 114.98 1132.74 114.98C1135.43 114.98 1138.07 115.327 1140.67 116.02C1145.35 117.58 1148.77 120.7 1150.94 125.38C1151.89 127.98 1152.37 130.797 1152.37 133.83Z" fill="white"/>
<path d="M574.11 274H537.15V271.76H543.8V227.17H537.15V224.93H559.55V227.17H552.9V271.76H569.56L572.5 257.27H574.81L574.11 274ZM596.53 242.22C601.43 242.22 605.513 243.713 608.78 246.7C612.046 249.687 613.68 253.56 613.68 258.32C613.68 263.08 612 266.977 608.64 270.01C605.326 273.043 601.29 274.56 596.53 274.56C591.676 274.56 587.593 273.043 584.28 270.01C581.013 266.977 579.38 263.103 579.38 258.39C579.38 253.537 581.036 249.64 584.35 246.7C587.663 243.713 591.723 242.22 596.53 242.22ZM596.46 272.32C597.953 272.32 599.26 271.853 600.38 270.92C601.5 269.94 602.316 268.703 602.83 267.21C603.39 265.717 603.786 264.247 604.02 262.8C604.3 261.307 604.44 259.837 604.44 258.39C604.44 256.897 604.323 255.45 604.09 254.05C603.903 252.603 603.53 251.11 602.97 249.57C602.456 248.03 601.64 246.793 600.52 245.86C599.446 244.927 598.116 244.46 596.53 244.46C594.99 244.46 593.66 244.927 592.54 245.86C591.466 246.793 590.65 248.03 590.09 249.57C589.576 251.063 589.203 252.533 588.97 253.98C588.736 255.427 588.62 256.897 588.62 258.39C588.62 259.883 588.713 261.353 588.9 262.8C589.133 264.2 589.506 265.67 590.02 267.21C590.58 268.75 591.396 269.987 592.47 270.92C593.59 271.853 594.92 272.32 596.46 272.32ZM653.55 252.37V271.76H658.8V274H639.9V271.76H644.8V253.07C644.8 248.357 643.096 246 639.69 246C637.263 246 635.396 247.05 634.09 249.15C632.83 251.25 632.2 253.607 632.2 256.22V271.76H637.1V274H618.2V271.76H623.45V245.09H618.2V242.85H623.45L632.2 241.87V249.36C634.113 244.6 637.706 242.22 642.98 242.22C644.426 242.22 645.85 242.407 647.25 242.78C649.77 243.62 651.613 245.3 652.78 247.82C653.293 249.22 653.55 250.737 653.55 252.37ZM687.088 274.77V268.05C685.968 270.057 684.498 271.643 682.678 272.81C680.904 273.977 678.921 274.56 676.728 274.56C672.201 274.56 668.608 273.043 665.948 270.01C663.288 266.93 661.958 263.127 661.958 258.6C661.958 254.073 663.358 250.223 666.158 247.05C668.958 243.83 672.551 242.22 676.938 242.22C681.884 242.22 685.268 244.297 687.088 248.45V227.17H681.838V224.93H687.088L695.838 223.95V271.62H701.088V273.86H695.838L687.088 274.77ZM679.458 271.62C681.418 271.62 683.168 270.64 684.708 268.68C686.294 266.673 687.088 264.643 687.088 262.59V255.45C687.088 252.79 686.434 250.433 685.128 248.38C683.821 246.327 681.931 245.3 679.458 245.3C677.311 245.3 675.561 246.07 674.208 247.61C672.901 249.15 672.038 250.83 671.618 252.65C671.244 254.47 671.058 256.453 671.058 258.6C671.058 260.093 671.174 261.54 671.408 262.94C671.688 264.34 672.131 265.74 672.738 267.14C673.344 268.493 674.208 269.59 675.328 270.43C676.494 271.223 677.871 271.62 679.458 271.62ZM721.764 242.22C726.664 242.22 730.747 243.713 734.014 246.7C737.281 249.687 738.914 253.56 738.914 258.32C738.914 263.08 737.234 266.977 733.874 270.01C730.561 273.043 726.524 274.56 721.764 274.56C716.911 274.56 712.827 273.043 709.514 270.01C706.247 266.977 704.614 263.103 704.614 258.39C704.614 253.537 706.271 249.64 709.584 246.7C712.897 243.713 716.957 242.22 721.764 242.22ZM721.694 272.32C723.187 272.32 724.494 271.853 725.614 270.92C726.734 269.94 727.551 268.703 728.064 267.21C728.624 265.717 729.021 264.247 729.254 262.8C729.534 261.307 729.674 259.837 729.674 258.39C729.674 256.897 729.557 255.45 729.324 254.05C729.137 252.603 728.764 251.11 728.204 249.57C727.691 248.03 726.874 246.793 725.754 245.86C724.681 244.927 723.351 244.46 721.764 244.46C720.224 244.46 718.894 244.927 717.774 245.86C716.701 246.793 715.884 248.03 715.324 249.57C714.811 251.063 714.437 252.533 714.204 253.98C713.971 255.427 713.854 256.897 713.854 258.39C713.854 259.883 713.947 261.353 714.134 262.8C714.367 264.2 714.741 265.67 715.254 267.21C715.814 268.75 716.631 269.987 717.704 270.92C718.824 271.853 720.154 272.32 721.694 272.32ZM778.784 252.37V271.76H784.034V274H765.134V271.76H770.034V253.07C770.034 248.357 768.331 246 764.924 246C762.497 246 760.631 247.05 759.324 249.15C758.064 251.25 757.434 253.607 757.434 256.22V271.76H762.334V274H743.434V271.76H748.684V245.09H743.434V242.85H748.684L757.434 241.87V249.36C759.347 244.6 762.941 242.22 768.214 242.22C769.661 242.22 771.084 242.407 772.484 242.78C775.004 243.62 776.847 245.3 778.014 247.82C778.527 249.22 778.784 250.737 778.784 252.37ZM832.539 274.56C825.399 274.56 819.659 272.203 815.319 267.49C811.025 262.777 808.879 256.873 808.879 249.78C808.879 242.547 811.049 236.503 815.389 231.65C819.775 226.797 825.492 224.37 832.539 224.37C839.632 224.37 845.325 226.797 849.619 231.65C853.959 236.503 856.129 242.477 856.129 249.57C856.129 256.337 853.842 262.193 849.269 267.14C844.742 272.087 839.165 274.56 832.539 274.56ZM832.539 226.61C830.392 226.61 828.455 227.147 826.729 228.22C825.002 229.247 823.625 230.577 822.599 232.21C821.572 233.797 820.709 235.64 820.009 237.74C819.309 239.84 818.819 241.893 818.539 243.9C818.305 245.86 818.189 247.82 818.189 249.78C818.189 253.98 818.865 258.04 820.219 261.96C821.572 265.833 823.765 268.68 826.799 270.5C828.525 271.62 830.439 272.18 832.539 272.18C835.105 272.18 837.345 271.457 839.259 270.01C841.219 268.517 842.712 266.603 843.739 264.27C844.812 261.89 845.582 259.487 846.049 257.06C846.562 254.633 846.819 252.207 846.819 249.78C846.819 248.147 846.725 246.513 846.539 244.88C846.399 243.247 846.119 241.543 845.699 239.77C845.325 237.95 844.765 236.293 844.019 234.8C843.272 233.26 842.385 231.86 841.359 230.6C840.379 229.34 839.119 228.36 837.579 227.66C836.085 226.96 834.405 226.61 832.539 226.61ZM875.354 241.87V249.08C877.081 244.507 880.231 242.22 884.804 242.22C886.717 242.22 888.304 242.827 889.564 244.04C890.871 245.207 891.524 246.723 891.524 248.59C891.524 250.083 891.104 251.343 890.264 252.37C889.471 253.35 888.327 253.84 886.834 253.84C885.527 253.84 884.431 253.467 883.544 252.72C882.657 251.973 882.214 250.947 882.214 249.64C882.214 248.427 882.587 247.423 883.334 246.63C884.127 245.79 885.154 245.277 886.414 245.09C885.807 244.717 885.061 244.53 884.174 244.53C882.121 244.53 880.394 245.277 878.994 246.77C877.594 248.263 876.637 249.943 876.124 251.81C875.611 253.677 875.354 255.613 875.354 257.62V271.76H881.304V274H861.354V271.76H866.604V245.09H861.354V242.85H866.604L875.354 241.87ZM921.261 265.39L923.081 266.44C921.915 269.007 920.211 270.99 917.971 272.39C915.731 273.79 913.235 274.49 910.481 274.49C905.675 274.49 901.778 273.02 898.791 270.08C895.805 267.14 894.311 263.313 894.311 258.6C894.311 253.56 895.851 249.57 898.931 246.63C902.011 243.69 906.048 242.22 911.041 242.22C913.748 242.22 916.385 243.06 918.951 244.74C921.565 246.42 922.871 248.567 922.871 251.18C922.871 252.487 922.451 253.537 921.611 254.33C920.818 255.123 919.768 255.52 918.461 255.52C917.201 255.52 916.151 255.17 915.311 254.47C914.518 253.723 914.121 252.743 914.121 251.53C914.121 250.363 914.518 249.383 915.311 248.59C916.105 247.75 917.085 247.283 918.251 247.19C916.805 245.417 914.705 244.53 911.951 244.53C910.318 244.53 908.918 244.997 907.751 245.93C906.585 246.817 905.698 248.007 905.091 249.5C904.531 250.947 904.135 252.393 903.901 253.84C903.668 255.287 903.551 256.78 903.551 258.32C903.551 260.513 903.808 262.567 904.321 264.48C904.881 266.347 905.908 267.98 907.401 269.38C908.895 270.78 910.761 271.48 913.001 271.48C914.821 271.48 916.478 270.92 917.971 269.8C919.465 268.633 920.561 267.163 921.261 265.39ZM962.055 252.65V271.76H967.305V274H948.405V271.76H953.305V253.07C953.305 250.597 952.909 248.777 952.115 247.61C951.275 246.537 949.969 246 948.195 246C947.169 246 946.189 246.257 945.255 246.77C943.809 247.657 942.689 249.01 941.895 250.83C941.102 252.65 940.705 254.493 940.705 256.36V271.76H945.605V274H926.705V271.76H931.955V227.17H926.705V224.93H931.955L940.705 223.95V249.29C941.919 246.817 943.435 245.02 945.255 243.9C947.075 242.733 949.362 242.15 952.115 242.15C955.429 242.15 957.902 243.083 959.535 244.95C961.215 246.77 962.055 249.337 962.055 252.65ZM986.422 242.22C990.809 242.22 994.262 243.503 996.782 246.07C999.302 248.59 1000.56 251.997 1000.56 256.29H979.772C979.725 256.523 979.702 256.92 979.702 257.48V258.74C979.702 262.287 980.472 265.297 982.012 267.77C983.552 270.197 985.955 271.41 989.222 271.41C991.135 271.41 992.839 270.873 994.332 269.8C995.872 268.68 997.039 267.21 997.832 265.39L999.582 266.65C998.509 269.123 996.829 271.083 994.542 272.53C992.255 273.93 989.735 274.63 986.982 274.63C982.082 274.63 978.115 273.16 975.082 270.22C972.049 267.233 970.532 263.337 970.532 258.53C970.532 253.817 972.025 249.92 975.012 246.84C977.999 243.76 981.802 242.22 986.422 242.22ZM979.982 254.05H991.462C991.135 249.943 990.132 247.05 988.452 245.37C987.705 244.717 986.842 244.39 985.862 244.39C982.922 244.39 980.962 247.61 979.982 254.05ZM1028.3 242.85V253.14H1026.06C1025.83 250.573 1024.85 248.52 1023.12 246.98C1021.44 245.393 1019.34 244.6 1016.82 244.6C1015.47 244.6 1014.39 244.95 1013.6 245.65C1012.81 246.35 1012.41 247.353 1012.41 248.66C1012.41 249.92 1012.76 250.9 1013.46 251.6C1014.3 252.627 1016.4 253.7 1019.76 254.82C1024.52 256.453 1027.48 257.853 1028.65 259.02C1029.21 259.58 1029.68 260.35 1030.05 261.33C1030.33 262.217 1030.47 263.337 1030.47 264.69C1030.47 267.863 1029.33 270.313 1027.04 272.04C1024.75 273.72 1022 274.56 1018.78 274.56C1014.58 274.56 1011.45 273.137 1009.4 270.29L1008.7 274.35H1006.46V263.08H1008.7C1009.63 267.933 1011.92 270.85 1015.56 271.83C1016.54 272.157 1017.61 272.32 1018.78 272.32C1020.32 272.32 1021.53 271.923 1022.42 271.13C1023.35 270.337 1023.82 269.193 1023.82 267.7C1023.82 265.787 1022.63 264.387 1020.25 263.5C1019.88 263.313 1019.36 263.103 1018.71 262.87C1018.1 262.59 1017.71 262.403 1017.52 262.31C1016.73 262.03 1016.03 261.75 1015.42 261.47C1014.67 261.237 1014.02 260.957 1013.46 260.63C1013.41 260.583 1013.09 260.443 1012.48 260.21C1011.92 259.977 1011.45 259.767 1011.08 259.58C1007.49 257.807 1005.69 255.053 1005.69 251.32C1005.69 248.333 1006.72 246.093 1008.77 244.6C1010.82 243.107 1013.39 242.36 1016.47 242.36C1018.24 242.36 1019.97 242.663 1021.65 243.27C1023.33 243.877 1024.61 244.787 1025.5 246L1026.06 242.85H1028.3ZM1040.46 266.44V245.09H1033.81V242.85H1040.53L1046.97 232.42H1049.21V242.85H1058.1V245.09H1049.21V265.46C1049.21 267.233 1049.56 268.61 1050.26 269.59C1050.86 270.617 1051.87 271.13 1053.27 271.13C1055.27 271.13 1056.95 269.987 1058.31 267.7L1059.78 269.24C1057.26 272.787 1053.9 274.56 1049.7 274.56C1046.9 274.56 1044.66 273.883 1042.98 272.53C1041.3 271.177 1040.46 269.147 1040.46 266.44ZM1077.63 241.87V249.08C1079.36 244.507 1082.51 242.22 1087.08 242.22C1088.99 242.22 1090.58 242.827 1091.84 244.04C1093.15 245.207 1093.8 246.723 1093.8 248.59C1093.8 250.083 1093.38 251.343 1092.54 252.37C1091.75 253.35 1090.6 253.84 1089.11 253.84C1087.8 253.84 1086.71 253.467 1085.82 252.72C1084.93 251.973 1084.49 250.947 1084.49 249.64C1084.49 248.427 1084.86 247.423 1085.61 246.63C1086.4 245.79 1087.43 245.277 1088.69 245.09C1088.08 244.717 1087.34 244.53 1086.45 244.53C1084.4 244.53 1082.67 245.277 1081.27 246.77C1079.87 248.263 1078.91 249.943 1078.4 251.81C1077.89 253.677 1077.63 255.613 1077.63 257.62V271.76H1083.58V274H1063.63V271.76H1068.88V245.09H1063.63V242.85H1068.88L1077.63 241.87ZM1107.26 256.99C1110.15 256.99 1112.51 257.34 1114.33 258.04V249.36C1114.33 247.54 1113.93 246.257 1113.14 245.51C1112.35 244.763 1111.04 244.39 1109.22 244.39C1108.05 244.39 1106.96 244.53 1105.93 244.81C1104.86 245.183 1103.97 245.603 1103.27 246.07C1104.34 246.257 1105.23 246.7 1105.93 247.4C1106.63 248.1 1106.98 248.987 1106.98 250.06C1106.98 251.367 1106.58 252.417 1105.79 253.21C1105 254.003 1103.92 254.4 1102.57 254.4C1101.12 254.4 1100.05 253.957 1099.35 253.07C1098.6 252.277 1098.23 251.25 1098.23 249.99C1098.23 248.17 1098.95 246.653 1100.4 245.44C1101.89 244.18 1103.53 243.34 1105.3 242.92C1107.07 242.453 1108.87 242.22 1110.69 242.22C1113.96 242.22 1116.83 242.873 1119.3 244.18C1121.82 245.44 1123.08 247.517 1123.08 250.41V268.4C1123.08 270.407 1123.83 271.41 1125.32 271.41C1126.02 271.41 1126.67 271.153 1127.28 270.64C1127.79 270.173 1128.21 269.683 1128.54 269.17L1129.66 270.57C1127.89 273.23 1125.3 274.56 1121.89 274.56C1120.07 274.56 1118.58 274.233 1117.41 273.58C1116.1 272.927 1115.19 272.017 1114.68 270.85C1111.88 273.37 1108.59 274.63 1104.81 274.63C1102.01 274.63 1099.7 273.883 1097.88 272.39C1096.11 270.897 1095.22 268.773 1095.22 266.02C1095.22 262.893 1096.39 260.607 1098.72 259.16C1101.1 257.713 1103.95 256.99 1107.26 256.99ZM1104.32 265.18C1104.32 267.14 1104.83 268.61 1105.86 269.59C1106.84 270.617 1108.05 271.13 1109.5 271.13C1110.67 271.13 1111.62 270.897 1112.37 270.43C1113.3 269.917 1113.96 269.473 1114.33 269.1V260.14C1113.21 259.44 1111.86 259.09 1110.27 259.09C1108.4 259.09 1106.93 259.65 1105.86 260.77C1104.83 261.843 1104.32 263.313 1104.32 265.18Z" fill="white"/>
<rect width="105.158" height="380.648" transform="matrix(-0.817059 -0.576553 0.557607 -0.830105 485.92 620.606)" fill="url(#paint5_linear_194_40)"/>
<rect width="105.158" height="380.648" transform="matrix(-0.817059 -0.576553 0.557607 -0.830105 599.163 701.723)" fill="url(#paint6_linear_194_40)"/>
<rect width="105.158" height="380.648" transform="matrix(-0.817059 -0.576553 0.557607 -0.830105 716.934 797.322)" fill="url(#paint7_linear_194_40)"/>
<rect width="105.158" height="380.648" transform="matrix(-0.817059 -0.576553 0.557607 -0.830105 835.647 909.338)" fill="url(#paint8_linear_194_40)"/>
<rect width="105.158" height="380.648" transform="matrix(-0.817059 -0.576553 0.557607 -0.830105 931.748 997.213)" fill="url(#paint9_linear_194_40)"/>
<rect width="61.761" height="333.952" transform="matrix(-0.817059 -0.576553 0.557607 -0.830105 548.631 858.109)" fill="white"/>
<rect width="61.761" height="333.952" transform="matrix(-0.817059 -0.576553 0.557607 -0.830105 667.344 970.125)" fill="white"/>
<rect width="61.761" height="333.952" transform="matrix(-0.817059 -0.576553 0.557607 -0.830105 763.445 1058)" fill="white"/>
<rect width="62.2142" height="323.513" transform="matrix(-0.817059 -0.576553 0.557607 -0.830105 451.015 772.355)" fill="white"/>
<path d="M566.97 345.91C566.783 345.023 566.573 343.6 566.34 341.64C566.013 338.84 565.687 336.367 565.36 334.22C565.127 332.913 564.917 331.91 564.73 331.21C564.17 329.623 562.933 328.62 561.02 328.2C560.087 328.013 558.733 327.92 556.96 327.92H552.9V349.76H560.25V352H537.15V349.76H543.8V305.17H537.15V302.93H559.27C567.11 302.93 572.337 304.937 574.95 308.95C575.79 310.443 576.21 312.217 576.21 314.27C576.21 317.677 574.95 320.407 572.43 322.46C569.91 324.467 566.807 325.797 563.12 326.45V326.73C566.433 326.963 569.093 327.687 571.1 328.9C573.153 330.113 574.367 332.167 574.74 335.06C574.927 336.74 575.043 337.72 575.09 338C575.137 338.327 575.183 338.747 575.23 339.26C575.323 339.773 575.37 340.123 575.37 340.31C575.417 340.543 575.463 340.917 575.51 341.43C575.557 341.897 575.603 342.27 575.65 342.55C575.65 342.783 575.767 343.693 576 345.28C576.373 348.267 578.193 349.76 581.46 349.76H583V352H576.84C575.02 352 573.503 351.883 572.29 351.65C571.077 351.37 569.957 350.763 568.93 349.83C567.95 348.897 567.297 347.59 566.97 345.91ZM552.9 325.68H557.45C560.763 325.68 563.19 324.7 564.73 322.74C566.27 320.78 567.04 318.143 567.04 314.83C567.04 313.29 566.9 311.937 566.62 310.77C565.547 307.037 562.443 305.17 557.31 305.17H552.9V325.68ZM603.297 320.22C608.197 320.22 612.281 321.713 615.547 324.7C618.814 327.687 620.447 331.56 620.447 336.32C620.447 341.08 618.767 344.977 615.407 348.01C612.094 351.043 608.057 352.56 603.297 352.56C598.444 352.56 594.361 351.043 591.047 348.01C587.781 344.977 586.147 341.103 586.147 336.39C586.147 331.537 587.804 327.64 591.117 324.7C594.431 321.713 598.491 320.22 603.297 320.22ZM603.227 350.32C604.721 350.32 606.027 349.853 607.147 348.92C608.267 347.94 609.084 346.703 609.597 345.21C610.157 343.717 610.554 342.247 610.787 340.8C611.067 339.307 611.207 337.837 611.207 336.39C611.207 334.897 611.091 333.45 610.857 332.05C610.671 330.603 610.297 329.11 609.737 327.57C609.224 326.03 608.407 324.793 607.287 323.86C606.214 322.927 604.884 322.46 603.297 322.46C601.757 322.46 600.427 322.927 599.307 323.86C598.234 324.793 597.417 326.03 596.857 327.57C596.344 329.063 595.971 330.533 595.737 331.98C595.504 333.427 595.387 334.897 595.387 336.39C595.387 337.883 595.481 339.353 595.667 340.8C595.901 342.2 596.274 343.67 596.787 345.21C597.347 346.75 598.164 347.987 599.237 348.92C600.357 349.853 601.687 350.32 603.227 350.32ZM630.67 371.04C628.803 371.04 627.287 370.503 626.12 369.43C625 368.357 624.44 366.91 624.44 365.09C624.44 363.83 624.86 362.733 625.7 361.8C626.587 360.913 627.66 360.47 628.92 360.47C630.18 360.47 631.183 360.797 631.93 361.45C632.723 362.15 633.12 363.13 633.12 364.39C633.12 365.323 632.817 366.163 632.21 366.91C631.65 367.657 630.903 368.053 629.97 368.1C630.203 368.38 630.623 368.52 631.23 368.52C632.49 368.52 633.657 367.703 634.73 366.07C636.177 363.97 637.903 360.61 639.91 355.99L640.75 354.03L625.91 323.09H620.66V320.85H640.33V323.09H635.43L645.23 343.95L653.91 323.09H649.01V320.85H661.61V323.09H656.36L642.92 355.08C641.427 358.533 640.47 360.727 640.05 361.66C639.397 363.013 638.86 364.063 638.44 364.81C638.02 365.603 637.39 366.56 636.55 367.68C635.757 368.8 634.87 369.64 633.89 370.2C632.91 370.76 631.837 371.04 630.67 371.04ZM673.178 334.99C676.071 334.99 678.428 335.34 680.248 336.04V327.36C680.248 325.54 679.851 324.257 679.058 323.51C678.264 322.763 676.958 322.39 675.138 322.39C673.971 322.39 672.874 322.53 671.848 322.81C670.774 323.183 669.888 323.603 669.188 324.07C670.261 324.257 671.148 324.7 671.848 325.4C672.548 326.1 672.898 326.987 672.898 328.06C672.898 329.367 672.501 330.417 671.708 331.21C670.914 332.003 669.841 332.4 668.488 332.4C667.041 332.4 665.968 331.957 665.268 331.07C664.521 330.277 664.148 329.25 664.148 327.99C664.148 326.17 664.871 324.653 666.318 323.44C667.811 322.18 669.444 321.34 671.218 320.92C672.991 320.453 674.788 320.22 676.608 320.22C679.874 320.22 682.744 320.873 685.218 322.18C687.738 323.44 688.998 325.517 688.998 328.41V346.4C688.998 348.407 689.744 349.41 691.238 349.41C691.938 349.41 692.591 349.153 693.198 348.64C693.711 348.173 694.131 347.683 694.458 347.17L695.578 348.57C693.804 351.23 691.214 352.56 687.808 352.56C685.988 352.56 684.494 352.233 683.328 351.58C682.021 350.927 681.111 350.017 680.598 348.85C677.798 351.37 674.508 352.63 670.728 352.63C667.928 352.63 665.618 351.883 663.798 350.39C662.024 348.897 661.138 346.773 661.138 344.02C661.138 340.893 662.304 338.607 664.638 337.16C667.018 335.713 669.864 334.99 673.178 334.99ZM670.238 343.18C670.238 345.14 670.751 346.61 671.778 347.59C672.758 348.617 673.971 349.13 675.418 349.13C676.584 349.13 677.541 348.897 678.288 348.43C679.221 347.917 679.874 347.473 680.248 347.1V338.14C679.128 337.44 677.774 337.09 676.188 337.09C674.321 337.09 672.851 337.65 671.778 338.77C670.751 339.843 670.238 341.313 670.238 343.18ZM711.01 302.23V349.76H716.26V352H697.01V349.76H702.26V305.17H697.01V302.93H702.33L711.01 302.23ZM794.746 305.17H788.096V349.76H794.746V352H772.346V349.76H778.996V328.2H757.226V349.76H763.876V352H741.476V349.76H748.126V305.17H741.476V302.93H763.876V305.17H757.226V325.96H778.996V305.17H772.346V302.93H794.746V305.17ZM811.332 334.99C814.225 334.99 816.582 335.34 818.402 336.04V327.36C818.402 325.54 818.005 324.257 817.212 323.51C816.418 322.763 815.112 322.39 813.292 322.39C812.125 322.39 811.028 322.53 810.002 322.81C808.928 323.183 808.042 323.603 807.342 324.07C808.415 324.257 809.302 324.7 810.002 325.4C810.702 326.1 811.052 326.987 811.052 328.06C811.052 329.367 810.655 330.417 809.862 331.21C809.068 332.003 807.995 332.4 806.642 332.4C805.195 332.4 804.122 331.957 803.422 331.07C802.675 330.277 802.302 329.25 802.302 327.99C802.302 326.17 803.025 324.653 804.472 323.44C805.965 322.18 807.598 321.34 809.372 320.92C811.145 320.453 812.942 320.22 814.762 320.22C818.028 320.22 820.898 320.873 823.372 322.18C825.892 323.44 827.152 325.517 827.152 328.41V346.4C827.152 348.407 827.898 349.41 829.392 349.41C830.092 349.41 830.745 349.153 831.352 348.64C831.865 348.173 832.285 347.683 832.612 347.17L833.732 348.57C831.958 351.23 829.368 352.56 825.962 352.56C824.142 352.56 822.648 352.233 821.482 351.58C820.175 350.927 819.265 350.017 818.752 348.85C815.952 351.37 812.662 352.63 808.882 352.63C806.082 352.63 803.772 351.883 801.952 350.39C800.178 348.897 799.292 346.773 799.292 344.02C799.292 340.893 800.458 338.607 802.792 337.16C805.172 335.713 808.018 334.99 811.332 334.99ZM808.392 343.18C808.392 345.14 808.905 346.61 809.932 347.59C810.912 348.617 812.125 349.13 813.572 349.13C814.738 349.13 815.695 348.897 816.442 348.43C817.375 347.917 818.028 347.473 818.402 347.1V338.14C817.282 337.44 815.928 337.09 814.342 337.09C812.475 337.09 811.005 337.65 809.932 338.77C808.905 339.843 808.392 341.313 808.392 343.18ZM849.164 302.23V349.76H854.414V352H835.164V349.76H840.414V305.17H835.164V302.93H840.484L849.164 302.23ZM871.244 302.23V349.76H876.494V352H857.244V349.76H862.494V305.17H857.244V302.93H862.564L871.244 302.23Z" fill="white"/>
<path d="M1095.92 674.568V672.52H1113.52V674.568H1108.72V698.952H1113.52V701H1095.92V698.952H1100.72V674.568H1095.92ZM1133.81 672.712C1137.73 672.712 1140.97 673.928 1143.53 676.36C1146.14 678.749 1147.44 681.864 1147.44 685.704C1147.44 689.971 1146.01 693.683 1143.15 696.84C1140.33 699.997 1136.81 701.576 1132.59 701.576C1127.94 701.576 1124.27 699.955 1121.58 696.712C1118.94 693.469 1117.61 689.501 1117.61 684.808C1117.61 677.939 1119.83 672.179 1124.27 667.528C1128.71 662.877 1134.34 659.912 1141.17 658.632L1141.29 660.68C1137.54 661.192 1134.19 663.048 1131.25 666.248C1128.3 669.405 1126.45 672.925 1125.68 676.808L1125.93 676.872C1127.55 674.099 1130.18 672.712 1133.81 672.712ZM1129.01 698.248C1129.99 699.101 1131.16 699.528 1132.53 699.528C1133.89 699.528 1135.06 699.123 1136.05 698.312C1137.03 697.459 1137.75 696.349 1138.22 694.984C1138.73 693.619 1139.07 692.317 1139.25 691.08C1139.46 689.8 1139.57 688.52 1139.57 687.24C1139.57 686.003 1139.46 684.744 1139.25 683.464C1139.07 682.184 1138.75 680.861 1138.29 679.496C1137.82 678.131 1137.09 677.021 1136.11 676.168C1135.17 675.272 1134.02 674.824 1132.65 674.824C1131.33 674.824 1130.16 675.251 1129.13 676.104C1128.15 676.915 1127.41 678.003 1126.89 679.368C1126.42 680.691 1126.08 682.013 1125.87 683.336C1125.66 684.616 1125.55 685.896 1125.55 687.176C1125.55 688.456 1125.63 689.736 1125.81 691.016C1126.02 692.253 1126.36 693.555 1126.83 694.92C1127.3 696.285 1128.02 697.395 1129.01 698.248ZM1152.44 696.904C1152.44 695.539 1152.87 694.429 1153.72 693.576C1154.58 692.723 1155.69 692.296 1157.05 692.296C1158.33 692.296 1159.44 692.723 1160.38 693.576C1161.23 694.515 1161.66 695.624 1161.66 696.904C1161.66 698.269 1161.21 699.379 1160.31 700.232C1159.46 701.085 1158.37 701.512 1157.05 701.512C1155.69 701.512 1154.6 701.107 1153.79 700.296C1152.89 699.528 1152.44 698.397 1152.44 696.904ZM1183.57 671.24C1188.39 671.24 1192.08 672.584 1194.64 675.272C1197.2 677.96 1198.48 681.672 1198.48 686.408C1198.48 690.845 1197.05 694.472 1194.19 697.288C1191.38 700.104 1187.79 701.512 1183.44 701.512C1178.54 701.512 1174.55 700.189 1171.47 697.544C1168.45 694.856 1166.93 691.144 1166.93 686.408C1166.93 681.629 1168.51 677.917 1171.67 675.272C1174.82 672.584 1178.79 671.24 1183.57 671.24ZM1185.75 699.016C1188.9 699.016 1191.42 697.736 1193.3 695.176C1195.18 692.616 1196.11 689.693 1196.11 686.408C1196.11 682.952 1195.22 679.965 1193.43 677.448C1191.68 674.888 1189.16 673.608 1185.87 673.608C1182.46 673.608 1179.84 674.867 1178 677.384C1176.21 679.901 1175.31 682.909 1175.31 686.408C1175.31 689.907 1176.23 692.893 1178.07 695.368C1179.9 697.8 1182.46 699.016 1185.75 699.016ZM1201.98 674.568V672.52H1219.58V674.568H1214.78V698.952H1219.58V701H1201.98V698.952H1206.78V674.568H1201.98Z" fill="white"/>
<path d="M1113.37 747.712C1117.29 747.712 1120.54 748.928 1123.1 751.36C1125.7 753.749 1127 756.864 1127 760.704C1127 764.971 1125.57 768.683 1122.71 771.84C1119.9 774.997 1116.38 776.576 1112.15 776.576C1107.5 776.576 1103.83 774.955 1101.14 771.712C1098.5 768.469 1097.18 764.501 1097.18 759.808C1097.18 752.939 1099.39 747.179 1103.83 742.528C1108.27 737.877 1113.9 734.912 1120.73 733.632L1120.86 735.68C1117.1 736.192 1113.75 738.048 1110.81 741.248C1107.86 744.405 1106.01 747.925 1105.24 751.808L1105.5 751.872C1107.12 749.099 1109.74 747.712 1113.37 747.712ZM1108.57 773.248C1109.55 774.101 1110.72 774.528 1112.09 774.528C1113.45 774.528 1114.63 774.123 1115.61 773.312C1116.59 772.459 1117.31 771.349 1117.78 769.984C1118.3 768.619 1118.64 767.317 1118.81 766.08C1119.02 764.8 1119.13 763.52 1119.13 762.24C1119.13 761.003 1119.02 759.744 1118.81 758.464C1118.64 757.184 1118.32 755.861 1117.85 754.496C1117.38 753.131 1116.65 752.021 1115.67 751.168C1114.73 750.272 1113.58 749.824 1112.22 749.824C1110.89 749.824 1109.72 750.251 1108.7 751.104C1107.71 751.915 1106.97 753.003 1106.46 754.368C1105.99 755.691 1105.65 757.013 1105.43 758.336C1105.22 759.616 1105.11 760.896 1105.11 762.176C1105.11 763.456 1105.2 764.736 1105.37 766.016C1105.58 767.253 1105.92 768.555 1106.39 769.92C1106.86 771.285 1107.59 772.395 1108.57 773.248ZM1132.01 771.904C1132.01 770.539 1132.43 769.429 1133.29 768.576C1134.14 767.723 1135.25 767.296 1136.61 767.296C1137.94 767.296 1139.02 767.723 1139.88 768.576C1140.77 769.429 1141.22 770.539 1141.22 771.904C1141.22 773.355 1140.82 774.485 1140.01 775.296C1139.19 776.107 1138.06 776.512 1136.61 776.512C1135.12 776.512 1133.97 776.107 1133.16 775.296C1132.39 774.485 1132.01 773.355 1132.01 771.904ZM1132.13 752.064C1132.13 750.699 1132.54 749.611 1133.35 748.8C1134.2 747.947 1135.31 747.52 1136.68 747.52C1138.09 747.52 1139.19 747.925 1140.01 748.736C1140.86 749.547 1141.29 750.656 1141.29 752.064C1141.29 753.515 1140.88 754.645 1140.07 755.456C1139.26 756.267 1138.13 756.672 1136.68 756.672C1135.23 756.672 1134.1 756.267 1133.29 755.456C1132.52 754.645 1132.13 753.515 1132.13 752.064ZM1163.2 746.24C1168.02 746.24 1171.71 747.584 1174.27 750.272C1176.83 752.96 1178.11 756.672 1178.11 761.408C1178.11 765.845 1176.68 769.472 1173.82 772.288C1171 775.104 1167.42 776.512 1163.07 776.512C1158.16 776.512 1154.17 775.189 1151.1 772.544C1148.07 769.856 1146.56 766.144 1146.56 761.408C1146.56 756.629 1148.13 752.917 1151.29 750.272C1154.45 747.584 1158.42 746.24 1163.2 746.24ZM1165.37 774.016C1168.53 774.016 1171.05 772.736 1172.92 770.176C1174.8 767.616 1175.74 764.693 1175.74 761.408C1175.74 757.952 1174.84 754.965 1173.05 752.448C1171.3 749.888 1168.78 748.608 1165.5 748.608C1162.09 748.608 1159.46 749.867 1157.63 752.384C1155.84 754.901 1154.94 757.909 1154.94 761.408C1154.94 764.907 1155.86 767.893 1157.69 770.368C1159.53 772.8 1162.09 774.016 1165.37 774.016ZM1198.7 746.24C1203.52 746.24 1207.21 747.584 1209.77 750.272C1212.33 752.96 1213.61 756.672 1213.61 761.408C1213.61 765.845 1212.18 769.472 1209.32 772.288C1206.5 775.104 1202.92 776.512 1198.57 776.512C1193.66 776.512 1189.67 775.189 1186.6 772.544C1183.57 769.856 1182.06 766.144 1182.06 761.408C1182.06 756.629 1183.63 752.917 1186.79 750.272C1189.95 747.584 1193.92 746.24 1198.7 746.24ZM1200.87 774.016C1204.03 774.016 1206.55 772.736 1208.42 770.176C1210.3 767.616 1211.24 764.693 1211.24 761.408C1211.24 757.952 1210.34 754.965 1208.55 752.448C1206.8 749.888 1204.28 748.608 1201 748.608C1197.59 748.608 1194.96 749.867 1193.13 752.384C1191.34 754.901 1190.44 757.909 1190.44 761.408C1190.44 764.907 1191.36 767.893 1193.19 770.368C1195.03 772.8 1197.59 774.016 1200.87 774.016Z" fill="white"/>
</g>
<defs>
<linearGradient id="paint0_linear_194_40" x1="52.5788" y1="0" x2="52.5788" y2="380.648" gradientUnits="userSpaceOnUse">
<stop stop-color="#4F4949"/>
<stop offset="1" stop-color="#4F4949" stop-opacity="0"/>
</linearGradient>
<linearGradient id="paint1_linear_194_40" x1="52.5788" y1="0" x2="52.5788" y2="380.648" gradientUnits="userSpaceOnUse">
<stop stop-color="#4F4949"/>
<stop offset="1" stop-color="#4F4949" stop-opacity="0"/>
</linearGradient>
<linearGradient id="paint2_linear_194_40" x1="52.5788" y1="0" x2="52.5788" y2="380.648" gradientUnits="userSpaceOnUse">
<stop stop-color="#4F4949"/>
<stop offset="1" stop-color="#4F4949" stop-opacity="0"/>
</linearGradient>
<linearGradient id="paint3_linear_194_40" x1="52.5788" y1="0" x2="52.5788" y2="380.648" gradientUnits="userSpaceOnUse">
<stop stop-color="#4F4949"/>
<stop offset="1" stop-color="#4F4949" stop-opacity="0"/>
</linearGradient>
<linearGradient id="paint4_linear_194_40" x1="52.5788" y1="0" x2="52.5788" y2="380.648" gradientUnits="userSpaceOnUse">
<stop stop-color="#4F4949"/>
<stop offset="1" stop-color="#4F4949" stop-opacity="0"/>
</linearGradient>
<linearGradient id="paint5_linear_194_40" x1="52.5788" y1="0" x2="52.5788" y2="380.648" gradientUnits="userSpaceOnUse">
<stop stop-color="#4F4949"/>
<stop offset="1" stop-color="#4F4949" stop-opacity="0"/>
</linearGradient>
<linearGradient id="paint6_linear_194_40" x1="52.5788" y1="0" x2="52.5788" y2="380.648" gradientUnits="userSpaceOnUse">
<stop stop-color="#4F4949"/>
<stop offset="1" stop-color="#4F4949" stop-opacity="0"/>
</linearGradient>
<linearGradient id="paint7_linear_194_40" x1="52.5788" y1="0" x2="52.5788" y2="380.648" gradientUnits="userSpaceOnUse">
<stop stop-color="#4F4949"/>
<stop offset="1" stop-color="#4F4949" stop-opacity="0"/>
</linearGradient>
<linearGradient id="paint8_linear_194_40" x1="52.5788" y1="0" x2="52.5788" y2="380.648" gradientUnits="userSpaceOnUse">
<stop stop-color="#4F4949"/>
<stop offset="1" stop-color="#4F4949" stop-opacity="0"/>
</linearGradient>
<linearGradient id="paint9_linear_194_40" x1="52.5788" y1="0" x2="52.5788" y2="380.648" gradientUnits="userSpaceOnUse">
<stop stop-color="#4F4949"/>
<stop offset="1" stop-color="#4F4949" stop-opacity="0"/>
</linearGradient>
<clipPath id="clip0_194_40">
<rect width="1238" height="800" fill="white" transform="translate(20 20)"/>
</clipPath>
</defs>
</svg>
