<svg width="592" height="905" viewBox="0 0 592 905" fill="none" xmlns="http://www.w3.org/2000/svg">
<rect x="9" y="14" width="573" height="877" fill="black" stroke="black" stroke-width="4"/>
<rect x="2" y="2" width="588" height="901" stroke="black" stroke-width="4"/>
<rect x="21" y="41" width="51" height="721" fill="url(#paint0_linear_119_8)"/>
<rect x="81" y="533" width="51" height="288" fill="url(#paint1_linear_119_8)"/>
<rect x="143" y="41" width="51" height="592" fill="url(#paint2_linear_119_8)"/>
<rect x="203" y="342" width="51" height="434" fill="url(#paint3_linear_119_8)"/>
<rect x="265" y="183" width="51" height="556" fill="url(#paint4_linear_119_8)"/>
<rect x="327" y="365" width="51" height="444" fill="url(#paint5_linear_119_8)"/>
<rect x="389" y="41" width="51" height="710" fill="url(#paint6_linear_119_8)"/>
<rect x="450" y="235" width="51" height="586" fill="url(#paint7_linear_119_8)"/>
<rect x="513" y="453" width="51" height="309" fill="url(#paint8_linear_119_8)"/>
<path d="M46.865 99H21.45L22.215 96.705H29.695L49.5 41.71H41.935L42.785 39.415H62.42C64.5167 39.415 66.4717 39.5567 68.285 39.84C70.155 40.1233 72.0533 40.6333 73.98 41.37C75.9633 42.05 77.5217 43.155 78.655 44.685C79.7883 46.1583 80.355 47.9717 80.355 50.125C80.355 54.9417 78.3717 58.9933 74.405 62.28C70.495 65.5667 66.0467 67.295 61.06 67.465L60.975 67.805C68.625 69.505 72.45 73.1317 72.45 78.685C72.45 82.935 71.1183 86.675 68.455 89.905C65.7917 93.0783 62.5617 95.4017 58.765 96.875C54.9683 98.2917 51.0017 99 46.865 99ZM47.8 68.91L37.77 96.705H47.46C52.22 96.705 56.1867 94.6367 59.36 90.5C62.5333 86.3633 64.12 81.83 64.12 76.9C64.12 71.5733 60.975 68.91 54.685 68.91H47.8ZM48.65 66.615H56.555C60.6917 66.615 64.2617 64.83 67.265 61.26C70.325 57.6333 71.855 53.7233 71.855 49.53C71.855 44.3167 68.5117 41.71 61.825 41.71H57.575L48.65 66.615Z" fill="white"/>
<path d="M121.885 560H78.45L79.215 557.705H86.695L106.5 502.71H98.935L99.785 500.415H138.885L133.445 517.84H131.235L133.105 502.71H114.575L105.48 528.21H117.21L122.225 519.285H124.435L116.785 540.365H114.66L116.445 530.505H104.545L94.77 557.705H117.38L126.135 543.68H128.26L121.885 560Z" fill="white"/>
<path d="M491.885 290H448.45L449.215 287.705H456.695L476.5 232.71H468.935L469.785 230.415H508.885L503.445 247.84H501.235L503.105 232.71H484.575L475.48 258.21H487.21L492.225 249.285H494.435L486.785 270.365H484.66L486.445 260.505H474.545L464.77 287.705H487.38L496.135 273.68H498.26L491.885 290Z" fill="white"/>
<path d="M523.3 495H505.45L506.215 492.705L514.035 491.855L533.67 437.71H525.935L526.785 435.415H541.15L551.86 482.08L567.585 438.56L560.19 437.71L561.04 435.415H578.975L578.125 437.71L570.135 438.56L549.65 495.68H547.27L534.775 441.875L516.67 491.855L523.98 492.705L523.3 495Z" fill="white"/>
<path d="M186.885 131H143.45L144.215 128.705H151.695L171.5 73.71H163.935L164.785 71.415H203.885L198.445 88.84H196.235L198.105 73.71H179.575L170.48 99.21H182.21L187.225 90.285H189.435L181.785 111.365H179.66L181.445 101.505H169.545L159.77 128.705H182.38L191.135 114.68H193.26L186.885 131Z" fill="white"/>
<path d="M210.005 361.755H207.795L214.34 344.415H260.665L255.395 361.755H253.185L254.885 347.05H240.605L220.97 401.705H228.195L227.515 404H204.65L205.415 401.705H212.895L232.53 347.05H218.675L210.005 361.755Z" fill="white"/>
<path d="M337.905 161.71H330.255L310.62 216.705H318.27L317.505 219H294.13L294.895 216.705H302.545L312.235 189.76H285.46L275.94 216.705H283.42L282.655 219H259.45L260.215 216.705H267.865L287.415 161.71H279.68L280.53 159.415H303.99L303.14 161.71H295.49L286.31 187.38H313L322.18 161.71H314.53L315.38 159.415H338.755L337.905 161.71Z" fill="white"/>
<path d="M348.835 377.68C342.205 377.68 337.02 375.697 333.28 371.73C329.54 367.763 327.67 362.522 327.67 356.005C327.67 351.302 328.548 346.627 330.305 341.98C332.062 337.277 334.442 333.055 337.445 329.315C340.448 325.575 344.132 322.543 348.495 320.22C352.858 317.897 357.448 316.735 362.265 316.735C369.065 316.735 374.363 318.662 378.16 322.515C381.957 326.312 383.855 331.525 383.855 338.155C383.855 344.218 382.325 350.282 379.265 356.345C376.205 362.408 371.927 367.48 366.43 371.56C360.933 375.64 355.068 377.68 348.835 377.68ZM376.035 334.67C376.035 330.137 374.958 326.425 372.805 323.535C370.652 320.588 367.45 319.115 363.2 319.115C359.233 319.115 355.465 320.475 351.895 323.195C348.382 325.915 345.492 329.343 343.225 333.48C340.958 337.56 339.173 341.867 337.87 346.4C336.567 350.933 335.915 355.098 335.915 358.895C335.915 363.258 336.85 366.857 338.72 369.69C340.817 373.317 344.047 375.13 348.41 375.13C351.753 375.13 354.983 374.11 358.1 372.07C361.217 369.973 363.88 367.282 366.09 363.995C368.3 360.708 370.17 357.337 371.7 353.88C373.23 350.367 374.363 346.938 375.1 343.595C375.723 340.308 376.035 337.333 376.035 334.67Z" fill="white"/>
<path d="M430.83 65.71L431.765 63.415H450.04L449.105 65.71L441.2 66.56L402.44 123.68H400.06L399.975 65.71H392.325L393.175 63.415H415.955L415.105 65.71H407.37L407.625 111.78L438.31 66.56L430.83 65.71Z" fill="white"/>
<path d="M31.8 859H20.256L20.472 858.352H22.584L28.152 842.824H26.04L26.28 842.176H32.736L32.496 842.824H30.432L24.864 858.352H30.504L33.36 853.984H33.96L31.8 859ZM41.3981 848.08C42.7421 848.08 43.7901 848.44 44.5421 849.16C45.2941 849.88 45.6701 850.896 45.6701 852.208C45.6701 854 45.0301 855.624 43.7501 857.08C42.4701 858.52 40.9501 859.24 39.1901 859.24C37.8941 859.24 36.8541 858.912 36.0701 858.256C35.3021 857.6 34.9181 856.64 34.9181 855.376C34.9181 853.456 35.5341 851.76 36.7661 850.288C37.9981 848.816 39.5421 848.08 41.3981 848.08ZM37.2461 855.928C37.2461 856.664 37.3661 857.256 37.6061 857.704C37.8621 858.28 38.3661 858.568 39.1181 858.568C39.9341 858.568 40.6861 858.12 41.3741 857.224C42.0621 856.328 42.5741 855.336 42.9101 854.248C43.2461 853.144 43.4141 852.168 43.4141 851.32C43.4141 850.168 43.0941 849.376 42.4541 848.944C42.2301 848.816 41.9501 848.752 41.6141 848.752C40.7501 848.752 39.9661 849.192 39.2621 850.072C38.5741 850.952 38.0621 851.928 37.7261 853C37.4061 854.072 37.2461 855.048 37.2461 855.928ZM56.2948 848.08C56.9828 848.08 57.5108 848.272 57.8788 848.656C58.2628 849.024 58.4548 849.544 58.4548 850.216C58.4548 850.728 58.3348 851.392 58.0948 852.208C58.0628 852.288 57.9988 852.464 57.9028 852.736C57.8068 852.992 57.7348 853.192 57.6868 853.336C57.6388 853.464 57.5588 853.672 57.4468 853.96C57.3348 854.248 57.2548 854.456 57.2068 854.584C57.1428 854.728 57.0548 854.936 56.9428 855.208C56.8468 855.48 56.7828 855.664 56.7508 855.76C56.5588 856.24 56.4468 856.528 56.4148 856.624C56.3028 856.896 56.2468 857.152 56.2468 857.392C56.2468 857.6 56.3188 857.768 56.4628 857.896C56.5748 858.008 56.7348 858.064 56.9428 858.064C57.4228 858.064 57.8548 857.84 58.2388 857.392C58.6388 856.928 58.9188 856.464 59.0788 856C59.2548 855.52 59.3988 855.016 59.5108 854.488L60.0628 854.872C59.9188 855.384 59.7508 855.872 59.5588 856.336C59.3668 856.784 59.1188 857.24 58.8148 857.704C58.5108 858.168 58.1348 858.544 57.6868 858.832C57.2388 859.104 56.7588 859.24 56.2468 859.24C55.5748 859.24 55.0308 859.088 54.6148 858.784C54.2148 858.48 54.0148 858 54.0148 857.344C54.0148 857.088 54.0788 856.768 54.2068 856.384C54.3348 856.08 54.4788 855.696 54.6388 855.232C55.0868 854.08 55.4148 853.208 55.6228 852.616C55.8308 852.008 55.9428 851.688 55.9588 851.656C56.0068 851.528 56.0628 851.336 56.1268 851.08C56.1588 850.856 56.1748 850.664 56.1748 850.504C56.1748 849.8 55.8468 849.448 55.1908 849.448C54.7108 849.448 54.2228 849.656 53.7268 850.072C53.2468 850.472 52.8148 850.992 52.4308 851.632C52.0468 852.272 51.7268 852.872 51.4708 853.432C51.2148 853.992 50.9908 854.544 50.7988 855.088L49.3828 859H47.1028L50.6548 848.992H48.4948L48.7348 848.32L52.8148 848.032C52.7668 848.768 52.6068 849.536 52.3348 850.336L52.0948 851.08L52.1668 851.128C52.7748 850.2 53.3908 849.464 54.0148 848.92C54.6548 848.36 55.4148 848.08 56.2948 848.08ZM65.4294 858.016C66.0854 858.016 66.7254 857.656 67.3494 856.936C67.9734 856.2 68.4614 855.384 68.8134 854.488C69.1814 853.592 69.3974 852.8 69.4614 852.112C69.5094 851.632 69.5334 851.256 69.5334 850.984C69.5334 850.488 69.4294 850.072 69.2214 849.736C69.0134 849.384 68.6854 849.208 68.2374 849.208C67.4694 849.208 66.7414 849.632 66.0534 850.48C65.3814 851.312 64.8694 852.248 64.5174 853.288C64.1814 854.328 64.0134 855.248 64.0134 856.048C64.0134 856.576 64.1254 857.04 64.3494 857.44C64.5734 857.824 64.9334 858.016 65.4294 858.016ZM71.1414 842.176L75.6294 842.008C75.3094 842.92 74.8774 844.144 74.3334 845.68C73.7894 847.2 73.4134 848.256 73.2054 848.848C72.7894 850 72.4854 850.856 72.2934 851.416C72.0694 852.008 71.5814 853.384 70.8294 855.544C70.7014 855.928 70.5894 856.232 70.4934 856.456C70.3814 856.792 70.3254 857.08 70.3254 857.32C70.3254 857.8 70.5494 858.04 70.9974 858.04C71.5734 858.04 72.0774 857.64 72.5094 856.84C72.9574 856.04 73.2534 855.256 73.3974 854.488L73.9494 854.872C73.6134 856.088 73.1654 857.08 72.6054 857.848C71.8534 858.776 71.0054 859.24 70.0614 859.24C69.5334 859.24 69.0934 859.088 68.7414 858.784C68.3894 858.464 68.2134 858.04 68.2134 857.512C68.2134 857.304 68.2454 857.096 68.3094 856.888C68.3414 856.728 68.4054 856.488 68.5014 856.168C67.4294 858.216 66.0854 859.24 64.4694 859.24C63.5574 859.24 62.8534 858.952 62.3574 858.376C61.8614 857.8 61.6134 857.048 61.6134 856.12C61.6134 855.304 61.7494 854.44 62.0214 853.528C62.2934 852.616 62.6694 851.752 63.1494 850.936C63.6294 850.104 64.2454 849.424 64.9974 848.896C65.7654 848.352 66.5894 848.08 67.4694 848.08C69.2454 848.08 70.1334 849.088 70.1334 851.104L70.2294 851.08C70.3254 850.728 70.4214 850.392 70.5174 850.072C70.5814 849.752 70.6774 849.44 70.8054 849.136C70.9174 848.784 71.0374 848.432 71.1654 848.08C71.3094 847.696 71.4774 847.24 71.6694 846.712L73.0614 842.824H70.9014L71.1414 842.176ZM81.9684 848.08C83.3124 848.08 84.3604 848.44 85.1124 849.16C85.8644 849.88 86.2404 850.896 86.2404 852.208C86.2404 854 85.6004 855.624 84.3204 857.08C83.0404 858.52 81.5204 859.24 79.7604 859.24C78.4644 859.24 77.4244 858.912 76.6404 858.256C75.8724 857.6 75.4884 856.64 75.4884 855.376C75.4884 853.456 76.1044 851.76 77.3364 850.288C78.5684 848.816 80.1124 848.08 81.9684 848.08ZM77.8164 855.928C77.8164 856.664 77.9364 857.256 78.1764 857.704C78.4324 858.28 78.9364 858.568 79.6884 858.568C80.5044 858.568 81.2564 858.12 81.9444 857.224C82.6324 856.328 83.1444 855.336 83.4804 854.248C83.8164 853.144 83.9844 852.168 83.9844 851.32C83.9844 850.168 83.6644 849.376 83.0244 848.944C82.8004 848.816 82.5204 848.752 82.1844 848.752C81.3204 848.752 80.5364 849.192 79.8324 850.072C79.1444 850.952 78.6324 851.928 78.2964 853C77.9764 854.072 77.8164 855.048 77.8164 855.928ZM96.8651 848.08C97.5531 848.08 98.0811 848.272 98.4491 848.656C98.8331 849.024 99.0251 849.544 99.0251 850.216C99.0251 850.728 98.9051 851.392 98.6651 852.208C98.6331 852.288 98.5691 852.464 98.4731 852.736C98.3771 852.992 98.3051 853.192 98.2571 853.336C98.2091 853.464 98.1291 853.672 98.0171 853.96C97.9051 854.248 97.8251 854.456 97.7771 854.584C97.7131 854.728 97.6251 854.936 97.5131 855.208C97.4171 855.48 97.3531 855.664 97.3211 855.76C97.1291 856.24 97.0171 856.528 96.9851 856.624C96.8731 856.896 96.8171 857.152 96.8171 857.392C96.8171 857.6 96.8891 857.768 97.0331 857.896C97.1451 858.008 97.3051 858.064 97.5131 858.064C97.9931 858.064 98.4251 857.84 98.8091 857.392C99.2091 856.928 99.4891 856.464 99.6491 856C99.8251 855.52 99.9691 855.016 100.081 854.488L100.633 854.872C100.489 855.384 100.321 855.872 100.129 856.336C99.9371 856.784 99.6891 857.24 99.3851 857.704C99.0811 858.168 98.7051 858.544 98.2571 858.832C97.8091 859.104 97.3291 859.24 96.8171 859.24C96.1451 859.24 95.6011 859.088 95.1851 858.784C94.7851 858.48 94.5851 858 94.5851 857.344C94.5851 857.088 94.6491 856.768 94.7771 856.384C94.9051 856.08 95.0491 855.696 95.2091 855.232C95.6571 854.08 95.9851 853.208 96.1931 852.616C96.4011 852.008 96.5131 851.688 96.5291 851.656C96.5771 851.528 96.6331 851.336 96.6971 851.08C96.7291 850.856 96.7451 850.664 96.7451 850.504C96.7451 849.8 96.4171 849.448 95.7611 849.448C95.2811 849.448 94.7931 849.656 94.2971 850.072C93.8171 850.472 93.3851 850.992 93.0011 851.632C92.6171 852.272 92.2971 852.872 92.0411 853.432C91.7851 853.992 91.5611 854.544 91.3691 855.088L89.9531 859H87.6731L91.2251 848.992H89.0651L89.3051 848.32L93.3851 848.032C93.3371 848.768 93.1771 849.536 92.9051 850.336L92.6651 851.08L92.7371 851.128C93.3451 850.2 93.9611 849.464 94.5851 848.92C95.2251 848.36 95.9851 848.08 96.8651 848.08ZM115.755 851.488C114.955 851.488 114.155 851.4 113.355 851.224L110.763 858.352H113.187L112.995 859H106.155L106.371 858.352H108.483L114.075 842.824H111.939L112.179 842.176H117.867C118.475 842.176 119.051 842.232 119.595 842.344C120.155 842.44 120.691 842.608 121.203 842.848C121.731 843.072 122.147 843.416 122.451 843.88C122.771 844.328 122.931 844.872 122.931 845.512C122.931 847.32 122.203 848.768 120.747 849.856C119.291 850.944 117.627 851.488 115.755 851.488ZM115.443 850.84C116.947 850.84 118.187 850.312 119.163 849.256C120.155 848.184 120.651 846.896 120.651 845.392C120.651 844.416 120.355 843.744 119.763 843.376C119.187 843.008 118.387 842.824 117.363 842.824H116.355L113.571 850.552C114.051 850.744 114.675 850.84 115.443 850.84ZM130.067 848.08C130.755 848.08 131.291 848.28 131.675 848.68C132.059 849.064 132.251 849.6 132.251 850.288C132.251 851.056 132.115 851.76 131.843 852.4L130.475 856.048C130.331 856.4 130.243 856.656 130.211 856.816C130.147 857.008 130.115 857.2 130.115 857.392C130.115 857.616 130.195 857.784 130.355 857.896C130.483 858.008 130.643 858.064 130.835 858.064C131.091 858.064 131.331 857.96 131.555 857.752C132.339 857.128 132.891 856.04 133.211 854.488L133.763 854.848C133.459 856.016 132.987 857.04 132.347 857.92C131.723 858.8 130.915 859.24 129.923 859.24C128.595 859.24 127.931 858.616 127.931 857.368C127.931 856.968 128.059 856.416 128.315 855.712L129.827 851.656C129.971 851.272 130.043 850.88 130.043 850.48C130.043 849.792 129.707 849.448 129.035 849.448C128.603 849.448 128.171 849.608 127.739 849.928C127.323 850.248 126.971 850.616 126.683 851.032C126.411 851.432 126.115 851.968 125.795 852.64C125.491 853.312 125.267 853.832 125.123 854.2C124.995 854.568 124.835 855.048 124.643 855.64L124.115 857.128C123.779 858.072 123.547 858.696 123.419 859H121.139L126.851 842.848H124.691L124.907 842.176L129.515 841.864L127.715 846.904C127.395 847.736 127.123 848.4 126.899 848.896C126.675 849.344 126.347 850.072 125.915 851.08L125.987 851.128C126.451 850.264 127.035 849.544 127.739 848.968C128.443 848.376 129.219 848.08 130.067 848.08ZM135.948 848.32L140.556 848.008L137.556 856.36C137.428 856.664 137.364 856.976 137.364 857.296C137.364 857.792 137.588 858.04 138.036 858.04C138.292 858.04 138.548 857.936 138.804 857.728C139.204 857.44 139.548 856.976 139.836 856.336C140.14 855.696 140.34 855.08 140.436 854.488L140.988 854.872C140.092 857.784 138.82 859.24 137.172 859.24C136.564 859.24 136.084 859.056 135.732 858.688C135.38 858.32 135.204 857.824 135.204 857.2C135.204 856.64 135.324 856.056 135.564 855.448L137.916 848.968H135.732L135.948 848.32ZM140.268 845.872C139.884 845.872 139.548 845.744 139.26 845.488C138.988 845.216 138.852 844.888 138.852 844.504C138.852 844.104 138.988 843.776 139.26 843.52C139.532 843.248 139.868 843.112 140.268 843.112C140.652 843.112 140.972 843.24 141.228 843.496C141.5 843.752 141.636 844.072 141.636 844.456C141.636 844.824 141.5 845.152 141.228 845.44C140.956 845.728 140.636 845.872 140.268 845.872ZM145.491 842.176L150.075 841.792L144.795 856.672C144.715 856.944 144.675 857.152 144.675 857.296C144.675 857.584 144.747 857.776 144.891 857.872C145.003 857.984 145.155 858.04 145.347 858.04C145.923 858.04 146.435 857.64 146.883 856.84C147.331 856.024 147.619 855.24 147.747 854.488L148.299 854.872C148.171 855.352 148.003 855.824 147.795 856.288C147.603 856.752 147.355 857.216 147.051 857.68C146.763 858.144 146.395 858.52 145.947 858.808C145.515 859.096 145.051 859.24 144.555 859.24C144.091 859.24 143.667 859.12 143.283 858.88C142.915 858.64 142.707 858.296 142.659 857.848C142.611 857.64 142.587 857.44 142.587 857.248C142.587 856.912 142.635 856.568 142.731 856.216C142.779 856.056 142.867 855.776 142.995 855.376L147.411 842.848H145.251L145.491 842.176ZM158.848 848.08C159.536 848.08 160.072 848.28 160.456 848.68C160.84 849.064 161.032 849.6 161.032 850.288C161.032 851.056 160.896 851.76 160.624 852.4L159.256 856.048C159.112 856.4 159.024 856.656 158.992 856.816C158.928 857.008 158.896 857.2 158.896 857.392C158.896 857.616 158.976 857.784 159.136 857.896C159.264 858.008 159.424 858.064 159.616 858.064C159.872 858.064 160.112 857.96 160.336 857.752C161.12 857.128 161.672 856.04 161.992 854.488L162.544 854.848C162.24 856.016 161.768 857.04 161.128 857.92C160.504 858.8 159.696 859.24 158.704 859.24C157.376 859.24 156.712 858.616 156.712 857.368C156.712 856.968 156.84 856.416 157.096 855.712L158.608 851.656C158.752 851.272 158.824 850.88 158.824 850.48C158.824 849.792 158.488 849.448 157.816 849.448C157.384 849.448 156.952 849.608 156.52 849.928C156.104 850.248 155.752 850.616 155.464 851.032C155.192 851.432 154.896 851.968 154.576 852.64C154.272 853.312 154.048 853.832 153.904 854.2C153.776 854.568 153.616 855.048 153.424 855.64L152.896 857.128C152.56 858.072 152.328 858.696 152.2 859H149.92L155.632 842.848H153.472L153.688 842.176L158.296 841.864L156.496 846.904C156.176 847.736 155.904 848.4 155.68 848.896C155.456 849.344 155.128 850.072 154.696 851.08L154.768 851.128C155.232 850.264 155.816 849.544 156.52 848.968C157.224 848.376 158 848.08 158.848 848.08ZM167.946 858.016C168.634 858.016 169.314 857.56 169.986 856.648C170.674 855.72 171.162 854.808 171.45 853.912L171.714 853.096C171.778 852.856 171.85 852.528 171.93 852.112C171.978 851.728 172.002 851.352 172.002 850.984C172.002 849.8 171.546 849.208 170.634 849.208C169.882 849.208 169.17 849.632 168.498 850.48C167.826 851.312 167.314 852.248 166.962 853.288C166.626 854.328 166.458 855.248 166.458 856.048C166.458 856.592 166.578 857.056 166.818 857.44C167.058 857.824 167.434 858.016 167.946 858.016ZM175.146 848.08L175.698 848.32L172.89 856.168C172.714 856.664 172.626 857.048 172.626 857.32C172.626 857.8 172.866 858.04 173.346 858.04C173.73 858.04 174.098 857.8 174.45 857.32C174.802 856.824 175.066 856.336 175.242 855.856C175.434 855.36 175.578 854.904 175.674 854.488L176.226 854.872C176.05 855.592 175.81 856.256 175.506 856.864C175.202 857.472 174.762 858.024 174.186 858.52C173.626 859 173.002 859.24 172.314 859.24C171.85 859.24 171.458 859.112 171.138 858.856C170.786 858.616 170.61 858.2 170.61 857.608C170.61 857.176 170.682 856.768 170.826 856.384C170.362 857.2 169.778 857.88 169.074 858.424C168.37 858.968 167.594 859.24 166.746 859.24C165.898 859.24 165.242 858.92 164.778 858.28C164.33 857.64 164.106 856.88 164.106 856C164.106 854.912 164.33 853.776 164.778 852.592C165.242 851.392 165.946 850.344 166.89 849.448C167.834 848.536 168.874 848.08 170.01 848.08C170.842 848.08 171.482 848.328 171.93 848.824C172.394 849.304 172.626 849.96 172.626 850.792L175.146 848.08ZM186.265 848.08C186.777 848.08 187.185 848.24 187.489 848.56C187.793 848.88 187.945 849.296 187.945 849.808C187.945 850.192 187.833 850.528 187.609 850.816C187.385 851.088 187.081 851.224 186.697 851.224C186.377 851.224 186.113 851.128 185.905 850.936C185.713 850.728 185.617 850.464 185.617 850.144C185.617 849.472 185.977 849.04 186.697 848.848C186.681 848.832 186.649 848.816 186.601 848.8C186.569 848.784 186.537 848.768 186.505 848.752C186.409 848.72 186.297 848.704 186.169 848.704C185.625 848.704 185.057 848.992 184.465 849.568C183.889 850.144 183.361 850.888 182.881 851.8C182.417 852.712 182.025 853.536 181.705 854.272C181.401 854.992 181.129 855.696 180.889 856.384L179.953 859H177.673L181.249 848.992H179.089L179.329 848.32L183.337 848.032C183.337 849.056 182.985 850.288 182.281 851.728L182.353 851.776C182.609 851.264 182.833 850.848 183.025 850.528C183.233 850.192 183.497 849.816 183.817 849.4C184.153 848.968 184.529 848.64 184.945 848.416C185.361 848.192 185.801 848.08 186.265 848.08ZM197.032 848.08C197.64 848.08 198.136 848.248 198.52 848.584C198.888 848.952 199.072 849.432 199.072 850.024C199.072 850.232 199.064 850.392 199.048 850.504C199.032 850.568 199.008 850.664 198.976 850.792C198.96 850.92 198.952 851.016 198.952 851.08L199.048 851.128C199.576 850.168 200.152 849.424 200.776 848.896C201.416 848.352 202.2 848.08 203.128 848.08C204.52 848.08 205.216 848.744 205.216 850.072C205.216 850.76 205.016 851.656 204.616 852.76L203.152 856.648C203.056 856.968 203.008 857.216 203.008 857.392C203.008 857.584 203.064 857.744 203.176 857.872C203.304 858 203.464 858.064 203.656 858.064C204.248 858.064 204.768 857.664 205.216 856.864C205.664 856.048 205.96 855.256 206.104 854.488L206.656 854.848C205.856 857.776 204.528 859.24 202.672 859.24C202.096 859.24 201.632 859.088 201.28 858.784C200.928 858.48 200.752 858.04 200.752 857.464C200.752 857.224 200.784 856.984 200.848 856.744C200.88 856.568 200.968 856.264 201.112 855.832L202.384 852.568C202.672 851.864 202.816 851.176 202.816 850.504C202.816 850.232 202.744 849.984 202.6 849.76C202.44 849.568 202.176 849.472 201.808 849.472C201.264 849.472 200.688 849.824 200.08 850.528C199.488 851.216 199.008 851.928 198.64 852.664C198.288 853.4 198 854.112 197.776 854.8L196.288 859H194.008L196.36 852.424C196.616 851.752 196.744 851.112 196.744 850.504C196.744 849.816 196.408 849.472 195.736 849.472C195.16 849.472 194.56 849.856 193.936 850.624C193.328 851.392 192.848 852.16 192.496 852.928C192.144 853.68 191.84 854.432 191.584 855.184L190.24 859H187.96L191.512 848.992H189.352L189.592 848.32L193.648 848.032C193.648 848.704 193.504 849.432 193.216 850.216L192.928 851.08L193.024 851.128C194.032 849.096 195.368 848.08 197.032 848.08ZM214.789 848.08C216.133 848.08 217.181 848.44 217.933 849.16C218.685 849.88 219.061 850.896 219.061 852.208C219.061 854 218.421 855.624 217.141 857.08C215.861 858.52 214.341 859.24 212.581 859.24C211.285 859.24 210.245 858.912 209.461 858.256C208.693 857.6 208.309 856.64 208.309 855.376C208.309 853.456 208.925 851.76 210.157 850.288C211.389 848.816 212.933 848.08 214.789 848.08ZM210.637 855.928C210.637 856.664 210.757 857.256 210.997 857.704C211.253 858.28 211.757 858.568 212.509 858.568C213.325 858.568 214.077 858.12 214.765 857.224C215.453 856.328 215.965 855.336 216.301 854.248C216.637 853.144 216.805 852.168 216.805 851.32C216.805 850.168 216.485 849.376 215.845 848.944C215.621 848.816 215.341 848.752 215.005 848.752C214.141 848.752 213.357 849.192 212.653 850.072C211.965 850.952 211.453 851.928 211.117 853C210.797 854.072 210.637 855.048 210.637 855.928ZM229.685 848.08C230.373 848.08 230.901 848.272 231.269 848.656C231.653 849.024 231.845 849.544 231.845 850.216C231.845 850.728 231.725 851.392 231.485 852.208C231.453 852.288 231.389 852.464 231.293 852.736C231.197 852.992 231.125 853.192 231.077 853.336C231.029 853.464 230.949 853.672 230.837 853.96C230.725 854.248 230.645 854.456 230.597 854.584C230.533 854.728 230.445 854.936 230.333 855.208C230.237 855.48 230.173 855.664 230.141 855.76C229.949 856.24 229.837 856.528 229.805 856.624C229.693 856.896 229.637 857.152 229.637 857.392C229.637 857.6 229.709 857.768 229.853 857.896C229.965 858.008 230.125 858.064 230.333 858.064C230.813 858.064 231.245 857.84 231.629 857.392C232.029 856.928 232.309 856.464 232.469 856C232.645 855.52 232.789 855.016 232.901 854.488L233.453 854.872C233.309 855.384 233.141 855.872 232.949 856.336C232.757 856.784 232.509 857.24 232.205 857.704C231.901 858.168 231.525 858.544 231.077 858.832C230.629 859.104 230.149 859.24 229.637 859.24C228.965 859.24 228.421 859.088 228.005 858.784C227.605 858.48 227.405 858 227.405 857.344C227.405 857.088 227.469 856.768 227.597 856.384C227.725 856.08 227.869 855.696 228.029 855.232C228.477 854.08 228.805 853.208 229.013 852.616C229.221 852.008 229.333 851.688 229.349 851.656C229.397 851.528 229.453 851.336 229.517 851.08C229.549 850.856 229.565 850.664 229.565 850.504C229.565 849.8 229.237 849.448 228.581 849.448C228.101 849.448 227.613 849.656 227.117 850.072C226.637 850.472 226.205 850.992 225.821 851.632C225.437 852.272 225.117 852.872 224.861 853.432C224.605 853.992 224.381 854.544 224.189 855.088L222.773 859H220.493L224.045 848.992H221.885L222.125 848.32L226.205 848.032C226.157 848.768 225.997 849.536 225.725 850.336L225.485 851.08L225.557 851.128C226.165 850.2 226.781 849.464 227.405 848.92C228.045 848.36 228.805 848.08 229.685 848.08ZM235.628 848.32L240.236 848.008L237.236 856.36C237.108 856.664 237.044 856.976 237.044 857.296C237.044 857.792 237.268 858.04 237.716 858.04C237.972 858.04 238.228 857.936 238.484 857.728C238.884 857.44 239.228 856.976 239.516 856.336C239.82 855.696 240.02 855.08 240.116 854.488L240.668 854.872C239.772 857.784 238.5 859.24 236.852 859.24C236.244 859.24 235.764 859.056 235.412 858.688C235.06 858.32 234.884 857.824 234.884 857.2C234.884 856.64 235.004 856.056 235.244 855.448L237.596 848.968H235.412L235.628 848.32ZM239.948 845.872C239.564 845.872 239.228 845.744 238.94 845.488C238.668 845.216 238.532 844.888 238.532 844.504C238.532 844.104 238.668 843.776 238.94 843.52C239.212 843.248 239.548 843.112 239.948 843.112C240.332 843.112 240.652 843.24 240.908 843.496C241.18 843.752 241.316 844.072 241.316 844.456C241.316 844.824 241.18 845.152 240.908 845.44C240.636 845.728 240.316 845.872 239.948 845.872ZM248.459 848.08C249.275 848.08 250.003 848.288 250.643 848.704C251.283 849.12 251.603 849.712 251.603 850.48C251.603 850.88 251.491 851.224 251.267 851.512C251.043 851.784 250.739 851.92 250.355 851.92C250.035 851.92 249.779 851.816 249.587 851.608C249.379 851.4 249.275 851.144 249.275 850.84C249.275 850.504 249.379 850.224 249.587 850C249.795 849.76 250.067 849.608 250.403 849.544C250.163 849.048 249.691 848.8 248.987 848.8C248.123 848.8 247.347 849.208 246.659 850.024C245.987 850.84 245.499 851.752 245.195 852.76C244.891 853.768 244.739 854.712 244.739 855.592C244.739 856.36 244.915 856.992 245.267 857.488C245.619 857.968 246.163 858.208 246.899 858.208C247.619 858.208 248.275 857.904 248.867 857.296C249.475 856.688 249.907 856 250.163 855.232L250.667 855.64C250.363 856.648 249.763 857.504 248.867 858.208C247.987 858.896 247.027 859.24 245.987 859.24C244.867 859.24 243.987 858.896 243.347 858.208C242.707 857.504 242.387 856.6 242.387 855.496C242.387 854.296 242.619 853.144 243.083 852.04C243.547 850.92 244.251 849.984 245.195 849.232C246.155 848.464 247.243 848.08 248.459 848.08ZM265.627 859.192C263.755 859.192 262.291 858.632 261.235 857.512C260.179 856.392 259.651 854.912 259.651 853.072C259.651 851.744 259.899 850.424 260.395 849.112C260.891 847.784 261.563 846.592 262.411 845.536C263.259 844.48 264.299 843.624 265.531 842.968C266.763 842.312 268.059 841.984 269.419 841.984C271.339 841.984 272.835 842.528 273.907 843.616C274.979 844.688 275.515 846.16 275.515 848.032C275.515 849.744 275.083 851.456 274.219 853.168C273.355 854.88 272.147 856.312 270.595 857.464C269.043 858.616 267.387 859.192 265.627 859.192ZM273.307 847.048C273.307 845.768 273.003 844.72 272.395 843.904C271.787 843.072 270.883 842.656 269.683 842.656C268.563 842.656 267.499 843.04 266.491 843.808C265.499 844.576 264.683 845.544 264.043 846.712C263.403 847.864 262.899 849.08 262.531 850.36C262.163 851.64 261.979 852.816 261.979 853.888C261.979 855.12 262.243 856.136 262.771 856.936C263.363 857.96 264.275 858.472 265.507 858.472C266.451 858.472 267.363 858.184 268.243 857.608C269.123 857.016 269.875 856.256 270.499 855.328C271.123 854.4 271.651 853.448 272.083 852.472C272.515 851.48 272.835 850.512 273.043 849.568C273.219 848.64 273.307 847.8 273.307 847.048ZM284.515 848.08C285.027 848.08 285.435 848.24 285.739 848.56C286.043 848.88 286.195 849.296 286.195 849.808C286.195 850.192 286.083 850.528 285.859 850.816C285.635 851.088 285.331 851.224 284.947 851.224C284.627 851.224 284.363 851.128 284.155 850.936C283.963 850.728 283.867 850.464 283.867 850.144C283.867 849.472 284.227 849.04 284.947 848.848C284.931 848.832 284.899 848.816 284.851 848.8C284.819 848.784 284.787 848.768 284.755 848.752C284.659 848.72 284.547 848.704 284.419 848.704C283.875 848.704 283.307 848.992 282.715 849.568C282.139 850.144 281.611 850.888 281.131 851.8C280.667 852.712 280.275 853.536 279.955 854.272C279.651 854.992 279.379 855.696 279.139 856.384L278.203 859H275.923L279.499 848.992H277.339L277.579 848.32L281.587 848.032C281.587 849.056 281.235 850.288 280.531 851.728L280.603 851.776C280.859 851.264 281.083 850.848 281.275 850.528C281.483 850.192 281.747 849.816 282.067 849.4C282.403 848.968 282.779 848.64 283.195 848.416C283.611 848.192 284.051 848.08 284.515 848.08ZM292.264 848.08C293.08 848.08 293.808 848.288 294.448 848.704C295.088 849.12 295.408 849.712 295.408 850.48C295.408 850.88 295.296 851.224 295.072 851.512C294.848 851.784 294.544 851.92 294.16 851.92C293.84 851.92 293.584 851.816 293.392 851.608C293.184 851.4 293.08 851.144 293.08 850.84C293.08 850.504 293.184 850.224 293.392 850C293.6 849.76 293.872 849.608 294.208 849.544C293.968 849.048 293.496 848.8 292.792 848.8C291.928 848.8 291.152 849.208 290.464 850.024C289.792 850.84 289.304 851.752 289 852.76C288.696 853.768 288.544 854.712 288.544 855.592C288.544 856.36 288.72 856.992 289.072 857.488C289.424 857.968 289.968 858.208 290.704 858.208C291.424 858.208 292.08 857.904 292.672 857.296C293.28 856.688 293.712 856 293.968 855.232L294.472 855.64C294.168 856.648 293.568 857.504 292.672 858.208C291.792 858.896 290.832 859.24 289.792 859.24C288.672 859.24 287.792 858.896 287.152 858.208C286.512 857.504 286.192 856.6 286.192 855.496C286.192 854.296 286.424 853.144 286.888 852.04C287.352 850.92 288.056 849.984 289 849.232C289.96 848.464 291.048 848.08 292.264 848.08ZM305.005 848.08C305.693 848.08 306.229 848.28 306.613 848.68C306.997 849.064 307.189 849.6 307.189 850.288C307.189 851.056 307.053 851.76 306.781 852.4L305.413 856.048C305.269 856.4 305.181 856.656 305.149 856.816C305.085 857.008 305.053 857.2 305.053 857.392C305.053 857.616 305.133 857.784 305.293 857.896C305.421 858.008 305.581 858.064 305.773 858.064C306.029 858.064 306.269 857.96 306.493 857.752C307.277 857.128 307.829 856.04 308.149 854.488L308.701 854.848C308.397 856.016 307.925 857.04 307.285 857.92C306.661 858.8 305.853 859.24 304.861 859.24C303.533 859.24 302.869 858.616 302.869 857.368C302.869 856.968 302.997 856.416 303.253 855.712L304.765 851.656C304.909 851.272 304.981 850.88 304.981 850.48C304.981 849.792 304.645 849.448 303.973 849.448C303.541 849.448 303.109 849.608 302.677 849.928C302.261 850.248 301.909 850.616 301.621 851.032C301.349 851.432 301.053 851.968 300.733 852.64C300.429 853.312 300.205 853.832 300.061 854.2C299.933 854.568 299.773 855.048 299.581 855.64L299.053 857.128C298.717 858.072 298.485 858.696 298.357 859H296.077L301.789 842.848H299.629L299.845 842.176L304.453 841.864L302.653 846.904C302.333 847.736 302.061 848.4 301.837 848.896C301.613 849.344 301.285 850.072 300.853 851.08L300.925 851.128C301.389 850.264 301.973 849.544 302.677 848.968C303.381 848.376 304.157 848.08 305.005 848.08ZM317.558 849.76C317.558 849.424 317.478 849.168 317.318 848.992C317.142 848.816 316.878 848.728 316.526 848.728C315.694 848.728 314.902 849.32 314.15 850.504C313.398 851.688 312.942 852.8 312.782 853.84C313.342 853.76 313.75 853.68 314.006 853.6C314.886 853.392 315.694 852.92 316.43 852.184C317.182 851.432 317.558 850.624 317.558 849.76ZM316.742 848.08C317.51 848.08 318.182 848.232 318.758 848.536C319.334 848.824 319.622 849.312 319.622 850C319.622 850.688 319.382 851.32 318.902 851.896C318.422 852.472 317.806 852.936 317.054 853.288C316.318 853.624 315.574 853.896 314.822 854.104C314.086 854.296 313.374 854.424 312.686 854.488C312.622 855.032 312.59 855.448 312.59 855.736C312.59 856.504 312.75 857.136 313.07 857.632C313.39 858.128 313.91 858.376 314.63 858.376C315.414 858.376 316.11 858.064 316.718 857.44C317.342 856.8 317.798 856.056 318.086 855.208L318.59 855.64C318.222 856.68 317.622 857.544 316.79 858.232C315.974 858.904 315.038 859.24 313.982 859.24C312.782 859.24 311.862 858.912 311.222 858.256C310.582 857.6 310.262 856.672 310.262 855.472C310.262 853.552 310.87 851.84 312.086 850.336C313.318 848.832 314.87 848.08 316.742 848.08ZM326.179 848.08C326.563 848.08 326.947 848.144 327.331 848.272C327.795 848.464 328.195 848.752 328.531 849.136C328.883 849.504 329.059 849.912 329.059 850.36C329.059 850.744 328.947 851.072 328.723 851.344C328.515 851.6 328.227 851.728 327.859 851.728C327.555 851.728 327.299 851.624 327.091 851.416C326.883 851.208 326.779 850.952 326.779 850.648C326.779 849.96 327.123 849.528 327.811 849.352C327.507 848.936 326.971 848.728 326.203 848.728C325.627 848.728 325.163 848.872 324.811 849.16C324.459 849.432 324.283 849.84 324.283 850.384C324.283 850.704 324.387 851.04 324.595 851.392C324.803 851.744 324.987 852.008 325.147 852.184C325.323 852.36 325.587 852.608 325.939 852.928C326.563 853.504 327.035 854.008 327.355 854.44C327.691 854.888 327.859 855.4 327.859 855.976C327.859 857.032 327.451 857.84 326.635 858.4C325.835 858.96 324.891 859.24 323.803 859.24C323.179 859.24 322.563 859.104 321.955 858.832C321.363 858.56 320.947 858.168 320.707 857.656C320.547 857.384 320.467 857.08 320.467 856.744C320.467 856.36 320.571 856.04 320.779 855.784C321.003 855.512 321.299 855.376 321.667 855.376C322.003 855.376 322.275 855.472 322.483 855.664C322.707 855.856 322.819 856.12 322.819 856.456C322.819 857.048 322.467 857.512 321.763 857.848C322.195 858.344 322.835 858.592 323.683 858.592C324.291 858.592 324.803 858.44 325.219 858.136C325.635 857.832 325.843 857.392 325.843 856.816C325.843 856.416 325.699 856.032 325.411 855.664C325.091 855.264 324.667 854.8 324.139 854.272C323.563 853.696 323.107 853.168 322.771 852.688C322.435 852.224 322.267 851.72 322.267 851.176C322.267 850.792 322.347 850.432 322.507 850.096C322.779 849.44 323.259 848.944 323.947 848.608C324.651 848.256 325.395 848.08 326.179 848.08ZM336.497 843.928H337.169L335.609 848.32H338.465L338.249 848.944H335.369L332.849 856.048C332.689 856.512 332.609 856.92 332.609 857.272C332.609 857.544 332.697 857.784 332.873 857.992C333.033 858.2 333.321 858.304 333.737 858.304C334.425 858.304 335.057 857.992 335.633 857.368C336.209 856.744 336.665 856.04 337.001 855.256L337.505 855.712C337.105 856.56 336.649 857.256 336.137 857.8C335.625 858.344 334.977 858.768 334.193 859.072C333.809 859.184 333.433 859.24 333.065 859.24C332.313 859.24 331.689 859.056 331.193 858.688C330.713 858.304 330.473 857.744 330.473 857.008C330.473 856.784 330.497 856.552 330.545 856.312C330.561 856.104 330.625 855.856 330.737 855.568L333.089 848.944H331.337L331.553 848.32H333.329L336.497 843.928ZM347.445 848.08C347.957 848.08 348.365 848.24 348.669 848.56C348.973 848.88 349.125 849.296 349.125 849.808C349.125 850.192 349.013 850.528 348.789 850.816C348.565 851.088 348.261 851.224 347.877 851.224C347.557 851.224 347.293 851.128 347.085 850.936C346.893 850.728 346.797 850.464 346.797 850.144C346.797 849.472 347.157 849.04 347.877 848.848C347.861 848.832 347.829 848.816 347.781 848.8C347.749 848.784 347.717 848.768 347.685 848.752C347.589 848.72 347.477 848.704 347.349 848.704C346.805 848.704 346.237 848.992 345.645 849.568C345.069 850.144 344.541 850.888 344.061 851.8C343.597 852.712 343.205 853.536 342.885 854.272C342.581 854.992 342.309 855.696 342.069 856.384L341.133 859H338.853L342.429 848.992H340.269L340.509 848.32L344.517 848.032C344.517 849.056 344.165 850.288 343.461 851.728L343.533 851.776C343.789 851.264 344.013 850.848 344.205 850.528C344.413 850.192 344.677 849.816 344.997 849.4C345.333 848.968 345.709 848.64 346.125 848.416C346.541 848.192 346.981 848.08 347.445 848.08ZM352.844 858.016C353.532 858.016 354.212 857.56 354.884 856.648C355.572 855.72 356.06 854.808 356.348 853.912L356.612 853.096C356.676 852.856 356.748 852.528 356.828 852.112C356.876 851.728 356.9 851.352 356.9 850.984C356.9 849.8 356.444 849.208 355.532 849.208C354.78 849.208 354.068 849.632 353.396 850.48C352.724 851.312 352.212 852.248 351.86 853.288C351.524 854.328 351.356 855.248 351.356 856.048C351.356 856.592 351.476 857.056 351.716 857.44C351.956 857.824 352.332 858.016 352.844 858.016ZM360.044 848.08L360.596 848.32L357.788 856.168C357.612 856.664 357.524 857.048 357.524 857.32C357.524 857.8 357.764 858.04 358.244 858.04C358.628 858.04 358.996 857.8 359.348 857.32C359.7 856.824 359.964 856.336 360.14 855.856C360.332 855.36 360.476 854.904 360.572 854.488L361.124 854.872C360.948 855.592 360.708 856.256 360.404 856.864C360.1 857.472 359.66 858.024 359.084 858.52C358.524 859 357.9 859.24 357.212 859.24C356.748 859.24 356.356 859.112 356.036 858.856C355.684 858.616 355.508 858.2 355.508 857.608C355.508 857.176 355.58 856.768 355.724 856.384C355.26 857.2 354.676 857.88 353.972 858.424C353.268 858.968 352.492 859.24 351.644 859.24C350.796 859.24 350.14 858.92 349.676 858.28C349.228 857.64 349.004 856.88 349.004 856C349.004 854.912 349.228 853.776 349.676 852.592C350.14 851.392 350.844 850.344 351.788 849.448C352.732 848.536 353.772 848.08 354.908 848.08C355.74 848.08 356.38 848.328 356.828 848.824C357.292 849.304 357.524 849.96 357.524 850.792L360.044 848.08Z" fill="white"/>
<defs>
<linearGradient id="paint0_linear_119_8" x1="46.5" y1="41" x2="46.5" y2="762" gradientUnits="userSpaceOnUse">
<stop offset="0.046875" stop-color="white" stop-opacity="0"/>
<stop offset="0.822917" stop-color="white"/>
</linearGradient>
<linearGradient id="paint1_linear_119_8" x1="106.5" y1="533" x2="106.5" y2="821" gradientUnits="userSpaceOnUse">
<stop offset="0.046875" stop-color="white" stop-opacity="0"/>
<stop offset="0.583333" stop-color="white"/>
</linearGradient>
<linearGradient id="paint2_linear_119_8" x1="168.5" y1="41" x2="168.5" y2="633" gradientUnits="userSpaceOnUse">
<stop offset="0.046875" stop-color="white" stop-opacity="0"/>
<stop offset="0.963542" stop-color="white"/>
</linearGradient>
<linearGradient id="paint3_linear_119_8" x1="228.5" y1="342" x2="228.5" y2="776" gradientUnits="userSpaceOnUse">
<stop offset="0.046875" stop-color="white" stop-opacity="0"/>
<stop offset="0.755208" stop-color="white"/>
</linearGradient>
<linearGradient id="paint4_linear_119_8" x1="290.5" y1="183" x2="290.5" y2="739" gradientUnits="userSpaceOnUse">
<stop offset="0.046875" stop-color="white" stop-opacity="0"/>
<stop offset="0.963542" stop-color="white"/>
</linearGradient>
<linearGradient id="paint5_linear_119_8" x1="352.5" y1="365" x2="352.5" y2="809" gradientUnits="userSpaceOnUse">
<stop offset="0.046875" stop-color="white" stop-opacity="0"/>
<stop offset="0.765625" stop-color="white"/>
</linearGradient>
<linearGradient id="paint6_linear_119_8" x1="414.5" y1="41" x2="414.5" y2="751" gradientUnits="userSpaceOnUse">
<stop offset="0.046875" stop-color="white" stop-opacity="0"/>
<stop offset="0.963542" stop-color="white"/>
</linearGradient>
<linearGradient id="paint7_linear_119_8" x1="475.5" y1="235" x2="475.5" y2="821" gradientUnits="userSpaceOnUse">
<stop offset="0.046875" stop-color="white" stop-opacity="0"/>
<stop offset="0.765625" stop-color="white"/>
</linearGradient>
<linearGradient id="paint8_linear_119_8" x1="538.5" y1="453" x2="538.5" y2="762" gradientUnits="userSpaceOnUse">
<stop offset="0.046875" stop-color="white" stop-opacity="0"/>
<stop offset="0.963542" stop-color="white"/>
</linearGradient>
</defs>
</svg>
