<svg width="1292" height="1312" viewBox="0 0 1292 1312" fill="none" xmlns="http://www.w3.org/2000/svg">
<path d="M558.973 836.842C549.911 836.842 541.076 835.391 532.475 832.498C523.874 829.605 516.116 824.951 509.208 818.55C502.293 812.148 496.806 803.697 492.732 793.211C488.666 782.724 486.629 769.914 486.629 754.789C486.629 742.692 488.4 731.09 491.936 719.988C495.472 708.887 500.467 698.666 506.922 689.334C513.368 680.002 520.978 671.862 529.743 664.914C538.508 657.966 548.147 652.575 558.669 648.741C569.19 644.914 580.265 643 591.91 643C604.476 643 615.379 645.217 624.605 649.659C633.83 654.101 641.456 659.986 647.473 667.329C653.491 674.664 657.971 682.759 660.921 691.605C663.864 700.451 665.339 709.29 665.339 718.105C665.339 725.828 664.199 733.489 661.913 741.083C659.634 748.676 656.27 755.578 651.844 761.79C647.411 768.001 641.94 772.975 635.423 776.703C628.905 780.439 621.413 782.299 612.944 782.299C608.511 782.299 604.843 781.464 601.931 779.786C599.02 778.115 596.788 775.906 595.235 773.172C593.682 770.438 592.722 767.462 592.355 764.242C591.988 761.023 592.175 757.932 592.901 754.971L607.192 695.12H625.05L610.665 754.971C610.47 755.935 610.119 757.34 609.619 759.17C609.12 761 608.745 762.982 608.48 765.108C608.214 767.234 608.23 769.277 608.527 771.236C608.823 773.202 609.666 774.804 611.055 776.065C612.445 777.318 614.56 777.948 617.409 777.948C623.887 777.948 629.826 776.278 635.22 772.929C640.613 769.58 645.257 765.062 649.159 759.367C653.062 753.672 656.09 747.271 658.236 740.156C660.383 733.049 661.46 725.691 661.46 718.098C661.46 709.601 660.086 701.157 657.339 692.759C654.591 684.361 650.377 676.684 644.687 669.736C638.997 662.788 631.77 657.222 623.005 653.038C614.24 648.854 603.836 646.766 591.801 646.766C580.686 646.766 570.087 648.634 559.995 652.363C549.904 656.098 540.647 661.307 532.21 668.005C523.773 674.702 516.451 682.569 510.231 691.605C504.01 700.648 499.203 710.527 495.792 721.241C492.381 731.956 490.679 743.14 490.679 754.789C490.679 769.269 492.599 781.502 496.432 791.472C500.272 801.449 505.446 809.491 511.964 815.603C518.481 821.716 525.81 826.158 533.942 828.93C542.083 831.694 550.419 833.083 558.949 833.083C569.533 833.083 579.039 832.088 587.477 830.091C595.914 828.094 603.5 825.072 610.252 821.017C616.995 816.963 623.247 811.784 629.007 805.474L631.59 807.889C623.255 817.35 613.116 824.541 601.174 829.461C589.248 834.374 575.176 836.842 558.973 836.842ZM561.947 781.912C556.717 781.912 551.839 780.735 547.312 778.389C542.778 776.042 539.125 772.58 536.346 768.008C533.568 763.437 532.178 757.811 532.178 751.113C532.178 743.839 533.466 736.777 536.05 729.921C538.625 723.064 542.114 716.89 546.516 711.385C550.918 705.88 555.89 701.491 561.447 698.211C567.004 694.931 572.725 693.29 578.61 693.29C582.84 693.29 586.384 694.338 589.225 696.426C592.066 698.522 594.353 701.256 596.07 704.635C597.787 708.014 599.028 711.712 599.793 715.736C600.55 719.761 600.932 723.762 600.932 727.756C600.932 735.092 599.894 742.032 597.81 748.562C595.726 755.092 592.846 760.871 589.178 765.89C585.51 770.909 581.342 774.835 576.675 777.667C572.023 780.492 567.106 781.912 561.947 781.912ZM565.919 777.272C569.627 777.272 573.342 775.966 577.08 773.362C580.819 770.757 584.222 767.181 587.297 762.648C590.372 758.107 592.854 752.928 594.743 747.104C596.632 741.28 597.568 735.183 597.568 728.812C597.568 726.754 597.389 724.036 597.022 720.657C596.655 717.278 595.914 713.853 594.79 710.375C593.666 706.898 591.996 703.974 589.779 701.59C587.563 699.213 584.573 698.021 580.796 698.021C577.158 698.021 573.615 699.631 570.181 702.85C566.739 706.07 563.679 710.315 561.002 715.592C558.325 720.869 556.187 726.617 554.602 732.821C553.018 739.032 552.222 745.13 552.222 751.113C552.222 755.426 552.62 759.58 553.416 763.566C554.212 767.561 555.601 770.841 557.584 773.415C559.566 775.989 562.345 777.272 565.919 777.272Z" fill="black"/>
<path d="M273.402 315.489C268.071 315.489 263.107 314.639 258.533 312.922C253.952 311.214 249.956 308.647 246.529 305.23C243.111 301.813 240.442 297.599 238.529 292.595C236.617 287.591 235.657 281.82 235.657 275.29C235.657 268.76 236.609 262.989 238.529 257.985C240.442 252.981 243.111 248.767 246.529 245.35C249.948 241.933 253.952 239.351 258.533 237.612C263.115 235.873 268.071 235 273.402 235C278.67 235 283.595 235.873 288.177 237.612C292.758 239.351 296.739 241.933 300.134 245.35C303.521 248.767 306.175 252.981 308.087 257.985C309.999 262.989 310.959 268.76 310.959 275.29C310.959 281.82 309.843 287.591 307.619 292.595C305.395 297.599 302.429 301.813 298.721 305.23C295.022 308.647 290.955 311.214 286.53 312.922C282.112 314.639 277.734 315.489 273.402 315.489ZM273.402 312.011C276.852 312.011 279.677 310.986 281.87 308.944C284.063 306.901 285.781 304.137 286.998 300.659C288.224 297.182 289.066 293.241 289.543 288.844C290.011 284.448 290.245 279.93 290.245 275.29C290.245 270.59 290.011 266.057 289.543 261.69C289.074 257.324 288.224 253.406 286.998 249.921C285.773 246.443 284.063 243.679 281.87 241.637C279.677 239.594 276.852 238.569 273.402 238.569C269.89 238.569 267.017 239.594 264.793 241.637C262.569 243.679 260.836 246.443 259.618 249.921C258.393 253.399 257.55 257.324 257.074 261.69C256.606 266.057 256.371 270.59 256.371 275.29C256.371 279.93 256.606 284.448 257.074 288.844C257.542 293.241 258.393 297.174 259.618 300.659C260.844 304.137 262.569 306.901 264.793 308.944C267.017 310.986 269.89 312.011 273.402 312.011ZM272.465 374.185L369.598 236.83H373.93L276.789 374.185H272.465ZM372.986 376.015C367.717 376.015 362.784 375.142 358.211 373.403C353.629 371.664 349.649 369.083 346.254 365.666C342.866 362.249 340.212 358.034 338.3 353.03C336.388 348.026 335.428 342.255 335.428 335.725C335.428 329.195 336.38 323.424 338.3 318.42C340.212 313.416 342.866 309.202 346.254 305.785C349.641 302.368 353.629 299.801 358.211 298.093C362.792 296.384 367.717 295.526 372.986 295.526C378.316 295.526 383.273 296.384 387.854 298.093C392.436 299.801 396.432 302.368 399.858 305.785C403.277 309.202 405.946 313.416 407.858 318.42C409.77 323.424 410.73 329.195 410.73 335.725C410.73 342.255 409.599 348.026 407.343 353.03C405.087 358.034 402.122 362.249 398.445 365.666C394.777 369.083 390.711 371.664 386.254 373.403C381.797 375.15 377.38 376.015 372.986 376.015ZM372.986 372.446C376.498 372.446 379.37 371.421 381.594 369.379C383.819 367.336 385.552 364.572 386.769 361.094C387.995 357.617 388.837 353.676 389.314 349.279C389.782 344.883 390.016 340.365 390.016 335.725C390.016 331.025 389.782 326.492 389.314 322.126C388.845 317.759 387.995 313.841 386.769 310.356C385.544 306.878 383.819 304.114 381.594 302.072C379.37 300.029 376.498 299.004 372.986 299.004C369.536 299.004 366.71 300.029 364.517 302.072C362.316 304.114 360.607 306.878 359.389 310.356C358.164 313.834 357.321 317.759 356.845 322.126C356.377 326.492 356.142 331.025 356.142 335.725C356.142 340.365 356.377 344.883 356.845 349.279C357.313 353.676 358.164 357.609 359.389 361.094C360.615 364.572 362.324 367.336 364.517 369.379C366.71 371.429 369.536 372.446 372.986 372.446Z" fill="black"/>
<path d="M958.743 301.745V297.546H1053.51V301.745H958.743ZM970.942 384.634C970.099 378.969 970.466 373.768 972.043 369.03C973.619 364.291 975.773 359.925 978.513 355.931C981.245 351.937 984.086 348.277 987.028 344.929C989.971 341.588 992.46 338.451 994.497 335.513C996.527 332.582 997.549 329.818 997.549 327.221C997.549 321.351 996.691 316.051 994.974 311.313C993.256 306.575 991.274 302.004 989.034 297.6C986.786 293.195 984.811 288.632 983.094 283.886C981.377 279.148 980.519 273.84 980.519 267.978C980.519 258.426 982.829 250.483 987.457 244.135C992.086 237.787 998.587 233.019 1006.97 229.807C1015.34 226.602 1025.18 225 1036.47 225C1045.03 225 1052.34 225.957 1058.4 227.863C1064.47 229.776 1069.43 232.335 1073.29 235.54C1077.14 238.744 1079.99 242.343 1081.81 246.337C1083.63 250.331 1084.54 254.439 1084.54 258.669C1084.54 261.463 1083.93 263.802 1082.7 265.677C1081.48 267.553 1079.92 268.95 1078.02 269.876C1076.12 270.795 1074.09 271.258 1071.91 271.258C1070.16 271.258 1068.37 270.864 1066.55 270.081C1064.73 269.299 1063.19 268.069 1061.92 266.399C1060.66 264.728 1060.03 262.526 1060.03 259.8C1060.03 257.416 1060.59 255.381 1061.71 253.71C1062.84 252.04 1064.31 250.764 1066.13 249.876C1067.95 248.987 1069.88 248.547 1071.91 248.547C1073.94 248.547 1075.91 248.957 1077.81 249.777C1079.7 250.597 1081.26 251.774 1082.49 253.308C1083.72 254.842 1084.33 256.634 1084.33 258.676H1080.55C1080.55 254.72 1079.7 250.954 1078.03 247.37C1076.34 243.786 1073.78 240.581 1070.35 237.749C1066.91 234.917 1062.56 232.684 1057.3 231.044C1052.04 229.404 1045.84 228.592 1038.69 228.592C1031.4 228.592 1025.47 229.807 1020.92 232.221C1016.36 234.643 1012.83 237.764 1010.35 241.584C1007.86 245.403 1006.16 249.466 1005.24 253.763C1004.33 258.061 1003.88 262.124 1003.88 265.943C1003.88 270.993 1004.47 275.685 1005.67 280.013C1006.86 284.349 1008.23 288.442 1009.77 292.292C1011.31 296.149 1012.68 299.931 1013.87 303.651C1015.06 307.372 1015.66 311.138 1015.66 314.958C1015.66 321.101 1014.62 326.348 1012.55 330.714C1010.48 335.08 1007.82 338.937 1004.56 342.279C1001.3 345.62 997.877 348.74 994.302 351.641C990.728 354.542 987.395 357.526 984.312 360.594C981.229 363.661 978.794 367.109 976.999 370.928C975.211 374.747 974.525 379.319 974.946 384.642H970.942V384.634ZM1046.46 386.783C1039.31 386.783 1033.21 386.153 1028.16 384.892C1023.11 383.632 1018.71 382.181 1014.96 380.541C1011.22 378.901 1007.77 377.458 1004.65 376.19C1001.53 374.93 998.322 374.3 995.028 374.3C992.156 374.3 989.315 374.725 986.505 375.575C983.703 376.426 981.26 377.625 979.192 379.159C977.124 380.693 975.734 382.515 975.04 384.634H972.831C973.885 380.815 975.196 377.435 976.772 374.504C978.349 371.573 980.3 369.083 982.61 367.033C984.921 364.982 987.692 363.433 990.923 362.378C994.146 361.322 997.932 360.791 1002.28 360.791C1007.54 360.791 1012.13 361.133 1016.05 361.816C1019.98 362.499 1023.61 363.297 1026.94 364.223C1030.28 365.142 1033.58 365.947 1036.88 366.63C1040.17 367.314 1043.82 367.655 1047.81 367.655C1051.11 367.655 1054.53 367.435 1058.07 366.987C1061.61 366.547 1064.91 365.658 1067.96 364.329C1071.01 363.001 1073.48 361.057 1075.37 358.498C1077.27 355.939 1078.21 352.583 1078.21 348.421H1082.32C1082.32 358.316 1080.63 366.038 1077.27 371.596C1073.91 377.155 1069.49 381.08 1064.02 383.366C1058.56 385.636 1052.7 386.783 1046.46 386.783Z" fill="black"/>
<path d="M864.306 606.309C853.309 606.309 844.044 604.616 836.528 601.229C829.004 597.843 823.322 593.75 819.482 588.951C815.642 584.152 813.714 579.657 813.714 575.465C813.714 571.016 814.924 567.264 817.344 564.204C819.763 561.144 823.158 559.61 827.529 559.61C829.582 559.61 831.572 560.081 833.492 561.015C835.412 561.949 837.02 563.369 838.316 565.267C839.611 567.166 840.251 569.535 840.251 572.375C840.251 574.956 839.603 577.196 838.316 579.095C837.02 581.001 835.35 582.466 833.297 583.491C831.244 584.524 829.09 585.04 826.834 585.04C824.712 585.04 822.659 584.721 820.676 584.076C818.686 583.431 817.063 582.398 815.806 580.986C814.549 579.566 813.917 577.728 813.917 575.473H817.695C817.695 579.277 819.451 583.324 822.963 587.607C826.475 591.897 831.642 595.534 838.464 598.534C845.285 601.533 853.738 603.029 863.807 603.029C874.804 603.029 882.952 600.341 888.252 594.957C893.551 589.574 896.205 582.117 896.205 572.572C896.205 566.9 894.816 562.147 892.029 558.312C889.243 554.477 885.582 551.189 881.048 548.448C876.513 545.707 871.526 543.194 866.093 540.908C860.661 538.622 855.213 536.215 849.742 533.702C844.279 531.189 839.276 528.242 834.733 524.856C830.191 521.469 826.53 517.316 823.752 512.38C820.965 507.452 819.576 501.408 819.576 494.247C819.576 488.446 820.786 483.222 823.205 478.582C825.625 473.943 828.934 469.979 833.141 466.691C837.348 463.403 842.148 460.89 847.549 459.151C852.95 457.412 858.663 456.539 864.696 456.539C871.854 456.539 878.574 458.02 884.872 460.989C891.163 463.958 896.267 467.807 900.178 472.546C904.088 477.284 906.039 482.265 906.039 487.482C906.039 491.415 904.814 494.877 902.363 497.877C899.912 500.876 896.502 502.372 892.123 502.372C890.133 502.372 888.166 501.909 886.207 500.967C884.256 500.033 882.648 498.613 881.383 496.715C880.127 494.817 879.495 492.448 879.495 489.608C879.495 485.743 880.837 482.66 883.522 480.374C886.207 478.089 889.235 476.942 892.615 476.942C894.8 476.942 896.907 477.458 898.929 478.491C900.95 479.524 902.605 480.83 903.901 482.409C905.196 483.989 905.836 485.682 905.836 487.489H902.059C902.059 482.781 900.318 478.354 896.837 474.193C893.356 470.032 888.806 466.653 883.171 464.041C877.536 461.429 871.479 460.123 864.985 460.123C857.633 460.123 851.631 461.186 846.995 463.312C842.359 465.438 838.948 468.453 836.755 472.356C834.569 476.259 833.477 480.815 833.477 486.039C833.477 491.134 834.85 495.417 837.598 498.902C840.345 502.38 843.99 505.364 848.532 507.847C853.067 510.33 858.07 512.684 863.541 514.909C869.005 517.133 874.453 519.503 879.893 522.016C885.325 524.529 890.312 527.544 894.847 531.06C899.382 534.575 903.027 538.888 905.782 544.014C908.529 549.139 909.903 555.442 909.903 562.913C909.903 571.874 908.045 579.611 904.338 586.119C900.623 592.634 895.362 597.622 888.533 601.108C881.735 604.57 873.649 606.309 864.306 606.309ZM850.991 618.975V443H854.87V618.975H850.991ZM869.083 618.975V443H872.962V618.975H869.083Z" fill="black"/>
<path d="M678.533 596.6C674.88 596.6 671.891 595.309 669.565 592.719C667.239 590.138 666.076 586.5 666.076 581.815C666.076 581.086 666.091 580.365 666.138 579.636C666.177 578.907 666.24 578.14 666.326 577.335C666.903 573.053 667.715 569.484 668.753 566.614C669.791 563.751 670.852 560.979 671.93 558.314C673.007 555.649 673.92 552.52 674.669 548.921C675.418 545.33 675.871 540.705 676.043 535.048C671.063 537.956 667.161 540.645 664.335 543.105C661.51 545.573 659.168 547.911 657.303 550.129C655.438 552.353 653.486 554.609 651.449 556.917C649.412 559.218 646.657 561.701 643.168 564.366C642.505 564.935 641.857 565.376 641.24 565.702C640.616 566.029 639.976 566.386 639.313 566.796C635.075 569.142 631.281 569.97 627.917 569.279C624.553 568.595 621.915 566.712 620.011 563.645C618.185 560.577 617.81 557.426 618.887 554.191C619.964 550.964 622.626 548.177 626.856 545.831C627.519 545.428 628.167 545.064 628.784 544.737C629.408 544.418 630.134 544.092 630.961 543.765C635.028 542.148 638.602 541.039 641.67 540.432C644.737 539.824 647.75 539.323 650.7 538.921C653.65 538.518 656.905 537.751 660.48 536.62C664.047 535.489 668.41 533.552 673.553 530.804C668.402 528.055 664.047 526.119 660.48 524.987C656.913 523.856 653.65 523.089 650.7 522.686C647.75 522.284 644.745 521.775 641.67 521.175C638.595 520.568 635.028 519.459 630.961 517.842C630.134 517.523 629.408 517.174 628.784 516.809C628.159 516.445 627.519 516.103 626.856 515.776C622.618 513.438 619.964 510.651 618.887 507.416C617.81 504.189 618.177 501.038 620.011 497.963C621.915 494.895 624.553 493.019 627.917 492.328C631.281 491.645 635.075 492.473 639.313 494.811C639.976 495.138 640.624 495.48 641.24 495.844C641.865 496.208 642.505 496.672 643.168 497.234C646.657 499.899 649.412 502.382 651.449 504.683C653.486 506.983 655.438 509.246 657.303 511.471C659.168 513.696 661.518 516.035 664.335 518.495C667.161 520.963 671.063 523.643 676.043 526.551C675.871 520.902 675.418 516.278 674.669 512.678C673.92 509.087 673.007 505.951 671.93 503.285C670.852 500.62 669.791 497.856 668.753 494.986C667.715 492.123 666.903 488.547 666.326 484.264C666.24 483.376 666.177 482.586 666.138 481.903C666.099 481.219 666.076 480.506 666.076 479.784C666.076 475.016 667.239 471.363 669.565 468.819C671.891 466.276 674.88 465 678.533 465C682.185 465 685.175 466.276 687.5 468.819C689.826 471.363 690.989 475.023 690.989 479.784C690.989 480.513 690.989 481.219 690.989 481.903C690.989 482.586 690.903 483.376 690.74 484.264C690.162 488.547 689.35 492.123 688.312 494.986C687.274 497.856 686.213 500.62 685.136 503.285C684.058 505.951 683.145 509.079 682.396 512.678C681.647 516.27 681.194 520.894 681.03 526.551C686.01 523.643 689.912 520.963 692.738 518.495C695.563 516.035 697.904 513.688 699.778 511.471C701.643 509.254 703.594 506.991 705.631 504.683C707.668 502.382 710.424 499.899 713.912 497.234C714.576 496.672 715.239 496.201 715.903 495.844C716.566 495.48 717.191 495.138 717.768 494.811C721.998 492.473 725.823 491.645 729.226 492.328C732.629 493.019 735.243 494.895 737.07 497.963C738.974 501.03 739.372 504.181 738.256 507.416C737.132 510.651 734.455 513.438 730.225 515.776C729.639 516.103 729.023 516.445 728.359 516.809C727.696 517.174 726.947 517.515 726.119 517.842C722.053 519.459 718.478 520.568 715.411 521.175C712.336 521.783 709.331 522.284 706.381 522.686C703.43 523.089 700.176 523.856 696.609 524.987C693.042 526.119 688.679 528.055 683.536 530.804C688.679 533.552 693.042 535.489 696.609 536.62C700.176 537.751 703.438 538.518 706.381 538.921C709.331 539.323 712.336 539.832 715.411 540.432C718.478 541.039 722.053 542.148 726.119 543.765C726.947 544.092 727.696 544.411 728.359 544.737C729.023 545.064 729.647 545.428 730.225 545.831C734.455 548.177 737.14 550.964 738.256 554.191C739.38 557.426 738.982 560.569 737.07 563.645C735.243 566.712 732.629 568.595 729.226 569.279C725.823 569.97 721.998 569.142 717.768 566.796C717.183 566.393 716.566 566.029 715.903 565.702C715.239 565.383 714.576 564.935 713.912 564.366C710.424 561.701 707.668 559.218 705.631 556.917C703.594 554.616 701.643 552.353 699.778 550.129C697.912 547.911 695.563 545.565 692.738 543.105C689.912 540.645 686.01 537.956 681.03 535.048C681.194 540.705 681.655 545.33 682.396 548.921C683.145 552.513 684.058 555.649 685.136 558.314C686.213 560.979 687.274 563.751 688.312 566.614C689.35 569.484 690.162 573.053 690.74 577.335C690.903 578.14 690.989 578.907 690.989 579.636C690.989 580.365 690.989 581.086 690.989 581.815C690.989 586.5 689.826 590.138 687.5 592.719C685.175 595.301 682.185 596.6 678.533 596.6Z" fill="black"/>
<path d="M1007.77 481.519V592.457H1026.19V595.418H988.571V592.457H1004.57V484.48H988.571V481.519H1007.77V481.519ZM1099.71 481.519V484.48H1083.25V596.937H1079.03L1005.51 481.519H1023.46L1080.12 571.955V484.48H1062.09V481.519H1099.71V481.519ZM1099.25 508.779C1099.25 514.853 1100.35 520.055 1102.56 524.383C1104.77 528.711 1107.85 532.014 1111.77 534.292C1115.7 536.57 1120.3 537.709 1125.55 537.709C1130.8 537.709 1135.42 536.57 1139.4 534.292C1143.38 532.014 1146.48 528.711 1148.69 524.383C1150.9 520.055 1152.01 514.853 1152.01 508.779C1152.01 502.704 1150.9 497.525 1148.69 493.25C1146.48 488.975 1143.38 485.695 1139.4 483.417C1135.42 481.139 1130.8 480 1125.55 480C1120.3 480 1115.7 481.139 1111.77 483.417C1107.85 485.695 1104.77 488.975 1102.56 493.25C1100.35 497.533 1099.25 502.704 1099.25 508.779ZM1106.89 549.023V546.138H1144.36V549.023H1106.89ZM1112.51 508.779C1112.51 500.122 1113.54 493.44 1115.6 488.732C1117.65 484.024 1120.97 481.671 1125.55 481.671C1130.18 481.671 1133.53 484.024 1135.58 488.732C1137.63 493.44 1138.66 500.122 1138.66 508.779C1138.66 517.488 1137.63 524.208 1135.58 528.939C1133.53 533.67 1130.18 536.039 1125.55 536.039C1120.97 536.039 1117.65 533.67 1115.6 528.939C1113.54 524.208 1112.51 517.488 1112.51 508.779Z" fill="black"/>
<path d="M429.029 604.88L480.003 533.206L432.073 460.842V457H541.92V497.419H537.869C537.869 490.388 536.706 484.108 534.372 478.588C532.039 473.067 528.394 468.732 523.43 465.573C518.466 462.422 512.027 460.842 504.128 460.842H453.357L493.482 521.771L436.529 601.037H501.989C511.246 601.037 518.645 599.397 524.179 596.109C529.721 592.822 533.717 588.159 536.183 582.107C538.649 576.063 539.883 568.865 539.883 560.52H543.832V604.88H429.029V604.88Z" fill="black"/>
<path d="M770.556 386.631C760.987 386.631 752.488 385.112 745.042 382.068C737.596 379.023 731.758 374.649 727.512 368.946C723.266 363.244 721.143 356.334 721.143 348.217C721.143 342.127 722.618 336.66 725.568 331.792C728.519 326.933 732.241 322.665 736.737 318.99C741.233 315.315 745.885 312.148 750.708 309.491C755.524 306.833 759.895 304.684 763.813 303.036C767.731 301.396 770.486 300.189 772.062 299.414L773.678 302.459C767.489 305.679 762.259 309.278 757.982 313.272C753.705 317.259 750.451 321.997 748.218 327.494C745.986 332.984 744.878 339.583 744.878 347.275C744.878 351.474 745.705 355.514 747.36 359.394C749.014 363.274 751.371 366.759 754.423 369.835C757.483 372.918 761.112 375.348 765.319 377.132C769.526 378.916 774.146 379.805 779.181 379.805C787.306 379.805 795.04 378.073 802.377 374.611C809.714 371.148 816.488 366.41 822.709 360.389C828.929 354.375 834.416 347.48 839.162 339.712C843.907 331.944 847.771 323.728 850.76 315.049C853.742 306.377 855.669 297.698 856.528 289.019H860.844C859.767 298.397 857.55 307.752 854.21 317.092C850.869 326.431 846.514 335.262 841.16 343.592C835.806 351.922 829.562 359.318 822.444 365.788C815.325 372.257 807.411 377.352 798.709 381.058C790.006 384.771 780.625 386.631 770.556 386.631ZM827.946 384.528L756.531 281.676C753.729 277.69 751.371 273.301 749.467 268.502C747.563 263.711 746.61 259.458 746.61 255.753C746.61 249.458 748.484 244.014 752.222 239.435C755.961 234.856 761.104 231.302 767.645 228.781C774.185 226.26 781.631 225 789.975 225C797.671 225 804.594 226.154 810.744 228.463C816.894 230.771 821.749 234.006 825.308 238.167C828.867 242.328 830.647 247.21 830.647 252.807C830.647 258.471 829.515 263.316 827.251 267.34C824.988 271.365 821.874 274.88 817.924 277.887C813.967 280.894 809.441 283.696 804.328 286.286C799.224 288.875 793.83 291.601 788.148 294.471L785.776 291.639C789.226 289.543 792.824 286.794 796.562 283.4C800.301 280.006 803.446 275.754 805.998 270.651C808.551 265.541 809.831 259.42 809.831 252.283C809.831 248.995 809.292 245.517 808.215 241.842C807.138 238.167 805.179 235.038 802.338 232.449C799.497 229.86 795.384 228.569 789.983 228.569C784.441 228.569 780.055 229.602 776.823 231.667C773.584 233.732 771.266 236.428 769.869 239.746C768.464 243.072 767.762 246.588 767.762 250.293C767.762 253.931 769.058 258.395 771.649 263.673C774.24 268.958 777.83 274.956 782.435 281.669L849.644 380.427H878.444V384.52H827.946V384.528ZM829.882 292.072V287.979H881.66V292.072H829.882Z" fill="black"/>
<path d="M284.526 604.905C273.731 604.905 265.115 602.217 258.683 596.849C252.252 591.48 249.029 584.191 249.029 574.98C249.029 564.16 253.805 555.655 263.351 549.474C272.896 543.293 286.516 540.203 304.202 540.203H332.471V544.318H304.202C296.896 544.318 291.004 545.814 286.516 548.798C282.036 551.79 278.75 555.503 276.682 559.945C274.605 564.387 273.567 568.83 273.567 573.272C273.567 577.311 274.207 581.191 275.495 584.905C276.783 588.618 278.797 591.693 281.536 594.115C284.276 596.538 287.843 597.752 292.245 597.752C296.811 597.752 301.291 596.279 305.693 593.333C310.095 590.387 313.724 585.983 316.588 580.128C319.453 574.274 320.889 566.946 320.889 558.138H323.753C323.753 567.349 322.239 575.466 319.211 582.49C316.182 589.514 311.757 595.011 305.95 598.967C300.128 602.923 292.994 604.905 284.526 604.905ZM342.555 604.905C338.653 604.905 335.063 604.237 331.785 602.908C328.506 601.572 325.868 599.355 323.878 596.241C321.888 593.136 320.889 588.952 320.889 583.705V528.699C320.889 522.882 320.389 517.309 319.39 511.979C318.391 506.648 316.3 502.289 313.1 498.895C309.899 495.501 304.982 493.808 298.34 493.808C294.602 493.808 290.723 494.21 286.695 495.023C282.668 495.835 278.929 497.065 275.487 498.721C272.038 500.376 269.236 502.457 267.081 504.962C264.919 507.468 263.842 510.414 263.842 513.809H257.989C257.989 509.693 259.378 506.435 262.156 504.059C264.935 501.674 267.987 500.482 271.312 500.482C274.879 500.482 278.141 501.591 281.091 503.816C284.034 506.041 285.509 509.207 285.509 513.33C285.509 518.175 283.995 521.69 280.966 523.87C277.938 526.049 274.722 527.142 271.312 527.142C267.495 527.142 264.279 526.011 261.657 523.748C259.042 521.485 257.731 518.175 257.731 513.816C257.731 510.019 258.995 506.61 261.532 503.58C264.061 500.551 267.464 497.969 271.741 495.828C276.018 493.686 280.834 492.031 286.188 490.862C291.542 489.692 297.045 489.108 302.688 489.108C314.145 489.108 322.715 491.044 328.405 494.924C334.087 498.804 337.888 503.77 339.8 509.83C341.713 515.889 342.665 522.192 342.665 528.729V588.337C342.665 591.002 343.141 593.265 344.093 595.125C345.045 596.986 347.059 597.912 350.134 597.912C352.288 597.912 354.677 597.046 357.291 595.307C359.906 593.569 361.92 591.366 363.332 588.701L365.697 593.06C363.535 596.454 360.507 599.279 356.604 601.542C352.725 603.766 348.035 604.905 342.555 604.905ZM321.388 469.205C316.659 469.205 312.444 468.234 308.752 466.297C305.053 464.361 301.634 462.136 298.481 459.63C295.32 457.125 292.19 454.907 289.076 452.963C285.962 451.027 282.621 450.055 279.054 450.055C274.902 450.055 271.249 451.27 268.096 453.692C264.943 456.115 263.366 460.473 263.366 466.776H258.387C258.387 459.911 259.714 454.194 262.375 449.63C265.029 445.066 268.369 441.657 272.397 439.394C276.424 437.131 280.467 436 284.541 436C289.435 436 293.696 436.972 297.302 438.908C300.916 440.845 304.171 443.069 307.082 445.575C309.985 448.081 312.811 450.298 315.55 452.242C318.29 454.178 321.24 455.15 324.393 455.15C329.123 455.15 332.94 453.935 335.851 451.513C338.754 449.091 340.206 444.725 340.206 438.43H345.061C345.061 446.107 344.109 452.181 342.196 456.661C340.284 461.141 337.568 464.353 334.04 466.297C330.497 468.234 326.282 469.205 321.388 469.205Z" fill="black"/>
<path d="M806.593 772.077C796.778 767.867 788.598 765.104 782.055 763.788C775.784 762.209 769.649 761.42 763.651 761.42C756.017 761.42 747.974 763.656 739.522 768.13C731.07 772.603 723.572 778.129 717.029 784.708V753.92C730.116 739.973 746.474 733 766.105 733C774.012 733 781.782 733.789 789.416 735.368C797.323 736.947 807.547 740.368 820.089 745.631C829.904 749.841 837.947 752.736 844.218 754.315C850.762 755.63 856.896 756.288 862.622 756.288C870.529 756.288 878.708 754.051 887.16 749.578C895.612 745.105 903.11 739.579 909.654 733V763.393C896.294 777.603 879.935 784.708 860.577 784.708C852.943 784.708 845.036 783.918 836.857 782.339C828.95 780.497 818.862 777.077 806.593 772.077Z" fill="black"/>
<path d="M566.063 390.583C552.779 390.583 540.346 388.176 528.763 383.377C517.181 378.57 506.987 371.888 498.191 363.323C489.387 354.765 482.519 344.848 477.578 333.58C472.638 322.311 470.171 310.215 470.171 297.291C470.171 284.368 472.638 272.271 477.578 261.003C482.519 249.734 489.387 239.818 498.191 231.26C506.987 222.702 517.181 216.013 528.763 211.206C540.346 206.399 552.779 204 566.063 204C579.347 204 591.781 206.407 603.363 211.206C614.946 216.013 625.139 222.695 633.935 231.26C642.731 239.825 649.623 249.734 654.611 261.003C659.59 272.271 662.08 284.368 662.08 297.291C662.08 310.215 659.59 322.311 654.611 333.58C649.631 344.848 642.739 354.765 633.935 363.323C625.131 371.888 614.946 378.57 603.363 383.377C591.781 388.183 579.347 390.583 566.063 390.583ZM566.063 385.86C578.684 385.86 590.469 383.559 601.435 378.95C612.394 374.348 622.048 367.985 630.392 359.868C638.735 351.75 645.253 342.358 649.943 331.697C654.634 321.036 656.983 309.57 656.983 297.284C656.983 285.005 654.634 273.539 649.943 262.871C645.253 252.21 638.735 242.817 630.392 234.7C622.048 226.582 612.394 220.219 601.435 215.618C590.477 211.016 578.684 208.708 566.063 208.708C553.443 208.708 541.657 211.009 530.691 215.618C519.733 220.219 510.078 226.582 501.735 234.7C493.391 242.817 486.874 252.21 482.183 262.871C477.492 273.532 475.143 285.005 475.143 297.284C475.143 309.562 477.485 321.028 482.183 331.697C486.874 342.358 493.391 351.75 501.735 359.868C510.078 367.985 519.733 374.348 530.691 378.95C541.649 383.559 553.443 385.86 566.063 385.86ZM605.291 353.026C599.562 353.026 595.449 351.713 592.959 349.085C590.469 346.458 588.908 343.087 588.292 338.971C587.667 334.855 587.355 330.474 587.355 325.827C587.355 321.18 587.004 316.799 586.294 312.683C585.584 308.56 583.882 305.188 581.189 302.569C578.489 299.941 574.071 298.628 567.929 298.628H549.993V349.397H566.43V352.305H519.358V349.397H535.796V246.158H519.358V243.25H568.678C579.972 243.25 589.018 245.535 595.831 250.099C602.637 254.663 606.04 261.671 606.04 271.117C606.04 279.599 603.402 285.917 598.134 290.078C592.858 294.239 585.287 296.638 575.406 297.284C582.625 297.77 588.167 299.387 592.03 302.128C595.894 304.877 598.587 308.226 600.124 312.182C601.662 316.138 602.552 320.284 602.801 324.597C603.051 328.917 603.192 332.995 603.238 336.837C603.277 340.672 603.738 343.785 604.612 346.169C605.486 348.554 607.328 349.746 610.154 349.746C611.73 349.746 613.143 349.586 614.384 349.26C615.633 348.941 616.749 348.576 617.748 348.166L618.747 350.71C617.584 351.356 615.797 351.902 613.393 352.343C610.973 352.806 608.28 353.026 605.291 353.026ZM549.993 295.833H568.67C575.812 295.833 581.33 293.692 585.232 289.409C589.135 285.127 591.086 279.029 591.086 271.117C591.086 263.121 589.135 256.963 585.232 252.643C581.33 248.322 575.812 246.158 568.67 246.158H549.993V295.833Z" fill="black"/>
<path d="M150 409L1155 409" stroke="black" stroke-width="4"/>
<path d="M150 631L1155 631" stroke="black" stroke-width="4"/>
<path d="M424 851L924 851" stroke="black" stroke-width="4"/>
<path d="M385 410V631" stroke="black" stroke-width="4"/>
<path d="M566 409V630" stroke="black" stroke-width="4"/>
<path d="M755 410V631" stroke="black" stroke-width="4"/>
<path d="M924 410V631" stroke="black" stroke-width="4"/>
<path d="M884 186V407" stroke="black" stroke-width="4"/>
<path d="M666 189V410" stroke="black" stroke-width="4"/>
<path d="M673 630V851" stroke="black" stroke-width="4"/>
<path d="M433 189V410" stroke="black" stroke-width="4"/>
<path d="M28 92H1291.5" stroke="black" stroke-width="3"/>
<path d="M28 968H1291.5" stroke="black" stroke-width="3"/>
<path d="M28 106H1291.5" stroke="black" stroke-width="3"/>
<path d="M28 982H1291.5" stroke="black" stroke-width="3"/>
<path d="M28 121H1291.5" stroke="black" stroke-width="3"/>
<path d="M28 997H1291.5" stroke="black" stroke-width="3"/>
<path d="M28 136H1291.5" stroke="black" stroke-width="3"/>
<path d="M28 1012H1291.5" stroke="black" stroke-width="3"/>
<rect x="28" y="90" width="15" height="48" fill="black"/>
<rect x="28" y="966" width="15" height="48" fill="black"/>
<g clip-path="url(#clip0_119_7)">
<path d="M203.094 158.602C205.95 164.012 201.724 171.904 193.667 176.237C185.609 180.569 176.738 179.703 173.882 174.293C171.026 168.883 175.252 160.99 183.31 156.658C191.368 152.325 200.215 153.192 203.071 158.602H203.094Z" fill="black"/>
<path d="M203.977 86H201.005V162.606H203.977V86Z" fill="black"/>
</g>
<g clip-path="url(#clip1_119_7)">
<path d="M203.094 1034.6C205.95 1040.01 201.724 1047.9 193.667 1052.24C185.609 1056.57 176.738 1055.7 173.882 1050.29C171.026 1044.88 175.252 1036.99 183.31 1032.66C191.368 1028.33 200.215 1029.19 203.071 1034.6H203.094Z" fill="black"/>
<path d="M203.977 962H201.005V1038.61H203.977V962Z" fill="black"/>
</g>
<g clip-path="url(#clip2_119_7)">
<path d="M203.094 989.602C205.95 995.012 201.724 1002.9 193.667 1007.24C185.609 1011.57 176.738 1010.7 173.882 1005.29C171.026 999.883 175.252 991.99 183.31 987.658C191.368 983.325 200.215 984.192 203.071 989.602H203.094Z" fill="black"/>
<path d="M203.977 917H201.005V993.606H203.977V917Z" fill="black"/>
</g>
<path d="M290.751 25.9569C286.684 23.6842 284.422 21.4833 283.123 19.7129C282.016 18.3254 281.174 16.7703 280.74 15H279.2V86.6507C275.134 83.4928 267.722 83.5407 260.863 87.177C252.513 91.6029 248.134 99.6651 251.093 105.191C254.053 110.718 263.222 111.603 271.596 107.177C278.045 103.756 282.112 98.1579 282.257 93.2536V26.7225C285.89 31.3158 294.794 33.7799 297.874 38.9234C301.099 44.3062 299.053 52.4163 299.053 52.4163C305.96 35.7177 298.428 30.2632 290.727 25.9569H290.751Z" fill="black"/>
<path d="M295.168 96.292H241V99.6891H295.168V96.292Z" fill="black"/>
<path d="M1075.75 72.9569C1071.68 70.6842 1069.42 68.4833 1068.12 66.7129C1067.02 65.3254 1066.17 63.7703 1065.74 62H1064.2V133.651C1060.13 130.493 1052.72 130.541 1045.86 134.177C1037.51 138.603 1033.13 146.665 1036.09 152.191C1039.05 157.718 1048.22 158.603 1056.6 154.177C1063.05 150.756 1067.11 145.158 1067.26 140.254V73.7225C1070.89 78.3158 1079.79 80.7799 1082.87 85.9234C1086.1 91.3062 1084.05 99.4163 1084.05 99.4163C1090.96 82.7177 1083.43 77.2632 1075.73 72.9569H1075.75Z" fill="black"/>
<path d="M1080.17 143.292H1026V146.689H1080.17V143.292Z" fill="black"/>
<path d="M993.751 40.9569C989.684 38.6842 987.422 36.4833 986.123 34.7129C985.016 33.3254 984.174 31.7703 983.74 30H982.2V101.651C978.134 98.4928 970.722 98.5407 963.863 102.177C955.513 106.603 951.134 114.665 954.093 120.191C957.053 125.718 966.222 126.603 974.596 122.177C981.045 118.756 985.112 113.158 985.257 108.254V41.7225C988.89 46.3158 997.794 48.7799 1000.87 53.9234C1004.1 59.3062 1002.05 67.4163 1002.05 67.4163C1008.96 50.7177 1001.43 45.2632 993.727 40.9569H993.751Z" fill="black"/>
<path d="M998.168 111.292H944V114.689H998.168V111.292Z" fill="black"/>
<path d="M788.751 971.957C784.684 969.684 782.422 967.483 781.123 965.713C780.016 964.325 779.174 962.77 778.74 961H777.2V1032.65C773.134 1029.49 765.722 1029.54 758.863 1033.18C750.513 1037.6 746.134 1045.67 749.093 1051.19C752.053 1056.72 761.222 1057.6 769.596 1053.18C776.045 1049.76 780.112 1044.16 780.257 1039.25V972.722C783.89 977.316 792.794 979.78 795.874 984.923C799.099 990.306 797.053 998.416 797.053 998.416C803.96 981.718 796.428 976.263 788.727 971.957H788.751Z" fill="black"/>
<path d="M793.168 1042.29H739V1045.69H793.168V1042.29Z" fill="black"/>
<g clip-path="url(#clip3_119_7)">
<path d="M379.89 100.085C376.48 93.3566 366.14 92.4163 356.828 97.999C347.49 103.582 342.699 113.542 346.11 120.271C349.52 126.999 359.86 127.939 369.171 122.357C378.51 116.774 383.328 106.814 379.89 100.085ZM367.25 118.449C360.022 122.768 350.684 125.178 348.031 119.977C345.379 114.776 352.146 107.196 359.4 102.847C366.627 98.5278 374.883 97.0293 377.535 102.23C380.188 107.431 374.504 114.1 367.277 118.42L367.25 118.449Z" fill="black"/>
<path d="M376.371 9.05897L377.481 100.232C377.481 100.232 377.562 100.232 377.589 100.232C379.078 100.908 379.674 102.965 379.728 105.08H381L379.836 9.00021L376.371 9.05897Z" fill="black"/>
</g>
<g clip-path="url(#clip4_119_7)">
<path d="M379.89 976.085C376.48 969.357 366.14 968.416 356.828 973.999C347.49 979.582 342.699 989.542 346.11 996.271C349.52 1003 359.86 1003.94 369.171 998.357C378.51 992.774 383.328 982.814 379.89 976.085ZM367.25 994.449C360.022 998.768 350.684 1001.18 348.031 995.977C345.379 990.776 352.146 983.196 359.4 978.847C366.627 974.528 374.883 973.029 377.535 978.23C380.188 983.431 374.504 990.1 367.277 994.42L367.25 994.449Z" fill="black"/>
<path d="M376.371 885.059L377.481 976.232C377.481 976.232 377.562 976.232 377.589 976.232C379.078 976.908 379.674 978.965 379.728 981.08H381L379.836 885L376.371 885.059Z" fill="black"/>
</g>
<g clip-path="url(#clip5_119_7)">
<path d="M379.89 135.085C376.48 128.357 366.14 127.416 356.828 132.999C347.49 138.582 342.699 148.542 346.11 155.271C349.52 161.999 359.86 162.939 369.171 157.357C378.51 151.774 383.328 141.814 379.89 135.085ZM367.25 153.449C360.022 157.768 350.684 160.178 348.031 154.977C345.379 149.776 352.146 142.196 359.4 137.847C366.627 133.528 374.883 132.029 377.535 137.23C380.188 142.431 374.504 149.1 367.277 153.42L367.25 153.449Z" fill="black"/>
<path d="M376.371 44.059L377.481 135.232C377.481 135.232 377.562 135.232 377.589 135.232C379.078 135.908 379.674 137.965 379.728 140.08H381L379.836 44.0002L376.371 44.059Z" fill="black"/>
</g>
<g clip-path="url(#clip6_119_7)">
<path d="M794.89 135.085C791.48 128.357 781.14 127.416 771.828 132.999C762.49 138.582 757.699 148.542 761.11 155.271C764.52 161.999 774.86 162.939 784.171 157.357C793.51 151.774 798.328 141.814 794.89 135.085ZM782.25 153.449C775.022 157.768 765.684 160.178 763.031 154.977C760.379 149.776 767.146 142.196 774.4 137.847C781.627 133.528 789.883 132.029 792.535 137.23C795.188 142.431 789.504 149.1 782.277 153.42L782.25 153.449Z" fill="black"/>
<path d="M791.371 44.059L792.481 135.232C792.481 135.232 792.562 135.232 792.589 135.232C794.078 135.908 794.674 137.965 794.728 140.08H796L794.836 44.0002L791.371 44.059Z" fill="black"/>
</g>
<g clip-path="url(#clip7_119_7)">
<path d="M872.89 91.0851C869.48 84.3566 859.14 83.4163 849.828 88.999C840.49 94.5816 835.699 104.542 839.11 111.271C842.52 117.999 852.86 118.939 862.171 113.357C871.51 107.774 876.328 97.8136 872.89 91.0851ZM860.25 109.449C853.022 113.768 843.684 116.178 841.031 110.977C838.379 105.776 845.146 98.1956 852.4 93.847C859.627 89.5278 867.883 88.0293 870.535 93.23C873.188 98.4306 867.504 105.1 860.277 109.42L860.25 109.449Z" fill="black"/>
<path d="M869.371 0.0589676L870.481 91.232C870.481 91.232 870.562 91.232 870.589 91.232C872.078 91.9078 872.674 93.9646 872.728 96.0801H874L872.836 0.000205994L869.371 0.0589676Z" fill="black"/>
</g>
<g clip-path="url(#clip8_119_7)">
<path d="M379.89 1011.09C376.48 1004.36 366.14 1003.42 356.828 1009C347.49 1014.58 342.699 1024.54 346.11 1031.27C349.52 1038 359.86 1038.94 369.171 1033.36C378.51 1027.77 383.328 1017.81 379.89 1011.09ZM367.25 1029.45C360.022 1033.77 350.684 1036.18 348.031 1030.98C345.379 1025.78 352.146 1018.2 359.4 1013.85C366.627 1009.53 374.883 1008.03 377.535 1013.23C380.188 1018.43 374.504 1025.1 367.277 1029.42L367.25 1029.45Z" fill="black"/>
<path d="M376.371 920.059L377.481 1011.23C377.481 1011.23 377.562 1011.23 377.589 1011.23C379.078 1011.91 379.674 1013.96 379.728 1016.08H381L379.836 920L376.371 920.059Z" fill="black"/>
</g>
<g clip-path="url(#clip9_119_7)">
<path d="M966.89 1024.09C963.48 1017.36 953.14 1016.42 943.828 1022C934.49 1027.58 929.699 1037.54 933.11 1044.27C936.52 1051 946.86 1051.94 956.171 1046.36C965.51 1040.77 970.328 1030.81 966.89 1024.09ZM954.25 1042.45C947.022 1046.77 937.684 1049.18 935.031 1043.98C932.379 1038.78 939.146 1031.2 946.4 1026.85C953.627 1022.53 961.883 1021.03 964.535 1026.23C967.188 1031.43 961.504 1038.1 954.277 1042.42L954.25 1042.45Z" fill="black"/>
<path d="M963.371 933.059L964.481 1024.23C964.481 1024.23 964.562 1024.23 964.589 1024.23C966.078 1024.91 966.674 1026.96 966.728 1029.08H968L966.836 933L963.371 933.059Z" fill="black"/>
</g>
<g clip-path="url(#clip10_119_7)">
<path d="M890.89 982.085C887.48 975.357 877.14 974.416 867.828 979.999C858.49 985.582 853.699 995.542 857.11 1002.27C860.52 1009 870.86 1009.94 880.171 1004.36C889.51 998.774 894.328 988.814 890.89 982.085ZM878.25 1000.45C871.022 1004.77 861.684 1007.18 859.031 1001.98C856.379 996.776 863.146 989.196 870.4 984.847C877.627 980.528 885.883 979.029 888.535 984.23C891.188 989.431 885.504 996.1 878.277 1000.42L878.25 1000.45Z" fill="black"/>
<path d="M887.371 891.059L888.481 982.232C888.481 982.232 888.562 982.232 888.589 982.232C890.078 982.908 890.674 984.965 890.728 987.08H892L890.836 891L887.371 891.059Z" fill="black"/>
</g>
<g clip-path="url(#clip11_119_7)">
<path d="M132.312 100.886C127.266 98.1035 121.867 97.5708 116.68 99.1426C114.518 87.4561 112.492 76.5 110.97 68.1658C119.439 60.0461 125.362 54.2548 128.57 39.5336C132.895 19.6651 115.09 7.76871 115.09 7.76871L114.566 8.13105C113.812 8.6379 96.4941 21.1098 106.249 60.7501C106.315 61.1054 106.419 61.4537 106.504 61.8055C103.148 65.7132 99.2736 69.6963 94.8933 73.7117C74.3863 92.5919 66.8489 114.055 74.7402 131.154C80.7833 144.225 95.0375 151.409 110.108 149.05C110.382 149.04 116.061 148.745 122.805 146.641C125.359 162.052 127.003 172.854 127.057 173.15C127.087 173.308 130.268 188.379 116.423 194.166C108.777 197.356 101.007 196.363 95.2069 192.169C88.9526 187.65 89.4792 176.222 89.8845 178.413C91.0748 184.848 97.0647 189.11 103.257 187.965C109.448 186.819 113.514 180.678 112.328 174.262C111.269 168.537 106.388 164.519 100.951 164.525C94.7283 164.226 88.1955 168.109 87.2708 176.426C86.517 183.323 89.0174 189.598 94.1187 193.636C98.8722 197.391 105.094 198.752 111.495 197.568C113.363 197.222 115.247 196.649 117.113 195.875C120.495 194.453 122.915 192.516 124.705 190.367L124.674 190.414C132.677 181.911 130.223 171.728 130.223 171.728C130.223 171.728 128.196 160.874 125.376 145.736C125.414 145.729 125.433 145.726 125.471 145.719C135.977 141.795 142.47 135.143 144.231 126.447C146.266 116.353 141.382 105.823 132.343 100.839L132.312 100.886ZM108.465 54.195C106.618 43.1444 108.072 35.7708 108.54 33.8264C111.902 23.3437 117.691 17.2507 119.297 15.7082C120.809 18.4502 122.123 22.1474 122.343 26.7413C122.767 36.2788 118.277 47.0518 109.223 58.5055C108.876 56.6302 108.625 55.1658 108.465 54.195ZM122.386 144.166C120.367 145.071 118.276 145.804 116.175 146.377C112.559 147.066 110.027 147.228 109.909 147.229C102.615 147.741 95.6653 147.985 89.514 142.957C84.9392 139.21 81.331 133.017 79.6722 127.138C79.7513 127.246 79.804 127.318 79.804 127.318C74.2166 108.507 87.3456 93.0942 101.153 78.0459C103.774 75.1725 106.24 72.7361 108.528 70.5162C110.551 79.5335 112.576 89.6323 114.532 99.8869C111.188 101.302 107.97 103.612 105.034 106.809C104.919 106.932 93.7646 118.958 104.99 131.071C104.99 131.071 108.976 134.621 115.03 133.155C115.03 133.155 105.511 130.587 105.772 118.575C105.886 113.225 110.402 109.307 116.066 108.076C118.428 120.848 120.605 133.471 122.386 144.166ZM124.842 142.957C122.878 132.336 120.54 119.906 118.291 107.746C124.847 107.187 132.3 110.198 136.12 118.597C140.986 129.354 134.245 137.971 124.846 142.976L124.842 142.957Z" fill="black"/>
</g>
<g clip-path="url(#clip12_119_7)">
<path d="M132.312 976.885C127.266 974.103 121.867 973.57 116.68 975.142C114.518 963.456 112.492 952.499 110.97 944.165C119.439 936.046 125.362 930.254 128.57 915.533C132.895 895.665 115.09 883.768 115.09 883.768L114.566 884.131C113.812 884.637 96.4941 897.109 106.249 936.75C106.315 937.105 106.419 937.453 106.504 937.805C103.148 941.713 99.2736 945.696 94.8933 949.711C74.3863 968.591 66.8489 990.054 74.7402 1007.15C80.7833 1020.22 95.0375 1027.41 110.108 1025.05C110.382 1025.04 116.061 1024.74 122.805 1022.64C125.359 1038.05 127.003 1048.85 127.057 1049.15C127.087 1049.31 130.268 1064.38 116.423 1070.17C108.777 1073.36 101.007 1072.36 95.2069 1068.17C88.9526 1063.65 89.4792 1052.22 89.8845 1054.41C91.0748 1060.85 97.0647 1065.11 103.257 1063.96C109.448 1062.82 113.514 1056.68 112.328 1050.26C111.269 1044.54 106.388 1040.52 100.951 1040.52C94.7283 1040.23 88.1955 1044.11 87.2708 1052.43C86.517 1059.32 89.0174 1065.6 94.1187 1069.64C98.8722 1073.39 105.094 1074.75 111.495 1073.57C113.363 1073.22 115.247 1072.65 117.113 1071.87C120.495 1070.45 122.915 1068.52 124.705 1066.37L124.674 1066.41C132.677 1057.91 130.223 1047.73 130.223 1047.73C130.223 1047.73 128.196 1036.87 125.376 1021.74C125.414 1021.73 125.433 1021.73 125.471 1021.72C135.977 1017.79 142.47 1011.14 144.231 1002.45C146.266 992.352 141.382 981.823 132.343 976.839L132.312 976.885ZM108.465 930.195C106.618 919.144 108.072 911.77 108.54 909.826C111.902 899.343 117.691 893.25 119.297 891.708C120.809 894.45 122.123 898.147 122.343 902.741C122.767 912.278 118.277 923.051 109.223 934.505C108.876 932.63 108.625 931.165 108.465 930.195ZM122.386 1020.17C120.367 1021.07 118.276 1021.8 116.175 1022.38C112.559 1023.07 110.027 1023.23 109.909 1023.23C102.615 1023.74 95.6653 1023.98 89.514 1018.96C84.9392 1015.21 81.331 1009.02 79.6722 1003.14C79.7513 1003.25 79.804 1003.32 79.804 1003.32C74.2166 984.507 87.3456 969.094 101.153 954.045C103.774 951.172 106.24 948.736 108.528 946.516C110.551 955.533 112.576 965.632 114.532 975.886C111.188 977.301 107.97 979.611 105.034 982.808C104.919 982.932 93.7646 994.958 104.99 1007.07C104.99 1007.07 108.976 1010.62 115.03 1009.15C115.03 1009.15 105.511 1006.59 105.772 994.574C105.886 989.225 110.402 985.307 116.066 984.075C118.428 996.848 120.605 1009.47 122.386 1020.17ZM124.842 1018.96C122.878 1008.34 120.54 995.906 118.291 983.746C124.847 983.186 132.3 986.197 136.12 994.596C140.986 1005.35 134.245 1013.97 124.846 1018.98L124.842 1018.96Z" fill="black"/>
</g>
<g clip-path="url(#clip13_119_7)">
<path d="M515 41.0294L514.971 41.0591V40.9849L472.855 54.9066V64.0345V72.0936V76.5908V108.353C469.773 105.978 464.205 106.008 459.039 108.768C452.742 112.108 449.452 118.208 451.685 122.378C453.918 126.549 460.826 127.217 467.123 123.862C471.991 121.28 475.058 117.05 475.162 113.339H475.177V75.819L512.663 63.4408V95.1581C509.596 92.7834 504.014 92.813 498.848 95.5736C492.55 98.9131 489.26 105.013 491.479 109.184C493.712 113.354 500.619 114.022 506.917 110.668C511.785 108.085 514.837 103.855 514.956 100.145H514.971V41.0294H515ZM475.192 71.3367V63.2775L512.678 50.8845V58.9437L475.192 71.3219V71.3367Z" fill="black"/>
</g>
<g clip-path="url(#clip14_119_7)">
<path d="M1162 127.971L1162.03 127.941V128.015L1204.15 114.093V104.966V96.9064V92.4092V60.6474C1207.23 63.0221 1212.79 62.9924 1217.96 60.2318C1224.26 56.8924 1227.55 50.7923 1225.31 46.6217C1223.08 42.4511 1216.17 41.7833 1209.88 45.1376C1205.01 47.7201 1201.94 51.95 1201.84 55.6605H1201.82V93.181L1164.34 105.559V73.8419C1167.4 76.2166 1172.99 76.187 1178.15 73.4264C1184.45 70.0869 1187.74 63.9869 1185.52 59.8163C1183.29 55.6457 1176.38 54.9778 1170.08 58.3321C1165.22 60.9146 1162.16 65.1445 1162.04 68.855H1162.03V127.971H1162ZM1201.81 97.6633V105.722L1164.32 118.116V110.056L1201.81 97.6781V97.6633Z" fill="black"/>
</g>
<g clip-path="url(#clip15_119_7)">
<path d="M305 925.029L304.971 925.059V924.985L262.855 938.907V948.034V956.094V960.591V992.353C259.773 989.978 254.205 990.008 249.039 992.768C242.742 996.108 239.452 1002.21 241.685 1006.38C243.918 1010.55 250.826 1011.22 257.123 1007.86C261.991 1005.28 265.058 1001.05 265.162 997.339H265.177V959.819L302.663 947.441V979.158C299.596 976.783 294.014 976.813 288.848 979.574C282.55 982.913 279.26 989.013 281.479 993.184C283.712 997.354 290.619 998.022 296.917 994.668C301.785 992.085 304.837 987.855 304.956 984.145H304.971V925.029H305ZM265.192 955.337V947.278L302.678 934.884V942.944L265.192 955.322V955.337Z" fill="black"/>
</g>
<g clip-path="url(#clip16_119_7)">
<path d="M454 1038.95L454.031 1038.92L454.029 1039L496.42 1025.94L496.606 1016.81L496.771 1008.75L496.862 1004.26L497.51 972.503C500.542 974.94 506.109 975.024 511.331 972.369C517.695 969.159 521.108 963.127 518.961 958.912C516.813 954.697 509.92 953.888 503.556 957.113C498.636 959.596 495.484 963.763 495.304 967.47L495.289 967.47L494.525 1004.98L456.794 1016.59L457.441 984.884C460.458 987.32 466.04 987.404 471.262 984.75C477.626 981.539 481.039 975.508 478.907 971.293C476.759 967.077 469.866 966.269 463.502 969.494C458.582 971.977 455.445 976.144 455.25 979.851L455.235 979.851L454.03 1038.95L454 1038.95ZM494.418 1009.46L494.254 1017.52L456.523 1029.15L456.688 1021.09L494.418 1009.48L494.418 1009.46Z" fill="black"/>
</g>
<g clip-path="url(#clip17_119_7)">
<path d="M1153 1000.95L1153.03 1000.92L1153.03 1001L1195.42 987.938L1195.61 978.812L1195.77 970.754L1195.86 966.258L1196.51 934.503C1199.54 936.94 1205.11 937.024 1210.33 934.369C1216.69 931.158 1220.11 925.127 1217.96 920.912C1215.81 916.696 1208.92 915.888 1202.56 919.113C1197.64 921.596 1194.48 925.762 1194.3 929.47L1194.29 929.47L1193.52 966.982L1155.79 978.594L1156.44 946.883C1159.46 949.32 1165.04 949.404 1170.26 946.749C1176.63 943.539 1180.04 937.507 1177.91 933.292C1175.76 929.077 1168.87 928.268 1162.5 931.494C1157.58 933.976 1154.44 938.143 1154.25 941.851L1154.24 941.85L1153.03 1000.95L1153 1000.95ZM1193.42 971.463L1193.25 979.521L1155.52 991.147L1155.69 983.09L1193.42 971.478L1193.42 971.463Z" fill="black"/>
</g>
<g clip-path="url(#clip18_119_7)">
<path d="M589.007 148.137C592.139 153.14 587.504 160.438 578.667 164.445C569.829 168.451 560.1 167.65 556.968 162.647C553.835 157.644 558.47 150.346 567.308 146.339C576.145 142.333 585.849 143.134 588.981 148.137H589.007Z" fill="black"/>
<path d="M589.975 81H586.715V151.84H589.975V81Z" fill="black"/>
</g>
<g clip-path="url(#clip19_119_7)">
<path d="M589.007 1024.14C592.139 1029.14 587.504 1036.44 578.667 1040.44C569.829 1044.45 560.1 1043.65 556.968 1038.65C553.835 1033.64 558.47 1026.35 567.308 1022.34C576.145 1018.33 585.849 1019.13 588.981 1024.14H589.007Z" fill="black"/>
<path d="M589.975 957H586.715V1027.84H589.975V957Z" fill="black"/>
</g>
<g clip-path="url(#clip20_119_7)">
<path d="M1055.01 986.137C1058.14 991.14 1053.5 998.438 1044.67 1002.44C1035.83 1006.45 1026.1 1005.65 1022.97 1000.65C1019.84 995.644 1024.47 988.346 1033.31 984.339C1042.15 980.333 1051.85 981.134 1054.98 986.137H1055.01Z" fill="black"/>
<path d="M1055.97 919H1052.71V989.84H1055.97V919Z" fill="black"/>
</g>
<g clip-path="url(#clip21_119_7)">
<path d="M1055.01 952.137C1058.14 957.14 1053.5 964.438 1044.67 968.445C1035.83 972.451 1026.1 971.65 1022.97 966.647C1019.84 961.644 1024.47 954.346 1033.31 950.339C1042.15 946.333 1051.85 947.134 1054.98 952.137H1055.01Z" fill="black"/>
<path d="M1055.97 885H1052.71V955.84H1055.97V885Z" fill="black"/>
</g>
<g clip-path="url(#clip22_119_7)">
<path d="M686.007 114.137C689.139 119.14 684.504 126.438 675.667 130.445C666.829 134.451 657.1 133.65 653.968 128.647C650.835 123.644 655.47 116.346 664.308 112.339C673.145 108.333 682.849 109.134 685.981 114.137H686.007Z" fill="black"/>
<path d="M686.975 47H683.715V117.84H686.975V47Z" fill="black"/>
</g>
<g clip-path="url(#clip23_119_7)">
<path d="M686.007 990.137C689.139 995.14 684.504 1002.44 675.667 1006.44C666.829 1010.45 657.1 1009.65 653.968 1004.65C650.835 999.644 655.47 992.346 664.308 988.339C673.145 984.333 682.849 985.134 685.981 990.137H686.007Z" fill="black"/>
<path d="M686.975 923H683.715V993.84H686.975V923Z" fill="black"/>
</g>
<g clip-path="url(#clip24_119_7)">
<path d="M686.007 82.1369C689.139 87.1396 684.504 94.438 675.667 98.4446C666.829 102.451 657.1 101.65 653.968 96.6471C650.835 91.6443 655.47 84.3459 664.308 80.3393C673.145 76.3328 682.849 77.1341 685.981 82.1369H686.007Z" fill="black"/>
<path d="M686.975 15H683.715V85.8401H686.975V15Z" fill="black"/>
</g>
<g clip-path="url(#clip25_119_7)">
<path d="M686.007 958.137C689.139 963.14 684.504 970.438 675.667 974.445C666.829 978.451 657.1 977.65 653.968 972.647C650.835 967.644 655.47 960.346 664.308 956.339C673.145 952.333 682.849 953.134 685.981 958.137H686.007Z" fill="black"/>
<path d="M686.975 891H683.715V961.84H686.975V891Z" fill="black"/>
</g>
<defs>
<clipPath id="clip0_119_7">
<rect width="31" height="93" fill="white" transform="translate(173 86)"/>
</clipPath>
<clipPath id="clip1_119_7">
<rect width="31" height="93" fill="white" transform="translate(173 962)"/>
</clipPath>
<clipPath id="clip2_119_7">
<rect width="31" height="93" fill="white" transform="translate(173 917)"/>
</clipPath>
<clipPath id="clip3_119_7">
<rect width="36" height="117" fill="white" transform="translate(381 126) rotate(-180)"/>
</clipPath>
<clipPath id="clip4_119_7">
<rect width="36" height="117" fill="white" transform="translate(381 1002) rotate(-180)"/>
</clipPath>
<clipPath id="clip5_119_7">
<rect width="36" height="117" fill="white" transform="translate(381 161) rotate(-180)"/>
</clipPath>
<clipPath id="clip6_119_7">
<rect width="36" height="117" fill="white" transform="translate(796 161) rotate(-180)"/>
</clipPath>
<clipPath id="clip7_119_7">
<rect width="36" height="117" fill="white" transform="translate(874 117) rotate(-180)"/>
</clipPath>
<clipPath id="clip8_119_7">
<rect width="36" height="117" fill="white" transform="translate(381 1037) rotate(-180)"/>
</clipPath>
<clipPath id="clip9_119_7">
<rect width="36" height="117" fill="white" transform="translate(968 1050) rotate(-180)"/>
</clipPath>
<clipPath id="clip10_119_7">
<rect width="36" height="117" fill="white" transform="translate(892 1008) rotate(-180)"/>
</clipPath>
<clipPath id="clip11_119_7">
<rect width="72.8694" height="186" fill="white" transform="translate(53 19.2524) rotate(-10.4785)"/>
</clipPath>
<clipPath id="clip12_119_7">
<rect width="72.8694" height="186" fill="white" transform="translate(53 895.252) rotate(-10.4785)"/>
</clipPath>
<clipPath id="clip13_119_7">
<rect width="64" height="85" fill="white" transform="translate(451 41)"/>
</clipPath>
<clipPath id="clip14_119_7">
<rect width="64" height="85" fill="white" transform="translate(1226 128) rotate(180)"/>
</clipPath>
<clipPath id="clip15_119_7">
<rect width="64" height="85" fill="white" transform="translate(241 925)"/>
</clipPath>
<clipPath id="clip16_119_7">
<rect width="64" height="85" fill="white" transform="translate(517.987 1040.29) rotate(-178.832)"/>
</clipPath>
<clipPath id="clip17_119_7">
<rect width="64" height="85" fill="white" transform="translate(1216.99 1002.29) rotate(-178.832)"/>
</clipPath>
<clipPath id="clip18_119_7">
<rect width="34" height="86" fill="white" transform="translate(556 81)"/>
</clipPath>
<clipPath id="clip19_119_7">
<rect width="34" height="86" fill="white" transform="translate(556 957)"/>
</clipPath>
<clipPath id="clip20_119_7">
<rect width="34" height="86" fill="white" transform="translate(1022 919)"/>
</clipPath>
<clipPath id="clip21_119_7">
<rect width="34" height="86" fill="white" transform="translate(1022 885)"/>
</clipPath>
<clipPath id="clip22_119_7">
<rect width="34" height="86" fill="white" transform="translate(653 47)"/>
</clipPath>
<clipPath id="clip23_119_7">
<rect width="34" height="86" fill="white" transform="translate(653 923)"/>
</clipPath>
<clipPath id="clip24_119_7">
<rect width="34" height="86" fill="white" transform="translate(653 15)"/>
</clipPath>
<clipPath id="clip25_119_7">
<rect width="34" height="86" fill="white" transform="translate(653 891)"/>
</clipPath>
</defs>
</svg>
